<?xml version="1.0" encoding="UTF-8" standalone="no"?>
<!DOCTYPE svg PUBLIC "-//W3C//DTD SVG 1.1//EN"
 "http://www.w3.org/Graphics/SVG/1.1/DTD/svg11.dtd">
<!-- Generated by graphviz version 6.0.1 (20220911.1526)
 -->
<!-- Title: packages Pages: 1 -->
<svg width="606pt" height="404pt"
 viewBox="0.00 0.00 606.00 404.00" xmlns="http://www.w3.org/2000/svg" xmlns:xlink="http://www.w3.org/1999/xlink">
<g id="graph0" class="graph" transform="scale(1 1) rotate(0) translate(4 400)">
<title>packages</title>
<polygon fill="white" stroke="none" points="-4,4 -4,-400 602,-400 602,4 -4,4"/>
<!-- funman -->
<g id="node1" class="node">
<title>funman</title>
<polygon fill="none" stroke="black" points="84,-36 25,-36 25,0 84,0 84,-36"/>
<text text-anchor="middle" x="54.5" y="-14.3" font-family="Times,serif" font-size="14.00">funman</text>
</g>
<!-- funman._version -->
<g id="node2" class="node">
<title>funman._version</title>
<polygon fill="none" stroke="black" points="109,-108 0,-108 0,-72 109,-72 109,-108"/>
<text text-anchor="middle" x="54.5" y="-86.3" font-family="Times,serif" font-size="14.00">funman._version</text>
</g>
<!-- funman&#45;&gt;funman._version -->
<g id="edge1" class="edge">
<title>funman&#45;&gt;funman._version</title>
<path fill="none" stroke="#6ab0de" stroke-width="3" d="M54.5,-36.3C54.5,-44.02 54.5,-53.29 54.5,-61.89"/>
<polygon fill="#6ab0de" stroke="#6ab0de" stroke-width="3" points="54.5,-71.9 50,-61.9 53.5,-66.9 53.5,-61.9 54.5,-61.9 55.5,-61.9 55.5,-66.9 59,-61.9 54.5,-71.9 54.5,-71.9"/>
</g>
<!-- funman.config -->
<g id="node3" class="node">
<title>funman.config</title>
<polygon fill="none" stroke="black" points="317,-396 220,-396 220,-360 317,-360 317,-396"/>
<text text-anchor="middle" x="268.5" y="-374.3" font-family="Times,serif" font-size="14.00">funman.config</text>
</g>
<!-- funman.constants -->
<g id="node4" class="node">
<title>funman.constants</title>
<polygon fill="none" stroke="black" points="483,-396 370,-396 370,-360 483,-360 483,-396"/>
<text text-anchor="middle" x="426.5" y="-374.3" font-family="Times,serif" font-size="14.00">funman.constants</text>
</g>
<!-- funman.funman -->
<g id="node5" class="node">
<title>funman.funman</title>
<polygon fill="none" stroke="black" points="276.5,-36 172.5,-36 172.5,0 276.5,0 276.5,-36"/>
<text text-anchor="middle" x="224.5" y="-14.3" font-family="Times,serif" font-size="14.00">funman.funman</text>
</g>
<!-- funman.funman&#45;&gt;funman.config -->
<g id="edge2" class="edge">
<title>funman.funman&#45;&gt;funman.config</title>
<path fill="none" stroke="#6ab0de" stroke-width="3" d="M215.38,-36.39C202.5,-62.64 180.5,-114.29 180.5,-161 180.5,-161 180.5,-161 180.5,-235 180.5,-281.99 215.74,-326.37 241.62,-352.63"/>
<polygon fill="#6ab0de" stroke="#6ab0de" stroke-width="3" points="248.97,-359.86 238.69,-356.06 244.7,-357.07 241.14,-353.56 241.84,-352.85 242.54,-352.14 246.11,-355.64 245,-349.64 248.97,-359.86 248.97,-359.86"/>
</g>
<!-- funman.scenario -->
<g id="node8" class="node">
<title>funman.scenario</title>
<polygon fill="none" stroke="black" points="391,-108 284,-108 284,-72 391,-72 391,-108"/>
<text text-anchor="middle" x="337.5" y="-86.3" font-family="Times,serif" font-size="14.00">funman.scenario</text>
</g>
<!-- funman.funman&#45;&gt;funman.scenario -->
<g id="edge3" class="edge">
<title>funman.funman&#45;&gt;funman.scenario</title>
<path fill="none" stroke="#6ab0de" stroke-width="3" d="M252.14,-36.12C266.92,-45.28 285.29,-56.66 301.2,-66.52"/>
<polygon fill="#6ab0de" stroke="#6ab0de" stroke-width="3" points="309.75,-71.81 298.88,-70.37 304.97,-70.03 300.72,-67.39 301.25,-66.54 301.78,-65.69 306.03,-68.33 303.62,-62.72 309.75,-71.81 309.75,-71.81"/>
</g>
<!-- funman.model -->
<g id="node6" class="node">
<title>funman.model</title>
<polygon fill="none" stroke="black" points="598,-396 501,-396 501,-360 598,-360 598,-396"/>
<text text-anchor="middle" x="549.5" y="-374.3" font-family="Times,serif" font-size="14.00">funman.model</text>
</g>
<!-- funman.parameter_space -->
<g id="node7" class="node">
<title>funman.parameter_space</title>
<polygon fill="none" stroke="black" points="414.5,-180 260.5,-180 260.5,-144 414.5,-144 414.5,-180"/>
<text text-anchor="middle" x="337.5" y="-158.3" font-family="Times,serif" font-size="14.00">funman.parameter_space</text>
</g>
<!-- funman.search -->
<g id="node9" class="node">
<title>funman.search</title>
<polygon fill="none" stroke="black" points="491,-252 394,-252 394,-216 491,-216 491,-252"/>
<text text-anchor="middle" x="442.5" y="-230.3" font-family="Times,serif" font-size="14.00">funman.search</text>
</g>
<!-- funman.parameter_space&#45;&gt;funman.search -->
<g id="edge4" class="edge">
<title>funman.parameter_space&#45;&gt;funman.search</title>
<path fill="none" stroke="#6ab0de" stroke-width="3" d="M363.19,-180.12C376.79,-189.19 393.67,-200.45 408.36,-210.24"/>
<polygon fill="#6ab0de" stroke="#6ab0de" stroke-width="3" points="416.72,-215.81 405.9,-214.01 412,-213.87 407.84,-211.1 408.39,-210.26 408.95,-209.43 413.11,-212.2 410.89,-206.52 416.72,-215.81 416.72,-215.81"/>
</g>
<!-- funman.scenario&#45;&gt;funman.config -->
<g id="edge5" class="edge">
<title>funman.scenario&#45;&gt;funman.config</title>
<path fill="none" stroke="#6ab0de" stroke-width="3" d="M293.66,-108.02C277.77,-116.43 261.34,-128.23 251.5,-144 209.03,-212.08 216.51,-246.55 237.5,-324 240.08,-333.52 244.84,-343.08 249.88,-351.41"/>
<polygon fill="#6ab0de" stroke="#6ab0de" stroke-width="3" points="255.35,-359.91 246.15,-353.94 251.8,-356.25 249.1,-352.04 249.94,-351.5 250.78,-350.96 253.49,-355.16 253.72,-349.06 255.35,-359.91 255.35,-359.91"/>
</g>
<!-- funman.scenario&#45;&gt;funman.model -->
<g id="edge6" class="edge">
<title>funman.scenario&#45;&gt;funman.model</title>
<path fill="none" stroke="#6ab0de" stroke-width="3" d="M382.85,-108.03C402.98,-116.91 426.2,-129.05 444.5,-144 503.7,-192.34 515.6,-215.08 538.5,-288 544.83,-308.14 547.54,-331.92 548.69,-349.83"/>
<polygon fill="#6ab0de" stroke="#6ab0de" stroke-width="3" points="549.21,-359.88 544.2,-350.13 547.95,-354.94 547.69,-349.95 548.69,-349.9 549.69,-349.84 549.95,-354.84 553.18,-349.66 549.21,-359.88 549.21,-359.88"/>
</g>
<!-- funman.scenario&#45;&gt;funman.parameter_space -->
<g id="edge7" class="edge">
<title>funman.scenario&#45;&gt;funman.parameter_space</title>
<path fill="none" stroke="#6ab0de" stroke-width="3" d="M337.5,-108.3C337.5,-116.02 337.5,-125.29 337.5,-133.89"/>
<polygon fill="#6ab0de" stroke="#6ab0de" stroke-width="3" points="337.5,-143.9 333,-133.9 336.5,-138.9 336.5,-133.9 337.5,-133.9 338.5,-133.9 338.5,-138.9 342,-133.9 337.5,-143.9 337.5,-143.9"/>
</g>
<!-- funman.scenario&#45;&gt;funman.search -->
<g id="edge8" class="edge">
<title>funman.scenario&#45;&gt;funman.search</title>
<path fill="none" stroke="#6ab0de" stroke-width="3" d="M379.55,-108.14C395.57,-116.67 412.58,-128.52 423.5,-144 436.2,-162 440.7,-186.79 442.17,-205.64"/>
<polygon fill="#6ab0de" stroke="#6ab0de" stroke-width="3" points="442.71,-215.68 437.68,-205.94 441.44,-210.74 441.17,-205.75 442.17,-205.7 443.17,-205.64 443.44,-210.63 446.66,-205.45 442.71,-215.68 442.71,-215.68"/>
</g>
<!-- funman.search&#45;&gt;funman.model -->
<g id="edge9" class="edge">
<title>funman.search&#45;&gt;funman.model</title>
<path fill="none" stroke="#6ab0de" stroke-width="3" d="M473.84,-252.04C488.15,-261.14 504.35,-273.46 515.5,-288 529.59,-306.39 538.44,-331.3 543.57,-350.09"/>
<polygon fill="#6ab0de" stroke="#6ab0de" stroke-width="3" points="546.04,-359.82 539.21,-351.23 543.84,-355.22 542.61,-350.37 543.58,-350.12 544.55,-349.88 545.78,-354.72 547.94,-349.01 546.04,-359.82 546.04,-359.82"/>
</g>
<!-- funman.search_utils -->
<g id="node10" class="node">
<title>funman.search_utils</title>
<polygon fill="none" stroke="black" points="506,-324 379,-324 379,-288 506,-288 506,-324"/>
<text text-anchor="middle" x="442.5" y="-302.3" font-family="Times,serif" font-size="14.00">funman.search_utils</text>
</g>
<!-- funman.search&#45;&gt;funman.search_utils -->
<g id="edge10" class="edge">
<title>funman.search&#45;&gt;funman.search_utils</title>
<path fill="none" stroke="#6ab0de" stroke-width="3" d="M442.5,-252.3C442.5,-260.02 442.5,-269.29 442.5,-277.89"/>
<polygon fill="#6ab0de" stroke="#6ab0de" stroke-width="3" points="442.5,-287.9 438,-277.9 441.5,-282.9 441.5,-277.9 442.5,-277.9 443.5,-277.9 443.5,-282.9 447,-277.9 442.5,-287.9 442.5,-287.9"/>
</g>
<!-- funman.search_utils&#45;&gt;funman.config -->
<g id="edge11" class="edge">
<title>funman.search_utils&#45;&gt;funman.config</title>
<path fill="none" stroke="#6ab0de" stroke-width="3" d="M399.93,-324.12C375.94,-333.78 345.77,-345.91 320.4,-356.12"/>
<polygon fill="#6ab0de" stroke="#6ab0de" stroke-width="3" points="310.93,-359.93 318.52,-352.02 315.19,-357.14 319.83,-355.27 320.2,-356.2 320.58,-357.13 315.94,-358.99 321.88,-360.37 310.93,-359.93 310.93,-359.93"/>
</g>
<!-- funman.search_utils&#45;&gt;funman.constants -->
<g id="edge12" class="edge">
<title>funman.search_utils&#45;&gt;funman.constants</title>
<path fill="none" stroke="#6ab0de" stroke-width="3" d="M438.54,-324.3C436.78,-332.02 434.66,-341.29 432.7,-349.89"/>
<polygon fill="#6ab0de" stroke="#6ab0de" stroke-width="3" points="430.41,-359.9 428.25,-349.14 430.55,-354.8 431.66,-349.92 432.64,-350.15 433.61,-350.37 432.5,-355.24 437.02,-351.15 430.41,-359.9 430.41,-359.9"/>
</g>
<!-- funman.search_utils&#45;&gt;funman.model -->
<g id="edge13" class="edge">
<title>funman.search_utils&#45;&gt;funman.model</title>
<path fill="none" stroke="#6ab0de" stroke-width="3" d="M468.68,-324.12C482.54,-333.19 499.74,-344.45 514.71,-354.24"/>
<polygon fill="#6ab0de" stroke="#6ab0de" stroke-width="3" points="523.22,-359.81 512.39,-358.1 518.49,-357.91 514.31,-355.17 514.86,-354.34 515.4,-353.5 519.59,-356.24 517.32,-350.57 523.22,-359.81 523.22,-359.81"/>
</g>
<!-- funman.simulator -->
<g id="node11" class="node">
<title>funman.simulator</title>
<polygon fill="none" stroke="black" points="360.5,-324 246.5,-324 246.5,-288 360.5,-288 360.5,-324"/>
<text text-anchor="middle" x="303.5" y="-302.3" font-family="Times,serif" font-size="14.00">funman.simulator</text>
</g>
<!-- funman.simulator&#45;&gt;funman.config -->
<g id="edge14" class="edge">
<title>funman.simulator&#45;&gt;funman.config</title>
<path fill="none" stroke="#6ab0de" stroke-width="3" d="M294.85,-324.3C290.86,-332.27 286.05,-341.9 281.63,-350.74"/>
<polygon fill="#6ab0de" stroke="#6ab0de" stroke-width="3" points="277.05,-359.9 277.5,-348.94 278.39,-354.98 280.63,-350.5 281.52,-350.95 282.42,-351.4 280.18,-355.87 285.55,-352.96 277.05,-359.9 277.05,-359.9"/>
</g>
</g>
</svg>
