<?xml version="1.0" encoding="UTF-8" standalone="no"?>
<!DOCTYPE svg PUBLIC "-//W3C//DTD SVG 1.1//EN"
 "http://www.w3.org/Graphics/SVG/1.1/DTD/svg11.dtd">
<!-- Generated by graphviz version 2.43.0 (0)
 -->
<!-- Title: inheritance38b2a26f4e Pages: 1 -->
<svg width="370pt" height="192pt"
 viewBox="0.00 0.00 370.00 192.00" xmlns="http://www.w3.org/2000/svg" xmlns:xlink="http://www.w3.org/1999/xlink">
<g id="graph0" class="graph" transform="scale(1 1) rotate(0) translate(4 188)">
<title>inheritance38b2a26f4e</title>
<!-- DagWalker -->
<g id="node1" class="node">
<title>DagWalker</title>
<g id="a_node1"><a xlink:title="DagWalker treats the formula as a DAG and performs memoization of the">
<polygon fill="white" stroke="black" stroke-width="0.5" points="126.5,-129 57.5,-129 57.5,-110 126.5,-110 126.5,-129"/>
<text text-anchor="middle" x="92" y="-117" font-family="Vera Sans, DejaVu Sans, Liberation Sans, Arial, Helvetica, sans" font-size="10.00">DagWalker</text>
</a>
</g>
</g>
<!-- SmtDagPrinter -->
<g id="node4" class="node">
<title>SmtDagPrinter</title>
<polygon fill="white" stroke="black" stroke-width="0.5" points="132,-74 44,-74 44,-55 132,-55 132,-74"/>
<text text-anchor="middle" x="88" y="-62" font-family="Vera Sans, DejaVu Sans, Liberation Sans, Arial, Helvetica, sans" font-size="10.00">SmtDagPrinter</text>
</g>
<!-- DagWalker&#45;&gt;SmtDagPrinter -->
<g id="edge5" class="edge">
<title>DagWalker&#45;&gt;SmtDagPrinter</title>
<path fill="none" stroke="#6ab0de" stroke-width="3" d="M91.34,-109.75C90.71,-101.41 89.75,-88.74 89.03,-79.09"/>
<polygon fill="#6ab0de" stroke="#6ab0de" stroke-width="3" points="90.77,-78.94 88.65,-74.09 87.28,-79.21 90.77,-78.94"/>
</g>
<!-- Walker -->
<g id="node2" class="node">
<title>Walker</title>
<g id="a_node2"><a xlink:title="Base Abstract Walker class.">
<polygon fill="white" stroke="black" stroke-width="0.5" points="170,-184 116,-184 116,-165 170,-165 170,-184"/>
<text text-anchor="middle" x="143" y="-172" font-family="Vera Sans, DejaVu Sans, Liberation Sans, Arial, Helvetica, sans" font-size="10.00">Walker</text>
</a>
</g>
</g>
<!-- Walker&#45;&gt;DagWalker -->
<g id="edge1" class="edge">
<title>Walker&#45;&gt;DagWalker</title>
<path fill="none" stroke="#6ab0de" stroke-width="3" d="M134.58,-164.75C126.19,-156.03 113.23,-142.56 103.81,-132.77"/>
<polygon fill="#6ab0de" stroke="#6ab0de" stroke-width="3" points="104.99,-131.48 100.26,-129.09 102.47,-133.91 104.99,-131.48"/>
</g>
<!-- TreeWalker -->
<g id="node9" class="node">
<title>TreeWalker</title>
<g id="a_node9"><a xlink:title="TreeWalker treats the formula as a Tree and does not perform memoization.">
<polygon fill="white" stroke="black" stroke-width="0.5" points="222,-129 152,-129 152,-110 222,-110 222,-129"/>
<text text-anchor="middle" x="187" y="-117" font-family="Vera Sans, DejaVu Sans, Liberation Sans, Arial, Helvetica, sans" font-size="10.00">TreeWalker</text>
</a>
</g>
</g>
<!-- Walker&#45;&gt;TreeWalker -->
<g id="edge7" class="edge">
<title>Walker&#45;&gt;TreeWalker</title>
<path fill="none" stroke="#6ab0de" stroke-width="3" d="M150.27,-164.75C157.44,-156.1 168.49,-142.8 176.6,-133.03"/>
<polygon fill="#6ab0de" stroke="#6ab0de" stroke-width="3" points="178.02,-134.05 179.87,-129.09 175.33,-131.82 178.02,-134.05"/>
</g>
<!-- FUNMANSmtDagPrinter -->
<g id="node3" class="node">
<title>FUNMANSmtDagPrinter</title>
<g id="a_node3"><a xlink:href="../funman.utils.html#funman.utils.smtlib_utils.FUNMANSmtDagPrinter" xlink:title="FUNMANSmtDagPrinter" target="_top">
<polygon fill="white" stroke="black" stroke-width="0.5" points="132,-19 0,-19 0,0 132,0 132,-19"/>
<text text-anchor="middle" x="66" y="-7" font-family="Vera Sans, DejaVu Sans, Liberation Sans, Arial, Helvetica, sans" font-size="10.00">FUNMANSmtDagPrinter</text>
</a>
</g>
</g>
<!-- SmtDagPrinter&#45;&gt;FUNMANSmtDagPrinter -->
<g id="edge2" class="edge">
<title>SmtDagPrinter&#45;&gt;FUNMANSmtDagPrinter</title>
<path fill="none" stroke="#6ab0de" stroke-width="3" d="M84.37,-54.75C80.88,-46.34 75.55,-33.51 71.53,-23.83"/>
<polygon fill="#6ab0de" stroke="#6ab0de" stroke-width="3" points="73.1,-23.04 69.57,-19.09 69.87,-24.38 73.1,-23.04"/>
</g>
<!-- FUNMANSmtLibScript -->
<g id="node5" class="node">
<title>FUNMANSmtLibScript</title>
<g id="a_node5"><a xlink:href="../funman.utils.html#funman.utils.smtlib_utils.FUNMANSmtLibScript" xlink:title="FUNMANSmtLibScript" target="_top">
<polygon fill="white" stroke="black" stroke-width="0.5" points="362,-129 240,-129 240,-110 362,-110 362,-129"/>
<text text-anchor="middle" x="301" y="-117" font-family="Vera Sans, DejaVu Sans, Liberation Sans, Arial, Helvetica, sans" font-size="10.00">FUNMANSmtLibScript</text>
</a>
</g>
</g>
<!-- SmtLibScript -->
<g id="node6" class="node">
<title>SmtLibScript</title>
<polygon fill="white" stroke="black" stroke-width="0.5" points="340,-184 262,-184 262,-165 340,-165 340,-184"/>
<text text-anchor="middle" x="301" y="-172" font-family="Vera Sans, DejaVu Sans, Liberation Sans, Arial, Helvetica, sans" font-size="10.00">SmtLibScript</text>
</g>
<!-- SmtLibScript&#45;&gt;FUNMANSmtLibScript -->
<g id="edge3" class="edge">
<title>SmtLibScript&#45;&gt;FUNMANSmtLibScript</title>
<path fill="none" stroke="#6ab0de" stroke-width="3" d="M301,-164.75C301,-156.41 301,-143.74 301,-134.09"/>
<polygon fill="#6ab0de" stroke="#6ab0de" stroke-width="3" points="302.75,-134.09 301,-129.09 299.25,-134.09 302.75,-134.09"/>
</g>
<!-- FUNMANSmtPrinter -->
<g id="node7" class="node">
<title>FUNMANSmtPrinter</title>
<g id="a_node7"><a xlink:href="../funman.utils.html#funman.utils.smtlib_utils.FUNMANSmtPrinter" xlink:title="FUNMANSmtPrinter" target="_top">
<polygon fill="white" stroke="black" stroke-width="0.5" points="263.5,-19 150.5,-19 150.5,0 263.5,0 263.5,-19"/>
<text text-anchor="middle" x="207" y="-7" font-family="Vera Sans, DejaVu Sans, Liberation Sans, Arial, Helvetica, sans" font-size="10.00">FUNMANSmtPrinter</text>
</a>
</g>
</g>
<!-- SmtPrinter -->
<g id="node8" class="node">
<title>SmtPrinter</title>
<polygon fill="white" stroke="black" stroke-width="0.5" points="229,-74 161,-74 161,-55 229,-55 229,-74"/>
<text text-anchor="middle" x="195" y="-62" font-family="Vera Sans, DejaVu Sans, Liberation Sans, Arial, Helvetica, sans" font-size="10.00">SmtPrinter</text>
</g>
<!-- SmtPrinter&#45;&gt;FUNMANSmtPrinter -->
<g id="edge4" class="edge">
<title>SmtPrinter&#45;&gt;FUNMANSmtPrinter</title>
<path fill="none" stroke="#6ab0de" stroke-width="3" d="M196.98,-54.75C198.87,-46.41 201.74,-33.74 203.92,-24.09"/>
<polygon fill="#6ab0de" stroke="#6ab0de" stroke-width="3" points="205.66,-24.35 205.06,-19.09 202.24,-23.58 205.66,-24.35"/>
</g>
<!-- TreeWalker&#45;&gt;SmtPrinter -->
<g id="edge6" class="edge">
<title>TreeWalker&#45;&gt;SmtPrinter</title>
<path fill="none" stroke="#6ab0de" stroke-width="3" d="M188.32,-109.75C189.58,-101.41 191.49,-88.74 192.95,-79.09"/>
<polygon fill="#6ab0de" stroke="#6ab0de" stroke-width="3" points="194.69,-79.29 193.7,-74.09 191.23,-78.77 194.69,-79.29"/>
</g>
</g>
</svg>
