<?xml version="1.0" encoding="UTF-8" standalone="no"?>
<!DOCTYPE svg PUBLIC "-//W3C//DTD SVG 1.1//EN"
 "http://www.w3.org/Graphics/SVG/1.1/DTD/svg11.dtd">
<!-- Generated by graphviz version 2.43.0 (0)
 -->
<!-- Title: inheritance0b9db147ae Pages: 1 -->
<svg width="199pt" height="247pt"
 viewBox="0.00 0.00 199.00 247.00" xmlns="http://www.w3.org/2000/svg" xmlns:xlink="http://www.w3.org/1999/xlink">
<g id="graph0" class="graph" transform="scale(1 1) rotate(0) translate(4 243)">
<title>inheritance0b9db147ae</title>
<!-- ABC -->
<g id="node1" class="node">
<title>ABC</title>
<g id="a_node1"><a xlink:title="Helper class that provides a standard way to create an ABC using">
<polygon fill="white" stroke="black" stroke-width="0.5" points="61,-239 7,-239 7,-220 61,-220 61,-239"/>
<text text-anchor="middle" x="34" y="-227" font-family="Vera Sans, DejaVu Sans, Liberation Sans, Arial, Helvetica, sans" font-size="10.00">ABC</text>
</a>
</g>
</g>
<!-- Search -->
<g id="node5" class="node">
<title>Search</title>
<g id="a_node5"><a xlink:href="../funman.search.html#funman.search.search.Search" xlink:title="Search" target="_top">
<polygon fill="white" stroke="black" stroke-width="0.5" points="61,-184 7,-184 7,-165 61,-165 61,-184"/>
<text text-anchor="middle" x="34" y="-172" font-family="Vera Sans, DejaVu Sans, Liberation Sans, Arial, Helvetica, sans" font-size="10.00">Search</text>
</a>
</g>
</g>
<!-- ABC&#45;&gt;Search -->
<g id="edge5" class="edge">
<title>ABC&#45;&gt;Search</title>
<path fill="none" stroke="#6ab0de" stroke-width="3" d="M34,-219.75C34,-211.41 34,-198.74 34,-189.09"/>
<polygon fill="#6ab0de" stroke="#6ab0de" stroke-width="3" points="35.75,-189.09 34,-184.09 32.25,-189.09 35.75,-189.09"/>
</g>
<!-- BaseModel -->
<g id="node2" class="node">
<title>BaseModel</title>
<polygon fill="white" stroke="black" stroke-width="0.5" points="165.5,-184 94.5,-184 94.5,-165 165.5,-165 165.5,-184"/>
<text text-anchor="middle" x="130" y="-172" font-family="Vera Sans, DejaVu Sans, Liberation Sans, Arial, Helvetica, sans" font-size="10.00">BaseModel</text>
</g>
<!-- SearchEpisode -->
<g id="node7" class="node">
<title>SearchEpisode</title>
<g id="a_node7"><a xlink:href="../funman.search.html#funman.search.search.SearchEpisode" xlink:title="SearchEpisode" target="_top">
<polygon fill="white" stroke="black" stroke-width="0.5" points="174,-129 86,-129 86,-110 174,-110 174,-129"/>
<text text-anchor="middle" x="130" y="-117" font-family="Vera Sans, DejaVu Sans, Liberation Sans, Arial, Helvetica, sans" font-size="10.00">SearchEpisode</text>
</a>
</g>
</g>
<!-- BaseModel&#45;&gt;SearchEpisode -->
<g id="edge6" class="edge">
<title>BaseModel&#45;&gt;SearchEpisode</title>
<path fill="none" stroke="#6ab0de" stroke-width="3" d="M130,-164.75C130,-156.41 130,-143.74 130,-134.09"/>
<polygon fill="#6ab0de" stroke="#6ab0de" stroke-width="3" points="131.75,-134.09 130,-129.09 128.25,-134.09 131.75,-134.09"/>
</g>
<!-- Representation -->
<g id="node3" class="node">
<title>Representation</title>
<g id="a_node3"><a xlink:title="Mixin to provide __str__, __repr__, and __pretty__ methods. See #884 for more details.">
<polygon fill="white" stroke="black" stroke-width="0.5" points="175.5,-239 84.5,-239 84.5,-220 175.5,-220 175.5,-239"/>
<text text-anchor="middle" x="130" y="-227" font-family="Vera Sans, DejaVu Sans, Liberation Sans, Arial, Helvetica, sans" font-size="10.00">Representation</text>
</a>
</g>
</g>
<!-- Representation&#45;&gt;BaseModel -->
<g id="edge1" class="edge">
<title>Representation&#45;&gt;BaseModel</title>
<path fill="none" stroke="#6ab0de" stroke-width="3" d="M130,-219.75C130,-211.41 130,-198.74 130,-189.09"/>
<polygon fill="#6ab0de" stroke="#6ab0de" stroke-width="3" points="131.75,-189.09 130,-184.09 128.25,-189.09 131.75,-189.09"/>
</g>
<!-- BoxSearch -->
<g id="node4" class="node">
<title>BoxSearch</title>
<g id="a_node4"><a xlink:href="../funman.search.html#funman.search.box_search.BoxSearch" xlink:title="Box search algorithm." target="_top">
<polygon fill="white" stroke="black" stroke-width="0.5" points="68,-129 0,-129 0,-110 68,-110 68,-129"/>
<text text-anchor="middle" x="34" y="-117" font-family="Vera Sans, DejaVu Sans, Liberation Sans, Arial, Helvetica, sans" font-size="10.00">BoxSearch</text>
</a>
</g>
</g>
<!-- Search&#45;&gt;BoxSearch -->
<g id="edge2" class="edge">
<title>Search&#45;&gt;BoxSearch</title>
<path fill="none" stroke="#6ab0de" stroke-width="3" d="M34,-164.75C34,-156.41 34,-143.74 34,-134.09"/>
<polygon fill="#6ab0de" stroke="#6ab0de" stroke-width="3" points="35.75,-134.09 34,-129.09 32.25,-134.09 35.75,-134.09"/>
</g>
<!-- BoxSearchEpisode -->
<g id="node6" class="node">
<title>BoxSearchEpisode</title>
<g id="a_node6"><a xlink:href="../funman.search.html#funman.search.box_search.BoxSearchEpisode" xlink:title="A BoxSearchEpisode stores the data required to organize a BoxSearch, including intermediate data and results. It takes as input:" target="_top">
<polygon fill="white" stroke="black" stroke-width="0.5" points="183.5,-74 76.5,-74 76.5,-55 183.5,-55 183.5,-74"/>
<text text-anchor="middle" x="130" y="-62" font-family="Vera Sans, DejaVu Sans, Liberation Sans, Arial, Helvetica, sans" font-size="10.00">BoxSearchEpisode</text>
</a>
</g>
</g>
<!-- BoxSearchEpisodeMP -->
<g id="node8" class="node">
<title>BoxSearchEpisodeMP</title>
<g id="a_node8"><a xlink:href="../funman.search.html#funman.search.box_search.BoxSearchEpisodeMP" xlink:title="BoxSearchEpisodeMP" target="_top">
<polygon fill="white" stroke="black" stroke-width="0.5" points="191,-19 69,-19 69,0 191,0 191,-19"/>
<text text-anchor="middle" x="130" y="-7" font-family="Vera Sans, DejaVu Sans, Liberation Sans, Arial, Helvetica, sans" font-size="10.00">BoxSearchEpisodeMP</text>
</a>
</g>
</g>
<!-- BoxSearchEpisode&#45;&gt;BoxSearchEpisodeMP -->
<g id="edge4" class="edge">
<title>BoxSearchEpisode&#45;&gt;BoxSearchEpisodeMP</title>
<path fill="none" stroke="#6ab0de" stroke-width="3" d="M130,-54.75C130,-46.41 130,-33.74 130,-24.09"/>
<polygon fill="#6ab0de" stroke="#6ab0de" stroke-width="3" points="131.75,-24.09 130,-19.09 128.25,-24.09 131.75,-24.09"/>
</g>
<!-- SearchEpisode&#45;&gt;BoxSearchEpisode -->
<g id="edge3" class="edge">
<title>SearchEpisode&#45;&gt;BoxSearchEpisode</title>
<path fill="none" stroke="#6ab0de" stroke-width="3" d="M130,-109.75C130,-101.41 130,-88.74 130,-79.09"/>
<polygon fill="#6ab0de" stroke="#6ab0de" stroke-width="3" points="131.75,-79.09 130,-74.09 128.25,-79.09 131.75,-79.09"/>
</g>
</g>
</svg>
