<?xml version="1.0" encoding="UTF-8" standalone="no"?>
<!DOCTYPE svg PUBLIC "-//W3C//DTD SVG 1.1//EN"
 "http://www.w3.org/Graphics/SVG/1.1/DTD/svg11.dtd">
<!-- Generated by graphviz version 2.43.0 (0)
 -->
<!-- Title: inheritance88ed695793 Pages: 1 -->
<svg width="306pt" height="137pt"
 viewBox="0.00 0.00 305.50 137.00" xmlns="http://www.w3.org/2000/svg" xmlns:xlink="http://www.w3.org/1999/xlink">
<g id="graph0" class="graph" transform="scale(1 1) rotate(0) translate(4 133)">
<title>inheritance88ed695793</title>
<!-- ABC -->
<g id="node1" class="node">
<title>ABC</title>
<g id="a_node1"><a xlink:title="Helper class that provides a standard way to create an ABC using">
<polygon fill="white" stroke="black" stroke-width="0.5" points="201,-129 147,-129 147,-110 201,-110 201,-129"/>
<text text-anchor="middle" x="174" y="-117" font-family="Vera Sans, DejaVu Sans, Liberation Sans, Arial, Helvetica, sans" font-size="10.00">ABC</text>
</a>
</g>
</g>
<!-- AnalysisScenario -->
<g id="node2" class="node">
<title>AnalysisScenario</title>
<g id="a_node2"><a xlink:href="../funman.scenario.html#funman.scenario.scenario.AnalysisScenario" xlink:title="Abstract class for Analysis Scenarios." target="_top">
<polygon fill="white" stroke="black" stroke-width="0.5" points="100,-19 0,-19 0,0 100,0 100,-19"/>
<text text-anchor="middle" x="50" y="-7" font-family="Vera Sans, DejaVu Sans, Liberation Sans, Arial, Helvetica, sans" font-size="10.00">AnalysisScenario</text>
</a>
</g>
</g>
<!-- ABC&#45;&gt;AnalysisScenario -->
<g id="edge1" class="edge">
<title>ABC&#45;&gt;AnalysisScenario</title>
<path fill="none" stroke="#6ab0de" stroke-width="3" d="M163.85,-109.66C141.67,-90.34 88.85,-44.33 63.73,-22.45"/>
<polygon fill="#6ab0de" stroke="#6ab0de" stroke-width="3" points="64.86,-21.12 59.94,-19.16 62.56,-23.76 64.86,-21.12"/>
</g>
<!-- AnalysisScenarioResult -->
<g id="node4" class="node">
<title>AnalysisScenarioResult</title>
<g id="a_node4"><a xlink:href="../funman.scenario.html#funman.scenario.scenario.AnalysisScenarioResult" xlink:title="Abstract class for AnalysisScenario result data." target="_top">
<polygon fill="white" stroke="black" stroke-width="0.5" points="273.5,-74 142.5,-74 142.5,-55 273.5,-55 273.5,-74"/>
<text text-anchor="middle" x="208" y="-62" font-family="Vera Sans, DejaVu Sans, Liberation Sans, Arial, Helvetica, sans" font-size="10.00">AnalysisScenarioResult</text>
</a>
</g>
</g>
<!-- ABC&#45;&gt;AnalysisScenarioResult -->
<g id="edge3" class="edge">
<title>ABC&#45;&gt;AnalysisScenarioResult</title>
<path fill="none" stroke="#6ab0de" stroke-width="3" d="M179.61,-109.75C185.06,-101.26 193.39,-88.27 199.62,-78.56"/>
<polygon fill="#6ab0de" stroke="#6ab0de" stroke-width="3" points="201.26,-79.24 202.49,-74.09 198.32,-77.35 201.26,-79.24"/>
</g>
<!-- BaseModel -->
<g id="node3" class="node">
<title>BaseModel</title>
<polygon fill="white" stroke="black" stroke-width="0.5" points="85.5,-74 14.5,-74 14.5,-55 85.5,-55 85.5,-74"/>
<text text-anchor="middle" x="50" y="-62" font-family="Vera Sans, DejaVu Sans, Liberation Sans, Arial, Helvetica, sans" font-size="10.00">BaseModel</text>
</g>
<!-- BaseModel&#45;&gt;AnalysisScenario -->
<g id="edge2" class="edge">
<title>BaseModel&#45;&gt;AnalysisScenario</title>
<path fill="none" stroke="#6ab0de" stroke-width="3" d="M50,-54.75C50,-46.41 50,-33.74 50,-24.09"/>
<polygon fill="#6ab0de" stroke="#6ab0de" stroke-width="3" points="51.75,-24.09 50,-19.09 48.25,-24.09 51.75,-24.09"/>
</g>
<!-- AnalysisScenarioResultException -->
<g id="node5" class="node">
<title>AnalysisScenarioResultException</title>
<g id="a_node5"><a xlink:href="../funman.scenario.html#funman.scenario.scenario.AnalysisScenarioResultException" xlink:title="AnalysisScenarioResultException" target="_top">
<polygon fill="white" stroke="black" stroke-width="0.5" points="297.5,-19 118.5,-19 118.5,0 297.5,0 297.5,-19"/>
<text text-anchor="middle" x="208" y="-7" font-family="Vera Sans, DejaVu Sans, Liberation Sans, Arial, Helvetica, sans" font-size="10.00">AnalysisScenarioResultException</text>
</a>
</g>
</g>
<!-- BaseModel&#45;&gt;AnalysisScenarioResultException -->
<g id="edge4" class="edge">
<title>BaseModel&#45;&gt;AnalysisScenarioResultException</title>
<path fill="none" stroke="#6ab0de" stroke-width="3" d="M75.39,-54.98C103.18,-45.66 147.72,-30.72 177.42,-20.76"/>
<polygon fill="#6ab0de" stroke="#6ab0de" stroke-width="3" points="178.23,-22.33 182.42,-19.08 177.12,-19.01 178.23,-22.33"/>
</g>
<!-- AnalysisScenarioResult&#45;&gt;AnalysisScenarioResultException -->
<g id="edge5" class="edge">
<title>AnalysisScenarioResult&#45;&gt;AnalysisScenarioResultException</title>
<path fill="none" stroke="#6ab0de" stroke-width="3" d="M208,-54.75C208,-46.41 208,-33.74 208,-24.09"/>
<polygon fill="#6ab0de" stroke="#6ab0de" stroke-width="3" points="209.75,-24.09 208,-19.09 206.25,-24.09 209.75,-24.09"/>
</g>
<!-- Representation -->
<g id="node6" class="node">
<title>Representation</title>
<g id="a_node6"><a xlink:title="Mixin to provide __str__, __repr__, and __pretty__ methods. See #884 for more details.">
<polygon fill="white" stroke="black" stroke-width="0.5" points="95.5,-129 4.5,-129 4.5,-110 95.5,-110 95.5,-129"/>
<text text-anchor="middle" x="50" y="-117" font-family="Vera Sans, DejaVu Sans, Liberation Sans, Arial, Helvetica, sans" font-size="10.00">Representation</text>
</a>
</g>
</g>
<!-- Representation&#45;&gt;BaseModel -->
<g id="edge6" class="edge">
<title>Representation&#45;&gt;BaseModel</title>
<path fill="none" stroke="#6ab0de" stroke-width="3" d="M50,-109.75C50,-101.41 50,-88.74 50,-79.09"/>
<polygon fill="#6ab0de" stroke="#6ab0de" stroke-width="3" points="51.75,-79.09 50,-74.09 48.25,-79.09 51.75,-79.09"/>
</g>
</g>
</svg>
