<?xml version="1.0" encoding="UTF-8" standalone="no"?>
<!DOCTYPE svg PUBLIC "-//W3C//DTD SVG 1.1//EN"
 "http://www.w3.org/Graphics/SVG/1.1/DTD/svg11.dtd">
<!-- Generated by graphviz version 2.43.0 (0)
 -->
<!-- Title: inheritancee27757b91c Pages: 1 -->
<svg width="272pt" height="137pt"
 viewBox="0.00 0.00 272.00 137.00" xmlns="http://www.w3.org/2000/svg" xmlns:xlink="http://www.w3.org/1999/xlink">
<g id="graph0" class="graph" transform="scale(1 1) rotate(0) translate(4 133)">
<title>inheritancee27757b91c</title>
<!-- ABC -->
<g id="node1" class="node">
<title>ABC</title>
<g id="a_node1"><a xlink:title="Helper class that provides a standard way to create an ABC using">
<polygon fill="white" stroke="black" stroke-width="0.5" points="200.5,-129 146.5,-129 146.5,-110 200.5,-110 200.5,-129"/>
<text text-anchor="middle" x="173.5" y="-117" font-family="Vera Sans, DejaVu Sans, Liberation Sans, Arial, Helvetica, sans" font-size="10.00">ABC</text>
</a>
</g>
</g>
<!-- ResultHandler -->
<g id="node3" class="node">
<title>ResultHandler</title>
<g id="a_node3"><a xlink:href="../funman.utils.html#funman.utils.handlers.ResultHandler" xlink:title="The ResultHandler abstract class handles data produced by search processes." target="_top">
<polygon fill="white" stroke="black" stroke-width="0.5" points="168.5,-74 82.5,-74 82.5,-55 168.5,-55 168.5,-74"/>
<text text-anchor="middle" x="125.5" y="-62" font-family="Vera Sans, DejaVu Sans, Liberation Sans, Arial, Helvetica, sans" font-size="10.00">ResultHandler</text>
</a>
</g>
</g>
<!-- ABC&#45;&gt;ResultHandler -->
<g id="edge3" class="edge">
<title>ABC&#45;&gt;ResultHandler</title>
<path fill="none" stroke="#6ab0de" stroke-width="3" d="M165.57,-109.75C157.75,-101.1 145.69,-87.8 136.85,-78.03"/>
<polygon fill="#6ab0de" stroke="#6ab0de" stroke-width="3" points="137.93,-76.62 133.28,-74.09 135.34,-78.97 137.93,-76.62"/>
</g>
<!-- WaitAction -->
<g id="node5" class="node">
<title>WaitAction</title>
<g id="a_node5"><a xlink:href="../funman.utils.html#funman.utils.handlers.WaitAction" xlink:title="The WaitAction abstract class allows search processes to handle waiting for additional work." target="_top">
<polygon fill="white" stroke="black" stroke-width="0.5" points="256,-74 187,-74 187,-55 256,-55 256,-74"/>
<text text-anchor="middle" x="221.5" y="-62" font-family="Vera Sans, DejaVu Sans, Liberation Sans, Arial, Helvetica, sans" font-size="10.00">WaitAction</text>
</a>
</g>
</g>
<!-- ABC&#45;&gt;WaitAction -->
<g id="edge4" class="edge">
<title>ABC&#45;&gt;WaitAction</title>
<path fill="none" stroke="#6ab0de" stroke-width="3" d="M181.43,-109.75C189.25,-101.1 201.31,-87.8 210.15,-78.03"/>
<polygon fill="#6ab0de" stroke="#6ab0de" stroke-width="3" points="211.66,-78.97 213.72,-74.09 209.07,-76.62 211.66,-78.97"/>
</g>
<!-- NoopResultHandler -->
<g id="node2" class="node">
<title>NoopResultHandler</title>
<g id="a_node2"><a xlink:href="../funman.utils.html#funman.utils.handlers.NoopResultHandler" xlink:title="The NoopResultHandler is used in the absence of other handlers and performs no (i.e., noop) handling." target="_top">
<polygon fill="white" stroke="black" stroke-width="0.5" points="111,-19 0,-19 0,0 111,0 111,-19"/>
<text text-anchor="middle" x="55.5" y="-7" font-family="Vera Sans, DejaVu Sans, Liberation Sans, Arial, Helvetica, sans" font-size="10.00">NoopResultHandler</text>
</a>
</g>
</g>
<!-- ResultHandler&#45;&gt;NoopResultHandler -->
<g id="edge1" class="edge">
<title>ResultHandler&#45;&gt;NoopResultHandler</title>
<path fill="none" stroke="#6ab0de" stroke-width="3" d="M114.25,-54.98C102.59,-46.15 84.25,-32.27 71.17,-22.36"/>
<polygon fill="#6ab0de" stroke="#6ab0de" stroke-width="3" points="71.99,-20.79 66.95,-19.17 69.88,-23.58 71.99,-20.79"/>
</g>
<!-- ResultCombinedHandler -->
<g id="node4" class="node">
<title>ResultCombinedHandler</title>
<g id="a_node4"><a xlink:href="../funman.utils.html#funman.utils.handlers.ResultCombinedHandler" xlink:title="The ResultCombinedHandler combines multiple sub&#45;handlers by iteratively invoking the sub&#45;handler listener interfaces." target="_top">
<polygon fill="white" stroke="black" stroke-width="0.5" points="264,-19 129,-19 129,0 264,0 264,-19"/>
<text text-anchor="middle" x="196.5" y="-7" font-family="Vera Sans, DejaVu Sans, Liberation Sans, Arial, Helvetica, sans" font-size="10.00">ResultCombinedHandler</text>
</a>
</g>
</g>
<!-- ResultHandler&#45;&gt;ResultCombinedHandler -->
<g id="edge2" class="edge">
<title>ResultHandler&#45;&gt;ResultCombinedHandler</title>
<path fill="none" stroke="#6ab0de" stroke-width="3" d="M136.91,-54.98C148.74,-46.15 167.34,-32.27 180.61,-22.36"/>
<polygon fill="#6ab0de" stroke="#6ab0de" stroke-width="3" points="181.93,-23.56 184.89,-19.17 179.83,-20.76 181.93,-23.56"/>
</g>
</g>
</svg>
