<?xml version="1.0" encoding="UTF-8" standalone="no"?>
<!DOCTYPE svg PUBLIC "-//W3C//DTD SVG 1.1//EN"
 "http://www.w3.org/Graphics/SVG/1.1/DTD/svg11.dtd">
<!-- Generated by graphviz version 6.0.1 (20220911.1526)
 -->
<!-- Title: inheritance3312274d00 Pages: 1 -->
<svg width="314pt" height="82pt"
 viewBox="0.00 0.00 313.50 82.00" xmlns="http://www.w3.org/2000/svg" xmlns:xlink="http://www.w3.org/1999/xlink">
<g id="graph0" class="graph" transform="scale(1 1) rotate(0) translate(4 78)">
<title>inheritance3312274d00</title>
<!-- Box -->
<g id="node1" class="node">
<title>Box</title>
<g id="a_node1"><a xlink:href="../funman.html#funman.search_utils.Box" xlink:title="Box" target="_top">
<polygon fill="white" stroke="black" stroke-width="0.5" points="54,-74 0,-74 0,-55 54,-55 54,-74"/>
<text text-anchor="middle" x="27" y="-62" font-family="Vera Sans, DejaVu Sans, Liberation Sans, Arial, Helvetica, sans" font-size="10.00">Box</text>
</a>
</g>
</g>
<!-- Config -->
<g id="node2" class="node">
<title>Config</title>
<g id="a_node2"><a xlink:href="../funman.html#funman.config.Config" xlink:title="Config" target="_top">
<polygon fill="white" stroke="black" stroke-width="0.5" points="126,-74 72,-74 72,-55 126,-55 126,-74"/>
<text text-anchor="middle" x="99" y="-62" font-family="Vera Sans, DejaVu Sans, Liberation Sans, Arial, Helvetica, sans" font-size="10.00">Config</text>
</a>
</g>
</g>
<!-- SearchConfig -->
<g id="node4" class="node">
<title>SearchConfig</title>
<g id="a_node4"><a xlink:href="../funman.html#funman.search_utils.SearchConfig" xlink:title="SearchConfig" target="_top">
<polygon fill="white" stroke="black" stroke-width="0.5" points="137,-19 61,-19 61,0 137,0 137,-19"/>
<text text-anchor="middle" x="99" y="-7" font-family="Vera Sans, DejaVu Sans, Liberation Sans, Arial, Helvetica, sans" font-size="10.00">SearchConfig</text>
</a>
</g>
</g>
<!-- Config&#45;&gt;SearchConfig -->
<g id="edge1" class="edge">
<title>Config&#45;&gt;SearchConfig</title>
<path fill="none" stroke="#6ab0de" stroke-width="3" d="M99,-54.75C99,-46.41 99,-33.74 99,-24.09"/>
<polygon fill="#6ab0de" stroke="#6ab0de" stroke-width="3" points="100.75,-24.09 99,-19.09 97.25,-24.09 100.75,-24.09"/>
</g>
<!-- Interval -->
<g id="node3" class="node">
<title>Interval</title>
<g id="a_node3"><a xlink:href="../funman.html#funman.search_utils.Interval" xlink:title="Interval" target="_top">
<polygon fill="white" stroke="black" stroke-width="0.5" points="198,-74 144,-74 144,-55 198,-55 198,-74"/>
<text text-anchor="middle" x="171" y="-62" font-family="Vera Sans, DejaVu Sans, Liberation Sans, Arial, Helvetica, sans" font-size="10.00">Interval</text>
</a>
</g>
</g>
<!-- SearchStatistics -->
<g id="node5" class="node">
<title>SearchStatistics</title>
<g id="a_node5"><a xlink:href="../funman.html#funman.search_utils.SearchStatistics" xlink:title="SearchStatistics" target="_top">
<polygon fill="white" stroke="black" stroke-width="0.5" points="305.5,-74 216.5,-74 216.5,-55 305.5,-55 305.5,-74"/>
<text text-anchor="middle" x="261" y="-62" font-family="Vera Sans, DejaVu Sans, Liberation Sans, Arial, Helvetica, sans" font-size="10.00">SearchStatistics</text>
</a>
</g>
</g>
</g>
</svg>
