<?xml version="1.0" encoding="UTF-8" standalone="no"?>
<!DOCTYPE svg PUBLIC "-//W3C//DTD SVG 1.1//EN"
 "http://www.w3.org/Graphics/SVG/1.1/DTD/svg11.dtd">
<!-- Generated by graphviz version 2.43.0 (0)
 -->
<!-- Title: inheritancedee33790c1 Pages: 1 -->
<svg width="313pt" height="192pt"
 viewBox="0.00 0.00 312.50 192.00" xmlns="http://www.w3.org/2000/svg" xmlns:xlink="http://www.w3.org/1999/xlink">
<g id="graph0" class="graph" transform="scale(1 1) rotate(0) translate(4 188)">
<title>inheritancedee33790c1</title>
<!-- ABC -->
<g id="node1" class="node">
<title>ABC</title>
<g id="a_node1"><a xlink:title="Helper class that provides a standard way to create an ABC using">
<polygon fill="white" stroke="black" stroke-width="0.5" points="132,-184 78,-184 78,-165 132,-165 132,-184"/>
<text text-anchor="middle" x="105" y="-172" font-family="Vera Sans, DejaVu Sans, Liberation Sans, Arial, Helvetica, sans" font-size="10.00">ABC</text>
</a>
</g>
</g>
<!-- AnalysisScenario -->
<g id="node2" class="node">
<title>AnalysisScenario</title>
<g id="a_node2"><a xlink:href="../funman.scenario.html#funman.scenario.scenario.AnalysisScenario" xlink:title="Abstract class for Analysis Scenarios." target="_top">
<polygon fill="white" stroke="black" stroke-width="0.5" points="260,-74 160,-74 160,-55 260,-55 260,-74"/>
<text text-anchor="middle" x="210" y="-62" font-family="Vera Sans, DejaVu Sans, Liberation Sans, Arial, Helvetica, sans" font-size="10.00">AnalysisScenario</text>
</a>
</g>
</g>
<!-- ABC&#45;&gt;AnalysisScenario -->
<g id="edge1" class="edge">
<title>ABC&#45;&gt;AnalysisScenario</title>
<path fill="none" stroke="#6ab0de" stroke-width="3" d="M113.59,-164.66C132.22,-145.5 176.37,-100.09 197.85,-78"/>
<polygon fill="#6ab0de" stroke="#6ab0de" stroke-width="3" points="199.35,-78.96 201.58,-74.16 196.84,-76.52 199.35,-78.96"/>
</g>
<!-- AnalysisScenarioResult -->
<g id="node4" class="node">
<title>AnalysisScenarioResult</title>
<g id="a_node4"><a xlink:href="../funman.scenario.html#funman.scenario.scenario.AnalysisScenarioResult" xlink:title="Abstract class for AnalysisScenario result data." target="_top">
<polygon fill="white" stroke="black" stroke-width="0.5" points="136.5,-129 5.5,-129 5.5,-110 136.5,-110 136.5,-129"/>
<text text-anchor="middle" x="71" y="-117" font-family="Vera Sans, DejaVu Sans, Liberation Sans, Arial, Helvetica, sans" font-size="10.00">AnalysisScenarioResult</text>
</a>
</g>
</g>
<!-- ABC&#45;&gt;AnalysisScenarioResult -->
<g id="edge3" class="edge">
<title>ABC&#45;&gt;AnalysisScenarioResult</title>
<path fill="none" stroke="#6ab0de" stroke-width="3" d="M99.39,-164.75C93.94,-156.26 85.61,-143.27 79.38,-133.56"/>
<polygon fill="#6ab0de" stroke="#6ab0de" stroke-width="3" points="80.68,-132.35 76.51,-129.09 77.74,-134.24 80.68,-132.35"/>
</g>
<!-- SimulationScenario -->
<g id="node6" class="node">
<title>SimulationScenario</title>
<g id="a_node6"><a xlink:href="../funman.scenario.html#funman.scenario.simulation.SimulationScenario" xlink:title="SimulationScenario" target="_top">
<polygon fill="white" stroke="black" stroke-width="0.5" points="304.5,-19 193.5,-19 193.5,0 304.5,0 304.5,-19"/>
<text text-anchor="middle" x="249" y="-7" font-family="Vera Sans, DejaVu Sans, Liberation Sans, Arial, Helvetica, sans" font-size="10.00">SimulationScenario</text>
</a>
</g>
</g>
<!-- AnalysisScenario&#45;&gt;SimulationScenario -->
<g id="edge5" class="edge">
<title>AnalysisScenario&#45;&gt;SimulationScenario</title>
<path fill="none" stroke="#6ab0de" stroke-width="3" d="M216.44,-54.75C222.74,-46.18 232.42,-33.03 239.58,-23.3"/>
<polygon fill="#6ab0de" stroke="#6ab0de" stroke-width="3" points="241.13,-24.15 242.68,-19.09 238.31,-22.08 241.13,-24.15"/>
</g>
<!-- BaseModel -->
<g id="node3" class="node">
<title>BaseModel</title>
<polygon fill="white" stroke="black" stroke-width="0.5" points="264.5,-129 193.5,-129 193.5,-110 264.5,-110 264.5,-129"/>
<text text-anchor="middle" x="229" y="-117" font-family="Vera Sans, DejaVu Sans, Liberation Sans, Arial, Helvetica, sans" font-size="10.00">BaseModel</text>
</g>
<!-- BaseModel&#45;&gt;AnalysisScenario -->
<g id="edge2" class="edge">
<title>BaseModel&#45;&gt;AnalysisScenario</title>
<path fill="none" stroke="#6ab0de" stroke-width="3" d="M225.86,-109.75C222.85,-101.34 218.25,-88.51 214.78,-78.83"/>
<polygon fill="#6ab0de" stroke="#6ab0de" stroke-width="3" points="216.41,-78.21 213.08,-74.09 213.12,-79.39 216.41,-78.21"/>
</g>
<!-- BaseModel&#45;&gt;SimulationScenario -->
<g id="edge6" class="edge">
<title>BaseModel&#45;&gt;SimulationScenario</title>
<path fill="none" stroke="#6ab0de" stroke-width="3" d="M240.64,-109.73C250.31,-101.67 263.35,-88.74 269,-74 275.56,-56.89 266.32,-36.62 258.34,-23.67"/>
<polygon fill="#6ab0de" stroke="#6ab0de" stroke-width="3" points="259.67,-22.5 255.49,-19.24 256.73,-24.39 259.67,-22.5"/>
</g>
<!-- SimulationScenarioResult -->
<g id="node7" class="node">
<title>SimulationScenarioResult</title>
<g id="a_node7"><a xlink:href="../funman.scenario.html#funman.scenario.simulation.SimulationScenarioResult" xlink:title="SimulationScenarioResult" target="_top">
<polygon fill="white" stroke="black" stroke-width="0.5" points="142,-74 0,-74 0,-55 142,-55 142,-74"/>
<text text-anchor="middle" x="71" y="-62" font-family="Vera Sans, DejaVu Sans, Liberation Sans, Arial, Helvetica, sans" font-size="10.00">SimulationScenarioResult</text>
</a>
</g>
</g>
<!-- BaseModel&#45;&gt;SimulationScenarioResult -->
<g id="edge8" class="edge">
<title>BaseModel&#45;&gt;SimulationScenarioResult</title>
<path fill="none" stroke="#6ab0de" stroke-width="3" d="M203.61,-109.98C175.82,-100.66 131.28,-85.72 101.58,-75.76"/>
<polygon fill="#6ab0de" stroke="#6ab0de" stroke-width="3" points="101.88,-74.01 96.58,-74.08 100.77,-77.33 101.88,-74.01"/>
</g>
<!-- AnalysisScenarioResult&#45;&gt;SimulationScenarioResult -->
<g id="edge7" class="edge">
<title>AnalysisScenarioResult&#45;&gt;SimulationScenarioResult</title>
<path fill="none" stroke="#6ab0de" stroke-width="3" d="M71,-109.75C71,-101.41 71,-88.74 71,-79.09"/>
<polygon fill="#6ab0de" stroke="#6ab0de" stroke-width="3" points="72.75,-79.09 71,-74.09 69.25,-79.09 72.75,-79.09"/>
</g>
<!-- Representation -->
<g id="node5" class="node">
<title>Representation</title>
<g id="a_node5"><a xlink:title="Mixin to provide __str__, __repr__, and __pretty__ methods. See #884 for more details.">
<polygon fill="white" stroke="black" stroke-width="0.5" points="274.5,-184 183.5,-184 183.5,-165 274.5,-165 274.5,-184"/>
<text text-anchor="middle" x="229" y="-172" font-family="Vera Sans, DejaVu Sans, Liberation Sans, Arial, Helvetica, sans" font-size="10.00">Representation</text>
</a>
</g>
</g>
<!-- Representation&#45;&gt;BaseModel -->
<g id="edge4" class="edge">
<title>Representation&#45;&gt;BaseModel</title>
<path fill="none" stroke="#6ab0de" stroke-width="3" d="M229,-164.75C229,-156.41 229,-143.74 229,-134.09"/>
<polygon fill="#6ab0de" stroke="#6ab0de" stroke-width="3" points="230.75,-134.09 229,-129.09 227.25,-134.09 230.75,-134.09"/>
</g>
</g>
</svg>
