<?xml version="1.0" encoding="UTF-8" standalone="no"?>
<!DOCTYPE svg PUBLIC "-//W3C//DTD SVG 1.1//EN"
 "http://www.w3.org/Graphics/SVG/1.1/DTD/svg11.dtd">
<!-- Generated by graphviz version 2.43.0 (0)
 -->
<!-- Title: inheritance6219dd65fa Pages: 1 -->
<svg width="851pt" height="192pt"
 viewBox="0.00 0.00 850.50 192.00" xmlns="http://www.w3.org/2000/svg" xmlns:xlink="http://www.w3.org/1999/xlink">
<g id="graph0" class="graph" transform="scale(1 1) rotate(0) translate(4 188)">
<title>inheritance6219dd65fa</title>
<!-- ABC -->
<g id="node1" class="node">
<title>ABC</title>
<g id="a_node1"><a xlink:title="Helper class that provides a standard way to create an ABC using">
<polygon fill="white" stroke="black" stroke-width="0.5" points="280.5,-129 226.5,-129 226.5,-110 280.5,-110 280.5,-129"/>
<text text-anchor="middle" x="253.5" y="-117" font-family="Vera Sans, DejaVu Sans, Liberation Sans, Arial, Helvetica, sans" font-size="10.00">ABC</text>
</a>
</g>
</g>
<!-- BilayerGraph -->
<g id="node5" class="node">
<title>BilayerGraph</title>
<g id="a_node5"><a xlink:href="../funman.model.html#funman.model.bilayer.BilayerGraph" xlink:title="Abstract representation of a Bilayer graph." target="_top">
<polygon fill="white" stroke="black" stroke-width="0.5" points="317.5,-74 237.5,-74 237.5,-55 317.5,-55 317.5,-74"/>
<text text-anchor="middle" x="277.5" y="-62" font-family="Vera Sans, DejaVu Sans, Liberation Sans, Arial, Helvetica, sans" font-size="10.00">BilayerGraph</text>
</a>
</g>
</g>
<!-- ABC&#45;&gt;BilayerGraph -->
<g id="edge5" class="edge">
<title>ABC&#45;&gt;BilayerGraph</title>
<path fill="none" stroke="#6ab0de" stroke-width="3" d="M257.46,-109.75C261.27,-101.34 267.08,-88.51 271.47,-78.83"/>
<polygon fill="#6ab0de" stroke="#6ab0de" stroke-width="3" points="273.14,-79.37 273.61,-74.09 269.95,-77.92 273.14,-79.37"/>
</g>
<!-- Model -->
<g id="node12" class="node">
<title>Model</title>
<g id="a_node12"><a xlink:href="../funman.model.html#funman.model.model.Model" xlink:title="The abstract base class for Models." target="_top">
<polygon fill="white" stroke="black" stroke-width="0.5" points="219.5,-74 165.5,-74 165.5,-55 219.5,-55 219.5,-74"/>
<text text-anchor="middle" x="192.5" y="-62" font-family="Vera Sans, DejaVu Sans, Liberation Sans, Arial, Helvetica, sans" font-size="10.00">Model</text>
</a>
</g>
</g>
<!-- ABC&#45;&gt;Model -->
<g id="edge15" class="edge">
<title>ABC&#45;&gt;Model</title>
<path fill="none" stroke="#6ab0de" stroke-width="3" d="M243.7,-109.98C233.62,-101.23 217.83,-87.51 206.45,-77.62"/>
<polygon fill="#6ab0de" stroke="#6ab0de" stroke-width="3" points="207.4,-76.13 202.48,-74.17 205.11,-78.77 207.4,-76.13"/>
</g>
<!-- BaseModel -->
<g id="node2" class="node">
<title>BaseModel</title>
<polygon fill="white" stroke="black" stroke-width="0.5" points="407,-129 336,-129 336,-110 407,-110 407,-129"/>
<text text-anchor="middle" x="371.5" y="-117" font-family="Vera Sans, DejaVu Sans, Liberation Sans, Arial, Helvetica, sans" font-size="10.00">BaseModel</text>
</g>
<!-- BaseModel&#45;&gt;BilayerGraph -->
<g id="edge6" class="edge">
<title>BaseModel&#45;&gt;BilayerGraph</title>
<path fill="none" stroke="#6ab0de" stroke-width="3" d="M356.4,-109.98C340.46,-101 315.25,-86.79 297.63,-76.85"/>
<polygon fill="#6ab0de" stroke="#6ab0de" stroke-width="3" points="298.09,-75.1 292.88,-74.17 296.37,-78.15 298.09,-75.1"/>
</g>
<!-- BilayerEdge -->
<g id="node6" class="node">
<title>BilayerEdge</title>
<g id="a_node6"><a xlink:href="../funman.model.html#funman.model.bilayer.BilayerEdge" xlink:title="BilayerEdge" target="_top">
<polygon fill="white" stroke="black" stroke-width="0.5" points="452,-74 377,-74 377,-55 452,-55 452,-74"/>
<text text-anchor="middle" x="414.5" y="-62" font-family="Vera Sans, DejaVu Sans, Liberation Sans, Arial, Helvetica, sans" font-size="10.00">BilayerEdge</text>
</a>
</g>
</g>
<!-- BaseModel&#45;&gt;BilayerEdge -->
<g id="edge3" class="edge">
<title>BaseModel&#45;&gt;BilayerEdge</title>
<path fill="none" stroke="#6ab0de" stroke-width="3" d="M378.6,-109.75C385.61,-101.1 396.41,-87.8 404.33,-78.03"/>
<polygon fill="#6ab0de" stroke="#6ab0de" stroke-width="3" points="405.74,-79.07 407.53,-74.09 403.02,-76.87 405.74,-79.07"/>
</g>
<!-- BilayerNode -->
<g id="node8" class="node">
<title>BilayerNode</title>
<g id="a_node8"><a xlink:href="../funman.model.html#funman.model.bilayer.BilayerNode" xlink:title="Node in a BilayerGraph." target="_top">
<polygon fill="white" stroke="black" stroke-width="0.5" points="630,-74 553,-74 553,-55 630,-55 630,-74"/>
<text text-anchor="middle" x="591.5" y="-62" font-family="Vera Sans, DejaVu Sans, Liberation Sans, Arial, Helvetica, sans" font-size="10.00">BilayerNode</text>
</a>
</g>
</g>
<!-- BaseModel&#45;&gt;BilayerNode -->
<g id="edge12" class="edge">
<title>BaseModel&#45;&gt;BilayerNode</title>
<path fill="none" stroke="#6ab0de" stroke-width="3" d="M406.85,-109.98C446.18,-100.51 509.63,-85.22 550.95,-75.27"/>
<polygon fill="#6ab0de" stroke="#6ab0de" stroke-width="3" points="551.43,-76.95 555.88,-74.08 550.61,-73.55 551.43,-76.95"/>
</g>
<!-- BilayerMeasurement -->
<g id="node9" class="node">
<title>BilayerMeasurement</title>
<g id="a_node9"><a xlink:href="../funman.model.html#funman.model.bilayer.BilayerMeasurement" xlink:title="The BilayerMeasurement class represents measurements taken on the BilayerNode state nodes of a BilayerDynamics object. &#160;The graph consists of:" target="_top">
<polygon fill="white" stroke="black" stroke-width="0.5" points="337,-19 218,-19 218,0 337,0 337,-19"/>
<text text-anchor="middle" x="277.5" y="-7" font-family="Vera Sans, DejaVu Sans, Liberation Sans, Arial, Helvetica, sans" font-size="10.00">BilayerMeasurement</text>
</a>
</g>
</g>
<!-- BaseModel&#45;&gt;BilayerMeasurement -->
<g id="edge8" class="edge">
<title>BaseModel&#45;&gt;BilayerMeasurement</title>
<path fill="none" stroke="#6ab0de" stroke-width="3" d="M366.22,-109.85C358.32,-97.2 342.63,-73.2 326.5,-55 315.87,-43 302.28,-30.87 292.11,-22.31"/>
<polygon fill="#6ab0de" stroke="#6ab0de" stroke-width="3" points="293.21,-20.95 288.25,-19.1 290.97,-23.64 293.21,-20.95"/>
</g>
<!-- BilayerMetadata -->
<g id="node10" class="node">
<title>BilayerMetadata</title>
<g id="a_node10"><a xlink:href="../funman.model.html#funman.model.bilayer.BilayerMetadata" xlink:title="Metadata for a BilayerNode" target="_top">
<polygon fill="white" stroke="black" stroke-width="0.5" points="746.5,-74 648.5,-74 648.5,-55 746.5,-55 746.5,-74"/>
<text text-anchor="middle" x="697.5" y="-62" font-family="Vera Sans, DejaVu Sans, Liberation Sans, Arial, Helvetica, sans" font-size="10.00">BilayerMetadata</text>
</a>
</g>
</g>
<!-- BaseModel&#45;&gt;BilayerMetadata -->
<g id="edge9" class="edge">
<title>BaseModel&#45;&gt;BilayerMetadata</title>
<path fill="none" stroke="#6ab0de" stroke-width="3" d="M407.01,-112.73C463.94,-103.47 576.05,-85.24 643.12,-74.34"/>
<polygon fill="#6ab0de" stroke="#6ab0de" stroke-width="3" points="643.62,-76.03 648.27,-73.5 643.06,-72.58 643.62,-76.03"/>
</g>
<!-- BaseModel&#45;&gt;Model -->
<g id="edge16" class="edge">
<title>BaseModel&#45;&gt;Model</title>
<path fill="none" stroke="#6ab0de" stroke-width="3" d="M342.74,-109.98C310.43,-100.42 258.13,-84.93 224.54,-74.99"/>
<polygon fill="#6ab0de" stroke="#6ab0de" stroke-width="3" points="225.01,-73.3 219.72,-73.56 224.02,-76.66 225.01,-73.3"/>
</g>
<!-- Representation -->
<g id="node3" class="node">
<title>Representation</title>
<g id="a_node3"><a xlink:title="Mixin to provide __str__, __repr__, and __pretty__ methods. See #884 for more details.">
<polygon fill="white" stroke="black" stroke-width="0.5" points="417,-184 326,-184 326,-165 417,-165 417,-184"/>
<text text-anchor="middle" x="371.5" y="-172" font-family="Vera Sans, DejaVu Sans, Liberation Sans, Arial, Helvetica, sans" font-size="10.00">Representation</text>
</a>
</g>
</g>
<!-- Representation&#45;&gt;BaseModel -->
<g id="edge1" class="edge">
<title>Representation&#45;&gt;BaseModel</title>
<path fill="none" stroke="#6ab0de" stroke-width="3" d="M371.5,-164.75C371.5,-156.41 371.5,-143.74 371.5,-134.09"/>
<polygon fill="#6ab0de" stroke="#6ab0de" stroke-width="3" points="373.25,-134.09 371.5,-129.09 369.75,-134.09 373.25,-134.09"/>
</g>
<!-- BilayerDynamics -->
<g id="node4" class="node">
<title>BilayerDynamics</title>
<g id="a_node4"><a xlink:href="../funman.model.html#funman.model.bilayer.BilayerDynamics" xlink:title="The BilayerDynamics class represents a state update (dynamics) model for a set of variables. &#160;The graph consists of:" target="_top">
<polygon fill="white" stroke="black" stroke-width="0.5" points="199.5,-19 99.5,-19 99.5,0 199.5,0 199.5,-19"/>
<text text-anchor="middle" x="149.5" y="-7" font-family="Vera Sans, DejaVu Sans, Liberation Sans, Arial, Helvetica, sans" font-size="10.00">BilayerDynamics</text>
</a>
</g>
</g>
<!-- BilayerGraph&#45;&gt;BilayerDynamics -->
<g id="edge2" class="edge">
<title>BilayerGraph&#45;&gt;BilayerDynamics</title>
<path fill="none" stroke="#6ab0de" stroke-width="3" d="M256.93,-54.98C234.67,-45.77 199.14,-31.05 175.09,-21.1"/>
<polygon fill="#6ab0de" stroke="#6ab0de" stroke-width="3" points="175.73,-19.47 170.44,-19.17 174.39,-22.7 175.73,-19.47"/>
</g>
<!-- BilayerGraph&#45;&gt;BilayerMeasurement -->
<g id="edge7" class="edge">
<title>BilayerGraph&#45;&gt;BilayerMeasurement</title>
<path fill="none" stroke="#6ab0de" stroke-width="3" d="M277.5,-54.75C277.5,-46.41 277.5,-33.74 277.5,-24.09"/>
<polygon fill="#6ab0de" stroke="#6ab0de" stroke-width="3" points="279.25,-24.09 277.5,-19.09 275.75,-24.09 279.25,-24.09"/>
</g>
<!-- BilayerNegativeEdge -->
<g id="node13" class="node">
<title>BilayerNegativeEdge</title>
<g id="a_node13"><a xlink:href="../funman.model.html#funman.model.bilayer.BilayerNegativeEdge" xlink:title="Class representing a positive influence between a FluxNode and a StateNode." target="_top">
<polygon fill="white" stroke="black" stroke-width="0.5" points="474,-19 355,-19 355,0 474,0 474,-19"/>
<text text-anchor="middle" x="414.5" y="-7" font-family="Vera Sans, DejaVu Sans, Liberation Sans, Arial, Helvetica, sans" font-size="10.00">BilayerNegativeEdge</text>
</a>
</g>
</g>
<!-- BilayerEdge&#45;&gt;BilayerNegativeEdge -->
<g id="edge11" class="edge">
<title>BilayerEdge&#45;&gt;BilayerNegativeEdge</title>
<path fill="none" stroke="#6ab0de" stroke-width="3" d="M414.5,-54.75C414.5,-46.41 414.5,-33.74 414.5,-24.09"/>
<polygon fill="#6ab0de" stroke="#6ab0de" stroke-width="3" points="416.25,-24.09 414.5,-19.09 412.75,-24.09 416.25,-24.09"/>
</g>
<!-- BilayerPositiveEdge -->
<g id="node14" class="node">
<title>BilayerPositiveEdge</title>
<g id="a_node14"><a xlink:href="../funman.model.html#funman.model.bilayer.BilayerPositiveEdge" xlink:title="Class representing a positive influence between a FluxNode and a StateNode." target="_top">
<polygon fill="white" stroke="black" stroke-width="0.5" points="606.5,-19 492.5,-19 492.5,0 606.5,0 606.5,-19"/>
<text text-anchor="middle" x="549.5" y="-7" font-family="Vera Sans, DejaVu Sans, Liberation Sans, Arial, Helvetica, sans" font-size="10.00">BilayerPositiveEdge</text>
</a>
</g>
</g>
<!-- BilayerEdge&#45;&gt;BilayerPositiveEdge -->
<g id="edge13" class="edge">
<title>BilayerEdge&#45;&gt;BilayerPositiveEdge</title>
<path fill="none" stroke="#6ab0de" stroke-width="3" d="M436.19,-54.98C459.67,-45.77 497.15,-31.05 522.51,-21.1"/>
<polygon fill="#6ab0de" stroke="#6ab0de" stroke-width="3" points="523.4,-22.63 527.42,-19.17 522.12,-19.37 523.4,-22.63"/>
</g>
<!-- BilayerFluxNode -->
<g id="node7" class="node">
<title>BilayerFluxNode</title>
<g id="a_node7"><a xlink:href="../funman.model.html#funman.model.bilayer.BilayerFluxNode" xlink:title="BilayerNode representing a flux." target="_top">
<polygon fill="white" stroke="black" stroke-width="0.5" points="842.5,-19 744.5,-19 744.5,0 842.5,0 842.5,-19"/>
<text text-anchor="middle" x="793.5" y="-7" font-family="Vera Sans, DejaVu Sans, Liberation Sans, Arial, Helvetica, sans" font-size="10.00">BilayerFluxNode</text>
</a>
</g>
</g>
<!-- BilayerNode&#45;&gt;BilayerFluxNode -->
<g id="edge4" class="edge">
<title>BilayerNode&#45;&gt;BilayerFluxNode</title>
<path fill="none" stroke="#6ab0de" stroke-width="3" d="M623.95,-54.98C659.92,-45.55 717.85,-30.35 755.8,-20.39"/>
<polygon fill="#6ab0de" stroke="#6ab0de" stroke-width="3" points="756.4,-22.04 760.79,-19.08 755.51,-18.66 756.4,-22.04"/>
</g>
<!-- BilayerStateNode -->
<g id="node15" class="node">
<title>BilayerStateNode</title>
<g id="a_node15"><a xlink:href="../funman.model.html#funman.model.bilayer.BilayerStateNode" xlink:title="BilayerNode representing a state variable." target="_top">
<polygon fill="white" stroke="black" stroke-width="0.5" points="726.5,-19 624.5,-19 624.5,0 726.5,0 726.5,-19"/>
<text text-anchor="middle" x="675.5" y="-7" font-family="Vera Sans, DejaVu Sans, Liberation Sans, Arial, Helvetica, sans" font-size="10.00">BilayerStateNode</text>
</a>
</g>
</g>
<!-- BilayerNode&#45;&gt;BilayerStateNode -->
<g id="edge14" class="edge">
<title>BilayerNode&#45;&gt;BilayerStateNode</title>
<path fill="none" stroke="#6ab0de" stroke-width="3" d="M605,-54.98C619.24,-46 641.76,-31.79 657.51,-21.85"/>
<polygon fill="#6ab0de" stroke="#6ab0de" stroke-width="3" points="658.46,-23.32 661.76,-19.17 656.6,-20.36 658.46,-23.32"/>
</g>
<!-- BilayerModel -->
<g id="node11" class="node">
<title>BilayerModel</title>
<g id="a_node11"><a xlink:href="../funman.model.html#funman.model.bilayer.BilayerModel" xlink:title="A BilayerModel is a complete specification of a Model that uses a BilayerDynamics graph to represent dynamics. It includes the attributes:" target="_top">
<polygon fill="white" stroke="black" stroke-width="0.5" points="81,-19 0,-19 0,0 81,0 81,-19"/>
<text text-anchor="middle" x="40.5" y="-7" font-family="Vera Sans, DejaVu Sans, Liberation Sans, Arial, Helvetica, sans" font-size="10.00">BilayerModel</text>
</a>
</g>
</g>
<!-- Model&#45;&gt;BilayerModel -->
<g id="edge10" class="edge">
<title>Model&#45;&gt;BilayerModel</title>
<path fill="none" stroke="#6ab0de" stroke-width="3" d="M168.08,-54.98C141.34,-45.66 98.49,-30.72 69.92,-20.76"/>
<polygon fill="#6ab0de" stroke="#6ab0de" stroke-width="3" points="70.41,-19.08 65.11,-19.08 69.26,-22.38 70.41,-19.08"/>
</g>
</g>
</svg>
