<?xml version="1.0" encoding="UTF-8" standalone="no"?>
<!DOCTYPE svg PUBLIC "-//W3C//DTD SVG 1.1//EN"
 "http://www.w3.org/Graphics/SVG/1.1/DTD/svg11.dtd">
<!-- Generated by graphviz version 2.43.0 (0)
 -->
<!-- Title: inheritance311f46ea7b Pages: 1 -->
<svg width="324pt" height="192pt"
 viewBox="0.00 0.00 323.50 192.00" xmlns="http://www.w3.org/2000/svg" xmlns:xlink="http://www.w3.org/1999/xlink">
<g id="graph0" class="graph" transform="scale(1 1) rotate(0) translate(4 188)">
<title>inheritance311f46ea7b</title>
<!-- ABC -->
<g id="node1" class="node">
<title>ABC</title>
<g id="a_node1"><a xlink:title="Helper class that provides a standard way to create an ABC using">
<polygon fill="white" stroke="black" stroke-width="0.5" points="135.5,-184 81.5,-184 81.5,-165 135.5,-165 135.5,-184"/>
<text text-anchor="middle" x="108.5" y="-172" font-family="Vera Sans, DejaVu Sans, Liberation Sans, Arial, Helvetica, sans" font-size="10.00">ABC</text>
</a>
</g>
</g>
<!-- AnalysisScenario -->
<g id="node2" class="node">
<title>AnalysisScenario</title>
<g id="a_node2"><a xlink:href="../funman.scenario.html#funman.scenario.scenario.AnalysisScenario" xlink:title="Abstract class for Analysis Scenarios." target="_top">
<polygon fill="white" stroke="black" stroke-width="0.5" points="267.5,-74 167.5,-74 167.5,-55 267.5,-55 267.5,-74"/>
<text text-anchor="middle" x="217.5" y="-62" font-family="Vera Sans, DejaVu Sans, Liberation Sans, Arial, Helvetica, sans" font-size="10.00">AnalysisScenario</text>
</a>
</g>
</g>
<!-- ABC&#45;&gt;AnalysisScenario -->
<g id="edge1" class="edge">
<title>ABC&#45;&gt;AnalysisScenario</title>
<path fill="none" stroke="#6ab0de" stroke-width="3" d="M117.42,-164.66C136.84,-145.42 182.97,-99.71 205.16,-77.73"/>
<polygon fill="#6ab0de" stroke="#6ab0de" stroke-width="3" points="206.44,-78.92 208.76,-74.16 203.98,-76.43 206.44,-78.92"/>
</g>
<!-- AnalysisScenarioResult -->
<g id="node4" class="node">
<title>AnalysisScenarioResult</title>
<g id="a_node4"><a xlink:href="../funman.scenario.html#funman.scenario.scenario.AnalysisScenarioResult" xlink:title="Abstract class for AnalysisScenario result data." target="_top">
<polygon fill="white" stroke="black" stroke-width="0.5" points="140,-129 9,-129 9,-110 140,-110 140,-129"/>
<text text-anchor="middle" x="74.5" y="-117" font-family="Vera Sans, DejaVu Sans, Liberation Sans, Arial, Helvetica, sans" font-size="10.00">AnalysisScenarioResult</text>
</a>
</g>
</g>
<!-- ABC&#45;&gt;AnalysisScenarioResult -->
<g id="edge3" class="edge">
<title>ABC&#45;&gt;AnalysisScenarioResult</title>
<path fill="none" stroke="#6ab0de" stroke-width="3" d="M102.89,-164.75C97.44,-156.26 89.11,-143.27 82.88,-133.56"/>
<polygon fill="#6ab0de" stroke="#6ab0de" stroke-width="3" points="84.18,-132.35 80.01,-129.09 81.24,-134.24 84.18,-132.35"/>
</g>
<!-- ConsistencyScenario -->
<g id="node6" class="node">
<title>ConsistencyScenario</title>
<g id="a_node6"><a xlink:href="../funman.scenario.html#funman.scenario.consistency.ConsistencyScenario" xlink:title="The ConsistencyScenario class is an Analysis Scenario that analyzes a Model to find assignments to all variables, if consistent." target="_top">
<polygon fill="white" stroke="black" stroke-width="0.5" points="315.5,-19 197.5,-19 197.5,0 315.5,0 315.5,-19"/>
<text text-anchor="middle" x="256.5" y="-7" font-family="Vera Sans, DejaVu Sans, Liberation Sans, Arial, Helvetica, sans" font-size="10.00">ConsistencyScenario</text>
</a>
</g>
</g>
<!-- AnalysisScenario&#45;&gt;ConsistencyScenario -->
<g id="edge5" class="edge">
<title>AnalysisScenario&#45;&gt;ConsistencyScenario</title>
<path fill="none" stroke="#6ab0de" stroke-width="3" d="M223.94,-54.75C230.24,-46.18 239.92,-33.03 247.08,-23.3"/>
<polygon fill="#6ab0de" stroke="#6ab0de" stroke-width="3" points="248.63,-24.15 250.18,-19.09 245.81,-22.08 248.63,-24.15"/>
</g>
<!-- BaseModel -->
<g id="node3" class="node">
<title>BaseModel</title>
<polygon fill="white" stroke="black" stroke-width="0.5" points="268,-129 197,-129 197,-110 268,-110 268,-129"/>
<text text-anchor="middle" x="232.5" y="-117" font-family="Vera Sans, DejaVu Sans, Liberation Sans, Arial, Helvetica, sans" font-size="10.00">BaseModel</text>
</g>
<!-- BaseModel&#45;&gt;AnalysisScenario -->
<g id="edge2" class="edge">
<title>BaseModel&#45;&gt;AnalysisScenario</title>
<path fill="none" stroke="#6ab0de" stroke-width="3" d="M230.02,-109.75C227.66,-101.41 224.08,-88.74 221.35,-79.09"/>
<polygon fill="#6ab0de" stroke="#6ab0de" stroke-width="3" points="222.98,-78.42 219.93,-74.09 219.61,-79.38 222.98,-78.42"/>
</g>
<!-- BaseModel&#45;&gt;ConsistencyScenario -->
<g id="edge6" class="edge">
<title>BaseModel&#45;&gt;ConsistencyScenario</title>
<path fill="none" stroke="#6ab0de" stroke-width="3" d="M245.28,-110C255.89,-102.1 270.22,-89.27 276.5,-74 283.46,-57.05 274.13,-36.74 266.02,-23.74"/>
<polygon fill="#6ab0de" stroke="#6ab0de" stroke-width="3" points="267.32,-22.52 263.12,-19.29 264.39,-24.44 267.32,-22.52"/>
</g>
<!-- ConsistencyScenarioResult -->
<g id="node7" class="node">
<title>ConsistencyScenarioResult</title>
<g id="a_node7"><a xlink:href="../funman.scenario.html#funman.scenario.consistency.ConsistencyScenarioResult" xlink:title="ConsistencyScenarioResult result, which includes the consistency flag and" target="_top">
<polygon fill="white" stroke="black" stroke-width="0.5" points="149,-74 0,-74 0,-55 149,-55 149,-74"/>
<text text-anchor="middle" x="74.5" y="-62" font-family="Vera Sans, DejaVu Sans, Liberation Sans, Arial, Helvetica, sans" font-size="10.00">ConsistencyScenarioResult</text>
</a>
</g>
</g>
<!-- BaseModel&#45;&gt;ConsistencyScenarioResult -->
<g id="edge8" class="edge">
<title>BaseModel&#45;&gt;ConsistencyScenarioResult</title>
<path fill="none" stroke="#6ab0de" stroke-width="3" d="M207.11,-109.98C179.32,-100.66 134.78,-85.72 105.08,-75.76"/>
<polygon fill="#6ab0de" stroke="#6ab0de" stroke-width="3" points="105.38,-74.01 100.08,-74.08 104.27,-77.33 105.38,-74.01"/>
</g>
<!-- AnalysisScenarioResult&#45;&gt;ConsistencyScenarioResult -->
<g id="edge7" class="edge">
<title>AnalysisScenarioResult&#45;&gt;ConsistencyScenarioResult</title>
<path fill="none" stroke="#6ab0de" stroke-width="3" d="M74.5,-109.75C74.5,-101.41 74.5,-88.74 74.5,-79.09"/>
<polygon fill="#6ab0de" stroke="#6ab0de" stroke-width="3" points="76.25,-79.09 74.5,-74.09 72.75,-79.09 76.25,-79.09"/>
</g>
<!-- Representation -->
<g id="node5" class="node">
<title>Representation</title>
<g id="a_node5"><a xlink:title="Mixin to provide __str__, __repr__, and __pretty__ methods. See #884 for more details.">
<polygon fill="white" stroke="black" stroke-width="0.5" points="278,-184 187,-184 187,-165 278,-165 278,-184"/>
<text text-anchor="middle" x="232.5" y="-172" font-family="Vera Sans, DejaVu Sans, Liberation Sans, Arial, Helvetica, sans" font-size="10.00">Representation</text>
</a>
</g>
</g>
<!-- Representation&#45;&gt;BaseModel -->
<g id="edge4" class="edge">
<title>Representation&#45;&gt;BaseModel</title>
<path fill="none" stroke="#6ab0de" stroke-width="3" d="M232.5,-164.75C232.5,-156.41 232.5,-143.74 232.5,-134.09"/>
<polygon fill="#6ab0de" stroke="#6ab0de" stroke-width="3" points="234.25,-134.09 232.5,-129.09 230.75,-134.09 234.25,-134.09"/>
</g>
</g>
</svg>
