<?xml version="1.0" encoding="UTF-8" standalone="no"?>
<!DOCTYPE svg PUBLIC "-//W3C//DTD SVG 1.1//EN"
 "http://www.w3.org/Graphics/SVG/1.1/DTD/svg11.dtd">
<!-- Generated by graphviz version 2.43.0 (0)
 -->
<!-- Title: inheritance4f39d304b7 Pages: 1 -->
<svg width="305pt" height="192pt"
 viewBox="0.00 0.00 304.50 192.00" xmlns="http://www.w3.org/2000/svg" xmlns:xlink="http://www.w3.org/1999/xlink">
<g id="graph0" class="graph" transform="scale(1 1) rotate(0) translate(4 188)">
<title>inheritance4f39d304b7</title>
<!-- ABC -->
<g id="node1" class="node">
<title>ABC</title>
<g id="a_node1"><a xlink:title="Helper class that provides a standard way to create an ABC using">
<polygon fill="white" stroke="black" stroke-width="0.5" points="54,-129 0,-129 0,-110 54,-110 54,-129"/>
<text text-anchor="middle" x="27" y="-117" font-family="Vera Sans, DejaVu Sans, Liberation Sans, Arial, Helvetica, sans" font-size="10.00">ABC</text>
</a>
</g>
</g>
<!-- Encoder -->
<g id="node4" class="node">
<title>Encoder</title>
<g id="a_node4"><a xlink:href="../funman.translate.html#funman.translate.translate.Encoder" xlink:title="An Encoder translates a Model into an SMTLib formula." target="_top">
<polygon fill="white" stroke="black" stroke-width="0.5" points="95,-74 39,-74 39,-55 95,-55 95,-74"/>
<text text-anchor="middle" x="67" y="-62" font-family="Vera Sans, DejaVu Sans, Liberation Sans, Arial, Helvetica, sans" font-size="10.00">Encoder</text>
</a>
</g>
</g>
<!-- ABC&#45;&gt;Encoder -->
<g id="edge2" class="edge">
<title>ABC&#45;&gt;Encoder</title>
<path fill="none" stroke="#6ab0de" stroke-width="3" d="M33.61,-109.75C40.07,-101.18 49.99,-88.03 57.34,-78.3"/>
<polygon fill="#6ab0de" stroke="#6ab0de" stroke-width="3" points="58.9,-79.13 60.52,-74.09 56.11,-77.03 58.9,-79.13"/>
</g>
<!-- BaseModel -->
<g id="node2" class="node">
<title>BaseModel</title>
<polygon fill="white" stroke="black" stroke-width="0.5" points="143.5,-129 72.5,-129 72.5,-110 143.5,-110 143.5,-129"/>
<text text-anchor="middle" x="108" y="-117" font-family="Vera Sans, DejaVu Sans, Liberation Sans, Arial, Helvetica, sans" font-size="10.00">BaseModel</text>
</g>
<!-- BaseModel&#45;&gt;Encoder -->
<g id="edge3" class="edge">
<title>BaseModel&#45;&gt;Encoder</title>
<path fill="none" stroke="#6ab0de" stroke-width="3" d="M101.23,-109.75C94.6,-101.18 84.43,-88.03 76.9,-78.3"/>
<polygon fill="#6ab0de" stroke="#6ab0de" stroke-width="3" points="78.09,-76.97 73.64,-74.09 75.32,-79.11 78.09,-76.97"/>
</g>
<!-- Representation -->
<g id="node3" class="node">
<title>Representation</title>
<g id="a_node3"><a xlink:title="Mixin to provide __str__, __repr__, and __pretty__ methods. See #884 for more details.">
<polygon fill="white" stroke="black" stroke-width="0.5" points="153.5,-184 62.5,-184 62.5,-165 153.5,-165 153.5,-184"/>
<text text-anchor="middle" x="108" y="-172" font-family="Vera Sans, DejaVu Sans, Liberation Sans, Arial, Helvetica, sans" font-size="10.00">Representation</text>
</a>
</g>
</g>
<!-- Representation&#45;&gt;BaseModel -->
<g id="edge1" class="edge">
<title>Representation&#45;&gt;BaseModel</title>
<path fill="none" stroke="#6ab0de" stroke-width="3" d="M108,-164.75C108,-156.41 108,-143.74 108,-134.09"/>
<polygon fill="#6ab0de" stroke="#6ab0de" stroke-width="3" points="109.75,-134.09 108,-129.09 106.25,-134.09 109.75,-134.09"/>
</g>
<!-- GrometEncoder -->
<g id="node6" class="node">
<title>GrometEncoder</title>
<g id="a_node6"><a xlink:href="../funman.translate.html#funman.translate.gromet.GrometEncoder" xlink:title="Encodes Gromet models into SMTLib formulas." target="_top">
<polygon fill="white" stroke="black" stroke-width="0.5" points="113,-19 21,-19 21,0 113,0 113,-19"/>
<text text-anchor="middle" x="67" y="-7" font-family="Vera Sans, DejaVu Sans, Liberation Sans, Arial, Helvetica, sans" font-size="10.00">GrometEncoder</text>
</a>
</g>
</g>
<!-- Encoder&#45;&gt;GrometEncoder -->
<g id="edge4" class="edge">
<title>Encoder&#45;&gt;GrometEncoder</title>
<path fill="none" stroke="#6ab0de" stroke-width="3" d="M67,-54.75C67,-46.41 67,-33.74 67,-24.09"/>
<polygon fill="#6ab0de" stroke="#6ab0de" stroke-width="3" points="68.75,-24.09 67,-19.09 65.25,-24.09 68.75,-24.09"/>
</g>
<!-- EncodingOptions -->
<g id="node5" class="node">
<title>EncodingOptions</title>
<g id="a_node5"><a xlink:href="../funman.translate.html#funman.translate.translate.EncodingOptions" xlink:title="EncodingOptions" target="_top">
<polygon fill="white" stroke="black" stroke-width="0.5" points="278,-184 180,-184 180,-165 278,-165 278,-184"/>
<text text-anchor="middle" x="229" y="-172" font-family="Vera Sans, DejaVu Sans, Liberation Sans, Arial, Helvetica, sans" font-size="10.00">EncodingOptions</text>
</a>
</g>
</g>
<!-- GrometEncodingOptions -->
<g id="node7" class="node">
<title>GrometEncodingOptions</title>
<g id="a_node7"><a xlink:href="../funman.translate.html#funman.translate.gromet.GrometEncodingOptions" xlink:title="Gromet encoding options." target="_top">
<polygon fill="white" stroke="black" stroke-width="0.5" points="296.5,-129 161.5,-129 161.5,-110 296.5,-110 296.5,-129"/>
<text text-anchor="middle" x="229" y="-117" font-family="Vera Sans, DejaVu Sans, Liberation Sans, Arial, Helvetica, sans" font-size="10.00">GrometEncodingOptions</text>
</a>
</g>
</g>
<!-- EncodingOptions&#45;&gt;GrometEncodingOptions -->
<g id="edge5" class="edge">
<title>EncodingOptions&#45;&gt;GrometEncodingOptions</title>
<path fill="none" stroke="#6ab0de" stroke-width="3" d="M229,-164.75C229,-156.41 229,-143.74 229,-134.09"/>
<polygon fill="#6ab0de" stroke="#6ab0de" stroke-width="3" points="230.75,-134.09 229,-129.09 227.25,-134.09 230.75,-134.09"/>
</g>
</g>
</svg>
