<?xml version="1.0" encoding="UTF-8" standalone="no"?>
<!DOCTYPE svg PUBLIC "-//W3C//DTD SVG 1.1//EN"
 "http://www.w3.org/Graphics/SVG/1.1/DTD/svg11.dtd">
<!-- Generated by graphviz version 2.43.0 (0)
 -->
<!-- Title: packages Pages: 1 -->
<svg width="717pt" height="404pt"
 viewBox="0.00 0.00 716.50 404.00" xmlns="http://www.w3.org/2000/svg" xmlns:xlink="http://www.w3.org/1999/xlink">
<g id="graph0" class="graph" transform="scale(1 1) rotate(0) translate(4 400)">
<title>packages</title>
<polygon fill="white" stroke="transparent" points="-4,4 -4,-400 712.5,-400 712.5,4 -4,4"/>
<!-- funman -->
<g id="node1" class="node">
<title>funman</title>
<polygon fill="none" stroke="black" points="102.5,-36 31.5,-36 31.5,0 102.5,0 102.5,-36"/>
<text text-anchor="middle" x="67" y="-14.3" font-family="Times,serif" font-size="14.00">funman</text>
</g>
<!-- funman._version -->
<g id="node2" class="node">
<title>funman._version</title>
<polygon fill="none" stroke="black" points="134,-108 0,-108 0,-72 134,-72 134,-108"/>
<text text-anchor="middle" x="67" y="-86.3" font-family="Times,serif" font-size="14.00">funman._version</text>
</g>
<!-- funman&#45;&gt;funman._version -->
<g id="edge1" class="edge">
<title>funman&#45;&gt;funman._version</title>
<path fill="none" stroke="#6ab0de" stroke-width="3" d="M67,-36.3C67,-44.02 67,-53.29 67,-61.89"/>
<polygon fill="#6ab0de" stroke="#6ab0de" stroke-width="3" points="67,-71.9 62.5,-61.9 66,-66.9 66,-61.9 67,-61.9 68,-61.9 68,-66.9 71.5,-61.9 67,-71.9 67,-71.9"/>
</g>
<!-- funman.config -->
<g id="node3" class="node">
<title>funman.config</title>
<polygon fill="none" stroke="black" points="369,-396 251,-396 251,-360 369,-360 369,-396"/>
<text text-anchor="middle" x="310" y="-374.3" font-family="Times,serif" font-size="14.00">funman.config</text>
</g>
<!-- funman.constants -->
<g id="node4" class="node">
<title>funman.constants</title>
<polygon fill="none" stroke="black" points="571,-396 427,-396 427,-360 571,-360 571,-396"/>
<text text-anchor="middle" x="499" y="-374.3" font-family="Times,serif" font-size="14.00">funman.constants</text>
</g>
<!-- funman.funman -->
<g id="node5" class="node">
<title>funman.funman</title>
<polygon fill="none" stroke="black" points="328.5,-36 199.5,-36 199.5,0 328.5,0 328.5,-36"/>
<text text-anchor="middle" x="264" y="-14.3" font-family="Times,serif" font-size="14.00">funman.funman</text>
</g>
<!-- funman.funman&#45;&gt;funman.config -->
<g id="edge2" class="edge">
<title>funman.funman&#45;&gt;funman.config</title>
<path fill="none" stroke="#6ab0de" stroke-width="3" d="M253.43,-36.21C238.49,-62.23 213,-113.59 213,-161 213,-161 213,-161 213,-235 213,-283.3 251.74,-327.27 280.26,-353.09"/>
<polygon fill="#6ab0de" stroke="#6ab0de" stroke-width="3" points="287.99,-359.88 277.51,-356.66 283.57,-357.33 279.82,-354.03 280.48,-353.28 281.14,-352.53 284.89,-355.82 283.44,-349.9 287.99,-359.88 287.99,-359.88"/>
</g>
<!-- funman.scenario -->
<g id="node8" class="node">
<title>funman.scenario</title>
<polygon fill="none" stroke="black" points="461.5,-108 326.5,-108 326.5,-72 461.5,-72 461.5,-108"/>
<text text-anchor="middle" x="394" y="-86.3" font-family="Times,serif" font-size="14.00">funman.scenario</text>
</g>
<!-- funman.funman&#45;&gt;funman.scenario -->
<g id="edge3" class="edge">
<title>funman.funman&#45;&gt;funman.scenario</title>
<path fill="none" stroke="#6ab0de" stroke-width="3" d="M295.8,-36.12C313.11,-45.45 334.72,-57.08 353.26,-67.06"/>
<polygon fill="#6ab0de" stroke="#6ab0de" stroke-width="3" points="362.08,-71.81 351.14,-71.03 357.2,-70.32 352.8,-67.95 353.27,-67.07 353.75,-66.19 358.15,-68.56 355.4,-63.11 362.08,-71.81 362.08,-71.81"/>
</g>
<!-- funman.model -->
<g id="node6" class="node">
<title>funman.model</title>
<polygon fill="none" stroke="black" points="708.5,-396 589.5,-396 589.5,-360 708.5,-360 708.5,-396"/>
<text text-anchor="middle" x="649" y="-374.3" font-family="Times,serif" font-size="14.00">funman.model</text>
</g>
<!-- funman.parameter_space -->
<g id="node7" class="node">
<title>funman.parameter_space</title>
<polygon fill="none" stroke="black" points="492.5,-180 295.5,-180 295.5,-144 492.5,-144 492.5,-180"/>
<text text-anchor="middle" x="394" y="-158.3" font-family="Times,serif" font-size="14.00">funman.parameter_space</text>
</g>
<!-- funman.search -->
<g id="node9" class="node">
<title>funman.search</title>
<polygon fill="none" stroke="black" points="582,-252 460,-252 460,-216 582,-216 582,-252"/>
<text text-anchor="middle" x="521" y="-230.3" font-family="Times,serif" font-size="14.00">funman.search</text>
</g>
<!-- funman.parameter_space&#45;&gt;funman.search -->
<g id="edge4" class="edge">
<title>funman.parameter_space&#45;&gt;funman.search</title>
<path fill="none" stroke="#6ab0de" stroke-width="3" d="M425.07,-180.12C441.83,-189.36 462.71,-200.87 480.7,-210.79"/>
<polygon fill="#6ab0de" stroke="#6ab0de" stroke-width="3" points="489.81,-215.81 478.88,-214.92 484.95,-214.27 480.57,-211.86 481.06,-210.98 481.54,-210.11 485.92,-212.52 483.23,-207.04 489.81,-215.81 489.81,-215.81"/>
</g>
<!-- funman.scenario&#45;&gt;funman.config -->
<g id="edge5" class="edge">
<title>funman.scenario&#45;&gt;funman.config</title>
<path fill="none" stroke="#6ab0de" stroke-width="3" d="M333.68,-108.01C315.6,-116.04 297.53,-127.6 286,-144 239.82,-209.71 244.49,-247.84 270,-324 273.35,-334 279.42,-343.62 285.83,-351.86"/>
<polygon fill="#6ab0de" stroke="#6ab0de" stroke-width="3" points="292.27,-359.6 282.41,-354.79 288.3,-356.4 285.1,-352.55 285.87,-351.91 286.64,-351.27 289.84,-355.12 289.33,-349.03 292.27,-359.6 292.27,-359.6"/>
</g>
<!-- funman.scenario&#45;&gt;funman.model -->
<g id="edge6" class="edge">
<title>funman.scenario&#45;&gt;funman.model</title>
<path fill="none" stroke="#6ab0de" stroke-width="3" d="M449.95,-108.1C473.65,-116.8 500.85,-128.78 523,-144 589.83,-189.91 607.02,-211.9 635,-288 642.32,-307.91 645.81,-331.7 647.48,-349.68"/>
<polygon fill="#6ab0de" stroke="#6ab0de" stroke-width="3" points="648.28,-359.77 643,-350.16 646.89,-354.87 646.49,-349.88 647.49,-349.8 648.49,-349.72 648.88,-354.71 651.98,-349.45 648.28,-359.77 648.28,-359.77"/>
</g>
<!-- funman.scenario&#45;&gt;funman.parameter_space -->
<g id="edge7" class="edge">
<title>funman.scenario&#45;&gt;funman.parameter_space</title>
<path fill="none" stroke="#6ab0de" stroke-width="3" d="M394,-108.3C394,-116.02 394,-125.29 394,-133.89"/>
<polygon fill="#6ab0de" stroke="#6ab0de" stroke-width="3" points="394,-143.9 389.5,-133.9 393,-138.9 393,-133.9 394,-133.9 395,-133.9 395,-138.9 398.5,-133.9 394,-143.9 394,-143.9"/>
</g>
<!-- funman.scenario&#45;&gt;funman.search -->
<g id="edge8" class="edge">
<title>funman.scenario&#45;&gt;funman.search</title>
<path fill="none" stroke="#6ab0de" stroke-width="3" d="M451.97,-108.08C470.44,-116.19 489.35,-127.78 502,-144 515.63,-161.47 520.03,-186.51 521.22,-205.59"/>
<polygon fill="#6ab0de" stroke="#6ab0de" stroke-width="3" points="521.59,-215.75 516.73,-205.92 520.41,-210.79 520.23,-205.8 521.22,-205.76 522.22,-205.72 522.41,-210.72 525.72,-205.59 521.59,-215.75 521.59,-215.75"/>
</g>
<!-- funman.search&#45;&gt;funman.model -->
<g id="edge9" class="edge">
<title>funman.search&#45;&gt;funman.model</title>
<path fill="none" stroke="#6ab0de" stroke-width="3" d="M562.12,-252.2C579.03,-260.91 597.71,-272.88 611,-288 626.63,-305.78 636.57,-330.95 642.34,-349.99"/>
<polygon fill="#6ab0de" stroke="#6ab0de" stroke-width="3" points="645.13,-359.85 638.08,-351.45 642.81,-355.31 641.45,-350.5 642.41,-350.23 643.37,-349.96 644.73,-354.77 646.74,-349 645.13,-359.85 645.13,-359.85"/>
</g>
<!-- funman.search_utils -->
<g id="node10" class="node">
<title>funman.search_utils</title>
<polygon fill="none" stroke="black" points="601.5,-324 440.5,-324 440.5,-288 601.5,-288 601.5,-324"/>
<text text-anchor="middle" x="521" y="-302.3" font-family="Times,serif" font-size="14.00">funman.search_utils</text>
</g>
<!-- funman.search&#45;&gt;funman.search_utils -->
<g id="edge10" class="edge">
<title>funman.search&#45;&gt;funman.search_utils</title>
<path fill="none" stroke="#6ab0de" stroke-width="3" d="M521,-252.3C521,-260.02 521,-269.29 521,-277.89"/>
<polygon fill="#6ab0de" stroke="#6ab0de" stroke-width="3" points="521,-287.9 516.5,-277.9 520,-282.9 520,-277.9 521,-277.9 522,-277.9 522,-282.9 525.5,-277.9 521,-287.9 521,-287.9"/>
</g>
<!-- funman.search_utils&#45;&gt;funman.config -->
<g id="edge11" class="edge">
<title>funman.search_utils&#45;&gt;funman.config</title>
<path fill="none" stroke="#6ab0de" stroke-width="3" d="M469.65,-324.03C440.04,-333.86 402.63,-346.27 371.46,-356.61"/>
<polygon fill="#6ab0de" stroke="#6ab0de" stroke-width="3" points="361.58,-359.89 369.65,-352.47 366.01,-357.37 370.75,-355.79 371.07,-356.74 371.38,-357.69 366.64,-359.26 372.49,-361.01 361.58,-359.89 361.58,-359.89"/>
</g>
<!-- funman.search_utils&#45;&gt;funman.constants -->
<g id="edge12" class="edge">
<title>funman.search_utils&#45;&gt;funman.constants</title>
<path fill="none" stroke="#6ab0de" stroke-width="3" d="M515.56,-324.3C513.11,-332.1 510.16,-341.49 507.43,-350.17"/>
<polygon fill="#6ab0de" stroke="#6ab0de" stroke-width="3" points="504.38,-359.9 503.08,-349.01 504.92,-354.83 506.42,-350.06 507.37,-350.36 508.33,-350.66 506.83,-355.43 511.67,-351.7 504.38,-359.9 504.38,-359.9"/>
</g>
<!-- funman.search_utils&#45;&gt;funman.model -->
<g id="edge13" class="edge">
<title>funman.search_utils&#45;&gt;funman.model</title>
<path fill="none" stroke="#6ab0de" stroke-width="3" d="M552.31,-324.12C569.2,-333.36 590.25,-344.87 608.38,-354.79"/>
<polygon fill="#6ab0de" stroke="#6ab0de" stroke-width="3" points="617.57,-359.81 606.63,-358.96 612.7,-358.29 608.31,-355.89 608.79,-355.01 609.27,-354.13 613.66,-356.53 610.95,-351.06 617.57,-359.81 617.57,-359.81"/>
</g>
<!-- funman.simulator -->
<g id="node11" class="node">
<title>funman.simulator</title>
<polygon fill="none" stroke="black" points="422.5,-324 279.5,-324 279.5,-288 422.5,-288 422.5,-324"/>
<text text-anchor="middle" x="351" y="-302.3" font-family="Times,serif" font-size="14.00">funman.simulator</text>
</g>
<!-- funman.simulator&#45;&gt;funman.config -->
<g id="edge14" class="edge">
<title>funman.simulator&#45;&gt;funman.config</title>
<path fill="none" stroke="#6ab0de" stroke-width="3" d="M340.87,-324.3C336.15,-332.36 330.44,-342.11 325.22,-351.02"/>
<polygon fill="#6ab0de" stroke="#6ab0de" stroke-width="3" points="320.02,-359.9 321.19,-348.99 321.68,-355.08 324.21,-350.76 325.07,-351.27 325.94,-351.77 323.41,-356.09 328.96,-353.54 320.02,-359.9 320.02,-359.9"/>
</g>
</g>
</svg>
