<?xml version="1.0" encoding="UTF-8" standalone="no"?>
<!DOCTYPE svg PUBLIC "-//W3C//DTD SVG 1.1//EN"
 "http://www.w3.org/Graphics/SVG/1.1/DTD/svg11.dtd">
<!-- Generated by graphviz version 2.43.0 (0)
 -->
<!-- Title: classes Pages: 1 -->
<svg width="3344pt" height="725pt"
 viewBox="0.00 0.00 3343.50 725.00" xmlns="http://www.w3.org/2000/svg" xmlns:xlink="http://www.w3.org/1999/xlink">
<g id="graph0" class="graph" transform="scale(1 1) rotate(0) translate(4 721)">
<title>classes</title>
<polygon fill="white" stroke="transparent" points="-4,4 -4,-721 3339.5,-721 3339.5,4 -4,4"/>
<!-- funman.scenario.AnalysisScenario -->
<g id="node1" class="node">
<title>funman.scenario.AnalysisScenario</title>
<polygon fill="none" stroke="black" points="88.5,-368.5 88.5,-453.5 249.5,-453.5 249.5,-368.5 88.5,-368.5"/>
<text text-anchor="middle" x="169" y="-438.3" font-family="Times,serif" font-size="14.00">AnalysisScenario</text>
<polyline fill="none" stroke="black" points="88.5,-430.5 249.5,-430.5 "/>
<polyline fill="none" stroke="black" points="88.5,-406.5 249.5,-406.5 "/>
<text text-anchor="start" x="96.5" y="-391.3" font-family="Times,serif" font-size="14.00">simulate()</text>
<text text-anchor="start" x="96.5" y="-376.3" font-family="Times,serif" font-size="14.00">solve(config: Config)</text>
</g>
<!-- funman.scenario.AnalysisScenarioResult -->
<g id="node2" class="node">
<title>funman.scenario.AnalysisScenarioResult</title>
<polygon fill="none" stroke="black" points="399,-376 399,-446 583,-446 583,-376 399,-376"/>
<text text-anchor="middle" x="491" y="-430.8" font-family="Times,serif" font-size="14.00">AnalysisScenarioResult</text>
<polyline fill="none" stroke="black" points="399,-423 583,-423 "/>
<polyline fill="none" stroke="black" points="399,-399 583,-399 "/>
<text text-anchor="middle" x="491" y="-383.8" font-family="Times,serif" font-size="14.00"> </text>
</g>
<!-- funman.search_utils.Box -->
<g id="node3" class="node">
<title>funman.search_utils.Box</title>
<polygon fill="none" stroke="black" points="743.5,-8 743.5,-167 942.5,-167 942.5,-8 743.5,-8"/>
<text text-anchor="middle" x="843" y="-151.8" font-family="Times,serif" font-size="14.00">Box</text>
<polyline fill="none" stroke="black" points="743.5,-144 942.5,-144 "/>
<text text-anchor="start" x="751.5" y="-128.8" font-family="Times,serif" font-size="14.00">bounds</text>
<text text-anchor="start" x="751.5" y="-113.8" font-family="Times,serif" font-size="14.00">cached_width : NoneType</text>
<polyline fill="none" stroke="black" points="743.5,-106 942.5,-106 "/>
<text text-anchor="start" x="751.5" y="-90.8" font-family="Times,serif" font-size="14.00">contains(other): bool</text>
<text text-anchor="start" x="751.5" y="-75.8" font-family="Times,serif" font-size="14.00">finite(): bool</text>
<text text-anchor="start" x="751.5" y="-60.8" font-family="Times,serif" font-size="14.00">intersects(other): bool</text>
<text text-anchor="start" x="751.5" y="-45.8" font-family="Times,serif" font-size="14.00">split()</text>
<text text-anchor="start" x="751.5" y="-30.8" font-family="Times,serif" font-size="14.00">to_smt()</text>
<text text-anchor="start" x="751.5" y="-15.8" font-family="Times,serif" font-size="14.00">width(): float</text>
</g>
<!-- funman.search.BoxSearch -->
<g id="node4" class="node">
<title>funman.search.BoxSearch</title>
<polygon fill="none" stroke="black" points="964,-30.5 964,-144.5 1396,-144.5 1396,-30.5 964,-30.5"/>
<text text-anchor="middle" x="1180" y="-129.3" font-family="Times,serif" font-size="14.00">BoxSearch</text>
<polyline fill="none" stroke="black" points="964,-121.5 1396,-121.5 "/>
<text text-anchor="start" x="972" y="-106.3" font-family="Times,serif" font-size="14.00">episodes : list</text>
<polyline fill="none" stroke="black" points="964,-98.5 1396,-98.5 "/>
<text text-anchor="start" x="972" y="-83.3" font-family="Times,serif" font-size="14.00">expand(rval: Queue, episode: BoxSearchEpisode): </text>
<text text-anchor="start" x="972" y="-68.3" font-family="Times,serif" font-size="14.00">initialize(episode: BoxSearchEpisode)</text>
<text text-anchor="start" x="972" y="-53.3" font-family="Times,serif" font-size="14.00">search(problem, config: SearchConfig): BoxSearchEpisode</text>
<text text-anchor="start" x="972" y="-38.3" font-family="Times,serif" font-size="14.00">split(box: Box, episode: BoxSearchEpisode)</text>
</g>
<!-- funman.search.BoxSearchEpisode -->
<g id="node5" class="node">
<title>funman.search.BoxSearchEpisode</title>
<polygon fill="none" stroke="black" points="1160.5,-226.5 1160.5,-595.5 1645.5,-595.5 1645.5,-226.5 1160.5,-226.5"/>
<text text-anchor="middle" x="1403" y="-580.3" font-family="Times,serif" font-size="14.00">BoxSearchEpisode</text>
<polyline fill="none" stroke="black" points="1160.5,-572.5 1645.5,-572.5 "/>
<text text-anchor="start" x="1168.5" y="-557.3" font-family="Times,serif" font-size="14.00">config</text>
<text text-anchor="start" x="1168.5" y="-542.3" font-family="Times,serif" font-size="14.00">false_boxes : list</text>
<text text-anchor="start" x="1168.5" y="-527.3" font-family="Times,serif" font-size="14.00">internal_process_id : int</text>
<text text-anchor="start" x="1168.5" y="-512.3" font-family="Times,serif" font-size="14.00">iteration : SynchronizedString, Synchronized, SynchronizedArray</text>
<text text-anchor="start" x="1168.5" y="-497.3" font-family="Times,serif" font-size="14.00">num_parameters</text>
<text text-anchor="start" x="1168.5" y="-482.3" font-family="Times,serif" font-size="14.00">problem</text>
<text text-anchor="start" x="1168.5" y="-467.3" font-family="Times,serif" font-size="14.00">true_boxes : list</text>
<text text-anchor="start" x="1168.5" y="-452.3" font-family="Times,serif" font-size="14.00">unknown_boxes : Queue</text>
<polyline fill="none" stroke="black" points="1160.5,-444.5 1645.5,-444.5 "/>
<text text-anchor="start" x="1168.5" y="-429.3" font-family="Times,serif" font-size="14.00">add_false(box: Box)</text>
<text text-anchor="start" x="1168.5" y="-414.3" font-family="Times,serif" font-size="14.00">add_true(box: Box)</text>
<text text-anchor="start" x="1168.5" y="-399.3" font-family="Times,serif" font-size="14.00">add_unknown(box: Union[Box, List[Box]])</text>
<text text-anchor="start" x="1168.5" y="-384.3" font-family="Times,serif" font-size="14.00">close()</text>
<text text-anchor="start" x="1168.5" y="-369.3" font-family="Times,serif" font-size="14.00">get_unknown()</text>
<text text-anchor="start" x="1168.5" y="-354.3" font-family="Times,serif" font-size="14.00">initial_box(): Box</text>
<text text-anchor="start" x="1168.5" y="-339.3" font-family="Times,serif" font-size="14.00">on_iteration()</text>
<text text-anchor="start" x="1168.5" y="-324.3" font-family="Times,serif" font-size="14.00">on_start()</text>
<text text-anchor="start" x="1168.5" y="-309.3" font-family="Times,serif" font-size="14.00">plot(plot_bounds: Box, title)</text>
<text text-anchor="start" x="1168.5" y="-294.3" font-family="Times,serif" font-size="14.00">plot1D(true_boxes: Queue, false_boxes: Queue, plot_bounds: Box)</text>
<text text-anchor="start" x="1168.5" y="-279.3" font-family="Times,serif" font-size="14.00">plot1DBox(i: Box, p1: Parameter, color)</text>
<text text-anchor="start" x="1168.5" y="-264.3" font-family="Times,serif" font-size="14.00">plot2D(true_boxes: Queue, false_boxes: Queue, plot_bounds: Box)</text>
<text text-anchor="start" x="1168.5" y="-249.3" font-family="Times,serif" font-size="14.00">plot2DBox(i: Box, p1: Parameter, p2: Parameter, color)</text>
<text text-anchor="start" x="1168.5" y="-234.3" font-family="Times,serif" font-size="14.00">plotBox(interval: Interval)</text>
</g>
<!-- funman.search.SearchEpisode -->
<g id="node15" class="node">
<title>funman.search.SearchEpisode</title>
<polygon fill="none" stroke="black" points="850.5,-647.5 850.5,-716.5 973.5,-716.5 973.5,-647.5 850.5,-647.5"/>
<text text-anchor="middle" x="912" y="-701.3" font-family="Times,serif" font-size="14.00">SearchEpisode</text>
<polyline fill="none" stroke="black" points="850.5,-693.5 973.5,-693.5 "/>
<text text-anchor="start" x="858.5" y="-678.3" font-family="Times,serif" font-size="14.00">statistics</text>
<polyline fill="none" stroke="black" points="850.5,-670.5 973.5,-670.5 "/>
<text text-anchor="middle" x="912" y="-655.3" font-family="Times,serif" font-size="14.00"> </text>
</g>
<!-- funman.search.BoxSearchEpisode&#45;&gt;funman.search.SearchEpisode -->
<g id="edge3" class="edge">
<title>funman.search.BoxSearchEpisode&#45;&gt;funman.search.SearchEpisode</title>
<path fill="none" stroke="#6ab0de" stroke-width="3" d="M1160.35,-590.96C1157.23,-592.67 1154.11,-594.35 1151,-596 1097.36,-624.35 1032.24,-646.8 983.53,-661.49"/>
<polygon fill="none" stroke="#6ab0de" stroke-width="3" points="982.29,-658.21 973.71,-664.42 984.29,-664.92 982.29,-658.21"/>
</g>
<!-- funman.config.Config -->
<g id="node6" class="node">
<title>funman.config.Config</title>
<polygon fill="none" stroke="black" points="1664,-376 1664,-446 1726,-446 1726,-376 1664,-376"/>
<text text-anchor="middle" x="1695" y="-430.8" font-family="Times,serif" font-size="14.00">Config</text>
<polyline fill="none" stroke="black" points="1664,-423 1726,-423 "/>
<polyline fill="none" stroke="black" points="1664,-399 1726,-399 "/>
<text text-anchor="middle" x="1695" y="-383.8" font-family="Times,serif" font-size="14.00"> </text>
</g>
<!-- funman.funman.Funman -->
<g id="node7" class="node">
<title>funman.funman.Funman</title>
<polygon fill="none" stroke="black" points="1758,-52.5 1758,-122.5 2294,-122.5 2294,-52.5 1758,-52.5"/>
<text text-anchor="middle" x="2026" y="-107.3" font-family="Times,serif" font-size="14.00">Funman</text>
<polyline fill="none" stroke="black" points="1758,-99.5 2294,-99.5 "/>
<polyline fill="none" stroke="black" points="1758,-75.5 2294,-75.5 "/>
<text text-anchor="start" x="1766" y="-60.3" font-family="Times,serif" font-size="14.00">solve(problem: AnalysisScenario, config: Config): AnalysisScenarioResult</text>
</g>
<!-- funman.search_utils.Interval -->
<g id="node8" class="node">
<title>funman.search_utils.Interval</title>
<polygon fill="none" stroke="black" points="2312.5,-0.5 2312.5,-174.5 2551.5,-174.5 2551.5,-0.5 2312.5,-0.5"/>
<text text-anchor="middle" x="2432" y="-159.3" font-family="Times,serif" font-size="14.00">Interval</text>
<polyline fill="none" stroke="black" points="2312.5,-151.5 2551.5,-151.5 "/>
<text text-anchor="start" x="2320.5" y="-136.3" font-family="Times,serif" font-size="14.00">cached_width : NoneType, float</text>
<text text-anchor="start" x="2320.5" y="-121.3" font-family="Times,serif" font-size="14.00">lb : float</text>
<text text-anchor="start" x="2320.5" y="-106.3" font-family="Times,serif" font-size="14.00">ub : float</text>
<polyline fill="none" stroke="black" points="2312.5,-98.5 2551.5,-98.5 "/>
<text text-anchor="start" x="2320.5" y="-83.3" font-family="Times,serif" font-size="14.00">contains(other): bool</text>
<text text-anchor="start" x="2320.5" y="-68.3" font-family="Times,serif" font-size="14.00">finite(): bool</text>
<text text-anchor="start" x="2320.5" y="-53.3" font-family="Times,serif" font-size="14.00">intersects(other): bool</text>
<text text-anchor="start" x="2320.5" y="-38.3" font-family="Times,serif" font-size="14.00">midpoint()</text>
<text text-anchor="start" x="2320.5" y="-23.3" font-family="Times,serif" font-size="14.00">to_smt(p: Parameter)</text>
<text text-anchor="start" x="2320.5" y="-8.3" font-family="Times,serif" font-size="14.00">width()</text>
</g>
<!-- funman.model.Model -->
<g id="node9" class="node">
<title>funman.model.Model</title>
<polygon fill="none" stroke="black" points="2570,-53 2570,-122 2642,-122 2642,-53 2570,-53"/>
<text text-anchor="middle" x="2606" y="-106.8" font-family="Times,serif" font-size="14.00">Model</text>
<polyline fill="none" stroke="black" points="2570,-99 2642,-99 "/>
<text text-anchor="start" x="2578" y="-83.8" font-family="Times,serif" font-size="14.00">formula</text>
<polyline fill="none" stroke="black" points="2570,-76 2642,-76 "/>
<text text-anchor="middle" x="2606" y="-60.8" font-family="Times,serif" font-size="14.00"> </text>
</g>
<!-- funman.model.Parameter -->
<g id="node10" class="node">
<title>funman.model.Parameter</title>
<polygon fill="none" stroke="black" points="2660,-45.5 2660,-129.5 2752,-129.5 2752,-45.5 2660,-45.5"/>
<text text-anchor="middle" x="2706" y="-114.3" font-family="Times,serif" font-size="14.00">Parameter</text>
<polyline fill="none" stroke="black" points="2660,-106.5 2752,-106.5 "/>
<text text-anchor="start" x="2668" y="-91.3" font-family="Times,serif" font-size="14.00">name</text>
<text text-anchor="start" x="2668" y="-76.3" font-family="Times,serif" font-size="14.00">symbol</text>
<polyline fill="none" stroke="black" points="2660,-68.5 2752,-68.5 "/>
<text text-anchor="middle" x="2706" y="-53.3" font-family="Times,serif" font-size="14.00"> </text>
</g>
<!-- funman.parameter_space.ParameterSpace -->
<g id="node11" class="node">
<title>funman.parameter_space.ParameterSpace</title>
<polygon fill="none" stroke="black" points="2770,-23 2770,-152 2960,-152 2960,-23 2770,-23"/>
<text text-anchor="middle" x="2865" y="-136.8" font-family="Times,serif" font-size="14.00">ParameterSpace</text>
<polyline fill="none" stroke="black" points="2770,-129 2960,-129 "/>
<text text-anchor="start" x="2778" y="-113.8" font-family="Times,serif" font-size="14.00">false_boxes</text>
<text text-anchor="start" x="2778" y="-98.8" font-family="Times,serif" font-size="14.00">true_boxes</text>
<polyline fill="none" stroke="black" points="2770,-91 2960,-91 "/>
<text text-anchor="start" x="2778" y="-75.8" font-family="Times,serif" font-size="14.00">compare(ps1, ps2): bool</text>
<text text-anchor="start" x="2778" y="-60.8" font-family="Times,serif" font-size="14.00">construct_all_equal(ps): </text>
<text text-anchor="start" x="2778" y="-45.8" font-family="Times,serif" font-size="14.00">intersect(ps1, ps2): </text>
<text text-anchor="start" x="2778" y="-30.8" font-family="Times,serif" font-size="14.00">project(): </text>
</g>
<!-- funman.scenario.ParameterSynthesisScenario -->
<g id="node12" class="node">
<title>funman.scenario.ParameterSynthesisScenario</title>
<polygon fill="none" stroke="black" points="0,-38 0,-137 338,-137 338,-38 0,-38"/>
<text text-anchor="middle" x="169" y="-121.8" font-family="Times,serif" font-size="14.00">ParameterSynthesisScenario</text>
<polyline fill="none" stroke="black" points="0,-114 338,-114 "/>
<text text-anchor="start" x="8" y="-98.8" font-family="Times,serif" font-size="14.00">model</text>
<text text-anchor="start" x="8" y="-83.8" font-family="Times,serif" font-size="14.00">parameters : List[Parameter]</text>
<text text-anchor="start" x="8" y="-68.8" font-family="Times,serif" font-size="14.00">search</text>
<polyline fill="none" stroke="black" points="0,-61 338,-61 "/>
<text text-anchor="start" x="8" y="-45.8" font-family="Times,serif" font-size="14.00">solve(config: SearchConfig): ParameterSpace</text>
</g>
<!-- funman.scenario.ParameterSynthesisScenario&#45;&gt;funman.scenario.AnalysisScenario -->
<g id="edge1" class="edge">
<title>funman.scenario.ParameterSynthesisScenario&#45;&gt;funman.scenario.AnalysisScenario</title>
<path fill="none" stroke="#6ab0de" stroke-width="3" d="M169,-137.33C169,-196.94 169,-297.32 169,-358.24"/>
<polygon fill="none" stroke="#6ab0de" stroke-width="3" points="165.5,-358.4 169,-368.4 172.5,-358.4 165.5,-358.4"/>
</g>
<!-- funman.scenario.ParameterSynthesisScenarioResult -->
<g id="node13" class="node">
<title>funman.scenario.ParameterSynthesisScenarioResult</title>
<polygon fill="none" stroke="black" points="356.5,-53 356.5,-122 625.5,-122 625.5,-53 356.5,-53"/>
<text text-anchor="middle" x="491" y="-106.8" font-family="Times,serif" font-size="14.00">ParameterSynthesisScenarioResult</text>
<polyline fill="none" stroke="black" points="356.5,-99 625.5,-99 "/>
<text text-anchor="start" x="364.5" y="-83.8" font-family="Times,serif" font-size="14.00">result : _SpecialForm</text>
<polyline fill="none" stroke="black" points="356.5,-76 625.5,-76 "/>
<text text-anchor="middle" x="491" y="-60.8" font-family="Times,serif" font-size="14.00"> </text>
</g>
<!-- funman.scenario.ParameterSynthesisScenarioResult&#45;&gt;funman.scenario.AnalysisScenarioResult -->
<g id="edge2" class="edge">
<title>funman.scenario.ParameterSynthesisScenarioResult&#45;&gt;funman.scenario.AnalysisScenarioResult</title>
<path fill="none" stroke="#6ab0de" stroke-width="3" d="M491,-122.3C491,-180.64 491,-300.22 491,-365.34"/>
<polygon fill="none" stroke="#6ab0de" stroke-width="3" points="487.5,-365.69 491,-375.69 494.5,-365.69 487.5,-365.69"/>
</g>
<!-- funman.search_utils.SearchConfig -->
<g id="node14" class="node">
<title>funman.search_utils.SearchConfig</title>
<polygon fill="none" stroke="black" points="1416,-38 1416,-137 1586,-137 1586,-38 1416,-38"/>
<text text-anchor="middle" x="1501" y="-121.8" font-family="Times,serif" font-size="14.00">SearchConfig</text>
<polyline fill="none" stroke="black" points="1416,-114 1586,-114 "/>
<text text-anchor="start" x="1424" y="-98.8" font-family="Times,serif" font-size="14.00">number_of_processes</text>
<text text-anchor="start" x="1424" y="-83.8" font-family="Times,serif" font-size="14.00">queue_timeout : int</text>
<text text-anchor="start" x="1424" y="-68.8" font-family="Times,serif" font-size="14.00">tolerance : float</text>
<polyline fill="none" stroke="black" points="1416,-61 1586,-61 "/>
<text text-anchor="middle" x="1501" y="-45.8" font-family="Times,serif" font-size="14.00"> </text>
</g>
<!-- funman.search_utils.SearchConfig&#45;&gt;funman.search.BoxSearchEpisode -->
<g id="edge6" class="edge">
<title>funman.search_utils.SearchConfig&#45;&gt;funman.search.BoxSearchEpisode</title>
<path fill="none" stroke="#6ab0de" stroke-width="3" d="M1486.12,-137.33C1479.5,-159.04 1471.23,-186.16 1462.5,-214.81"/>
<polygon fill="#6ab0de" stroke="#6ab0de" stroke-width="3" points="1462.5,-214.81 1464.58,-221.71 1459,-226.29 1456.92,-219.38 1462.5,-214.81"/>
<text text-anchor="middle" x="1488.5" y="-196.8" font-family="Times,serif" font-size="14.00" fill="green">config</text>
</g>
<!-- funman.search_utils.SearchConfig&#45;&gt;funman.config.Config -->
<g id="edge4" class="edge">
<title>funman.search_utils.SearchConfig&#45;&gt;funman.config.Config</title>
<path fill="none" stroke="#6ab0de" stroke-width="3" d="M1572.61,-137.3C1602.01,-160.83 1633.81,-191.47 1654,-226 1679.32,-269.31 1689.02,-326.74 1692.72,-365.83"/>
<polygon fill="none" stroke="#6ab0de" stroke-width="3" points="1689.24,-366.19 1693.58,-375.85 1696.22,-365.59 1689.24,-366.19"/>
</g>
<!-- funman.search_utils.SearchStatistics -->
<g id="node16" class="node">
<title>funman.search_utils.SearchStatistics</title>
<polygon fill="none" stroke="black" points="601.5,-324 601.5,-498 1142.5,-498 1142.5,-324 601.5,-324"/>
<text text-anchor="middle" x="872" y="-482.8" font-family="Times,serif" font-size="14.00">SearchStatistics</text>
<polyline fill="none" stroke="black" points="601.5,-475 1142.5,-475 "/>
<text text-anchor="start" x="609.5" y="-459.8" font-family="Times,serif" font-size="14.00">current_residual : SynchronizedString, Synchronized, SynchronizedArray</text>
<text text-anchor="start" x="609.5" y="-444.8" font-family="Times,serif" font-size="14.00">iteration_operation : Queue</text>
<text text-anchor="start" x="609.5" y="-429.8" font-family="Times,serif" font-size="14.00">iteration_time : Queue</text>
<text text-anchor="start" x="609.5" y="-414.8" font-family="Times,serif" font-size="14.00">last_time : SynchronizedString, Synchronized, SynchronizedArray</text>
<text text-anchor="start" x="609.5" y="-399.8" font-family="Times,serif" font-size="14.00">num_false : Synchronized, SynchronizedString, SynchronizedArray</text>
<text text-anchor="start" x="609.5" y="-384.8" font-family="Times,serif" font-size="14.00">num_true : Synchronized, SynchronizedArray, SynchronizedString</text>
<text text-anchor="start" x="609.5" y="-369.8" font-family="Times,serif" font-size="14.00">num_unknown : SynchronizedString, Synchronized, SynchronizedArray</text>
<text text-anchor="start" x="609.5" y="-354.8" font-family="Times,serif" font-size="14.00">residuals : Queue</text>
<polyline fill="none" stroke="black" points="601.5,-347 1142.5,-347 "/>
<text text-anchor="start" x="609.5" y="-331.8" font-family="Times,serif" font-size="14.00">close()</text>
</g>
<!-- funman.search_utils.SearchStatistics&#45;&gt;funman.search.SearchEpisode -->
<g id="edge7" class="edge">
<title>funman.search_utils.SearchStatistics&#45;&gt;funman.search.SearchEpisode</title>
<path fill="none" stroke="#6ab0de" stroke-width="3" d="M884.82,-498.22C891.6,-543.79 899.64,-597.87 905.21,-635.33"/>
<polygon fill="#6ab0de" stroke="#6ab0de" stroke-width="3" points="905.23,-635.49 910.07,-640.83 907,-647.36 902.16,-642.01 905.23,-635.49"/>
<text text-anchor="middle" x="937" y="-617.8" font-family="Times,serif" font-size="14.00" fill="green">statistics</text>
</g>
<!-- funman.simulator.SimConfig -->
<g id="node17" class="node">
<title>funman.simulator.SimConfig</title>
<polygon fill="none" stroke="black" points="1650,-52.5 1650,-122.5 1740,-122.5 1740,-52.5 1650,-52.5"/>
<text text-anchor="middle" x="1695" y="-107.3" font-family="Times,serif" font-size="14.00">SimConfig</text>
<polyline fill="none" stroke="black" points="1650,-99.5 1740,-99.5 "/>
<polyline fill="none" stroke="black" points="1650,-75.5 1740,-75.5 "/>
<text text-anchor="middle" x="1695" y="-60.3" font-family="Times,serif" font-size="14.00"> </text>
</g>
<!-- funman.simulator.SimConfig&#45;&gt;funman.config.Config -->
<g id="edge5" class="edge">
<title>funman.simulator.SimConfig&#45;&gt;funman.config.Config</title>
<path fill="none" stroke="#6ab0de" stroke-width="3" d="M1695,-122.6C1695,-181.08 1695,-300.45 1695,-365.44"/>
<polygon fill="none" stroke="#6ab0de" stroke-width="3" points="1691.5,-365.76 1695,-375.76 1698.5,-365.76 1691.5,-365.76"/>
</g>
<!-- funman.simulator.Simulator -->
<g id="node18" class="node">
<title>funman.simulator.Simulator</title>
<polygon fill="none" stroke="black" points="2978.5,-52.5 2978.5,-122.5 3335.5,-122.5 3335.5,-52.5 2978.5,-52.5"/>
<text text-anchor="middle" x="3157" y="-107.3" font-family="Times,serif" font-size="14.00">Simulator</text>
<polyline fill="none" stroke="black" points="2978.5,-99.5 3335.5,-99.5 "/>
<polyline fill="none" stroke="black" points="2978.5,-75.5 3335.5,-75.5 "/>
<text text-anchor="start" x="2986.5" y="-60.3" font-family="Times,serif" font-size="14.00">query_simulator(run_sim, query: Config, config)</text>
</g>
</g>
</svg>
