<?xml version="1.0" encoding="UTF-8" standalone="no"?>
<!DOCTYPE svg PUBLIC "-//W3C//DTD SVG 1.1//EN"
 "http://www.w3.org/Graphics/SVG/1.1/DTD/svg11.dtd">
<!-- Generated by graphviz version 2.43.0 (0)
 -->
<!-- Title: classes Pages: 1 -->
<svg width="2279pt" height="500pt"
 viewBox="0.00 0.00 2278.50 500.00" xmlns="http://www.w3.org/2000/svg" xmlns:xlink="http://www.w3.org/1999/xlink">
<g id="graph0" class="graph" transform="scale(1 1) rotate(0) translate(4 496)">
<title>classes</title>
<polygon fill="white" stroke="transparent" points="-4,4 -4,-496 2274.5,-496 2274.5,4 -4,4"/>
<!-- funman.scenario.AnalysisScenario -->
<g id="node1" class="node">
<title>funman.scenario.AnalysisScenario</title>
<polygon fill="none" stroke="black" points="287.5,-241 287.5,-311 425.5,-311 425.5,-241 287.5,-241"/>
<text text-anchor="middle" x="356.5" y="-295.8" font-family="Times,serif" font-size="14.00">AnalysisScenario</text>
<polyline fill="none" stroke="black" points="287.5,-288 425.5,-288 "/>
<polyline fill="none" stroke="black" points="287.5,-264 425.5,-264 "/>
<text text-anchor="middle" x="356.5" y="-248.8" font-family="Times,serif" font-size="14.00"> </text>
</g>
<!-- funman.scenario.AnalysisScenarioResult -->
<g id="node2" class="node">
<title>funman.scenario.AnalysisScenarioResult</title>
<polygon fill="none" stroke="black" points="58.5,-422.5 58.5,-491.5 242.5,-491.5 242.5,-422.5 58.5,-422.5"/>
<text text-anchor="middle" x="150.5" y="-476.3" font-family="Times,serif" font-size="14.00">AnalysisScenarioResult</text>
<polyline fill="none" stroke="black" points="58.5,-468.5 242.5,-468.5 "/>
<text text-anchor="start" x="66.5" y="-453.3" font-family="Times,serif" font-size="14.00">scenario</text>
<polyline fill="none" stroke="black" points="58.5,-445.5 242.5,-445.5 "/>
<text text-anchor="middle" x="150.5" y="-430.3" font-family="Times,serif" font-size="14.00"> </text>
</g>
<!-- funman.scenario.AnalysisScenario&#45;&gt;funman.scenario.AnalysisScenarioResult -->
<g id="edge3" class="edge">
<title>funman.scenario.AnalysisScenario&#45;&gt;funman.scenario.AnalysisScenarioResult</title>
<path fill="none" stroke="#6ab0de" stroke-width="3" d="M331.55,-311.23C316.95,-330.02 297.5,-353.07 277.5,-371 259.5,-387.14 238.22,-402.55 218.28,-415.72"/>
<polygon fill="#6ab0de" stroke="#6ab0de" stroke-width="3" points="218.07,-415.86 215.21,-422.48 208,-422.39 210.86,-415.77 218.07,-415.86"/>
<text text-anchor="middle" x="286" y="-392.8" font-family="Times,serif" font-size="14.00" fill="green">scenario</text>
</g>
<!-- funman.search.Box -->
<g id="node3" class="node">
<title>funman.search.Box</title>
<polygon fill="none" stroke="black" points="648.5,-8 648.5,-122 812.5,-122 812.5,-8 648.5,-8"/>
<text text-anchor="middle" x="730.5" y="-106.8" font-family="Times,serif" font-size="14.00">Box</text>
<polyline fill="none" stroke="black" points="648.5,-99 812.5,-99 "/>
<text text-anchor="start" x="656.5" y="-83.8" font-family="Times,serif" font-size="14.00">bounds</text>
<polyline fill="none" stroke="black" points="648.5,-76 812.5,-76 "/>
<text text-anchor="start" x="656.5" y="-60.8" font-family="Times,serif" font-size="14.00">contains(other): bool</text>
<text text-anchor="start" x="656.5" y="-45.8" font-family="Times,serif" font-size="14.00">split()</text>
<text text-anchor="start" x="656.5" y="-30.8" font-family="Times,serif" font-size="14.00">to_smt()</text>
<text text-anchor="start" x="656.5" y="-15.8" font-family="Times,serif" font-size="14.00">width(): float</text>
</g>
<!-- funman.search.BoxSearch -->
<g id="node4" class="node">
<title>funman.search.BoxSearch</title>
<polygon fill="none" stroke="black" points="443.5,-181.5 443.5,-370.5 919.5,-370.5 919.5,-181.5 443.5,-181.5"/>
<text text-anchor="middle" x="681.5" y="-355.3" font-family="Times,serif" font-size="14.00">BoxSearch</text>
<polyline fill="none" stroke="black" points="443.5,-347.5 919.5,-347.5 "/>
<text text-anchor="start" x="451.5" y="-332.3" font-family="Times,serif" font-size="14.00">num_parameters</text>
<text text-anchor="start" x="451.5" y="-317.3" font-family="Times,serif" font-size="14.00">problem</text>
<polyline fill="none" stroke="black" points="443.5,-309.5 919.5,-309.5 "/>
<text text-anchor="start" x="451.5" y="-294.3" font-family="Times,serif" font-size="14.00">initial_box(): Box</text>
<text text-anchor="start" x="451.5" y="-279.3" font-family="Times,serif" font-size="14.00">plot(true_boxes, false_boxes, unknown_boxes, plot_bounds: Box)</text>
<text text-anchor="start" x="451.5" y="-264.3" font-family="Times,serif" font-size="14.00">plot1D(true_boxes, false_boxes, unknown_boxes, plot_bounds)</text>
<text text-anchor="start" x="451.5" y="-249.3" font-family="Times,serif" font-size="14.00">plot1DBox(i: Box, p1: Parameter, color)</text>
<text text-anchor="start" x="451.5" y="-234.3" font-family="Times,serif" font-size="14.00">plot2D(true_boxes, false_boxes, unknown_boxes, plot_bounds)</text>
<text text-anchor="start" x="451.5" y="-219.3" font-family="Times,serif" font-size="14.00">plot2DBox(i: Box, p1: Parameter, p2: Parameter, color)</text>
<text text-anchor="start" x="451.5" y="-204.3" font-family="Times,serif" font-size="14.00">plotBox(interval: Interval)</text>
<text text-anchor="start" x="451.5" y="-189.3" font-family="Times,serif" font-size="14.00">search(initial_box: Box, tolerance: float): Dict[str, List[Box]]</text>
</g>
<!-- funman.funman.Funman -->
<g id="node5" class="node">
<title>funman.funman.Funman</title>
<polygon fill="none" stroke="black" points="831,-23 831,-107 1676,-107 1676,-23 831,-23"/>
<text text-anchor="middle" x="1253.5" y="-91.8" font-family="Times,serif" font-size="14.00">Funman</text>
<polyline fill="none" stroke="black" points="831,-84 1676,-84 "/>
<text text-anchor="start" x="839" y="-68.8" font-family="Times,serif" font-size="14.00">scenario_handlers : dict</text>
<polyline fill="none" stroke="black" points="831,-61 1676,-61 "/>
<text text-anchor="start" x="839" y="-45.8" font-family="Times,serif" font-size="14.00">solve(problem: AnalysisScenario): AnalysisScenarioResult</text>
<text text-anchor="start" x="839" y="-30.8" font-family="Times,serif" font-size="14.00">synthesize_parameters(problem: ParameterSynthesisScenario, tolerance: float): ParameterSynthesisScenarioResult</text>
</g>
<!-- funman.search.Interval -->
<g id="node6" class="node">
<title>funman.search.Interval</title>
<polygon fill="none" stroke="black" points="1694.5,-0.5 1694.5,-129.5 1862.5,-129.5 1862.5,-0.5 1694.5,-0.5"/>
<text text-anchor="middle" x="1778.5" y="-114.3" font-family="Times,serif" font-size="14.00">Interval</text>
<polyline fill="none" stroke="black" points="1694.5,-106.5 1862.5,-106.5 "/>
<text text-anchor="start" x="1702.5" y="-91.3" font-family="Times,serif" font-size="14.00">lb : float</text>
<text text-anchor="start" x="1702.5" y="-76.3" font-family="Times,serif" font-size="14.00">ub : float</text>
<polyline fill="none" stroke="black" points="1694.5,-68.5 1862.5,-68.5 "/>
<text text-anchor="start" x="1702.5" y="-53.3" font-family="Times,serif" font-size="14.00">contains(other): bool</text>
<text text-anchor="start" x="1702.5" y="-38.3" font-family="Times,serif" font-size="14.00">midpoint()</text>
<text text-anchor="start" x="1702.5" y="-23.3" font-family="Times,serif" font-size="14.00">to_smt(p: Parameter)</text>
<text text-anchor="start" x="1702.5" y="-8.3" font-family="Times,serif" font-size="14.00">width()</text>
</g>
<!-- funman.model.Model -->
<g id="node7" class="node">
<title>funman.model.Model</title>
<polygon fill="none" stroke="black" points="1880.5,-30.5 1880.5,-99.5 1952.5,-99.5 1952.5,-30.5 1880.5,-30.5"/>
<text text-anchor="middle" x="1916.5" y="-84.3" font-family="Times,serif" font-size="14.00">Model</text>
<polyline fill="none" stroke="black" points="1880.5,-76.5 1952.5,-76.5 "/>
<text text-anchor="start" x="1888.5" y="-61.3" font-family="Times,serif" font-size="14.00">formula</text>
<polyline fill="none" stroke="black" points="1880.5,-53.5 1952.5,-53.5 "/>
<text text-anchor="middle" x="1916.5" y="-38.3" font-family="Times,serif" font-size="14.00"> </text>
</g>
<!-- funman.model.Parameter -->
<g id="node8" class="node">
<title>funman.model.Parameter</title>
<polygon fill="none" stroke="black" points="1970.5,-23 1970.5,-107 2062.5,-107 2062.5,-23 1970.5,-23"/>
<text text-anchor="middle" x="2016.5" y="-91.8" font-family="Times,serif" font-size="14.00">Parameter</text>
<polyline fill="none" stroke="black" points="1970.5,-84 2062.5,-84 "/>
<text text-anchor="start" x="1978.5" y="-68.8" font-family="Times,serif" font-size="14.00">name</text>
<text text-anchor="start" x="1978.5" y="-53.8" font-family="Times,serif" font-size="14.00">symbol</text>
<polyline fill="none" stroke="black" points="1970.5,-46 2062.5,-46 "/>
<text text-anchor="middle" x="2016.5" y="-30.8" font-family="Times,serif" font-size="14.00"> </text>
</g>
<!-- funman.parameter_space.ParameterSpace -->
<g id="node9" class="node">
<title>funman.parameter_space.ParameterSpace</title>
<polygon fill="none" stroke="black" points="2080.5,-7.5 2080.5,-122.5 2270.5,-122.5 2270.5,-7.5 2080.5,-7.5"/>
<text text-anchor="middle" x="2175.5" y="-107.3" font-family="Times,serif" font-size="14.00">ParameterSpace</text>
<polyline fill="none" stroke="black" points="2080.5,-99.5 2270.5,-99.5 "/>
<polyline fill="none" stroke="black" points="2080.5,-75.5 2270.5,-75.5 "/>
<text text-anchor="start" x="2088.5" y="-60.3" font-family="Times,serif" font-size="14.00">compare(ps1, ps2): bool</text>
<text text-anchor="start" x="2088.5" y="-45.3" font-family="Times,serif" font-size="14.00">construct_all_equal(ps): </text>
<text text-anchor="start" x="2088.5" y="-30.3" font-family="Times,serif" font-size="14.00">intersect(ps1, ps2): </text>
<text text-anchor="start" x="2088.5" y="-15.3" font-family="Times,serif" font-size="14.00">project(): </text>
</g>
<!-- funman.scenario.ParameterSynthesisScenario -->
<g id="node10" class="node">
<title>funman.scenario.ParameterSynthesisScenario</title>
<polygon fill="none" stroke="black" points="406.5,-23 406.5,-107 630.5,-107 630.5,-23 406.5,-23"/>
<text text-anchor="middle" x="518.5" y="-91.8" font-family="Times,serif" font-size="14.00">ParameterSynthesisScenario</text>
<polyline fill="none" stroke="black" points="406.5,-84 630.5,-84 "/>
<text text-anchor="start" x="414.5" y="-68.8" font-family="Times,serif" font-size="14.00">model</text>
<text text-anchor="start" x="414.5" y="-53.8" font-family="Times,serif" font-size="14.00">parameters</text>
<polyline fill="none" stroke="black" points="406.5,-46 630.5,-46 "/>
<text text-anchor="middle" x="518.5" y="-30.8" font-family="Times,serif" font-size="14.00"> </text>
</g>
<!-- funman.scenario.ParameterSynthesisScenario&#45;&gt;funman.scenario.AnalysisScenario -->
<g id="edge1" class="edge">
<title>funman.scenario.ParameterSynthesisScenario&#45;&gt;funman.scenario.AnalysisScenario</title>
<path fill="none" stroke="#6ab0de" stroke-width="3" d="M486.49,-107.29C458.38,-143.57 417.64,-196.12 389.29,-232.7"/>
<polygon fill="none" stroke="#6ab0de" stroke-width="3" points="386.44,-230.66 383.08,-240.71 391.97,-234.95 386.44,-230.66"/>
</g>
<!-- funman.scenario.ParameterSynthesisScenario&#45;&gt;funman.search.BoxSearch -->
<g id="edge4" class="edge">
<title>funman.scenario.ParameterSynthesisScenario&#45;&gt;funman.search.BoxSearch</title>
<path fill="none" stroke="#6ab0de" stroke-width="3" d="M550.7,-107.29C565.3,-126.01 583.28,-149.06 601.18,-172.01"/>
<polygon fill="#6ab0de" stroke="#6ab0de" stroke-width="3" points="601.18,-172.01 608.03,-174.29 608.56,-181.48 601.72,-179.21 601.18,-172.01"/>
<text text-anchor="middle" x="620.5" y="-151.8" font-family="Times,serif" font-size="14.00" fill="green">problem</text>
</g>
<!-- funman.scenario.ParameterSynthesisScenarioResult -->
<g id="node11" class="node">
<title>funman.scenario.ParameterSynthesisScenarioResult</title>
<polygon fill="none" stroke="black" points="0,-241.5 0,-310.5 269,-310.5 269,-241.5 0,-241.5"/>
<text text-anchor="middle" x="134.5" y="-295.3" font-family="Times,serif" font-size="14.00">ParameterSynthesisScenarioResult</text>
<polyline fill="none" stroke="black" points="0,-287.5 269,-287.5 "/>
<text text-anchor="start" x="8" y="-272.3" font-family="Times,serif" font-size="14.00">result : _SpecialForm</text>
<polyline fill="none" stroke="black" points="0,-264.5 269,-264.5 "/>
<text text-anchor="middle" x="134.5" y="-249.3" font-family="Times,serif" font-size="14.00"> </text>
</g>
<!-- funman.scenario.ParameterSynthesisScenarioResult&#45;&gt;funman.scenario.AnalysisScenarioResult -->
<g id="edge2" class="edge">
<title>funman.scenario.ParameterSynthesisScenarioResult&#45;&gt;funman.scenario.AnalysisScenarioResult</title>
<path fill="none" stroke="#6ab0de" stroke-width="3" d="M137.51,-310.67C140.08,-339.42 143.79,-380.97 146.59,-412.29"/>
<polygon fill="none" stroke="#6ab0de" stroke-width="3" points="143.13,-412.83 147.5,-422.48 150.1,-412.21 143.13,-412.83"/>
</g>
</g>
</svg>
