<?xml version="1.0" encoding="UTF-8" standalone="no"?>
<!DOCTYPE svg PUBLIC "-//W3C//DTD SVG 1.1//EN"
 "http://www.w3.org/Graphics/SVG/1.1/DTD/svg11.dtd">
<!-- Generated by graphviz version 6.0.1 (20220911.1526)
 -->
<!-- Title: classes Pages: 1 -->
<svg width="2721pt" height="725pt"
 viewBox="0.00 0.00 2721.00 725.00" xmlns="http://www.w3.org/2000/svg" xmlns:xlink="http://www.w3.org/1999/xlink">
<g id="graph0" class="graph" transform="scale(1 1) rotate(0) translate(4 721)">
<title>classes</title>
<polygon fill="white" stroke="none" points="-4,4 -4,-721 2717,-721 2717,4 -4,4"/>
<!-- funman.scenario.AnalysisScenario -->
<g id="node1" class="node">
<title>funman.scenario.AnalysisScenario</title>
<polygon fill="none" stroke="black" points="66,-368.5 66,-453.5 200,-453.5 200,-368.5 66,-368.5"/>
<text text-anchor="middle" x="133" y="-438.3" font-family="Times,serif" font-size="14.00">AnalysisScenario</text>
<polyline fill="none" stroke="black" points="66,-430.5 200,-430.5"/>
<polyline fill="none" stroke="black" points="66,-406.5 200,-406.5"/>
<text text-anchor="start" x="74" y="-391.3" font-family="Times,serif" font-size="14.00">simulate()</text>
<text text-anchor="start" x="74" y="-376.3" font-family="Times,serif" font-size="14.00">solve(config: Config)</text>
</g>
<!-- funman.scenario.AnalysisScenarioResult -->
<g id="node2" class="node">
<title>funman.scenario.AnalysisScenarioResult</title>
<polygon fill="none" stroke="black" points="314,-376 314,-446 460,-446 460,-376 314,-376"/>
<text text-anchor="middle" x="387" y="-430.8" font-family="Times,serif" font-size="14.00">AnalysisScenarioResult</text>
<polyline fill="none" stroke="black" points="314,-423 460,-423"/>
<polyline fill="none" stroke="black" points="314,-399 460,-399"/>
<text text-anchor="middle" x="387" y="-383.8" font-family="Times,serif" font-size="14.00"> </text>
</g>
<!-- funman.search_utils.Box -->
<g id="node3" class="node">
<title>funman.search_utils.Box</title>
<polygon fill="none" stroke="black" points="520,-8 520,-167 690,-167 690,-8 520,-8"/>
<text text-anchor="middle" x="605" y="-151.8" font-family="Times,serif" font-size="14.00">Box</text>
<polyline fill="none" stroke="black" points="520,-144 690,-144"/>
<text text-anchor="start" x="528" y="-128.8" font-family="Times,serif" font-size="14.00">bounds</text>
<text text-anchor="start" x="528" y="-113.8" font-family="Times,serif" font-size="14.00">cached_width : NoneType</text>
<polyline fill="none" stroke="black" points="520,-106 690,-106"/>
<text text-anchor="start" x="528" y="-90.8" font-family="Times,serif" font-size="14.00">contains(other: &#39;Box&#39;): bool</text>
<text text-anchor="start" x="528" y="-75.8" font-family="Times,serif" font-size="14.00">finite(): bool</text>
<text text-anchor="start" x="528" y="-60.8" font-family="Times,serif" font-size="14.00">intersects(other: &#39;Box&#39;): bool</text>
<text text-anchor="start" x="528" y="-45.8" font-family="Times,serif" font-size="14.00">split()</text>
<text text-anchor="start" x="528" y="-30.8" font-family="Times,serif" font-size="14.00">to_smt()</text>
<text text-anchor="start" x="528" y="-15.8" font-family="Times,serif" font-size="14.00">width(): float</text>
</g>
<!-- funman.search.BoxSearch -->
<g id="node4" class="node">
<title>funman.search.BoxSearch</title>
<polygon fill="none" stroke="black" points="756,-30.5 756,-144.5 1096,-144.5 1096,-30.5 756,-30.5"/>
<text text-anchor="middle" x="926" y="-129.3" font-family="Times,serif" font-size="14.00">BoxSearch</text>
<polyline fill="none" stroke="black" points="756,-121.5 1096,-121.5"/>
<text text-anchor="start" x="764" y="-106.3" font-family="Times,serif" font-size="14.00">episodes : list</text>
<polyline fill="none" stroke="black" points="756,-98.5 1096,-98.5"/>
<text text-anchor="start" x="764" y="-83.3" font-family="Times,serif" font-size="14.00">expand(rval: Queue, episode: BoxSearchEpisode): None</text>
<text text-anchor="start" x="764" y="-68.3" font-family="Times,serif" font-size="14.00">initialize(episode: BoxSearchEpisode)</text>
<text text-anchor="start" x="764" y="-53.3" font-family="Times,serif" font-size="14.00">search(problem, config: SearchConfig): BoxSearchEpisode</text>
<text text-anchor="start" x="764" y="-38.3" font-family="Times,serif" font-size="14.00">split(box: Box, episode: BoxSearchEpisode)</text>
</g>
<!-- funman.search.BoxSearchEpisode -->
<g id="node5" class="node">
<title>funman.search.BoxSearchEpisode</title>
<polygon fill="none" stroke="black" points="913.5,-226.5 913.5,-595.5 1296.5,-595.5 1296.5,-226.5 913.5,-226.5"/>
<text text-anchor="middle" x="1105" y="-580.3" font-family="Times,serif" font-size="14.00">BoxSearchEpisode</text>
<polyline fill="none" stroke="black" points="913.5,-572.5 1296.5,-572.5"/>
<text text-anchor="start" x="921.5" y="-557.3" font-family="Times,serif" font-size="14.00">config</text>
<text text-anchor="start" x="921.5" y="-542.3" font-family="Times,serif" font-size="14.00">false_boxes : list</text>
<text text-anchor="start" x="921.5" y="-527.3" font-family="Times,serif" font-size="14.00">internal_process_id : int</text>
<text text-anchor="start" x="921.5" y="-512.3" font-family="Times,serif" font-size="14.00">iteration : Synchronized, SynchronizedString, SynchronizedArray</text>
<text text-anchor="start" x="921.5" y="-497.3" font-family="Times,serif" font-size="14.00">num_parameters</text>
<text text-anchor="start" x="921.5" y="-482.3" font-family="Times,serif" font-size="14.00">problem</text>
<text text-anchor="start" x="921.5" y="-467.3" font-family="Times,serif" font-size="14.00">true_boxes : list</text>
<text text-anchor="start" x="921.5" y="-452.3" font-family="Times,serif" font-size="14.00">unknown_boxes : Queue</text>
<polyline fill="none" stroke="black" points="913.5,-444.5 1296.5,-444.5"/>
<text text-anchor="start" x="921.5" y="-429.3" font-family="Times,serif" font-size="14.00">add_false(box: Box)</text>
<text text-anchor="start" x="921.5" y="-414.3" font-family="Times,serif" font-size="14.00">add_true(box: Box)</text>
<text text-anchor="start" x="921.5" y="-399.3" font-family="Times,serif" font-size="14.00">add_unknown(box: Union[Box, List[Box]])</text>
<text text-anchor="start" x="921.5" y="-384.3" font-family="Times,serif" font-size="14.00">close()</text>
<text text-anchor="start" x="921.5" y="-369.3" font-family="Times,serif" font-size="14.00">get_unknown()</text>
<text text-anchor="start" x="921.5" y="-354.3" font-family="Times,serif" font-size="14.00">initial_box(): Box</text>
<text text-anchor="start" x="921.5" y="-339.3" font-family="Times,serif" font-size="14.00">on_iteration()</text>
<text text-anchor="start" x="921.5" y="-324.3" font-family="Times,serif" font-size="14.00">on_start()</text>
<text text-anchor="start" x="921.5" y="-309.3" font-family="Times,serif" font-size="14.00">plot(plot_bounds: Box, title)</text>
<text text-anchor="start" x="921.5" y="-294.3" font-family="Times,serif" font-size="14.00">plot1D(true_boxes: Queue, false_boxes: Queue, plot_bounds: Box)</text>
<text text-anchor="start" x="921.5" y="-279.3" font-family="Times,serif" font-size="14.00">plot1DBox(i: Box, p1: Parameter, color)</text>
<text text-anchor="start" x="921.5" y="-264.3" font-family="Times,serif" font-size="14.00">plot2D(true_boxes: Queue, false_boxes: Queue, plot_bounds: Box)</text>
<text text-anchor="start" x="921.5" y="-249.3" font-family="Times,serif" font-size="14.00">plot2DBox(i: Box, p1: Parameter, p2: Parameter, color)</text>
<text text-anchor="start" x="921.5" y="-234.3" font-family="Times,serif" font-size="14.00">plotBox(interval: Interval)</text>
</g>
<!-- funman.search.SearchEpisode -->
<g id="node15" class="node">
<title>funman.search.SearchEpisode</title>
<polygon fill="none" stroke="black" points="669.5,-647.5 669.5,-716.5 766.5,-716.5 766.5,-647.5 669.5,-647.5"/>
<text text-anchor="middle" x="718" y="-701.3" font-family="Times,serif" font-size="14.00">SearchEpisode</text>
<polyline fill="none" stroke="black" points="669.5,-693.5 766.5,-693.5"/>
<text text-anchor="start" x="677.5" y="-678.3" font-family="Times,serif" font-size="14.00">statistics</text>
<polyline fill="none" stroke="black" points="669.5,-670.5 766.5,-670.5"/>
<text text-anchor="middle" x="718" y="-655.3" font-family="Times,serif" font-size="14.00"> </text>
</g>
<!-- funman.search.BoxSearchEpisode&#45;&gt;funman.search.SearchEpisode -->
<g id="edge3" class="edge">
<title>funman.search.BoxSearchEpisode&#45;&gt;funman.search.SearchEpisode</title>
<path fill="none" stroke="#6ab0de" stroke-width="3" d="M913.46,-589.59C910.31,-591.77 907.16,-593.91 904,-596 863.89,-622.57 814.12,-644.83 776.16,-659.89"/>
<polygon fill="none" stroke="#6ab0de" stroke-width="3" points="774.82,-656.66 766.78,-663.57 777.37,-663.18 774.82,-656.66"/>
</g>
<!-- funman.config.Config -->
<g id="node6" class="node">
<title>funman.config.Config</title>
<polygon fill="none" stroke="black" points="1315,-376 1315,-446 1369,-446 1369,-376 1315,-376"/>
<text text-anchor="middle" x="1342" y="-430.8" font-family="Times,serif" font-size="14.00">Config</text>
<polyline fill="none" stroke="black" points="1315,-423 1369,-423"/>
<polyline fill="none" stroke="black" points="1315,-399 1369,-399"/>
<text text-anchor="middle" x="1342" y="-383.8" font-family="Times,serif" font-size="14.00"> </text>
</g>
<!-- funman.funman.Funman -->
<g id="node7" class="node">
<title>funman.funman.Funman</title>
<polygon fill="none" stroke="black" points="1399,-52.5 1399,-122.5 1823,-122.5 1823,-52.5 1399,-52.5"/>
<text text-anchor="middle" x="1611" y="-107.3" font-family="Times,serif" font-size="14.00">Funman</text>
<polyline fill="none" stroke="black" points="1399,-99.5 1823,-99.5"/>
<polyline fill="none" stroke="black" points="1399,-75.5 1823,-75.5"/>
<text text-anchor="start" x="1407" y="-60.3" font-family="Times,serif" font-size="14.00">solve(problem: AnalysisScenario, config: Config): AnalysisScenarioResult</text>
</g>
<!-- funman.search_utils.Interval -->
<g id="node8" class="node">
<title>funman.search_utils.Interval</title>
<polygon fill="none" stroke="black" points="1841.5,-0.5 1841.5,-174.5 2032.5,-174.5 2032.5,-0.5 1841.5,-0.5"/>
<text text-anchor="middle" x="1937" y="-159.3" font-family="Times,serif" font-size="14.00">Interval</text>
<polyline fill="none" stroke="black" points="1841.5,-151.5 2032.5,-151.5"/>
<text text-anchor="start" x="1849.5" y="-136.3" font-family="Times,serif" font-size="14.00">cached_width : NoneType, float</text>
<text text-anchor="start" x="1849.5" y="-121.3" font-family="Times,serif" font-size="14.00">lb : float</text>
<text text-anchor="start" x="1849.5" y="-106.3" font-family="Times,serif" font-size="14.00">ub : float</text>
<polyline fill="none" stroke="black" points="1841.5,-98.5 2032.5,-98.5"/>
<text text-anchor="start" x="1849.5" y="-83.3" font-family="Times,serif" font-size="14.00">contains(other: &#39;Interval&#39;): bool</text>
<text text-anchor="start" x="1849.5" y="-68.3" font-family="Times,serif" font-size="14.00">finite(): bool</text>
<text text-anchor="start" x="1849.5" y="-53.3" font-family="Times,serif" font-size="14.00">intersects(other: &#39;Interval&#39;): bool</text>
<text text-anchor="start" x="1849.5" y="-38.3" font-family="Times,serif" font-size="14.00">midpoint()</text>
<text text-anchor="start" x="1849.5" y="-23.3" font-family="Times,serif" font-size="14.00">to_smt(p: Parameter)</text>
<text text-anchor="start" x="1849.5" y="-8.3" font-family="Times,serif" font-size="14.00">width()</text>
</g>
<!-- funman.model.Model -->
<g id="node9" class="node">
<title>funman.model.Model</title>
<polygon fill="none" stroke="black" points="2051,-53 2051,-122 2111,-122 2111,-53 2051,-53"/>
<text text-anchor="middle" x="2081" y="-106.8" font-family="Times,serif" font-size="14.00">Model</text>
<polyline fill="none" stroke="black" points="2051,-99 2111,-99"/>
<text text-anchor="start" x="2059" y="-83.8" font-family="Times,serif" font-size="14.00">formula</text>
<polyline fill="none" stroke="black" points="2051,-76 2111,-76"/>
<text text-anchor="middle" x="2081" y="-60.8" font-family="Times,serif" font-size="14.00"> </text>
</g>
<!-- funman.model.Parameter -->
<g id="node10" class="node">
<title>funman.model.Parameter</title>
<polygon fill="none" stroke="black" points="2129,-45.5 2129,-129.5 2201,-129.5 2201,-45.5 2129,-45.5"/>
<text text-anchor="middle" x="2165" y="-114.3" font-family="Times,serif" font-size="14.00">Parameter</text>
<polyline fill="none" stroke="black" points="2129,-106.5 2201,-106.5"/>
<text text-anchor="start" x="2137" y="-91.3" font-family="Times,serif" font-size="14.00">name</text>
<text text-anchor="start" x="2137" y="-76.3" font-family="Times,serif" font-size="14.00">symbol</text>
<polyline fill="none" stroke="black" points="2129,-68.5 2201,-68.5"/>
<text text-anchor="middle" x="2165" y="-53.3" font-family="Times,serif" font-size="14.00"> </text>
</g>
<!-- funman.parameter_space.ParameterSpace -->
<g id="node11" class="node">
<title>funman.parameter_space.ParameterSpace</title>
<polygon fill="none" stroke="black" points="2219.5,-23 2219.5,-152 2462.5,-152 2462.5,-23 2219.5,-23"/>
<text text-anchor="middle" x="2341" y="-136.8" font-family="Times,serif" font-size="14.00">ParameterSpace</text>
<polyline fill="none" stroke="black" points="2219.5,-129 2462.5,-129"/>
<text text-anchor="start" x="2227.5" y="-113.8" font-family="Times,serif" font-size="14.00">false_boxes</text>
<text text-anchor="start" x="2227.5" y="-98.8" font-family="Times,serif" font-size="14.00">true_boxes</text>
<polyline fill="none" stroke="black" points="2219.5,-91 2462.5,-91"/>
<text text-anchor="start" x="2227.5" y="-75.8" font-family="Times,serif" font-size="14.00">compare(ps1, ps2): bool</text>
<text text-anchor="start" x="2227.5" y="-60.8" font-family="Times,serif" font-size="14.00">construct_all_equal(ps): &#39;ParameterSpace&#39;</text>
<text text-anchor="start" x="2227.5" y="-45.8" font-family="Times,serif" font-size="14.00">intersect(ps1, ps2): &#39;ParameterSpace&#39;</text>
<text text-anchor="start" x="2227.5" y="-30.8" font-family="Times,serif" font-size="14.00">project(): &#39;ParameterSpace&#39;</text>
</g>
<!-- funman.scenario.ParameterSynthesisScenario -->
<g id="node12" class="node">
<title>funman.scenario.ParameterSynthesisScenario</title>
<polygon fill="none" stroke="black" points="0,-38 0,-137 266,-137 266,-38 0,-38"/>
<text text-anchor="middle" x="133" y="-121.8" font-family="Times,serif" font-size="14.00">ParameterSynthesisScenario</text>
<polyline fill="none" stroke="black" points="0,-114 266,-114"/>
<text text-anchor="start" x="8" y="-98.8" font-family="Times,serif" font-size="14.00">model</text>
<text text-anchor="start" x="8" y="-83.8" font-family="Times,serif" font-size="14.00">parameters : List[Parameter]</text>
<text text-anchor="start" x="8" y="-68.8" font-family="Times,serif" font-size="14.00">search</text>
<polyline fill="none" stroke="black" points="0,-61 266,-61"/>
<text text-anchor="start" x="8" y="-45.8" font-family="Times,serif" font-size="14.00">solve(config: SearchConfig): ParameterSpace</text>
</g>
<!-- funman.scenario.ParameterSynthesisScenario&#45;&gt;funman.scenario.AnalysisScenario -->
<g id="edge1" class="edge">
<title>funman.scenario.ParameterSynthesisScenario&#45;&gt;funman.scenario.AnalysisScenario</title>
<path fill="none" stroke="#6ab0de" stroke-width="3" d="M133,-137.33C133,-196.94 133,-297.32 133,-358.24"/>
<polygon fill="none" stroke="#6ab0de" stroke-width="3" points="129.5,-358.4 133,-368.4 136.5,-358.4 129.5,-358.4"/>
</g>
<!-- funman.scenario.ParameterSynthesisScenarioResult -->
<g id="node13" class="node">
<title>funman.scenario.ParameterSynthesisScenarioResult</title>
<polygon fill="none" stroke="black" points="284,-53 284,-122 490,-122 490,-53 284,-53"/>
<text text-anchor="middle" x="387" y="-106.8" font-family="Times,serif" font-size="14.00">ParameterSynthesisScenarioResult</text>
<polyline fill="none" stroke="black" points="284,-99 490,-99"/>
<text text-anchor="start" x="292" y="-83.8" font-family="Times,serif" font-size="14.00">result</text>
<polyline fill="none" stroke="black" points="284,-76 490,-76"/>
<text text-anchor="middle" x="387" y="-60.8" font-family="Times,serif" font-size="14.00"> </text>
</g>
<!-- funman.scenario.ParameterSynthesisScenarioResult&#45;&gt;funman.scenario.AnalysisScenarioResult -->
<g id="edge2" class="edge">
<title>funman.scenario.ParameterSynthesisScenarioResult&#45;&gt;funman.scenario.AnalysisScenarioResult</title>
<path fill="none" stroke="#6ab0de" stroke-width="3" d="M387,-122.3C387,-180.64 387,-300.22 387,-365.34"/>
<polygon fill="none" stroke="#6ab0de" stroke-width="3" points="383.5,-365.69 387,-375.69 390.5,-365.69 383.5,-365.69"/>
</g>
<!-- funman.search_utils.SearchConfig -->
<g id="node14" class="node">
<title>funman.search_utils.SearchConfig</title>
<polygon fill="none" stroke="black" points="1138.5,-38 1138.5,-137 1273.5,-137 1273.5,-38 1138.5,-38"/>
<text text-anchor="middle" x="1206" y="-121.8" font-family="Times,serif" font-size="14.00">SearchConfig</text>
<polyline fill="none" stroke="black" points="1138.5,-114 1273.5,-114"/>
<text text-anchor="start" x="1146.5" y="-98.8" font-family="Times,serif" font-size="14.00">number_of_processes</text>
<text text-anchor="start" x="1146.5" y="-83.8" font-family="Times,serif" font-size="14.00">queue_timeout : int</text>
<text text-anchor="start" x="1146.5" y="-68.8" font-family="Times,serif" font-size="14.00">tolerance : float</text>
<polyline fill="none" stroke="black" points="1138.5,-61 1273.5,-61"/>
<text text-anchor="middle" x="1206" y="-45.8" font-family="Times,serif" font-size="14.00"> </text>
</g>
<!-- funman.search_utils.SearchConfig&#45;&gt;funman.search.BoxSearchEpisode -->
<g id="edge6" class="edge">
<title>funman.search_utils.SearchConfig&#45;&gt;funman.search.BoxSearchEpisode</title>
<path fill="none" stroke="#6ab0de" stroke-width="3" d="M1190.66,-137.33C1183.84,-159.04 1175.32,-186.16 1166.32,-214.81"/>
<polygon fill="#6ab0de" stroke="#6ab0de" stroke-width="3" points="1166.31,-214.84 1168.33,-221.76 1162.71,-226.29 1160.7,-219.36 1166.31,-214.84"/>
<text text-anchor="middle" x="1188.5" y="-196.8" font-family="Times,serif" font-size="14.00" fill="green">config</text>
</g>
<!-- funman.search_utils.SearchConfig&#45;&gt;funman.config.Config -->
<g id="edge4" class="edge">
<title>funman.search_utils.SearchConfig&#45;&gt;funman.config.Config</title>
<path fill="none" stroke="#6ab0de" stroke-width="3" d="M1248.94,-137.24C1268.82,-162.22 1291.07,-194.05 1305,-226 1324.7,-271.18 1334.04,-327.22 1338.38,-365.5"/>
<polygon fill="none" stroke="#6ab0de" stroke-width="3" points="1334.94,-366.23 1339.48,-375.81 1341.9,-365.49 1334.94,-366.23"/>
</g>
<!-- funman.search_utils.SearchStatistics -->
<g id="node16" class="node">
<title>funman.search_utils.SearchStatistics</title>
<polygon fill="none" stroke="black" points="478.5,-324 478.5,-498 895.5,-498 895.5,-324 478.5,-324"/>
<text text-anchor="middle" x="687" y="-482.8" font-family="Times,serif" font-size="14.00">SearchStatistics</text>
<polyline fill="none" stroke="black" points="478.5,-475 895.5,-475"/>
<text text-anchor="start" x="486.5" y="-459.8" font-family="Times,serif" font-size="14.00">current_residual : SynchronizedString, SynchronizedArray, Synchronized</text>
<text text-anchor="start" x="486.5" y="-444.8" font-family="Times,serif" font-size="14.00">iteration_operation : Queue</text>
<text text-anchor="start" x="486.5" y="-429.8" font-family="Times,serif" font-size="14.00">iteration_time : Queue</text>
<text text-anchor="start" x="486.5" y="-414.8" font-family="Times,serif" font-size="14.00">last_time : Synchronized, SynchronizedString, SynchronizedArray</text>
<text text-anchor="start" x="486.5" y="-399.8" font-family="Times,serif" font-size="14.00">num_false : Synchronized, SynchronizedArray, SynchronizedString</text>
<text text-anchor="start" x="486.5" y="-384.8" font-family="Times,serif" font-size="14.00">num_true : SynchronizedArray, SynchronizedString, Synchronized</text>
<text text-anchor="start" x="486.5" y="-369.8" font-family="Times,serif" font-size="14.00">num_unknown : SynchronizedString, Synchronized, SynchronizedArray</text>
<text text-anchor="start" x="486.5" y="-354.8" font-family="Times,serif" font-size="14.00">residuals : Queue</text>
<polyline fill="none" stroke="black" points="478.5,-347 895.5,-347"/>
<text text-anchor="start" x="486.5" y="-331.8" font-family="Times,serif" font-size="14.00">close()</text>
</g>
<!-- funman.search_utils.SearchStatistics&#45;&gt;funman.search.SearchEpisode -->
<g id="edge7" class="edge">
<title>funman.search_utils.SearchStatistics&#45;&gt;funman.search.SearchEpisode</title>
<path fill="none" stroke="#6ab0de" stroke-width="3" d="M696.94,-498.22C702.19,-543.79 708.42,-597.87 712.74,-635.33"/>
<polygon fill="#6ab0de" stroke="#6ab0de" stroke-width="3" points="712.75,-635.44 717.41,-640.94 714.12,-647.36 709.46,-641.85 712.75,-635.44"/>
<text text-anchor="middle" x="735.5" y="-617.8" font-family="Times,serif" font-size="14.00" fill="green">statistics</text>
</g>
<!-- funman.simulator.SimConfig -->
<g id="node17" class="node">
<title>funman.simulator.SimConfig</title>
<polygon fill="none" stroke="black" points="1303.5,-52.5 1303.5,-122.5 1380.5,-122.5 1380.5,-52.5 1303.5,-52.5"/>
<text text-anchor="middle" x="1342" y="-107.3" font-family="Times,serif" font-size="14.00">SimConfig</text>
<polyline fill="none" stroke="black" points="1303.5,-99.5 1380.5,-99.5"/>
<polyline fill="none" stroke="black" points="1303.5,-75.5 1380.5,-75.5"/>
<text text-anchor="middle" x="1342" y="-60.3" font-family="Times,serif" font-size="14.00"> </text>
</g>
<!-- funman.simulator.SimConfig&#45;&gt;funman.config.Config -->
<g id="edge5" class="edge">
<title>funman.simulator.SimConfig&#45;&gt;funman.config.Config</title>
<path fill="none" stroke="#6ab0de" stroke-width="3" d="M1342,-122.6C1342,-181.08 1342,-300.45 1342,-365.44"/>
<polygon fill="none" stroke="#6ab0de" stroke-width="3" points="1338.5,-365.76 1342,-375.76 1345.5,-365.76 1338.5,-365.76"/>
</g>
<!-- funman.simulator.Simulator -->
<g id="node18" class="node">
<title>funman.simulator.Simulator</title>
<polygon fill="none" stroke="black" points="2481,-52.5 2481,-122.5 2713,-122.5 2713,-52.5 2481,-52.5"/>
<text text-anchor="middle" x="2597" y="-107.3" font-family="Times,serif" font-size="14.00">Simulator</text>
<polyline fill="none" stroke="black" points="2481,-99.5 2713,-99.5"/>
<polyline fill="none" stroke="black" points="2481,-75.5 2713,-75.5"/>
<text text-anchor="start" x="2489" y="-60.3" font-family="Times,serif" font-size="14.00">query_simulator(query, config: Config)</text>
</g>
</g>
</svg>
