<?xml version="1.0" encoding="UTF-8" standalone="no"?>
<!DOCTYPE svg PUBLIC "-//W3C//DTD SVG 1.1//EN"
 "http://www.w3.org/Graphics/SVG/1.1/DTD/svg11.dtd">
<!-- Generated by graphviz version 2.43.0 (0)
 -->
<!-- Title: classes Pages: 1 -->
<svg width="2358pt" height="133pt"
 viewBox="0.00 0.00 2358.00 133.00" xmlns="http://www.w3.org/2000/svg" xmlns:xlink="http://www.w3.org/1999/xlink">
<g id="graph0" class="graph" transform="scale(1 1) rotate(0) translate(4 129)">
<title>classes</title>
<polygon fill="white" stroke="transparent" points="-4,4 -4,-129 2354,-129 2354,4 -4,4"/>
<!-- funman.scenario.AnalysisScenario -->
<g id="node1" class="node">
<title>funman.scenario.AnalysisScenario</title>
<polygon fill="none" stroke="black" points="0,-0.5 0,-36.5 138,-36.5 138,-0.5 0,-0.5"/>
<text text-anchor="middle" x="69" y="-14.8" font-family="Times,serif" font-size="14.00">AnalysisScenario</text>
</g>
<!-- funman.scenario.AnalysisScenarioResult -->
<g id="node2" class="node">
<title>funman.scenario.AnalysisScenarioResult</title>
<polygon fill="none" stroke="black" points="156,-0.5 156,-36.5 340,-36.5 340,-0.5 156,-0.5"/>
<text text-anchor="middle" x="248" y="-14.8" font-family="Times,serif" font-size="14.00">AnalysisScenarioResult</text>
</g>
<!-- funman.search_utils.Box -->
<g id="node3" class="node">
<title>funman.search_utils.Box</title>
<polygon fill="none" stroke="black" points="358,-0.5 358,-36.5 412,-36.5 412,-0.5 358,-0.5"/>
<text text-anchor="middle" x="385" y="-14.8" font-family="Times,serif" font-size="14.00">Box</text>
</g>
<!-- funman.search.BoxSearch -->
<g id="node4" class="node">
<title>funman.search.BoxSearch</title>
<polygon fill="none" stroke="black" points="430.5,-0.5 430.5,-36.5 523.5,-36.5 523.5,-0.5 430.5,-0.5"/>
<text text-anchor="middle" x="477" y="-14.8" font-family="Times,serif" font-size="14.00">BoxSearch</text>
</g>
<!-- funman.scenario.parameter_synthesis.ParameterSynthesisScenario -->
<g id="node13" class="node">
<title>funman.scenario.parameter_synthesis.ParameterSynthesisScenario</title>
<polygon fill="none" stroke="black" points="506,-88.5 506,-124.5 730,-124.5 730,-88.5 506,-88.5"/>
<text text-anchor="middle" x="618" y="-102.8" font-family="Times,serif" font-size="14.00">ParameterSynthesisScenario</text>
</g>
<!-- funman.search.BoxSearch&#45;&gt;funman.scenario.parameter_synthesis.ParameterSynthesisScenario -->
<g id="edge7" class="edge">
<title>funman.search.BoxSearch&#45;&gt;funman.scenario.parameter_synthesis.ParameterSynthesisScenario</title>
<path fill="none" stroke="#6ab0de" stroke-width="3" d="M492.94,-36.58C503.53,-47.22 518.18,-60.61 533,-70 540.7,-74.88 549.19,-79.35 557.73,-83.34"/>
<polygon fill="#6ab0de" stroke="#6ab0de" stroke-width="3" points="557.96,-83.45 565.07,-82.23 568.93,-88.32 561.82,-89.54 557.96,-83.45"/>
<text text-anchor="middle" x="557" y="-58.8" font-family="Times,serif" font-size="14.00" fill="green">search</text>
</g>
<!-- funman.search_episode.BoxSearchEpisode -->
<g id="node5" class="node">
<title>funman.search_episode.BoxSearchEpisode</title>
<polygon fill="none" stroke="black" points="786,-0.5 786,-36.5 936,-36.5 936,-0.5 786,-0.5"/>
<text text-anchor="middle" x="861" y="-14.8" font-family="Times,serif" font-size="14.00">BoxSearchEpisode</text>
</g>
<!-- funman.search_episode.SearchEpisode -->
<g id="node20" class="node">
<title>funman.search_episode.SearchEpisode</title>
<polygon fill="none" stroke="black" points="959.5,-88.5 959.5,-124.5 1082.5,-124.5 1082.5,-88.5 959.5,-88.5"/>
<text text-anchor="middle" x="1021" y="-102.8" font-family="Times,serif" font-size="14.00">SearchEpisode</text>
</g>
<!-- funman.search_episode.BoxSearchEpisode&#45;&gt;funman.search_episode.SearchEpisode -->
<g id="edge1" class="edge">
<title>funman.search_episode.BoxSearchEpisode&#45;&gt;funman.search_episode.SearchEpisode</title>
<path fill="none" stroke="#6ab0de" stroke-width="3" d="M892.99,-36.7C918.15,-50.22 953.35,-69.14 980.47,-83.72"/>
<polygon fill="none" stroke="#6ab0de" stroke-width="3" points="978.87,-86.83 989.33,-88.48 982.18,-80.66 978.87,-86.83"/>
</g>
<!-- funman.examples.chime.CHIME -->
<g id="node6" class="node">
<title>funman.examples.chime.CHIME</title>
<polygon fill="none" stroke="black" points="541.5,-0.5 541.5,-36.5 610.5,-36.5 610.5,-0.5 541.5,-0.5"/>
<text text-anchor="middle" x="576" y="-14.8" font-family="Times,serif" font-size="14.00">CHIME</text>
</g>
<!-- funman.examples.chime.CHIME&#45;&gt;funman.scenario.parameter_synthesis.ParameterSynthesisScenario -->
<g id="edge4" class="edge">
<title>funman.examples.chime.CHIME&#45;&gt;funman.scenario.parameter_synthesis.ParameterSynthesisScenario</title>
<path fill="none" stroke="#6ab0de" stroke-width="3" d="M579.05,-36.96C581.23,-46.99 584.73,-59.61 590,-70 591.48,-72.92 593.22,-75.83 595.1,-78.65"/>
<polygon fill="#6ab0de" stroke="#6ab0de" stroke-width="3" points="595.15,-78.73 601.93,-81.19 602.27,-88.39 595.49,-85.93 595.15,-78.73"/>
<text text-anchor="middle" x="611.5" y="-58.8" font-family="Times,serif" font-size="14.00" fill="green">chime</text>
</g>
<!-- funman.config.Config -->
<g id="node7" class="node">
<title>funman.config.Config</title>
<polygon fill="none" stroke="black" points="1137,-88.5 1137,-124.5 1199,-124.5 1199,-88.5 1137,-88.5"/>
<text text-anchor="middle" x="1168" y="-102.8" font-family="Times,serif" font-size="14.00">Config</text>
</g>
<!-- funman.Funman -->
<g id="node8" class="node">
<title>funman.Funman</title>
<polygon fill="none" stroke="black" points="1239.5,-0.5 1239.5,-36.5 1314.5,-36.5 1314.5,-0.5 1239.5,-0.5"/>
<text text-anchor="middle" x="1277" y="-14.8" font-family="Times,serif" font-size="14.00">Funman</text>
</g>
<!-- funman.search_utils.Interval -->
<g id="node9" class="node">
<title>funman.search_utils.Interval</title>
<polygon fill="none" stroke="black" points="1332.5,-0.5 1332.5,-36.5 1405.5,-36.5 1405.5,-0.5 1332.5,-0.5"/>
<text text-anchor="middle" x="1369" y="-14.8" font-family="Times,serif" font-size="14.00">Interval</text>
</g>
<!-- funman.model.Model -->
<g id="node10" class="node">
<title>funman.model.Model</title>
<polygon fill="none" stroke="black" points="628.5,-0.5 628.5,-36.5 689.5,-36.5 689.5,-0.5 628.5,-0.5"/>
<text text-anchor="middle" x="659" y="-14.8" font-family="Times,serif" font-size="14.00">Model</text>
</g>
<!-- funman.model.Model&#45;&gt;funman.scenario.parameter_synthesis.ParameterSynthesisScenario -->
<g id="edge5" class="edge">
<title>funman.model.Model&#45;&gt;funman.scenario.parameter_synthesis.ParameterSynthesisScenario</title>
<path fill="none" stroke="#6ab0de" stroke-width="3" d="M650.7,-36.9C645.17,-48.52 637.76,-64.05 631.4,-77.4"/>
<polygon fill="#6ab0de" stroke="#6ab0de" stroke-width="3" points="631.31,-77.58 632.34,-84.72 626.14,-88.42 625.12,-81.28 631.31,-77.58"/>
<text text-anchor="middle" x="663" y="-58.8" font-family="Times,serif" font-size="14.00" fill="green">model</text>
</g>
<!-- funman.model.Parameter -->
<g id="node11" class="node">
<title>funman.model.Parameter</title>
<polygon fill="none" stroke="black" points="1424,-0.5 1424,-36.5 1516,-36.5 1516,-0.5 1424,-0.5"/>
<text text-anchor="middle" x="1470" y="-14.8" font-family="Times,serif" font-size="14.00">Parameter</text>
</g>
<!-- funman.parameter_space.ParameterSpace -->
<g id="node12" class="node">
<title>funman.parameter_space.ParameterSpace</title>
<polygon fill="none" stroke="black" points="1534,-0.5 1534,-36.5 1668,-36.5 1668,-0.5 1534,-0.5"/>
<text text-anchor="middle" x="1601" y="-14.8" font-family="Times,serif" font-size="14.00">ParameterSpace</text>
</g>
<!-- funman.scenario.parameter_synthesis.ParameterSynthesisScenarioResult -->
<g id="node14" class="node">
<title>funman.scenario.parameter_synthesis.ParameterSynthesisScenarioResult</title>
<polygon fill="none" stroke="black" points="1686.5,-0.5 1686.5,-36.5 1955.5,-36.5 1955.5,-0.5 1686.5,-0.5"/>
<text text-anchor="middle" x="1821" y="-14.8" font-family="Times,serif" font-size="14.00">ParameterSynthesisScenarioResult</text>
</g>
<!-- funman.search_utils.Point -->
<g id="node15" class="node">
<title>funman.search_utils.Point</title>
<polygon fill="none" stroke="black" points="1974,-0.5 1974,-36.5 2028,-36.5 2028,-0.5 1974,-0.5"/>
<text text-anchor="middle" x="2001" y="-14.8" font-family="Times,serif" font-size="14.00">Point</text>
</g>
<!-- funman.model.Query -->
<g id="node16" class="node">
<title>funman.model.Query</title>
<polygon fill="none" stroke="black" points="708,-0.5 708,-36.5 768,-36.5 768,-0.5 708,-0.5"/>
<text text-anchor="middle" x="738" y="-14.8" font-family="Times,serif" font-size="14.00">Query</text>
</g>
<!-- funman.model.Query&#45;&gt;funman.scenario.parameter_synthesis.ParameterSynthesisScenario -->
<g id="edge6" class="edge">
<title>funman.model.Query&#45;&gt;funman.scenario.parameter_synthesis.ParameterSynthesisScenario</title>
<path fill="none" stroke="#6ab0de" stroke-width="3" d="M723.81,-36.86C714.63,-47.34 702.01,-60.47 689,-70 682.8,-74.54 675.93,-78.79 668.97,-82.66"/>
<polygon fill="#6ab0de" stroke="#6ab0de" stroke-width="3" points="668.68,-82.81 665.24,-89.15 658.07,-88.41 661.51,-82.07 668.68,-82.81"/>
<text text-anchor="middle" x="727" y="-58.8" font-family="Times,serif" font-size="14.00" fill="green">query</text>
</g>
<!-- funman.search_utils.ResultCombinedHandler -->
<g id="node17" class="node">
<title>funman.search_utils.ResultCombinedHandler</title>
<polygon fill="none" stroke="black" points="2046,-0.5 2046,-36.5 2238,-36.5 2238,-0.5 2046,-0.5"/>
<text text-anchor="middle" x="2142" y="-14.8" font-family="Times,serif" font-size="14.00">ResultCombinedHandler</text>
</g>
<!-- funman.search_utils.ResultHandler -->
<g id="node18" class="node">
<title>funman.search_utils.ResultHandler</title>
<polygon fill="none" stroke="black" points="2082,-88.5 2082,-124.5 2202,-124.5 2202,-88.5 2082,-88.5"/>
<text text-anchor="middle" x="2142" y="-102.8" font-family="Times,serif" font-size="14.00">ResultHandler</text>
</g>
<!-- funman.search_utils.ResultCombinedHandler&#45;&gt;funman.search_utils.ResultHandler -->
<g id="edge2" class="edge">
<title>funman.search_utils.ResultCombinedHandler&#45;&gt;funman.search_utils.ResultHandler</title>
<path fill="none" stroke="#6ab0de" stroke-width="3" d="M2142,-36.9C2142,-48.75 2142,-64.68 2142,-78.21"/>
<polygon fill="none" stroke="#6ab0de" stroke-width="3" points="2138.5,-78.42 2142,-88.42 2145.5,-78.42 2138.5,-78.42"/>
</g>
<!-- funman.search_utils.SearchConfig -->
<g id="node19" class="node">
<title>funman.search_utils.SearchConfig</title>
<polygon fill="none" stroke="black" points="1109,-0.5 1109,-36.5 1221,-36.5 1221,-0.5 1109,-0.5"/>
<text text-anchor="middle" x="1165" y="-14.8" font-family="Times,serif" font-size="14.00">SearchConfig</text>
</g>
<!-- funman.search_utils.SearchConfig&#45;&gt;funman.config.Config -->
<g id="edge3" class="edge">
<title>funman.search_utils.SearchConfig&#45;&gt;funman.config.Config</title>
<path fill="none" stroke="#6ab0de" stroke-width="3" d="M1165.61,-36.9C1166.02,-48.75 1166.58,-64.68 1167.05,-78.21"/>
<polygon fill="none" stroke="#6ab0de" stroke-width="3" points="1163.56,-78.54 1167.4,-88.42 1170.55,-78.3 1163.56,-78.54"/>
</g>
<!-- funman.search_utils.SearchConfig&#45;&gt;funman.search_episode.SearchEpisode -->
<g id="edge8" class="edge">
<title>funman.search_utils.SearchConfig&#45;&gt;funman.search_episode.SearchEpisode</title>
<path fill="none" stroke="#6ab0de" stroke-width="3" d="M1140.06,-36.71C1125.17,-46.76 1105.75,-59.51 1088,-70 1080.76,-74.28 1072.96,-78.63 1065.33,-82.76"/>
<polygon fill="#6ab0de" stroke="#6ab0de" stroke-width="3" points="1065.33,-82.76 1061.91,-89.12 1054.74,-88.41 1058.15,-82.06 1065.33,-82.76"/>
<text text-anchor="middle" x="1133.5" y="-58.8" font-family="Times,serif" font-size="14.00" fill="green">config</text>
</g>
<!-- funman.search_utils.SearchStatistics -->
<g id="node21" class="node">
<title>funman.search_utils.SearchStatistics</title>
<polygon fill="none" stroke="black" points="954,-0.5 954,-36.5 1088,-36.5 1088,-0.5 954,-0.5"/>
<text text-anchor="middle" x="1021" y="-14.8" font-family="Times,serif" font-size="14.00">SearchStatistics</text>
</g>
<!-- funman.search_utils.SearchStatistics&#45;&gt;funman.search_episode.SearchEpisode -->
<g id="edge9" class="edge">
<title>funman.search_utils.SearchStatistics&#45;&gt;funman.search_episode.SearchEpisode</title>
<path fill="none" stroke="#6ab0de" stroke-width="3" d="M1021,-36.9C1021,-48.17 1021,-63.12 1021,-76.18"/>
<polygon fill="#6ab0de" stroke="#6ab0de" stroke-width="3" points="1021,-76.42 1025,-82.42 1021,-88.42 1017,-82.42 1021,-76.42"/>
<text text-anchor="middle" x="1054" y="-58.8" font-family="Times,serif" font-size="14.00" fill="green">statistics</text>
</g>
<!-- funman.search_utils.WaitAction -->
<g id="node22" class="node">
<title>funman.search_utils.WaitAction</title>
<polygon fill="none" stroke="black" points="2256,-0.5 2256,-36.5 2350,-36.5 2350,-0.5 2256,-0.5"/>
<text text-anchor="middle" x="2303" y="-14.8" font-family="Times,serif" font-size="14.00">WaitAction</text>
</g>
</g>
</svg>
