<?xml version="1.0" encoding="UTF-8" standalone="no"?>
<!DOCTYPE svg PUBLIC "-//W3C//DTD SVG 1.1//EN"
 "http://www.w3.org/Graphics/SVG/1.1/DTD/svg11.dtd">
<!-- Generated by graphviz version 2.43.0 (0)
 -->
<!-- Title: packages Pages: 1 -->
<svg width="1967pt" height="836pt"
 viewBox="0.00 0.00 1967.00 836.00" xmlns="http://www.w3.org/2000/svg" xmlns:xlink="http://www.w3.org/1999/xlink">
<g id="graph0" class="graph" transform="scale(1 1) rotate(0) translate(4 832)">
<title>packages</title>
<polygon fill="white" stroke="transparent" points="-4,4 -4,-832 1963,-832 1963,4 -4,4"/>
<!-- funman -->
<g id="node1" class="node">
<title>funman</title>
<polygon fill="none" stroke="black" points="871.5,-108 800.5,-108 800.5,-72 871.5,-72 871.5,-108"/>
<text text-anchor="middle" x="836" y="-86.3" font-family="Times,serif" font-size="14.00">funman</text>
</g>
<!-- funman&#45;&gt;funman -->
<g id="edge1" class="edge">
<title>funman&#45;&gt;funman</title>
<path fill="none" stroke="#6ab0de" stroke-width="3" d="M871.75,-76.57C881.79,-77.16 889.5,-81.63 889.5,-90 889.5,-95.23 886.49,-98.94 881.78,-101.13"/>
<polygon fill="#6ab0de" stroke="#6ab0de" stroke-width="3" points="871.75,-103.43 880.49,-96.81 876.4,-101.34 881.28,-100.22 881.5,-101.19 881.72,-102.17 876.85,-103.29 882.51,-105.58 871.75,-103.43 871.75,-103.43"/>
</g>
<!-- funman._version -->
<g id="node2" class="node">
<title>funman._version</title>
<polygon fill="none" stroke="black" points="896,-180 762,-180 762,-144 896,-144 896,-180"/>
<text text-anchor="middle" x="829" y="-158.3" font-family="Times,serif" font-size="14.00">funman._version</text>
</g>
<!-- funman&#45;&gt;funman._version -->
<g id="edge2" class="edge">
<title>funman&#45;&gt;funman._version</title>
<path fill="none" stroke="#6ab0de" stroke-width="3" d="M834.27,-108.3C833.5,-116.02 832.57,-125.29 831.71,-133.89"/>
<polygon fill="#6ab0de" stroke="#6ab0de" stroke-width="3" points="830.71,-143.9 827.23,-133.5 830.21,-138.82 830.71,-133.85 831.71,-133.95 832.7,-134.04 832.2,-139.02 836.18,-134.39 830.71,-143.9 830.71,-143.9"/>
</g>
<!-- funman.api -->
<g id="node3" class="node">
<title>funman.api</title>
<polygon fill="none" stroke="black" points="1281.5,-36 1184.5,-36 1184.5,0 1281.5,0 1281.5,-36"/>
<text text-anchor="middle" x="1233" y="-14.3" font-family="Times,serif" font-size="14.00">funman.api</text>
</g>
<!-- funman.api&#45;&gt;funman.api -->
<g id="edge3" class="edge">
<title>funman.api&#45;&gt;funman.api</title>
<path fill="none" stroke="#6ab0de" stroke-width="3" d="M1281.71,-4.94C1292.04,-6.26 1299.5,-10.62 1299.5,-18 1299.5,-22.73 1296.44,-26.22 1291.52,-28.46"/>
<polygon fill="#6ab0de" stroke="#6ab0de" stroke-width="3" points="1281.71,-31.06 1290.23,-24.15 1286.29,-28.81 1291.12,-27.53 1291.38,-28.5 1291.64,-29.47 1286.8,-30.75 1292.53,-32.85 1281.71,-31.06 1281.71,-31.06"/>
</g>
<!-- funman.api.api -->
<g id="node4" class="node">
<title>funman.api.api</title>
<polygon fill="none" stroke="black" points="1166.5,-36 1043.5,-36 1043.5,0 1166.5,0 1166.5,-36"/>
<text text-anchor="middle" x="1105" y="-14.3" font-family="Times,serif" font-size="14.00">funman.api.api</text>
</g>
<!-- funman.api.api&#45;&gt;funman -->
<g id="edge4" class="edge">
<title>funman.api.api&#45;&gt;funman</title>
<path fill="none" stroke="#6ab0de" stroke-width="3" d="M1043.29,-35.06C994.07,-47.87 926.25,-65.51 881.78,-77.09"/>
<polygon fill="#6ab0de" stroke="#6ab0de" stroke-width="3" points="871.84,-79.67 880.38,-72.8 876.42,-77.45 881.26,-76.19 881.51,-77.16 881.77,-78.12 876.93,-79.38 882.65,-81.51 871.84,-79.67 871.84,-79.67"/>
</g>
<!-- funman.funman -->
<g id="node8" class="node">
<title>funman.funman</title>
<polygon fill="none" stroke="black" points="1779.5,-612 1650.5,-612 1650.5,-576 1779.5,-576 1779.5,-612"/>
<text text-anchor="middle" x="1715" y="-590.3" font-family="Times,serif" font-size="14.00">funman.funman</text>
</g>
<!-- funman.api.api&#45;&gt;funman.funman -->
<g id="edge5" class="edge">
<title>funman.api.api&#45;&gt;funman.funman</title>
<path fill="none" stroke="#6ab0de" stroke-width="3" d="M1166.78,-34.25C1169.56,-34.86 1172.31,-35.44 1175,-36 1268.17,-55.24 1292.29,-55.62 1386,-72 1607.05,-110.65 1883,63.4 1883,-161 1883,-161 1883,-161 1883,-451 1883,-510.2 1821.4,-549.77 1772.81,-571.78"/>
<polygon fill="#6ab0de" stroke="#6ab0de" stroke-width="3" points="1763.59,-575.81 1770.95,-567.68 1767.77,-572.89 1772.35,-570.89 1772.75,-571.8 1773.15,-572.72 1768.57,-574.72 1774.56,-575.92 1763.59,-575.81 1763.59,-575.81"/>
</g>
<!-- funman.scenario -->
<g id="node19" class="node">
<title>funman.scenario</title>
<polygon fill="none" stroke="black" points="1087.5,-180 952.5,-180 952.5,-144 1087.5,-144 1087.5,-180"/>
<text text-anchor="middle" x="1020" y="-158.3" font-family="Times,serif" font-size="14.00">funman.scenario</text>
</g>
<!-- funman.api.api&#45;&gt;funman.scenario -->
<g id="edge6" class="edge">
<title>funman.api.api&#45;&gt;funman.scenario</title>
<path fill="none" stroke="#6ab0de" stroke-width="3" d="M1094.75,-36.13C1080.01,-60.76 1052.71,-106.36 1035.49,-135.12"/>
<polygon fill="#6ab0de" stroke="#6ab0de" stroke-width="3" points="1030.29,-143.81 1031.56,-132.92 1032,-139.01 1034.57,-134.72 1035.43,-135.23 1036.28,-135.74 1033.72,-140.03 1039.29,-137.54 1030.29,-143.81 1030.29,-143.81"/>
</g>
<!-- funman.scenario.consistency -->
<g id="node20" class="node">
<title>funman.scenario.consistency</title>
<polygon fill="none" stroke="black" points="916.5,-252 693.5,-252 693.5,-216 916.5,-216 916.5,-252"/>
<text text-anchor="middle" x="805" y="-230.3" font-family="Times,serif" font-size="14.00">funman.scenario.consistency</text>
</g>
<!-- funman.api.api&#45;&gt;funman.scenario.consistency -->
<g id="edge7" class="edge">
<title>funman.api.api&#45;&gt;funman.scenario.consistency</title>
<path fill="none" stroke="#6ab0de" stroke-width="3" d="M1081.34,-36.08C1049.26,-59.51 990.5,-103.35 943,-144 925.32,-159.13 923.9,-166.43 905,-180 888.71,-191.7 869.5,-202.5 852.31,-211.25"/>
<polygon fill="#6ab0de" stroke="#6ab0de" stroke-width="3" points="842.99,-215.9 849.93,-207.41 847.02,-212.77 851.49,-210.54 851.94,-211.44 852.38,-212.33 847.91,-214.56 853.94,-215.46 842.99,-215.9 842.99,-215.9"/>
</g>
<!-- funman.scenario.parameter_synthesis -->
<g id="node21" class="node">
<title>funman.scenario.parameter_synthesis</title>
<polygon fill="none" stroke="black" points="1223.5,-252 934.5,-252 934.5,-216 1223.5,-216 1223.5,-252"/>
<text text-anchor="middle" x="1079" y="-230.3" font-family="Times,serif" font-size="14.00">funman.scenario.parameter_synthesis</text>
</g>
<!-- funman.api.api&#45;&gt;funman.scenario.parameter_synthesis -->
<g id="edge8" class="edge">
<title>funman.api.api&#45;&gt;funman.scenario.parameter_synthesis</title>
<path fill="none" stroke="#6ab0de" stroke-width="3" d="M1109.77,-36.37C1117.19,-66.39 1129.14,-129.59 1114,-180 1111.08,-189.72 1105.74,-199.3 1100.09,-207.59"/>
<polygon fill="#6ab0de" stroke="#6ab0de" stroke-width="3" points="1094.18,-215.7 1096.43,-204.97 1096.32,-211.07 1099.26,-207.03 1100.07,-207.62 1100.87,-208.21 1097.93,-212.25 1103.7,-210.26 1094.18,-215.7 1094.18,-215.7"/>
</g>
<!-- funman.scenario.simulation -->
<g id="node23" class="node">
<title>funman.scenario.simulation</title>
<polygon fill="none" stroke="black" points="1377.5,-108 1162.5,-108 1162.5,-72 1377.5,-72 1377.5,-108"/>
<text text-anchor="middle" x="1270" y="-86.3" font-family="Times,serif" font-size="14.00">funman.scenario.simulation</text>
</g>
<!-- funman.api.api&#45;&gt;funman.scenario.simulation -->
<g id="edge9" class="edge">
<title>funman.api.api&#45;&gt;funman.scenario.simulation</title>
<path fill="none" stroke="#6ab0de" stroke-width="3" d="M1145.36,-36.12C1168.02,-45.74 1196.47,-57.81 1220.47,-67.99"/>
<polygon fill="#6ab0de" stroke="#6ab0de" stroke-width="3" points="1229.77,-71.93 1218.8,-72.17 1224.77,-70.9 1220.17,-68.95 1220.56,-68.03 1220.95,-67.11 1225.56,-69.06 1222.32,-63.88 1229.77,-71.93 1229.77,-71.93"/>
</g>
<!-- funman.api.client -->
<g id="node5" class="node">
<title>funman.api.client</title>
<polygon fill="none" stroke="black" points="1458.5,-36 1317.5,-36 1317.5,0 1458.5,0 1458.5,-36"/>
<text text-anchor="middle" x="1388" y="-14.3" font-family="Times,serif" font-size="14.00">funman.api.client</text>
</g>
<!-- funman.api.server -->
<g id="node6" class="node">
<title>funman.api.server</title>
<polygon fill="none" stroke="black" points="1623.5,-36 1476.5,-36 1476.5,0 1623.5,0 1623.5,-36"/>
<text text-anchor="middle" x="1550" y="-14.3" font-family="Times,serif" font-size="14.00">funman.api.server</text>
</g>
<!-- funman.constants -->
<g id="node7" class="node">
<title>funman.constants</title>
<polygon fill="none" stroke="black" points="1229,-828 1085,-828 1085,-792 1229,-792 1229,-828"/>
<text text-anchor="middle" x="1157" y="-806.3" font-family="Times,serif" font-size="14.00">funman.constants</text>
</g>
<!-- funman.utils.handlers -->
<g id="node35" class="node">
<title>funman.utils.handlers</title>
<polygon fill="none" stroke="black" points="1740.5,-684 1567.5,-684 1567.5,-648 1740.5,-648 1740.5,-684"/>
<text text-anchor="middle" x="1654" y="-662.3" font-family="Times,serif" font-size="14.00">funman.utils.handlers</text>
</g>
<!-- funman.funman&#45;&gt;funman.utils.handlers -->
<g id="edge10" class="edge">
<title>funman.funman&#45;&gt;funman.utils.handlers</title>
<path fill="none" stroke="#6ab0de" stroke-width="3" d="M1699.92,-612.3C1692.61,-620.7 1683.69,-630.93 1675.66,-640.14"/>
<polygon fill="#6ab0de" stroke="#6ab0de" stroke-width="3" points="1668.91,-647.9 1672.08,-637.4 1671.44,-643.47 1674.72,-639.7 1675.48,-640.36 1676.23,-641.01 1672.94,-644.78 1678.87,-643.31 1668.91,-647.9 1668.91,-647.9"/>
</g>
<!-- funman.model -->
<g id="node9" class="node">
<title>funman.model</title>
<polygon fill="none" stroke="black" points="667.5,-396 548.5,-396 548.5,-360 667.5,-360 667.5,-396"/>
<text text-anchor="middle" x="608" y="-374.3" font-family="Times,serif" font-size="14.00">funman.model</text>
</g>
<!-- funman.model&#45;&gt;funman.model -->
<g id="edge11" class="edge">
<title>funman.model&#45;&gt;funman.model</title>
<path fill="none" stroke="#6ab0de" stroke-width="3" d="M667.79,-365.34C678.23,-367.03 685.5,-371.25 685.5,-378 685.5,-382.32 682.52,-385.61 677.63,-387.86"/>
<polygon fill="#6ab0de" stroke="#6ab0de" stroke-width="3" points="667.79,-390.66 676.18,-383.59 672.33,-388.33 677.13,-386.96 677.41,-387.92 677.68,-388.88 672.87,-390.25 678.64,-392.25 667.79,-390.66 667.79,-390.66"/>
</g>
<!-- funman.model.bilayer -->
<g id="node10" class="node">
<title>funman.model.bilayer</title>
<polygon fill="none" stroke="black" points="694.5,-324 521.5,-324 521.5,-288 694.5,-288 694.5,-324"/>
<text text-anchor="middle" x="608" y="-302.3" font-family="Times,serif" font-size="14.00">funman.model.bilayer</text>
</g>
<!-- funman.model&#45;&gt;funman.model.bilayer -->
<g id="edge12" class="edge">
<title>funman.model&#45;&gt;funman.model.bilayer</title>
<path fill="none" stroke="#6ab0de" stroke-width="3" d="M613.9,-359.9C614.7,-352.21 614.94,-342.95 614.6,-334.33"/>
<polygon fill="#6ab0de" stroke="#6ab0de" stroke-width="3" points="613.92,-324.3 619.09,-333.97 615.26,-329.22 615.6,-334.21 614.6,-334.28 613.6,-334.35 613.26,-329.36 610.11,-334.59 613.92,-324.3 613.92,-324.3"/>
</g>
<!-- funman.model.encoded -->
<g id="node12" class="node">
<title>funman.model.encoded</title>
<polygon fill="none" stroke="black" points="182,-684 0,-684 0,-648 182,-648 182,-684"/>
<text text-anchor="middle" x="91" y="-662.3" font-family="Times,serif" font-size="14.00">funman.model.encoded</text>
</g>
<!-- funman.model&#45;&gt;funman.model.encoded -->
<g id="edge13" class="edge">
<title>funman.model&#45;&gt;funman.model.encoded</title>
<path fill="none" stroke="#6ab0de" stroke-width="3" d="M548.17,-385.78C498.51,-393.15 427.07,-407.31 369,-432 261.11,-477.87 233.37,-495.65 148,-576 128.11,-594.72 109.98,-620.06 99.31,-638.91"/>
<polygon fill="#6ab0de" stroke="#6ab0de" stroke-width="3" points="94.57,-647.85 95.28,-636.91 96.03,-642.96 98.37,-638.55 99.25,-639.01 100.14,-639.48 97.79,-643.9 103.23,-641.12 94.57,-647.85 94.57,-647.85"/>
</g>
<!-- funman.model.gromet -->
<g id="node13" class="node">
<title>funman.model.gromet</title>
<polygon fill="none" stroke="black" points="888.5,-684 713.5,-684 713.5,-648 888.5,-648 888.5,-684"/>
<text text-anchor="middle" x="801" y="-662.3" font-family="Times,serif" font-size="14.00">funman.model.gromet</text>
</g>
<!-- funman.model&#45;&gt;funman.model.gromet -->
<g id="edge14" class="edge">
<title>funman.model&#45;&gt;funman.model.gromet</title>
<path fill="none" stroke="#6ab0de" stroke-width="3" d="M603.35,-396.34C603.75,-415.55 610.68,-446.63 627,-468 680.87,-538.55 752.47,-498.09 795,-576 805.22,-594.72 803.55,-619.1 801.25,-637.61"/>
<polygon fill="#6ab0de" stroke="#6ab0de" stroke-width="3" points="799.91,-647.74 796.76,-637.24 799.58,-642.66 800.23,-637.7 801.23,-637.83 802.22,-637.96 801.56,-642.92 805.69,-638.42 799.91,-647.74 799.91,-647.74"/>
</g>
<!-- funman.model.query -->
<g id="node15" class="node">
<title>funman.model.query</title>
<polygon fill="none" stroke="black" points="1261,-540 1097,-540 1097,-504 1261,-504 1261,-540"/>
<text text-anchor="middle" x="1179" y="-518.3" font-family="Times,serif" font-size="14.00">funman.model.query</text>
</g>
<!-- funman.model&#45;&gt;funman.model.query -->
<g id="edge15" class="edge">
<title>funman.model&#45;&gt;funman.model.query</title>
<path fill="none" stroke="#6ab0de" stroke-width="3" d="M667.92,-382.65C792.93,-390.65 1073.1,-410.72 1111,-432 1136.29,-446.2 1155.19,-474.07 1166.57,-494.85"/>
<polygon fill="#6ab0de" stroke="#6ab0de" stroke-width="3" points="1171.26,-503.83 1162.64,-497.05 1168.06,-499.86 1165.74,-495.43 1166.63,-494.97 1167.51,-494.51 1169.83,-498.94 1170.62,-492.88 1171.26,-503.83 1171.26,-503.83"/>
</g>
<!-- funman.model.simulator -->
<g id="node16" class="node">
<title>funman.model.simulator</title>
<polygon fill="none" stroke="black" points="836.5,-468 645.5,-468 645.5,-432 836.5,-432 836.5,-468"/>
<text text-anchor="middle" x="741" y="-446.3" font-family="Times,serif" font-size="14.00">funman.model.simulator</text>
</g>
<!-- funman.model&#45;&gt;funman.model.simulator -->
<g id="edge16" class="edge">
<title>funman.model&#45;&gt;funman.model.simulator</title>
<path fill="none" stroke="#6ab0de" stroke-width="3" d="M640.54,-396.12C658.25,-405.45 680.35,-417.08 699.32,-427.06"/>
<polygon fill="#6ab0de" stroke="#6ab0de" stroke-width="3" points="708.34,-431.81 697.39,-431.13 703.45,-430.37 699.02,-428.04 699.49,-427.15 699.96,-426.27 704.38,-428.6 701.59,-423.17 708.34,-431.81 708.34,-431.81"/>
</g>
<!-- funman.model.bilayer&#45;&gt;funman.model -->
<g id="edge17" class="edge">
<title>funman.model.bilayer&#45;&gt;funman.model</title>
<path fill="none" stroke="#6ab0de" stroke-width="3" d="M602.08,-324.3C601.29,-332.02 601.06,-341.29 601.4,-349.89"/>
<polygon fill="#6ab0de" stroke="#6ab0de" stroke-width="3" points="602.1,-359.9 596.92,-350.23 600.76,-354.98 600.41,-349.99 601.41,-349.92 602.4,-349.85 602.75,-354.84 605.9,-349.61 602.1,-359.9 602.1,-359.9"/>
</g>
<!-- funman.representation.representation -->
<g id="node18" class="node">
<title>funman.representation.representation</title>
<polygon fill="none" stroke="black" points="1302.5,-684 1011.5,-684 1011.5,-648 1302.5,-648 1302.5,-684"/>
<text text-anchor="middle" x="1157" y="-662.3" font-family="Times,serif" font-size="14.00">funman.representation.representation</text>
</g>
<!-- funman.model.bilayer&#45;&gt;funman.representation.representation -->
<g id="edge18" class="edge">
<title>funman.model.bilayer&#45;&gt;funman.representation.representation</title>
<path fill="none" stroke="#6ab0de" stroke-width="3" d="M647.55,-324C696.12,-345.73 780.05,-386.08 845,-432 864.26,-445.62 866.01,-452.74 884,-468 963.46,-535.4 983.11,-553.02 1069,-612 1084.61,-622.72 1102.4,-633.66 1117.89,-642.8"/>
<polygon fill="#6ab0de" stroke="#6ab0de" stroke-width="3" points="1126.71,-647.96 1115.8,-646.79 1121.89,-646.3 1117.57,-643.77 1118.08,-642.91 1118.58,-642.04 1122.9,-644.57 1120.35,-639.02 1126.71,-647.96 1126.71,-647.96"/>
</g>
<!-- funman.translate -->
<g id="node28" class="node">
<title>funman.translate</title>
<polygon fill="none" stroke="black" points="477,-540 337,-540 337,-504 477,-504 477,-540"/>
<text text-anchor="middle" x="407" y="-518.3" font-family="Times,serif" font-size="14.00">funman.translate</text>
</g>
<!-- funman.model.bilayer&#45;&gt;funman.translate -->
<g id="edge19" class="edge">
<title>funman.model.bilayer&#45;&gt;funman.translate</title>
<path fill="none" stroke="#6ab0de" stroke-width="3" d="M531.88,-324.05C510.05,-332 487.67,-343.49 471,-360 433.63,-397.03 417.45,-458.61 410.95,-493.92"/>
<polygon fill="#6ab0de" stroke="#6ab0de" stroke-width="3" points="409.23,-503.97 406.48,-493.36 409.08,-498.87 409.93,-493.95 410.91,-494.11 411.9,-494.28 411.06,-499.21 415.35,-494.87 409.23,-503.97 409.23,-503.97"/>
</g>
<!-- funman.model.decapode -->
<g id="node11" class="node">
<title>funman.model.decapode</title>
<polygon fill="none" stroke="black" points="1146.5,-324 955.5,-324 955.5,-288 1146.5,-288 1146.5,-324"/>
<text text-anchor="middle" x="1051" y="-302.3" font-family="Times,serif" font-size="14.00">funman.model.decapode</text>
</g>
<!-- funman.model.model -->
<g id="node14" class="node">
<title>funman.model.model</title>
<polygon fill="none" stroke="black" points="1487.5,-684 1320.5,-684 1320.5,-648 1487.5,-648 1487.5,-684"/>
<text text-anchor="middle" x="1404" y="-662.3" font-family="Times,serif" font-size="14.00">funman.model.model</text>
</g>
<!-- funman.model.decapode&#45;&gt;funman.model.model -->
<g id="edge20" class="edge">
<title>funman.model.decapode&#45;&gt;funman.model.model</title>
<path fill="none" stroke="#6ab0de" stroke-width="3" d="M1089.44,-324.22C1107.83,-333.43 1129.59,-345.8 1147,-360 1253.74,-447.06 1349.78,-582.98 1387.29,-639.26"/>
<polygon fill="#6ab0de" stroke="#6ab0de" stroke-width="3" points="1393,-647.9 1383.73,-642.04 1389.41,-644.28 1386.65,-640.11 1387.49,-639.56 1388.32,-639.01 1391.08,-643.18 1391.24,-637.07 1393,-647.9 1393,-647.9"/>
</g>
<!-- funman.translate.decapode -->
<g id="node30" class="node">
<title>funman.translate.decapode</title>
<polygon fill="none" stroke="black" points="1109,-396 897,-396 897,-360 1109,-360 1109,-396"/>
<text text-anchor="middle" x="1003" y="-374.3" font-family="Times,serif" font-size="14.00">funman.translate.decapode</text>
</g>
<!-- funman.model.decapode&#45;&gt;funman.translate.decapode -->
<g id="edge21" class="edge">
<title>funman.model.decapode&#45;&gt;funman.translate.decapode</title>
<path fill="none" stroke="#6ab0de" stroke-width="3" d="M1039.13,-324.3C1033.5,-332.53 1026.65,-342.52 1020.43,-351.58"/>
<polygon fill="#6ab0de" stroke="#6ab0de" stroke-width="3" points="1014.73,-359.9 1016.67,-349.1 1016.73,-355.21 1019.56,-351.08 1020.38,-351.65 1021.21,-352.21 1018.38,-356.34 1024.1,-354.19 1014.73,-359.9 1014.73,-359.9"/>
</g>
<!-- funman.model.encoded&#45;&gt;funman.model -->
<g id="edge22" class="edge">
<title>funman.model.encoded&#45;&gt;funman.model</title>
<path fill="none" stroke="#6ab0de" stroke-width="3" d="M107.66,-647.85C121.9,-628.81 142.75,-597.89 166,-576 251.37,-495.65 279.11,-477.87 387,-432 435.73,-411.28 493.87,-397.98 538.35,-389.88"/>
<polygon fill="#6ab0de" stroke="#6ab0de" stroke-width="3" points="548.19,-388.13 539.13,-394.31 543.45,-389.99 538.52,-390.86 538.35,-389.88 538.17,-388.89 543.1,-388.02 537.56,-385.45 548.19,-388.13 548.19,-388.13"/>
</g>
<!-- funman.translate.encoded -->
<g id="node31" class="node">
<title>funman.translate.encoded</title>
<polygon fill="none" stroke="black" points="369.5,-612 166.5,-612 166.5,-576 369.5,-576 369.5,-612"/>
<text text-anchor="middle" x="268" y="-590.3" font-family="Times,serif" font-size="14.00">funman.translate.encoded</text>
</g>
<!-- funman.model.encoded&#45;&gt;funman.translate.encoded -->
<g id="edge23" class="edge">
<title>funman.model.encoded&#45;&gt;funman.translate.encoded</title>
<path fill="none" stroke="#6ab0de" stroke-width="3" d="M140.05,-647.93C165.45,-638.29 196.25,-626.15 221.3,-615.94"/>
<polygon fill="#6ab0de" stroke="#6ab0de" stroke-width="3" points="230.6,-612.12 223.05,-620.08 226.35,-614.95 221.73,-616.84 221.35,-615.92 220.97,-614.99 225.59,-613.1 219.64,-611.75 230.6,-612.12 230.6,-612.12"/>
</g>
<!-- funman.model.gromet&#45;&gt;funman.model -->
<g id="edge24" class="edge">
<title>funman.model.gromet&#45;&gt;funman.model</title>
<path fill="none" stroke="#6ab0de" stroke-width="3" d="M813.09,-647.74C820.44,-628.89 825.22,-598.39 813,-576 770.47,-498.09 698.87,-538.55 645,-468 631.23,-449.97 624.15,-425.03 619.08,-406.13"/>
<polygon fill="#6ab0de" stroke="#6ab0de" stroke-width="3" points="616.44,-396.34 623.39,-404.83 618.71,-400.91 620.01,-405.74 619.04,-406 618.08,-406.26 616.78,-401.43 614.7,-407.17 616.44,-396.34 616.44,-396.34"/>
</g>
<!-- funman.model.simulator&#45;&gt;funman.model.model -->
<g id="edge25" class="edge">
<title>funman.model.simulator&#45;&gt;funman.model.model</title>
<path fill="none" stroke="#6ab0de" stroke-width="3" d="M793.86,-468.06C914.8,-507.1 1211.23,-602.78 1341.2,-644.73"/>
<polygon fill="#6ab0de" stroke="#6ab0de" stroke-width="3" points="1351.01,-647.9 1340.12,-649.11 1345.95,-647.31 1341.19,-645.78 1341.5,-644.83 1341.8,-643.87 1346.56,-645.41 1342.88,-640.54 1351.01,-647.9 1351.01,-647.9"/>
</g>
<!-- funman.model.simulator&#45;&gt;funman.translate -->
<g id="edge26" class="edge">
<title>funman.model.simulator&#45;&gt;funman.translate</title>
<path fill="none" stroke="#6ab0de" stroke-width="3" d="M659.72,-468.03C607.2,-479.04 539.17,-493.3 486.92,-504.25"/>
<polygon fill="#6ab0de" stroke="#6ab0de" stroke-width="3" points="477.03,-506.32 485.89,-499.87 481.72,-504.32 486.61,-503.29 486.82,-504.27 487.02,-505.25 482.13,-506.28 487.74,-508.68 477.03,-506.32 477.03,-506.32"/>
</g>
<!-- funman.representation -->
<g id="node17" class="node">
<title>funman.representation</title>
<polygon fill="none" stroke="black" points="574.5,-684 393.5,-684 393.5,-648 574.5,-648 574.5,-684"/>
<text text-anchor="middle" x="484" y="-662.3" font-family="Times,serif" font-size="14.00">funman.representation</text>
</g>
<!-- funman.representation&#45;&gt;funman.representation -->
<g id="edge27" class="edge">
<title>funman.representation&#45;&gt;funman.representation</title>
<path fill="none" stroke="#6ab0de" stroke-width="3" d="M574.62,-654.4C585.44,-656.51 592.5,-660.38 592.5,-666 592.5,-669.69 589.46,-672.63 584.31,-674.8"/>
<polygon fill="#6ab0de" stroke="#6ab0de" stroke-width="3" points="574.62,-677.6 582.98,-670.5 579.15,-675.25 583.95,-673.87 584.23,-674.83 584.5,-675.79 579.7,-677.17 585.48,-679.15 574.62,-677.6 574.62,-677.6"/>
</g>
<!-- funman.representation.representation&#45;&gt;funman.constants -->
<g id="edge28" class="edge">
<title>funman.representation.representation&#45;&gt;funman.constants</title>
<path fill="none" stroke="#6ab0de" stroke-width="3" d="M1157,-684.13C1157,-708.33 1157,-752.79 1157,-781.61"/>
<polygon fill="#6ab0de" stroke="#6ab0de" stroke-width="3" points="1157,-791.81 1152.5,-781.81 1156,-786.81 1156,-781.81 1157,-781.81 1158,-781.81 1158,-786.81 1161.5,-781.81 1157,-791.81 1157,-791.81"/>
</g>
<!-- funman.utils.math_utils -->
<g id="node36" class="node">
<title>funman.utils.math_utils</title>
<polygon fill="none" stroke="black" points="1654,-756 1468,-756 1468,-720 1654,-720 1654,-756"/>
<text text-anchor="middle" x="1561" y="-734.3" font-family="Times,serif" font-size="14.00">funman.utils.math_utils</text>
</g>
<!-- funman.representation.representation&#45;&gt;funman.utils.math_utils -->
<g id="edge29" class="edge">
<title>funman.representation.representation&#45;&gt;funman.utils.math_utils</title>
<path fill="none" stroke="#6ab0de" stroke-width="3" d="M1255.31,-684.03C1316.6,-694.65 1395.35,-708.3 1457.58,-719.08"/>
<polygon fill="#6ab0de" stroke="#6ab0de" stroke-width="3" points="1467.81,-720.85 1457.19,-723.58 1462.71,-720.98 1457.79,-720.13 1457.96,-719.15 1458.13,-718.16 1463.05,-719.01 1458.73,-714.71 1467.81,-720.85 1467.81,-720.85"/>
</g>
<!-- funman.scenario&#45;&gt;funman.scenario -->
<g id="edge30" class="edge">
<title>funman.scenario&#45;&gt;funman.scenario</title>
<path fill="none" stroke="#6ab0de" stroke-width="3" d="M1087.73,-149.63C1098.3,-151.48 1105.5,-155.6 1105.5,-162 1105.5,-166.1 1102.54,-169.26 1097.64,-171.5"/>
<polygon fill="#6ab0de" stroke="#6ab0de" stroke-width="3" points="1087.73,-174.37 1096.08,-167.26 1092.26,-172.02 1097.06,-170.62 1097.34,-171.59 1097.62,-172.55 1092.81,-173.94 1098.59,-175.91 1087.73,-174.37 1087.73,-174.37"/>
</g>
<!-- funman.scenario&#45;&gt;funman.scenario.consistency -->
<g id="edge31" class="edge">
<title>funman.scenario&#45;&gt;funman.scenario.consistency</title>
<path fill="none" stroke="#6ab0de" stroke-width="3" d="M961.79,-180.03C930.59,-189.86 892.36,-202.27 861.43,-212.61"/>
<polygon fill="#6ab0de" stroke="#6ab0de" stroke-width="3" points="851.66,-215.89 859.71,-208.44 856.08,-213.35 860.82,-211.76 861.14,-212.71 861.46,-213.66 856.72,-215.25 862.57,-216.97 851.66,-215.89 851.66,-215.89"/>
</g>
<!-- funman.scenario&#45;&gt;funman.scenario.parameter_synthesis -->
<g id="edge32" class="edge">
<title>funman.scenario&#45;&gt;funman.scenario.parameter_synthesis</title>
<path fill="none" stroke="#6ab0de" stroke-width="3" d="M1028.67,-180.3C1034.94,-188.78 1043.48,-199.14 1051.8,-208.42"/>
<polygon fill="#6ab0de" stroke="#6ab0de" stroke-width="3" points="1058.69,-215.9 1048.6,-211.59 1054.57,-212.89 1051.18,-209.22 1051.92,-208.54 1052.65,-207.86 1056.04,-211.54 1055.23,-205.49 1058.69,-215.9 1058.69,-215.9"/>
</g>
<!-- funman.scenario.consistency&#45;&gt;funman.model.bilayer -->
<g id="edge33" class="edge">
<title>funman.scenario.consistency&#45;&gt;funman.model.bilayer</title>
<path fill="none" stroke="#6ab0de" stroke-width="3" d="M757.06,-252.03C729.53,-261.81 694.78,-274.16 665.76,-284.48"/>
<polygon fill="#6ab0de" stroke="#6ab0de" stroke-width="3" points="656.15,-287.89 664.07,-280.3 660.53,-285.27 665.24,-283.6 665.58,-284.54 665.91,-285.48 661.2,-287.16 667.08,-288.78 656.15,-287.89 656.15,-287.89"/>
</g>
<!-- funman.scenario.consistency&#45;&gt;funman.model.decapode -->
<g id="edge34" class="edge">
<title>funman.scenario.consistency&#45;&gt;funman.model.decapode</title>
<path fill="none" stroke="#6ab0de" stroke-width="3" d="M864.86,-252.03C899.98,-262.03 944.52,-274.7 981.23,-285.15"/>
<polygon fill="#6ab0de" stroke="#6ab0de" stroke-width="3" points="990.87,-287.89 980.02,-289.48 985.78,-287.48 980.98,-286.11 981.25,-285.15 981.52,-284.19 986.33,-285.56 982.48,-280.82 990.87,-287.89 990.87,-287.89"/>
</g>
<!-- funman.scenario.consistency&#45;&gt;funman.model.encoded -->
<g id="edge35" class="edge">
<title>funman.scenario.consistency&#45;&gt;funman.model.encoded</title>
<path fill="none" stroke="#6ab0de" stroke-width="3" d="M693.25,-234.54C522.36,-235.31 205.07,-243.03 102,-288 48.67,-311.27 6,-318.82 6,-377 6,-377 6,-377 6,-523 6,-563.97 8.26,-577.28 30,-612 36.99,-623.17 47.06,-633.27 57.01,-641.59"/>
<polygon fill="#6ab0de" stroke="#6ab0de" stroke-width="3" points="64.9,-647.87 54.27,-645.16 60.37,-645.54 56.45,-642.42 57.07,-641.64 57.7,-640.86 61.61,-643.97 59.88,-638.12 64.9,-647.87 64.9,-647.87"/>
</g>
<!-- funman.scenario.consistency&#45;&gt;funman.model.query -->
<g id="edge36" class="edge">
<title>funman.scenario.consistency&#45;&gt;funman.model.query</title>
<path fill="none" stroke="#6ab0de" stroke-width="3" d="M826.6,-252.13C853.17,-272.35 900.39,-305.53 946,-324 1018.39,-353.31 1058.64,-309.24 1118,-360 1157.94,-394.15 1171.79,-457.33 1176.55,-493.56"/>
<polygon fill="#6ab0de" stroke="#6ab0de" stroke-width="3" points="1177.75,-503.88 1172.13,-494.46 1176.18,-499.03 1175.6,-494.06 1176.59,-493.94 1177.59,-493.83 1178.17,-498.79 1181.06,-493.42 1177.75,-503.88 1177.75,-503.88"/>
</g>
<!-- funman.scenario.consistency&#45;&gt;funman.scenario -->
<g id="edge37" class="edge">
<title>funman.scenario.consistency&#45;&gt;funman.scenario</title>
<path fill="none" stroke="#6ab0de" stroke-width="3" d="M863.45,-215.89C894.69,-206.05 932.92,-193.64 963.81,-183.31"/>
<polygon fill="#6ab0de" stroke="#6ab0de" stroke-width="3" points="973.57,-180.03 965.52,-187.48 969.15,-182.57 964.41,-184.17 964.09,-183.22 963.77,-182.27 968.51,-180.68 962.66,-178.95 973.57,-180.03 973.57,-180.03"/>
</g>
<!-- funman.search.smt_check -->
<g id="node27" class="node">
<title>funman.search.smt_check</title>
<polygon fill="none" stroke="black" points="1690.5,-468 1489.5,-468 1489.5,-432 1690.5,-432 1690.5,-468"/>
<text text-anchor="middle" x="1590" y="-446.3" font-family="Times,serif" font-size="14.00">funman.search.smt_check</text>
</g>
<!-- funman.scenario.consistency&#45;&gt;funman.search.smt_check -->
<g id="edge38" class="edge">
<title>funman.scenario.consistency&#45;&gt;funman.search.smt_check</title>
<path fill="none" stroke="#6ab0de" stroke-width="3" d="M916.74,-251.15C919.52,-251.45 922.28,-251.73 925,-252 996.43,-259.04 1517.55,-239 1570,-288 1606.34,-321.95 1602.06,-385.66 1595.91,-421.93"/>
<polygon fill="#6ab0de" stroke="#6ab0de" stroke-width="3" points="1594.07,-431.81 1591.48,-421.15 1594.01,-426.71 1594.92,-421.79 1595.9,-421.98 1596.89,-422.16 1595.97,-427.08 1600.33,-422.8 1594.07,-431.81 1594.07,-431.81"/>
</g>
<!-- funman.scenario.consistency&#45;&gt;funman.translate -->
<g id="edge39" class="edge">
<title>funman.scenario.consistency&#45;&gt;funman.translate</title>
<path fill="none" stroke="#6ab0de" stroke-width="3" d="M693.29,-235.58C509.98,-237.72 161.78,-247.17 124,-288 41.64,-377.02 238.68,-462.61 344.82,-500.55"/>
<polygon fill="#6ab0de" stroke="#6ab0de" stroke-width="3" points="354.48,-503.97 343.55,-504.88 349.43,-503.24 344.72,-501.58 345.05,-500.64 345.38,-499.69 350.1,-501.36 346.55,-496.39 354.48,-503.97 354.48,-503.97"/>
</g>
<!-- funman.translate.translate -->
<g id="node33" class="node">
<title>funman.translate.translate</title>
<polygon fill="none" stroke="black" points="1102.5,-468 893.5,-468 893.5,-432 1102.5,-432 1102.5,-468"/>
<text text-anchor="middle" x="998" y="-446.3" font-family="Times,serif" font-size="14.00">funman.translate.translate</text>
</g>
<!-- funman.scenario.consistency&#45;&gt;funman.translate.translate -->
<g id="edge40" class="edge">
<title>funman.scenario.consistency&#45;&gt;funman.translate.translate</title>
<path fill="none" stroke="#6ab0de" stroke-width="3" d="M808.69,-252.37C816.37,-284.68 836.99,-354.48 879,-396 892.84,-409.67 910.81,-420.14 928.57,-428.01"/>
<polygon fill="#6ab0de" stroke="#6ab0de" stroke-width="3" points="937.82,-431.9 926.86,-432.17 932.82,-430.88 928.21,-428.95 928.6,-428.03 928.99,-427.1 933.6,-429.04 930.34,-423.88 937.82,-431.9 937.82,-431.9"/>
</g>
<!-- funman.scenario.parameter_synthesis&#45;&gt;funman.model -->
<g id="edge41" class="edge">
<title>funman.scenario.parameter_synthesis&#45;&gt;funman.model</title>
<path fill="none" stroke="#6ab0de" stroke-width="3" d="M1006.43,-252.04C966.3,-261.83 915.66,-274.77 871,-288 798.99,-309.32 717.22,-337.66 664.24,-356.57"/>
<polygon fill="#6ab0de" stroke="#6ab0de" stroke-width="3" points="654.69,-359.99 662.58,-352.38 659.06,-357.36 663.76,-355.68 664.1,-356.62 664.44,-357.56 659.73,-359.25 665.62,-360.86 654.69,-359.99 654.69,-359.99"/>
</g>
<!-- funman.scenario.parameter_synthesis&#45;&gt;funman.model.bilayer -->
<g id="edge42" class="edge">
<title>funman.scenario.parameter_synthesis&#45;&gt;funman.model.bilayer</title>
<path fill="none" stroke="#6ab0de" stroke-width="3" d="M964.38,-252.03C884.77,-263.87 779.87,-279.46 704.52,-290.65"/>
<polygon fill="#6ab0de" stroke="#6ab0de" stroke-width="3" points="694.56,-292.14 703.79,-286.21 699.36,-290.41 704.3,-289.68 704.45,-290.67 704.6,-291.65 699.65,-292.39 705.11,-295.12 694.56,-292.14 694.56,-292.14"/>
</g>
<!-- funman.scenario.parameter_synthesis&#45;&gt;funman.model.decapode -->
<g id="edge43" class="edge">
<title>funman.scenario.parameter_synthesis&#45;&gt;funman.model.decapode</title>
<path fill="none" stroke="#6ab0de" stroke-width="3" d="M1072.08,-252.3C1068.93,-260.19 1065.12,-269.7 1061.62,-278.45"/>
<polygon fill="#6ab0de" stroke="#6ab0de" stroke-width="3" points="1057.84,-287.9 1057.38,-276.94 1058.77,-282.88 1060.63,-278.24 1061.56,-278.61 1062.48,-278.98 1060.63,-283.62 1065.73,-280.28 1057.84,-287.9 1057.84,-287.9"/>
</g>
<!-- funman.scenario.parameter_synthesis&#45;&gt;funman.model.encoded -->
<g id="edge44" class="edge">
<title>funman.scenario.parameter_synthesis&#45;&gt;funman.model.encoded</title>
<path fill="none" stroke="#6ab0de" stroke-width="3" d="M934.34,-251.24C931.2,-251.5 928.08,-251.76 925,-252 840.06,-258.68 233.83,-247.24 159,-288 81.78,-330.06 44,-361.07 44,-449 44,-449 44,-449 44,-523 44,-565.04 62.8,-610.71 76.62,-638.59"/>
<polygon fill="#6ab0de" stroke="#6ab0de" stroke-width="3" points="81.26,-647.68 72.71,-640.82 78.1,-643.68 75.82,-639.23 76.71,-638.77 77.6,-638.32 79.88,-642.77 80.72,-636.73 81.26,-647.68 81.26,-647.68"/>
</g>
<!-- funman.scenario.parameter_synthesis&#45;&gt;funman.model.query -->
<g id="edge45" class="edge">
<title>funman.scenario.parameter_synthesis&#45;&gt;funman.model.query</title>
<path fill="none" stroke="#6ab0de" stroke-width="3" d="M1114.76,-252.11C1129.4,-260.87 1145.17,-272.9 1155,-288 1196.58,-351.9 1190.13,-447.16 1183.7,-493.59"/>
<polygon fill="#6ab0de" stroke="#6ab0de" stroke-width="3" points="1182.18,-503.77 1179.21,-493.21 1181.93,-498.67 1182.67,-493.73 1183.66,-493.88 1184.65,-494.03 1183.91,-498.97 1188.11,-494.54 1182.18,-503.77 1182.18,-503.77"/>
</g>
<!-- funman.scenario.parameter_synthesis&#45;&gt;funman.representation -->
<g id="edge46" class="edge">
<title>funman.scenario.parameter_synthesis&#45;&gt;funman.representation</title>
<path fill="none" stroke="#6ab0de" stroke-width="3" d="M934.33,-251.07C931.19,-251.38 928.08,-251.7 925,-252 748.78,-269.4 138,-199.92 138,-377 138,-377 138,-377 138,-523 138,-563.45 127.7,-584.12 157,-612 188.88,-642.33 299.49,-655.34 383.32,-660.9"/>
<polygon fill="#6ab0de" stroke="#6ab0de" stroke-width="3" points="393.4,-661.54 383.14,-665.39 388.35,-662.22 383.36,-661.9 383.42,-660.9 383.48,-659.91 388.47,-660.22 383.71,-656.41 393.4,-661.54 393.4,-661.54"/>
</g>
<!-- funman.scenario.parameter_synthesis&#45;&gt;funman.representation.representation -->
<g id="edge47" class="edge">
<title>funman.scenario.parameter_synthesis&#45;&gt;funman.representation.representation</title>
<path fill="none" stroke="#6ab0de" stroke-width="3" d="M1180.94,-252.01C1249.35,-269.93 1327,-305.93 1327,-377 1327,-377 1327,-377 1327,-451 1327,-496.73 1230.61,-594.93 1182.99,-640.65"/>
<polygon fill="#6ab0de" stroke="#6ab0de" stroke-width="3" points="1175.52,-647.78 1179.65,-637.62 1178.44,-643.61 1182.06,-640.16 1182.75,-640.88 1183.44,-641.6 1179.82,-645.05 1185.86,-644.14 1175.52,-647.78 1175.52,-647.78"/>
</g>
<!-- funman.scenario.parameter_synthesis&#45;&gt;funman.scenario -->
<g id="edge48" class="edge">
<title>funman.scenario.parameter_synthesis&#45;&gt;funman.scenario</title>
<path fill="none" stroke="#6ab0de" stroke-width="3" d="M1070.48,-215.9C1064.24,-207.45 1055.72,-197.1 1047.39,-187.8"/>
<polygon fill="#6ab0de" stroke="#6ab0de" stroke-width="3" points="1040.5,-180.3 1050.58,-184.62 1044.62,-183.31 1048,-186.99 1047.27,-187.67 1046.53,-188.34 1043.15,-184.66 1043.95,-190.71 1040.5,-180.3 1040.5,-180.3"/>
</g>
<!-- funman.search.box_search -->
<g id="node25" class="node">
<title>funman.search.box_search</title>
<polygon fill="none" stroke="black" points="1561,-324 1355,-324 1355,-288 1561,-288 1561,-324"/>
<text text-anchor="middle" x="1458" y="-302.3" font-family="Times,serif" font-size="14.00">funman.search.box_search</text>
</g>
<!-- funman.scenario.parameter_synthesis&#45;&gt;funman.search.box_search -->
<g id="edge49" class="edge">
<title>funman.scenario.parameter_synthesis&#45;&gt;funman.search.box_search</title>
<path fill="none" stroke="#6ab0de" stroke-width="3" d="M1171.23,-252.03C1227.05,-262.34 1298.32,-275.51 1355.85,-286.13"/>
<polygon fill="#6ab0de" stroke="#6ab0de" stroke-width="3" points="1365.69,-287.95 1355.04,-290.56 1360.59,-288.03 1355.67,-287.12 1355.85,-286.13 1356.03,-285.15 1360.95,-286.06 1356.67,-281.71 1365.69,-287.95 1365.69,-287.95"/>
</g>
<!-- funman.scenario.parameter_synthesis&#45;&gt;funman.translate.translate -->
<g id="edge50" class="edge">
<title>funman.scenario.parameter_synthesis&#45;&gt;funman.translate.translate</title>
<path fill="none" stroke="#6ab0de" stroke-width="3" d="M1017.69,-252.03C993.89,-260.46 967.3,-272.28 946,-288 912.94,-312.41 901.67,-321.25 888,-360 882.68,-375.09 879.49,-382.45 888,-396 896.59,-409.68 909.81,-419.91 924.14,-427.53"/>
<polygon fill="#6ab0de" stroke="#6ab0de" stroke-width="3" points="933.18,-431.95 922.22,-431.6 928.25,-430.65 923.76,-428.45 924.2,-427.56 924.64,-426.66 929.13,-428.85 926.17,-423.51 933.18,-431.95 933.18,-431.95"/>
</g>
<!-- funman.scenario.parameter_synthesis&#45;&gt;funman.utils.math_utils -->
<g id="edge51" class="edge">
<title>funman.scenario.parameter_synthesis&#45;&gt;funman.utils.math_utils</title>
<path fill="none" stroke="#6ab0de" stroke-width="3" d="M1223.74,-244.84C1464.49,-263.17 1921,-307.14 1921,-377 1921,-377 1921,-377 1921,-595 1921,-651.11 1767.74,-694.45 1661.21,-717.8"/>
<polygon fill="#6ab0de" stroke="#6ab0de" stroke-width="3" points="1651.38,-719.93 1660.2,-713.42 1656.05,-717.89 1660.94,-716.84 1661.15,-717.81 1661.36,-718.79 1656.48,-719.85 1662.1,-722.21 1651.38,-719.93 1651.38,-719.93"/>
</g>
<!-- funman.scenario.scenario -->
<g id="node22" class="node">
<title>funman.scenario.scenario</title>
<polygon fill="none" stroke="black" points="1632,-612 1432,-612 1432,-576 1632,-576 1632,-612"/>
<text text-anchor="middle" x="1532" y="-590.3" font-family="Times,serif" font-size="14.00">funman.scenario.scenario</text>
</g>
<!-- funman.scenario.scenario&#45;&gt;funman.utils.handlers -->
<g id="edge52" class="edge">
<title>funman.scenario.scenario&#45;&gt;funman.utils.handlers</title>
<path fill="none" stroke="#6ab0de" stroke-width="3" d="M1561.84,-612.12C1577.94,-621.36 1598,-632.87 1615.29,-642.79"/>
<polygon fill="#6ab0de" stroke="#6ab0de" stroke-width="3" points="1624.04,-647.81 1613.13,-646.74 1619.21,-646.19 1614.87,-643.7 1615.37,-642.83 1615.86,-641.97 1620.2,-644.45 1617.61,-638.93 1624.04,-647.81 1624.04,-647.81"/>
</g>
<!-- funman.scenario.simulation&#45;&gt;funman.model.model -->
<g id="edge53" class="edge">
<title>funman.scenario.simulation&#45;&gt;funman.model.model</title>
<path fill="none" stroke="#6ab0de" stroke-width="3" d="M1357.26,-108.06C1542.66,-146.79 1959,-248.13 1959,-377 1959,-377 1959,-377 1959,-451 1959,-555.06 1886.3,-575.11 1789,-612 1762.34,-622.11 1603.01,-641.98 1497.85,-654.31"/>
<polygon fill="#6ab0de" stroke="#6ab0de" stroke-width="3" points="1487.85,-655.48 1497.26,-649.85 1492.7,-653.9 1497.66,-653.32 1497.78,-654.32 1497.9,-655.31 1492.93,-655.89 1498.3,-658.79 1487.85,-655.48 1487.85,-655.48"/>
</g>
<!-- funman.scenario.simulation&#45;&gt;funman.model.query -->
<g id="edge54" class="edge">
<title>funman.scenario.simulation&#45;&gt;funman.model.query</title>
<path fill="none" stroke="#6ab0de" stroke-width="3" d="M1273.84,-108.39C1279.4,-135.06 1289,-187.73 1289,-233 1289,-233 1289,-233 1289,-307 1289,-382.54 1234.12,-458.13 1201.89,-496.02"/>
<polygon fill="#6ab0de" stroke="#6ab0de" stroke-width="3" points="1194.99,-503.95 1198.16,-493.45 1197.52,-499.52 1200.8,-495.74 1201.55,-496.4 1202.31,-497.06 1199.03,-500.83 1204.95,-499.35 1194.99,-503.95 1194.99,-503.95"/>
</g>
<!-- funman.scenario.simulation&#45;&gt;funman.model.simulator -->
<g id="edge55" class="edge">
<title>funman.scenario.simulation&#45;&gt;funman.model.simulator</title>
<path fill="none" stroke="#6ab0de" stroke-width="3" d="M1266.16,-108.39C1260.6,-135.06 1251,-187.73 1251,-233 1251,-233 1251,-233 1251,-307 1251,-378.12 1184.45,-370.63 1118,-396 1105.33,-400.84 953.81,-421.28 846.77,-435.31"/>
<polygon fill="#6ab0de" stroke="#6ab0de" stroke-width="3" points="836.56,-436.65 845.89,-430.89 841.39,-435.01 846.34,-434.36 846.47,-435.35 846.6,-436.34 841.65,-436.99 847.06,-439.81 836.56,-436.65 836.56,-436.65"/>
</g>
<!-- funman.scenario.simulation&#45;&gt;funman.scenario -->
<g id="edge56" class="edge">
<title>funman.scenario.simulation&#45;&gt;funman.scenario</title>
<path fill="none" stroke="#6ab0de" stroke-width="3" d="M1209.16,-108.03C1173.47,-118.03 1128.21,-130.7 1090.91,-141.15"/>
<polygon fill="#6ab0de" stroke="#6ab0de" stroke-width="3" points="1081.11,-143.89 1089.53,-136.86 1085.66,-141.58 1090.47,-140.23 1090.74,-141.19 1091.01,-142.16 1086.19,-143.5 1091.95,-145.53 1081.11,-143.89 1081.11,-143.89"/>
</g>
<!-- funman.search -->
<g id="node24" class="node">
<title>funman.search</title>
<polygon fill="none" stroke="black" points="1515,-396 1393,-396 1393,-360 1515,-360 1515,-396"/>
<text text-anchor="middle" x="1454" y="-374.3" font-family="Times,serif" font-size="14.00">funman.search</text>
</g>
<!-- funman.search&#45;&gt;funman.representation.representation -->
<g id="edge57" class="edge">
<title>funman.search&#45;&gt;funman.representation.representation</title>
<path fill="none" stroke="#6ab0de" stroke-width="3" d="M1448.41,-396.08C1437.89,-426.74 1413.08,-492.35 1379,-540 1352.12,-577.58 1343.26,-587.63 1304,-612 1282.02,-625.64 1256.02,-636.48 1232.04,-644.7"/>
<polygon fill="#6ab0de" stroke="#6ab0de" stroke-width="3" points="1222.26,-647.95 1230.33,-640.53 1226.69,-645.43 1231.43,-643.85 1231.75,-644.8 1232.06,-645.75 1227.32,-647.32 1233.17,-649.07 1222.26,-647.95 1222.26,-647.95"/>
</g>
<!-- funman.search&#45;&gt;funman.search -->
<g id="edge58" class="edge">
<title>funman.search&#45;&gt;funman.search</title>
<path fill="none" stroke="#6ab0de" stroke-width="3" d="M1515.28,-365.4C1525.75,-367.12 1533,-371.32 1533,-378 1533,-382.28 1530.02,-385.54 1525.13,-387.79"/>
<polygon fill="#6ab0de" stroke="#6ab0de" stroke-width="3" points="1515.28,-390.6 1523.66,-383.53 1519.81,-388.27 1524.62,-386.89 1524.89,-387.85 1525.17,-388.82 1520.36,-390.19 1526.13,-392.18 1515.28,-390.6 1515.28,-390.6"/>
</g>
<!-- funman.search&#45;&gt;funman.search.box_search -->
<g id="edge59" class="edge">
<title>funman.search&#45;&gt;funman.search.box_search</title>
<path fill="none" stroke="#6ab0de" stroke-width="3" d="M1460.87,-359.9C1462.12,-352.21 1462.88,-342.95 1463.04,-334.33"/>
<polygon fill="#6ab0de" stroke="#6ab0de" stroke-width="3" points="1462.93,-324.3 1467.54,-334.25 1463.98,-329.29 1464.04,-334.29 1463.04,-334.3 1462.04,-334.31 1461.98,-329.31 1458.54,-334.35 1462.93,-324.3 1462.93,-324.3"/>
</g>
<!-- funman.search&#45;&gt;funman.search.smt_check -->
<g id="edge60" class="edge">
<title>funman.search&#45;&gt;funman.search.smt_check</title>
<path fill="none" stroke="#6ab0de" stroke-width="3" d="M1487.27,-396.12C1505.46,-405.49 1528.19,-417.19 1547.64,-427.2"/>
<polygon fill="#6ab0de" stroke="#6ab0de" stroke-width="3" points="1556.6,-431.81 1545.65,-431.23 1551.7,-430.41 1547.25,-428.12 1547.71,-427.23 1548.17,-426.34 1552.61,-428.63 1549.77,-423.23 1556.6,-431.81 1556.6,-431.81"/>
</g>
<!-- funman.search.box_search&#45;&gt;funman.representation.representation -->
<g id="edge61" class="edge">
<title>funman.search.box_search&#45;&gt;funman.representation.representation</title>
<path fill="none" stroke="#6ab0de" stroke-width="3" d="M1424.23,-324.03C1409.82,-332.9 1394.05,-345.05 1384,-360 1338.11,-428.26 1381.88,-468.63 1341,-540 1340.28,-541.25 1267.18,-611.17 1266,-612 1248.5,-624.2 1227.77,-635.05 1209.11,-643.7"/>
<polygon fill="#6ab0de" stroke="#6ab0de" stroke-width="3" points="1199.85,-647.9 1207.1,-639.67 1203.99,-644.92 1208.55,-642.86 1208.96,-643.77 1209.37,-644.68 1204.82,-646.74 1210.82,-647.87 1199.85,-647.9 1199.85,-647.9"/>
</g>
<!-- funman.search.box_search&#45;&gt;funman.search -->
<g id="edge62" class="edge">
<title>funman.search.box_search&#45;&gt;funman.search</title>
<path fill="none" stroke="#6ab0de" stroke-width="3" d="M1451.1,-324.3C1449.86,-332.02 1449.1,-341.29 1448.95,-349.89"/>
<polygon fill="#6ab0de" stroke="#6ab0de" stroke-width="3" points="1449.08,-359.9 1444.45,-349.95 1448.02,-354.91 1447.95,-349.91 1448.95,-349.9 1449.95,-349.88 1450.02,-354.88 1453.45,-349.84 1449.08,-359.9 1449.08,-359.9"/>
</g>
<!-- funman.search.search -->
<g id="node26" class="node">
<title>funman.search.search</title>
<polygon fill="none" stroke="black" points="1605,-540 1431,-540 1431,-504 1605,-504 1605,-540"/>
<text text-anchor="middle" x="1518" y="-518.3" font-family="Times,serif" font-size="14.00">funman.search.search</text>
</g>
<!-- funman.search.box_search&#45;&gt;funman.search.search -->
<g id="edge63" class="edge">
<title>funman.search.box_search&#45;&gt;funman.search.search</title>
<path fill="none" stroke="#6ab0de" stroke-width="3" d="M1502.07,-324.02C1517.55,-332.38 1533.26,-344.15 1542,-360 1549.73,-374.01 1549.93,-382.11 1542,-396 1526.39,-423.34 1496.61,-404.66 1481,-432 1469.27,-452.54 1481.78,-477.53 1495.33,-495.8"/>
<polygon fill="#6ab0de" stroke="#6ab0de" stroke-width="3" points="1501.54,-503.67 1491.82,-498.61 1497.66,-500.37 1494.56,-496.44 1495.35,-495.82 1496.13,-495.21 1499.23,-499.13 1498.88,-493.04 1501.54,-503.67 1501.54,-503.67"/>
</g>
<!-- funman.utils.smtlib_utils -->
<g id="node37" class="node">
<title>funman.utils.smtlib_utils</title>
<polygon fill="none" stroke="black" points="1817,-540 1623,-540 1623,-504 1817,-504 1817,-540"/>
<text text-anchor="middle" x="1720" y="-518.3" font-family="Times,serif" font-size="14.00">funman.utils.smtlib_utils</text>
</g>
<!-- funman.search.box_search&#45;&gt;funman.utils.smtlib_utils -->
<g id="edge64" class="edge">
<title>funman.search.box_search&#45;&gt;funman.utils.smtlib_utils</title>
<path fill="none" stroke="#6ab0de" stroke-width="3" d="M1523.89,-324.05C1579.25,-341.82 1656.14,-375.2 1700,-432 1713.57,-449.58 1718.28,-474.61 1719.76,-493.65"/>
<polygon fill="#6ab0de" stroke="#6ab0de" stroke-width="3" points="1720.29,-503.8 1715.27,-494.05 1719.03,-498.86 1718.77,-493.87 1719.77,-493.81 1720.76,-493.76 1721.03,-498.75 1724.26,-493.58 1720.29,-503.8 1720.29,-503.8"/>
</g>
<!-- funman.search.search&#45;&gt;funman.funman -->
<g id="edge65" class="edge">
<title>funman.search.search&#45;&gt;funman.funman</title>
<path fill="none" stroke="#6ab0de" stroke-width="3" d="M1565.94,-540.03C1593.47,-549.81 1628.22,-562.16 1657.24,-572.48"/>
<polygon fill="#6ab0de" stroke="#6ab0de" stroke-width="3" points="1666.85,-575.89 1655.92,-576.78 1661.8,-575.16 1657.09,-573.48 1657.42,-572.54 1657.76,-571.6 1662.47,-573.27 1658.93,-568.3 1666.85,-575.89 1666.85,-575.89"/>
</g>
<!-- funman.search.search&#45;&gt;funman.scenario.scenario -->
<g id="edge66" class="edge">
<title>funman.search.search&#45;&gt;funman.scenario.scenario</title>
<path fill="none" stroke="#6ab0de" stroke-width="3" d="M1521.46,-540.3C1523,-548.02 1524.86,-557.29 1526.58,-565.89"/>
<polygon fill="#6ab0de" stroke="#6ab0de" stroke-width="3" points="1528.58,-575.9 1522.21,-566.97 1526.62,-571.19 1525.64,-566.29 1526.62,-566.09 1527.6,-565.89 1528.58,-570.8 1531.03,-565.21 1528.58,-575.9 1528.58,-575.9"/>
</g>
<!-- funman.search.smt_check&#45;&gt;funman.search.search -->
<g id="edge67" class="edge">
<title>funman.search.smt_check&#45;&gt;funman.search.search</title>
<path fill="none" stroke="#6ab0de" stroke-width="3" d="M1572.2,-468.3C1563.4,-476.86 1552.62,-487.34 1543,-496.7"/>
<polygon fill="#6ab0de" stroke="#6ab0de" stroke-width="3" points="1535.59,-503.9 1539.63,-493.7 1538.48,-499.69 1542.07,-496.21 1542.76,-496.92 1543.46,-497.64 1539.88,-501.13 1545.9,-500.15 1535.59,-503.9 1535.59,-503.9"/>
</g>
<!-- funman.search.smt_check&#45;&gt;funman.utils.smtlib_utils -->
<g id="edge68" class="edge">
<title>funman.search.smt_check&#45;&gt;funman.utils.smtlib_utils</title>
<path fill="none" stroke="#6ab0de" stroke-width="3" d="M1621.8,-468.12C1639.11,-477.45 1660.72,-489.08 1679.26,-499.06"/>
<polygon fill="#6ab0de" stroke="#6ab0de" stroke-width="3" points="1688.08,-503.81 1677.14,-503.03 1683.2,-502.32 1678.8,-499.95 1679.27,-499.07 1679.75,-498.19 1684.15,-500.56 1681.4,-495.11 1688.08,-503.81 1688.08,-503.81"/>
</g>
<!-- funman.translate&#45;&gt;funman.translate -->
<g id="edge69" class="edge">
<title>funman.translate&#45;&gt;funman.translate</title>
<path fill="none" stroke="#6ab0de" stroke-width="3" d="M477.07,-509.69C487.75,-511.57 495,-515.67 495,-522 495,-526.15 491.88,-529.35 486.71,-531.58"/>
<polygon fill="#6ab0de" stroke="#6ab0de" stroke-width="3" points="477.07,-534.31 485.47,-527.26 481.61,-531.99 486.42,-530.63 486.69,-531.59 486.97,-532.55 482.15,-533.91 487.92,-535.92 477.07,-534.31 477.07,-534.31"/>
</g>
<!-- funman.translate.bilayer -->
<g id="node29" class="node">
<title>funman.translate.bilayer</title>
<polygon fill="none" stroke="black" points="581,-612 387,-612 387,-576 581,-576 581,-612"/>
<text text-anchor="middle" x="484" y="-590.3" font-family="Times,serif" font-size="14.00">funman.translate.bilayer</text>
</g>
<!-- funman.translate&#45;&gt;funman.translate.bilayer -->
<g id="edge70" class="edge">
<title>funman.translate&#45;&gt;funman.translate.bilayer</title>
<path fill="none" stroke="#6ab0de" stroke-width="3" d="M420.12,-540.3C428.82,-549.03 440.45,-559.76 451.44,-569.25"/>
<polygon fill="#6ab0de" stroke="#6ab0de" stroke-width="3" points="459.29,-575.9 448.75,-572.87 454.83,-573.43 451.01,-570.2 451.66,-569.43 452.31,-568.67 456.12,-571.9 454.57,-566 459.29,-575.9 459.29,-575.9"/>
</g>
<!-- funman.translate&#45;&gt;funman.translate.encoded -->
<g id="edge71" class="edge">
<title>funman.translate&#45;&gt;funman.translate.encoded</title>
<path fill="none" stroke="#6ab0de" stroke-width="3" d="M367.1,-540.12C347.61,-549.45 324.37,-561.08 305.25,-571.06"/>
<polygon fill="#6ab0de" stroke="#6ab0de" stroke-width="3" points="296.23,-575.81 302.98,-567.17 300.19,-572.6 304.61,-570.27 305.08,-571.15 305.54,-572.04 301.12,-574.37 307.17,-575.13 296.23,-575.81 296.23,-575.81"/>
</g>
<!-- funman.translate.gromet -->
<g id="node32" class="node">
<title>funman.translate.gromet</title>
<polygon fill="none" stroke="black" points="795,-612 599,-612 599,-576 795,-576 795,-612"/>
<text text-anchor="middle" x="697" y="-590.3" font-family="Times,serif" font-size="14.00">funman.translate.gromet</text>
</g>
<!-- funman.translate&#45;&gt;funman.translate.gromet -->
<g id="edge72" class="edge">
<title>funman.translate&#45;&gt;funman.translate.gromet</title>
<path fill="none" stroke="#6ab0de" stroke-width="3" d="M471.68,-540.03C512.62,-550.17 565.99,-563.07 610.53,-573.6"/>
<polygon fill="#6ab0de" stroke="#6ab0de" stroke-width="3" points="620.47,-575.95 609.71,-578.03 615.38,-575.78 610.51,-574.63 610.74,-573.65 610.97,-572.68 615.84,-573.83 611.78,-569.27 620.47,-575.95 620.47,-575.95"/>
</g>
<!-- funman.translate.bilayer&#45;&gt;funman.model.bilayer -->
<g id="edge73" class="edge">
<title>funman.translate.bilayer&#45;&gt;funman.model.bilayer</title>
<path fill="none" stroke="#6ab0de" stroke-width="3" d="M491.42,-575.58C495.56,-565.36 500.56,-552.11 504,-540 526.24,-461.6 496.13,-429.31 539,-360 546.28,-348.23 557.19,-338.09 568.2,-329.93"/>
<polygon fill="#6ab0de" stroke="#6ab0de" stroke-width="3" points="576.58,-324.08 570.96,-333.49 573.05,-327.76 568.95,-330.62 568.38,-329.8 567.81,-328.98 571.91,-326.12 565.8,-326.11 576.58,-324.08 576.58,-324.08"/>
</g>
<!-- funman.translate.bilayer&#45;&gt;funman.model.model -->
<g id="edge74" class="edge">
<title>funman.translate.bilayer&#45;&gt;funman.model.model</title>
<path fill="none" stroke="#6ab0de" stroke-width="3" d="M581.27,-611.02C584.21,-611.37 587.13,-611.7 590,-612 905.82,-645.11 990.56,-611.77 1310.41,-648.04"/>
<polygon fill="#6ab0de" stroke="#6ab0de" stroke-width="3" points="1320.43,-649.19 1309.98,-652.52 1315.34,-649.61 1310.38,-649.04 1310.49,-648.05 1310.61,-647.06 1315.57,-647.63 1311,-643.58 1320.43,-649.19 1320.43,-649.19"/>
</g>
<!-- funman.translate.bilayer&#45;&gt;funman.representation -->
<g id="edge75" class="edge">
<title>funman.translate.bilayer&#45;&gt;funman.representation</title>
<path fill="none" stroke="#6ab0de" stroke-width="3" d="M484,-612.3C484,-620.02 484,-629.29 484,-637.89"/>
<polygon fill="#6ab0de" stroke="#6ab0de" stroke-width="3" points="484,-647.9 479.5,-637.9 483,-642.9 483,-637.9 484,-637.9 485,-637.9 485,-642.9 488.5,-637.9 484,-647.9 484,-647.9"/>
</g>
<!-- funman.translate.bilayer&#45;&gt;funman.representation.representation -->
<g id="edge76" class="edge">
<title>funman.translate.bilayer&#45;&gt;funman.representation.representation</title>
<path fill="none" stroke="#6ab0de" stroke-width="3" d="M581.01,-610.82C584.04,-611.23 587.04,-611.62 590,-612 728.65,-629.58 887.06,-643.9 1001.13,-653.21"/>
<polygon fill="#6ab0de" stroke="#6ab0de" stroke-width="3" points="1011.34,-654.04 1001.01,-657.71 1006.27,-654.63 1001.29,-654.23 1001.37,-653.23 1001.45,-652.23 1006.44,-652.64 1001.74,-648.74 1011.34,-654.04 1011.34,-654.04"/>
</g>
<!-- funman.translate.bilayer&#45;&gt;funman.translate -->
<g id="edge77" class="edge">
<title>funman.translate.bilayer&#45;&gt;funman.translate</title>
<path fill="none" stroke="#6ab0de" stroke-width="3" d="M471.08,-575.9C462.42,-567.2 450.81,-556.48 439.81,-546.97"/>
<polygon fill="#6ab0de" stroke="#6ab0de" stroke-width="3" points="431.95,-540.3 442.49,-543.34 436.41,-542.77 440.22,-546.01 439.58,-546.77 438.93,-547.53 435.12,-544.3 436.67,-550.2 431.95,-540.3 431.95,-540.3"/>
</g>
<!-- funman.translate.decapode&#45;&gt;funman.translate.translate -->
<g id="edge78" class="edge">
<title>funman.translate.decapode&#45;&gt;funman.translate.translate</title>
<path fill="none" stroke="#6ab0de" stroke-width="3" d="M1001.76,-396.3C1001.21,-404.02 1000.55,-413.29 999.94,-421.89"/>
<polygon fill="#6ab0de" stroke="#6ab0de" stroke-width="3" points="999.22,-431.9 995.45,-421.6 998.58,-426.84 998.94,-421.85 999.93,-421.92 1000.93,-421.99 1000.58,-426.98 1004.42,-422.24 999.22,-431.9 999.22,-431.9"/>
</g>
<!-- funman.translate.encoded&#45;&gt;funman.model -->
<g id="edge79" class="edge">
<title>funman.translate.encoded&#45;&gt;funman.model</title>
<path fill="none" stroke="#6ab0de" stroke-width="3" d="M275.9,-575.82C285.68,-556.17 304.03,-524.14 328,-504 390.26,-451.69 477.9,-417.3 538.48,-398.07"/>
<polygon fill="#6ab0de" stroke="#6ab0de" stroke-width="3" points="548.33,-395 540.13,-402.27 543.86,-397.44 539.08,-398.93 538.79,-397.98 538.49,-397.02 543.26,-395.53 537.45,-393.68 548.33,-395 548.33,-395"/>
</g>
<!-- funman.translate.encoded&#45;&gt;funman.model.encoded -->
<g id="edge80" class="edge">
<title>funman.translate.encoded&#45;&gt;funman.model.encoded</title>
<path fill="none" stroke="#6ab0de" stroke-width="3" d="M218.8,-612.12C193.38,-621.78 162.58,-633.91 137.55,-644.12"/>
<polygon fill="#6ab0de" stroke="#6ab0de" stroke-width="3" points="128.27,-647.93 135.81,-639.97 132.51,-645.11 137.14,-643.21 137.52,-644.14 137.9,-645.06 133.27,-646.96 139.23,-648.3 128.27,-647.93 128.27,-647.93"/>
</g>
<!-- funman.translate.encoded&#45;&gt;funman.translate -->
<g id="edge81" class="edge">
<title>funman.translate.encoded&#45;&gt;funman.translate</title>
<path fill="none" stroke="#6ab0de" stroke-width="3" d="M307.78,-575.93C327.33,-566.58 350.67,-554.9 369.85,-544.89"/>
<polygon fill="#6ab0de" stroke="#6ab0de" stroke-width="3" points="378.89,-540.12 372.14,-548.77 374.94,-543.34 370.51,-545.67 370.05,-544.78 369.58,-543.9 374,-541.57 367.95,-540.8 378.89,-540.12 378.89,-540.12"/>
</g>
<!-- funman.translate.gromet&#45;&gt;funman.model -->
<g id="edge82" class="edge">
<title>funman.translate.gromet&#45;&gt;funman.model</title>
<path fill="none" stroke="#6ab0de" stroke-width="3" d="M673.56,-575.82C646.28,-554.21 602.7,-514.27 585,-468 577.16,-447.5 584.38,-423.34 592.74,-405.37"/>
<polygon fill="#6ab0de" stroke="#6ab0de" stroke-width="3" points="597.42,-396.08 596.94,-407.04 596.06,-401 593.82,-405.46 592.92,-405.01 592.03,-404.57 594.28,-400.1 588.9,-402.99 597.42,-396.08 597.42,-396.08"/>
</g>
<!-- funman.translate.gromet&#45;&gt;funman.model.gromet -->
<g id="edge83" class="edge">
<title>funman.translate.gromet&#45;&gt;funman.model.gromet</title>
<path fill="none" stroke="#6ab0de" stroke-width="3" d="M722.44,-612.12C735.79,-621.11 752.32,-632.24 766.78,-641.97"/>
<polygon fill="#6ab0de" stroke="#6ab0de" stroke-width="3" points="775.46,-647.81 764.65,-645.96 770.75,-645.85 766.61,-643.06 767.17,-642.23 767.72,-641.4 771.87,-644.19 769.68,-638.49 775.46,-647.81 775.46,-647.81"/>
</g>
<!-- funman.translate.gromet&#45;&gt;funman.translate -->
<g id="edge84" class="edge">
<title>funman.translate.gromet&#45;&gt;funman.translate</title>
<path fill="none" stroke="#6ab0de" stroke-width="3" d="M632.36,-575.98C589.4,-565.34 532.75,-551.66 486.97,-540.86"/>
<polygon fill="#6ab0de" stroke="#6ab0de" stroke-width="3" points="477.08,-538.54 487.85,-536.44 482.18,-538.71 487.04,-539.85 486.81,-540.83 486.59,-541.8 481.72,-540.65 485.78,-545.21 477.08,-538.54 477.08,-538.54"/>
</g>
<!-- funman.translate.translate&#45;&gt;funman.constants -->
<g id="edge85" class="edge">
<title>funman.translate.translate&#45;&gt;funman.constants</title>
<path fill="none" stroke="#6ab0de" stroke-width="3" d="M993.6,-468.23C984.28,-508.46 966.2,-610.76 1002,-684 1024.95,-730.96 1074.86,-766.05 1111.87,-786.91"/>
<polygon fill="#6ab0de" stroke="#6ab0de" stroke-width="3" points="1120.98,-791.91 1110.05,-791.04 1116.11,-790.38 1111.73,-787.97 1112.21,-787.1 1112.69,-786.22 1117.08,-788.63 1114.38,-783.15 1120.98,-791.91 1120.98,-791.91"/>
</g>
<!-- funman.translate.translate&#45;&gt;funman.funman -->
<g id="edge86" class="edge">
<title>funman.translate.translate&#45;&gt;funman.funman</title>
<path fill="none" stroke="#6ab0de" stroke-width="3" d="M1012.66,-468.12C1033.21,-491.64 1070.06,-531.94 1088,-540 1197.58,-589.25 1503.71,-559.69 1640.22,-576.15"/>
<polygon fill="#6ab0de" stroke="#6ab0de" stroke-width="3" points="1650.14,-577.48 1639.63,-580.62 1645.05,-577.81 1640.1,-577.15 1640.23,-576.16 1640.36,-575.16 1645.32,-575.83 1640.82,-571.7 1650.14,-577.48 1650.14,-577.48"/>
</g>
<!-- funman.translate.translate&#45;&gt;funman.model.query -->
<g id="edge87" class="edge">
<title>funman.translate.translate&#45;&gt;funman.model.query</title>
<path fill="none" stroke="#6ab0de" stroke-width="3" d="M1042.28,-468.12C1067.35,-477.82 1098.9,-490.02 1125.37,-500.26"/>
<polygon fill="#6ab0de" stroke="#6ab0de" stroke-width="3" points="1134.87,-503.93 1123.92,-504.52 1129.84,-503.06 1125.18,-501.26 1125.54,-500.32 1125.9,-499.39 1130.56,-501.2 1127.16,-496.13 1134.87,-503.93 1134.87,-503.93"/>
</g>
<!-- funman.translate.translate&#45;&gt;funman.representation -->
<g id="edge88" class="edge">
<title>funman.translate.translate&#45;&gt;funman.representation</title>
<path fill="none" stroke="#6ab0de" stroke-width="3" d="M983.43,-468.03C953.56,-501.69 881.63,-576.54 804,-612 734.96,-643.53 649.91,-656.55 584.85,-661.81"/>
<polygon fill="#6ab0de" stroke="#6ab0de" stroke-width="3" points="574.58,-662.59 584.21,-657.35 579.49,-661.22 584.48,-660.84 584.55,-661.84 584.63,-662.83 579.64,-663.21 584.89,-666.32 574.58,-662.59 574.58,-662.59"/>
</g>
<!-- funman.translate.translate&#45;&gt;funman.representation.representation -->
<g id="edge89" class="edge">
<title>funman.translate.translate&#45;&gt;funman.representation.representation</title>
<path fill="none" stroke="#6ab0de" stroke-width="3" d="M1005.26,-468.14C1013.44,-486.62 1027.75,-516.55 1044,-540 1070.16,-577.75 1106.74,-616.22 1131.11,-640.32"/>
<polygon fill="#6ab0de" stroke="#6ab0de" stroke-width="3" points="1138.57,-647.62 1128.28,-643.84 1134.3,-644.83 1130.73,-641.34 1131.43,-640.62 1132.13,-639.91 1135.7,-643.41 1134.57,-637.41 1138.57,-647.62 1138.57,-647.62"/>
</g>
<!-- funman.utils -->
<g id="node34" class="node">
<title>funman.utils</title>
<polygon fill="none" stroke="black" points="1854.5,-468 1747.5,-468 1747.5,-432 1854.5,-432 1854.5,-468"/>
<text text-anchor="middle" x="1801" y="-446.3" font-family="Times,serif" font-size="14.00">funman.utils</text>
</g>
<!-- funman.utils&#45;&gt;funman.utils.math_utils -->
<g id="edge90" class="edge">
<title>funman.utils&#45;&gt;funman.utils.math_utils</title>
<path fill="none" stroke="#6ab0de" stroke-width="3" d="M1811.63,-468.44C1817.1,-478.46 1823.2,-491.49 1826,-504 1829.5,-519.61 1829.76,-524.45 1826,-540 1808.98,-610.34 1806.55,-638.84 1750,-684 1725.6,-703.49 1694.45,-715.82 1664.51,-723.61"/>
<polygon fill="#6ab0de" stroke="#6ab0de" stroke-width="3" points="1654.41,-726.09 1663.05,-719.33 1659.03,-723.92 1663.88,-722.73 1664.12,-723.71 1664.36,-724.68 1659.5,-725.87 1665.19,-728.08 1654.41,-726.09 1654.41,-726.09"/>
</g>
<!-- funman.utils&#45;&gt;funman.utils.smtlib_utils -->
<g id="edge91" class="edge">
<title>funman.utils&#45;&gt;funman.utils.smtlib_utils</title>
<path fill="none" stroke="#6ab0de" stroke-width="3" d="M1780.98,-468.3C1770.87,-477.03 1758.46,-487.76 1747.48,-497.25"/>
<polygon fill="#6ab0de" stroke="#6ab0de" stroke-width="3" points="1739.79,-503.9 1744.42,-493.95 1742.92,-499.87 1746.7,-496.6 1747.36,-497.36 1748.01,-498.11 1744.23,-501.38 1750.3,-500.76 1739.79,-503.9 1739.79,-503.9"/>
</g>
<!-- funman.utils.math_utils&#45;&gt;funman.constants -->
<g id="edge92" class="edge">
<title>funman.utils.math_utils&#45;&gt;funman.constants</title>
<path fill="none" stroke="#6ab0de" stroke-width="3" d="M1467.81,-755.15C1398.76,-767.11 1305.54,-783.26 1239.25,-794.75"/>
<polygon fill="#6ab0de" stroke="#6ab0de" stroke-width="3" points="1229.26,-796.48 1238.35,-790.34 1234.02,-794.64 1238.95,-793.79 1239.12,-794.77 1239.29,-795.76 1234.36,-796.61 1239.89,-799.21 1229.26,-796.48 1229.26,-796.48"/>
</g>
</g>
</svg>
