<?xml version="1.0" encoding="UTF-8" standalone="no"?>
<!DOCTYPE svg PUBLIC "-//W3C//DTD SVG 1.1//EN"
 "http://www.w3.org/Graphics/SVG/1.1/DTD/svg11.dtd">
<!-- Generated by graphviz version 2.43.0 (0)
 -->
<!-- Title: packages Pages: 1 -->
<svg width="726pt" height="404pt"
 viewBox="0.00 0.00 725.67 404.00" xmlns="http://www.w3.org/2000/svg" xmlns:xlink="http://www.w3.org/1999/xlink">
<g id="graph0" class="graph" transform="scale(1 1) rotate(0) translate(4 400)">
<title>packages</title>
<polygon fill="white" stroke="transparent" points="-4,4 -4,-400 721.67,-400 721.67,4 -4,4"/>
<!-- funman -->
<g id="node1" class="node">
<title>funman</title>
<polygon fill="none" stroke="black" points="118.17,-180 47.17,-180 47.17,-144 118.17,-144 118.17,-180"/>
<text text-anchor="middle" x="82.67" y="-158.3" font-family="Times,serif" font-size="14.00">funman</text>
</g>
<!-- funman._version -->
<g id="node2" class="node">
<title>funman._version</title>
<polygon fill="none" stroke="black" points="149.67,-252 15.67,-252 15.67,-216 149.67,-216 149.67,-252"/>
<text text-anchor="middle" x="82.67" y="-230.3" font-family="Times,serif" font-size="14.00">funman._version</text>
</g>
<!-- funman&#45;&gt;funman._version -->
<g id="edge1" class="edge">
<title>funman&#45;&gt;funman._version</title>
<path fill="none" stroke="#6ab0de" stroke-width="3" d="M82.67,-180.3C82.67,-188.02 82.67,-197.29 82.67,-205.89"/>
<polygon fill="#6ab0de" stroke="#6ab0de" stroke-width="3" points="82.67,-215.9 78.17,-205.9 81.67,-210.9 81.67,-205.9 82.67,-205.9 83.67,-205.9 83.67,-210.9 87.17,-205.9 82.67,-215.9 82.67,-215.9"/>
</g>
<!-- funman.config -->
<g id="node3" class="node">
<title>funman.config</title>
<polygon fill="none" stroke="black" points="294.67,-324 176.67,-324 176.67,-288 294.67,-288 294.67,-324"/>
<text text-anchor="middle" x="235.67" y="-302.3" font-family="Times,serif" font-size="14.00">funman.config</text>
</g>
<!-- funman&#45;&gt;funman.config -->
<g id="edge2" class="edge">
<title>funman&#45;&gt;funman.config</title>
<path fill="none" stroke="#6ab0de" stroke-width="3" d="M47.09,-178.37C31.71,-187.02 15.3,-199.46 6.67,-216 -0.73,-230.19 -3.29,-239.48 6.67,-252 26.38,-276.8 106.42,-291.01 166.36,-298.36"/>
<polygon fill="#6ab0de" stroke="#6ab0de" stroke-width="3" points="176.55,-299.57 166.09,-302.86 171.46,-299.97 166.5,-299.38 166.61,-298.39 166.73,-297.4 171.7,-297.98 167.14,-293.92 176.55,-299.57 176.55,-299.57"/>
</g>
<!-- funman.scenario -->
<g id="node10" class="node">
<title>funman.scenario</title>
<polygon fill="none" stroke="black" points="303.17,-252 168.17,-252 168.17,-216 303.17,-216 303.17,-252"/>
<text text-anchor="middle" x="235.67" y="-230.3" font-family="Times,serif" font-size="14.00">funman.scenario</text>
</g>
<!-- funman&#45;&gt;funman.scenario -->
<g id="edge3" class="edge">
<title>funman&#45;&gt;funman.scenario</title>
<path fill="none" stroke="#6ab0de" stroke-width="3" d="M118.54,-179.41C139.66,-189.07 166.59,-201.39 189.3,-211.79"/>
<polygon fill="#6ab0de" stroke="#6ab0de" stroke-width="3" points="198.42,-215.96 187.46,-215.89 193.46,-214.79 188.91,-212.71 189.33,-211.8 189.75,-210.89 194.29,-212.97 191.2,-207.71 198.42,-215.96 198.42,-215.96"/>
</g>
<!-- funman.constants -->
<g id="node4" class="node">
<title>funman.constants</title>
<polygon fill="none" stroke="black" points="561.67,-396 417.67,-396 417.67,-360 561.67,-360 561.67,-396"/>
<text text-anchor="middle" x="489.67" y="-374.3" font-family="Times,serif" font-size="14.00">funman.constants</text>
</g>
<!-- funman.examples -->
<g id="node5" class="node">
<title>funman.examples</title>
<polygon fill="none" stroke="black" points="713.17,-36 570.17,-36 570.17,0 713.17,0 713.17,-36"/>
<text text-anchor="middle" x="641.67" y="-14.3" font-family="Times,serif" font-size="14.00">funman.examples</text>
</g>
<!-- funman.examples.chime -->
<g id="node6" class="node">
<title>funman.examples.chime</title>
<polygon fill="none" stroke="black" points="284.67,-108 94.67,-108 94.67,-72 284.67,-72 284.67,-108"/>
<text text-anchor="middle" x="189.67" y="-86.3" font-family="Times,serif" font-size="14.00">funman.examples.chime</text>
</g>
<!-- funman.math_utils -->
<g id="node7" class="node">
<title>funman.math_utils</title>
<polygon fill="none" stroke="black" points="717.67,-324 567.67,-324 567.67,-288 717.67,-288 717.67,-324"/>
<text text-anchor="middle" x="642.67" y="-302.3" font-family="Times,serif" font-size="14.00">funman.math_utils</text>
</g>
<!-- funman.math_utils&#45;&gt;funman.constants -->
<g id="edge4" class="edge">
<title>funman.math_utils&#45;&gt;funman.constants</title>
<path fill="none" stroke="#6ab0de" stroke-width="3" d="M605.24,-324.12C584.42,-333.65 558.32,-345.59 536.19,-355.72"/>
<polygon fill="#6ab0de" stroke="#6ab0de" stroke-width="3" points="526.98,-359.93 534.2,-351.68 531.11,-356.94 535.65,-354.86 536.07,-355.77 536.49,-356.68 531.94,-358.76 537.94,-359.86 526.98,-359.93 526.98,-359.93"/>
</g>
<!-- funman.model -->
<g id="node8" class="node">
<title>funman.model</title>
<polygon fill="none" stroke="black" points="549.17,-324 430.17,-324 430.17,-288 549.17,-288 549.17,-324"/>
<text text-anchor="middle" x="489.67" y="-302.3" font-family="Times,serif" font-size="14.00">funman.model</text>
</g>
<!-- funman.model&#45;&gt;funman.constants -->
<g id="edge5" class="edge">
<title>funman.model&#45;&gt;funman.constants</title>
<path fill="none" stroke="#6ab0de" stroke-width="3" d="M489.67,-324.3C489.67,-332.02 489.67,-341.29 489.67,-349.89"/>
<polygon fill="#6ab0de" stroke="#6ab0de" stroke-width="3" points="489.67,-359.9 485.17,-349.9 488.67,-354.9 488.67,-349.9 489.67,-349.9 490.67,-349.9 490.67,-354.9 494.17,-349.9 489.67,-359.9 489.67,-359.9"/>
</g>
<!-- funman.parameter_space -->
<g id="node9" class="node">
<title>funman.parameter_space</title>
<polygon fill="none" stroke="black" points="641.17,-180 444.17,-180 444.17,-144 641.17,-144 641.17,-180"/>
<text text-anchor="middle" x="542.67" y="-158.3" font-family="Times,serif" font-size="14.00">funman.parameter_space</text>
</g>
<!-- funman.search_utils -->
<g id="node14" class="node">
<title>funman.search_utils</title>
<polygon fill="none" stroke="black" points="482.17,-252 321.17,-252 321.17,-216 482.17,-216 482.17,-252"/>
<text text-anchor="middle" x="401.67" y="-230.3" font-family="Times,serif" font-size="14.00">funman.search_utils</text>
</g>
<!-- funman.parameter_space&#45;&gt;funman.search_utils -->
<g id="edge6" class="edge">
<title>funman.parameter_space&#45;&gt;funman.search_utils</title>
<path fill="none" stroke="#6ab0de" stroke-width="3" d="M508.18,-180.12C489.23,-189.53 465.54,-201.29 445.31,-211.33"/>
<polygon fill="#6ab0de" stroke="#6ab0de" stroke-width="3" points="436.29,-215.81 443.25,-207.33 440.33,-212.69 444.81,-210.47 445.25,-211.36 445.7,-212.26 441.22,-214.48 447.25,-215.39 436.29,-215.81 436.29,-215.81"/>
</g>
<!-- funman.scenario&#45;&gt;funman.config -->
<g id="edge7" class="edge">
<title>funman.scenario&#45;&gt;funman.config</title>
<path fill="none" stroke="#6ab0de" stroke-width="3" d="M235.67,-252.3C235.67,-260.02 235.67,-269.29 235.67,-277.89"/>
<polygon fill="#6ab0de" stroke="#6ab0de" stroke-width="3" points="235.67,-287.9 231.17,-277.9 234.67,-282.9 234.67,-277.9 235.67,-277.9 236.67,-277.9 236.67,-282.9 240.17,-277.9 235.67,-287.9 235.67,-287.9"/>
</g>
<!-- funman.scenario.parameter_synthesis -->
<g id="node11" class="node">
<title>funman.scenario.parameter_synthesis</title>
<polygon fill="none" stroke="black" points="552.17,-36 263.17,-36 263.17,0 552.17,0 552.17,-36"/>
<text text-anchor="middle" x="407.67" y="-14.3" font-family="Times,serif" font-size="14.00">funman.scenario.parameter_synthesis</text>
</g>
<!-- funman.scenario.parameter_synthesis&#45;&gt;funman.examples.chime -->
<g id="edge8" class="edge">
<title>funman.scenario.parameter_synthesis&#45;&gt;funman.examples.chime</title>
<path fill="none" stroke="#6ab0de" stroke-width="3" d="M354.62,-36.03C323.89,-45.9 285.03,-58.38 252.75,-68.75"/>
<polygon fill="#6ab0de" stroke="#6ab0de" stroke-width="3" points="242.96,-71.89 251.1,-64.55 247.41,-69.41 252.17,-67.88 252.48,-68.83 252.78,-69.78 248.02,-71.31 253.85,-73.12 242.96,-71.89 242.96,-71.89"/>
</g>
<!-- funman.scenario.parameter_synthesis&#45;&gt;funman.model -->
<g id="edge9" class="edge">
<title>funman.scenario.parameter_synthesis&#45;&gt;funman.model</title>
<path fill="none" stroke="#6ab0de" stroke-width="3" d="M484.9,-36C541.64,-52.97 614.84,-85.28 650.67,-144 686.24,-202.3 600.48,-255.23 540.95,-283.49"/>
<polygon fill="#6ab0de" stroke="#6ab0de" stroke-width="3" points="531.64,-287.81 538.82,-279.52 535.76,-284.8 540.29,-282.7 540.71,-283.6 541.13,-284.51 536.6,-286.62 542.61,-287.68 531.64,-287.81 531.64,-287.81"/>
</g>
<!-- funman.scenario.parameter_synthesis&#45;&gt;funman.parameter_space -->
<g id="edge10" class="edge">
<title>funman.scenario.parameter_synthesis&#45;&gt;funman.parameter_space</title>
<path fill="none" stroke="#6ab0de" stroke-width="3" d="M423.95,-36.13C447.67,-61.08 491.85,-107.55 519.12,-136.23"/>
<polygon fill="#6ab0de" stroke="#6ab0de" stroke-width="3" points="526.33,-143.81 516.18,-139.66 522.16,-140.88 518.71,-137.25 519.44,-136.56 520.16,-135.87 523.61,-139.5 522.7,-133.46 526.33,-143.81 526.33,-143.81"/>
</g>
<!-- funman.search -->
<g id="node12" class="node">
<title>funman.search</title>
<polygon fill="none" stroke="black" points="424.67,-108 302.67,-108 302.67,-72 424.67,-72 424.67,-108"/>
<text text-anchor="middle" x="363.67" y="-86.3" font-family="Times,serif" font-size="14.00">funman.search</text>
</g>
<!-- funman.scenario.parameter_synthesis&#45;&gt;funman.search -->
<g id="edge11" class="edge">
<title>funman.scenario.parameter_synthesis&#45;&gt;funman.search</title>
<path fill="none" stroke="#6ab0de" stroke-width="3" d="M396.79,-36.3C391.68,-44.44 385.47,-54.31 379.82,-63.3"/>
<polygon fill="#6ab0de" stroke="#6ab0de" stroke-width="3" points="374.42,-71.9 375.93,-61.03 376.23,-67.13 378.9,-62.9 379.74,-63.43 380.59,-63.96 377.93,-68.19 383.55,-65.82 374.42,-71.9 374.42,-71.9"/>
</g>
<!-- funman.search_episode -->
<g id="node13" class="node">
<title>funman.search_episode</title>
<polygon fill="none" stroke="black" points="425.67,-180 241.67,-180 241.67,-144 425.67,-144 425.67,-180"/>
<text text-anchor="middle" x="333.67" y="-158.3" font-family="Times,serif" font-size="14.00">funman.search_episode</text>
</g>
<!-- funman.search&#45;&gt;funman.search_episode -->
<g id="edge12" class="edge">
<title>funman.search&#45;&gt;funman.search_episode</title>
<path fill="none" stroke="#6ab0de" stroke-width="3" d="M356.25,-108.3C352.87,-116.19 348.8,-125.7 345.05,-134.45"/>
<polygon fill="#6ab0de" stroke="#6ab0de" stroke-width="3" points="341,-143.9 340.8,-132.93 342.05,-138.91 344.02,-134.31 344.94,-134.7 345.86,-135.1 343.89,-139.69 349.07,-136.48 341,-143.9 341,-143.9"/>
</g>
<!-- funman.search&#45;&gt;funman.search_utils -->
<g id="edge13" class="edge">
<title>funman.search&#45;&gt;funman.search_utils</title>
<path fill="none" stroke="#6ab0de" stroke-width="3" d="M303.68,-108.09C273.43,-118.04 241.34,-131.13 232.67,-144 223.73,-157.27 223.2,-167.1 232.67,-180 242.86,-193.88 276.47,-205.75 311.06,-214.72"/>
<polygon fill="#6ab0de" stroke="#6ab0de" stroke-width="3" points="320.82,-217.18 310.03,-219.11 315.73,-216.93 310.88,-215.71 311.12,-214.74 311.37,-213.77 316.22,-214.99 312.22,-210.38 320.82,-217.18 320.82,-217.18"/>
</g>
<!-- funman.search_episode&#45;&gt;funman.search_utils -->
<g id="edge14" class="edge">
<title>funman.search_episode&#45;&gt;funman.search_utils</title>
<path fill="none" stroke="#6ab0de" stroke-width="3" d="M350.48,-180.3C358.8,-188.86 368.97,-199.34 378.06,-208.7"/>
<polygon fill="#6ab0de" stroke="#6ab0de" stroke-width="3" points="385.05,-215.9 374.86,-211.86 380.85,-213.01 377.37,-209.42 378.09,-208.72 378.8,-208.03 382.29,-211.61 381.31,-205.59 385.05,-215.9 385.05,-215.9"/>
</g>
<!-- funman.search_utils&#45;&gt;funman.config -->
<g id="edge15" class="edge">
<title>funman.search_utils&#45;&gt;funman.config</title>
<path fill="none" stroke="#6ab0de" stroke-width="3" d="M361.06,-252.12C338.27,-261.74 309.64,-273.81 285.5,-283.99"/>
<polygon fill="#6ab0de" stroke="#6ab0de" stroke-width="3" points="276.15,-287.93 283.61,-279.9 280.36,-285.07 284.97,-283.12 285.36,-284.05 285.75,-284.97 281.14,-286.91 287.11,-288.19 276.15,-287.93 276.15,-287.93"/>
</g>
<!-- funman.search_utils&#45;&gt;funman.constants -->
<g id="edge16" class="edge">
<title>funman.search_utils&#45;&gt;funman.constants</title>
<path fill="none" stroke="#6ab0de" stroke-width="3" d="M402.13,-252.03C403.36,-270.97 407.6,-301.8 421.67,-324 429.08,-335.69 440,-345.84 450.93,-354.05"/>
<polygon fill="#6ab0de" stroke="#6ab0de" stroke-width="3" points="459.24,-359.94 448.48,-357.83 454.58,-357.87 450.51,-354.97 451.08,-354.16 451.66,-353.34 455.74,-356.23 453.69,-350.49 459.24,-359.94 459.24,-359.94"/>
</g>
<!-- funman.search_utils&#45;&gt;funman.model -->
<g id="edge17" class="edge">
<title>funman.search_utils&#45;&gt;funman.model</title>
<path fill="none" stroke="#6ab0de" stroke-width="3" d="M423.42,-252.3C434.5,-261.12 448.14,-271.97 460.16,-281.53"/>
<polygon fill="#6ab0de" stroke="#6ab0de" stroke-width="3" points="468.17,-287.9 457.54,-285.19 463.63,-285.57 459.72,-282.45 460.34,-281.67 460.96,-280.89 464.88,-284 463.14,-278.15 468.17,-287.9 468.17,-287.9"/>
</g>
</g>
</svg>
