<?xml version="1.0" encoding="UTF-8" standalone="no"?>
<!DOCTYPE svg PUBLIC "-//W3C//DTD SVG 1.1//EN"
 "http://www.w3.org/Graphics/SVG/1.1/DTD/svg11.dtd">
<!-- Generated by graphviz version 2.43.0 (0)
 -->
<!-- Title: packages Pages: 1 -->
<svg width="1431pt" height="404pt"
 viewBox="0.00 0.00 1430.50 404.00" xmlns="http://www.w3.org/2000/svg" xmlns:xlink="http://www.w3.org/1999/xlink">
<g id="graph0" class="graph" transform="scale(1 1) rotate(0) translate(4 400)">
<title>packages</title>
<polygon fill="white" stroke="transparent" points="-4,4 -4,-400 1426.5,-400 1426.5,4 -4,4"/>
<!-- funman -->
<g id="node1" class="node">
<title>funman</title>
<polygon fill="none" stroke="black" points="197.5,-180 126.5,-180 126.5,-144 197.5,-144 197.5,-180"/>
<text text-anchor="middle" x="162" y="-158.3" font-family="Times,serif" font-size="14.00">funman</text>
</g>
<!-- funman._version -->
<g id="node2" class="node">
<title>funman._version</title>
<polygon fill="none" stroke="black" points="134,-252 0,-252 0,-216 134,-216 134,-252"/>
<text text-anchor="middle" x="67" y="-230.3" font-family="Times,serif" font-size="14.00">funman._version</text>
</g>
<!-- funman&#45;&gt;funman._version -->
<g id="edge1" class="edge">
<title>funman&#45;&gt;funman._version</title>
<path fill="none" stroke="#6ab0de" stroke-width="3" d="M138.52,-180.3C126.44,-189.2 111.55,-200.18 98.48,-209.8"/>
<polygon fill="#6ab0de" stroke="#6ab0de" stroke-width="3" points="90.21,-215.9 95.59,-206.34 93.65,-212.12 97.67,-209.16 98.26,-209.96 98.86,-210.77 94.83,-213.73 100.93,-213.59 90.21,-215.9 90.21,-215.9"/>
</g>
<!-- funman.config -->
<g id="node3" class="node">
<title>funman.config</title>
<polygon fill="none" stroke="black" points="303,-324 185,-324 185,-288 303,-288 303,-324"/>
<text text-anchor="middle" x="244" y="-302.3" font-family="Times,serif" font-size="14.00">funman.config</text>
</g>
<!-- funman&#45;&gt;funman.config -->
<g id="edge2" class="edge">
<title>funman&#45;&gt;funman.config</title>
<path fill="none" stroke="#6ab0de" stroke-width="3" d="M162.41,-180.27C163.56,-199.14 167.58,-229.65 181,-252 187.79,-263.31 197.88,-273.36 208,-281.58"/>
<polygon fill="#6ab0de" stroke="#6ab0de" stroke-width="3" points="216.06,-287.77 205.39,-285.25 211.49,-285.52 207.52,-282.47 208.13,-281.68 208.74,-280.89 212.71,-283.93 210.87,-278.11 216.06,-287.77 216.06,-287.77"/>
</g>
<!-- funman.scenario -->
<g id="node12" class="node">
<title>funman.scenario</title>
<polygon fill="none" stroke="black" points="325.5,-252 190.5,-252 190.5,-216 325.5,-216 325.5,-252"/>
<text text-anchor="middle" x="258" y="-230.3" font-family="Times,serif" font-size="14.00">funman.scenario</text>
</g>
<!-- funman&#45;&gt;funman.scenario -->
<g id="edge3" class="edge">
<title>funman&#45;&gt;funman.scenario</title>
<path fill="none" stroke="#6ab0de" stroke-width="3" d="M185.73,-180.3C197.94,-189.2 212.99,-200.18 226.18,-209.8"/>
<polygon fill="#6ab0de" stroke="#6ab0de" stroke-width="3" points="234.54,-215.9 223.81,-213.64 229.91,-213.76 225.87,-210.81 226.46,-210 227.05,-209.2 231.09,-212.14 229.11,-206.37 234.54,-215.9 234.54,-215.9"/>
</g>
<!-- funman.constants -->
<g id="node4" class="node">
<title>funman.constants</title>
<polygon fill="none" stroke="black" points="571,-396 427,-396 427,-360 571,-360 571,-396"/>
<text text-anchor="middle" x="499" y="-374.3" font-family="Times,serif" font-size="14.00">funman.constants</text>
</g>
<!-- funman.examples -->
<g id="node5" class="node">
<title>funman.examples</title>
<polygon fill="none" stroke="black" points="1305.5,-36 1162.5,-36 1162.5,0 1305.5,0 1305.5,-36"/>
<text text-anchor="middle" x="1234" y="-14.3" font-family="Times,serif" font-size="14.00">funman.examples</text>
</g>
<!-- funman.examples.chime -->
<g id="node6" class="node">
<title>funman.examples.chime</title>
<polygon fill="none" stroke="black" points="1046,-108 856,-108 856,-72 1046,-72 1046,-108"/>
<text text-anchor="middle" x="951" y="-86.3" font-family="Times,serif" font-size="14.00">funman.examples.chime</text>
</g>
<!-- funman.math_utils -->
<g id="node7" class="node">
<title>funman.math_utils</title>
<polygon fill="none" stroke="black" points="471,-324 321,-324 321,-288 471,-288 471,-324"/>
<text text-anchor="middle" x="396" y="-302.3" font-family="Times,serif" font-size="14.00">funman.math_utils</text>
</g>
<!-- funman.math_utils&#45;&gt;funman.constants -->
<g id="edge4" class="edge">
<title>funman.math_utils&#45;&gt;funman.constants</title>
<path fill="none" stroke="#6ab0de" stroke-width="3" d="M421.2,-324.12C434.41,-333.11 450.79,-344.24 465.11,-353.97"/>
<polygon fill="#6ab0de" stroke="#6ab0de" stroke-width="3" points="473.71,-359.81 462.91,-357.91 469.01,-357.83 464.87,-355.02 465.44,-354.19 466,-353.36 470.13,-356.17 467.97,-350.47 473.71,-359.81 473.71,-359.81"/>
</g>
<!-- funman.model -->
<g id="node8" class="node">
<title>funman.model</title>
<polygon fill="none" stroke="black" points="646.5,-324 527.5,-324 527.5,-288 646.5,-288 646.5,-324"/>
<text text-anchor="middle" x="587" y="-302.3" font-family="Times,serif" font-size="14.00">funman.model</text>
</g>
<!-- funman.model&#45;&gt;funman.constants -->
<g id="edge5" class="edge">
<title>funman.model&#45;&gt;funman.constants</title>
<path fill="none" stroke="#6ab0de" stroke-width="3" d="M565.25,-324.3C554.16,-333.12 540.53,-343.97 528.51,-353.53"/>
<polygon fill="#6ab0de" stroke="#6ab0de" stroke-width="3" points="520.5,-359.9 525.53,-350.15 523.79,-356 527.71,-352.89 528.33,-353.67 528.95,-354.45 525.04,-357.57 531.13,-357.19 520.5,-359.9 520.5,-359.9"/>
</g>
<!-- funman.model.bilayer -->
<g id="node9" class="node">
<title>funman.model.bilayer</title>
<polygon fill="none" stroke="black" points="737.5,-108 564.5,-108 564.5,-72 737.5,-72 737.5,-108"/>
<text text-anchor="middle" x="651" y="-86.3" font-family="Times,serif" font-size="14.00">funman.model.bilayer</text>
</g>
<!-- funman.model.bilayer&#45;&gt;funman.model -->
<g id="edge6" class="edge">
<title>funman.model.bilayer&#45;&gt;funman.model</title>
<path fill="none" stroke="#6ab0de" stroke-width="3" d="M624.2,-108.1C612.4,-117.2 599.71,-129.52 593,-144 572.95,-187.28 576.95,-244.35 581.86,-277.63"/>
<polygon fill="#6ab0de" stroke="#6ab0de" stroke-width="3" points="583.45,-287.55 577.42,-278.39 581.67,-282.77 580.88,-277.83 581.86,-277.67 582.85,-277.51 583.64,-282.45 586.31,-276.96 583.45,-287.55 583.45,-287.55"/>
</g>
<!-- funman.model.chime -->
<g id="node10" class="node">
<title>funman.model.chime</title>
<polygon fill="none" stroke="black" points="1144,-36 978,-36 978,0 1144,0 1144,-36"/>
<text text-anchor="middle" x="1061" y="-14.3" font-family="Times,serif" font-size="14.00">funman.model.chime</text>
</g>
<!-- funman.model.chime&#45;&gt;funman.examples.chime -->
<g id="edge7" class="edge">
<title>funman.model.chime&#45;&gt;funman.examples.chime</title>
<path fill="none" stroke="#6ab0de" stroke-width="3" d="M1034.09,-36.12C1019.84,-45.19 1002.15,-56.45 986.76,-66.24"/>
<polygon fill="#6ab0de" stroke="#6ab0de" stroke-width="3" points="978.01,-71.81 984.03,-62.64 981.69,-68.28 985.91,-65.6 986.45,-66.44 986.99,-67.29 982.77,-69.97 988.87,-70.24 978.01,-71.81 978.01,-71.81"/>
</g>
<!-- funman.model.chime&#45;&gt;funman.model -->
<g id="edge8" class="edge">
<title>funman.model.chime&#45;&gt;funman.model</title>
<path fill="none" stroke="#6ab0de" stroke-width="3" d="M1064.56,-36.32C1067.5,-55.5 1069.18,-86.56 1055,-108 965.71,-242.97 763.82,-285.67 656.74,-299.03"/>
<polygon fill="#6ab0de" stroke="#6ab0de" stroke-width="3" points="646.68,-300.23 656.07,-294.58 651.52,-298.64 656.49,-298.05 656.6,-299.04 656.72,-300.04 651.76,-300.63 657.14,-303.51 646.68,-300.23 646.68,-300.23"/>
</g>
<!-- funman.parameter_space -->
<g id="node11" class="node">
<title>funman.parameter_space</title>
<polygon fill="none" stroke="black" points="799.5,-180 602.5,-180 602.5,-144 799.5,-144 799.5,-180"/>
<text text-anchor="middle" x="701" y="-158.3" font-family="Times,serif" font-size="14.00">funman.parameter_space</text>
</g>
<!-- funman.search_utils -->
<g id="node17" class="node">
<title>funman.search_utils</title>
<polygon fill="none" stroke="black" points="507.5,-252 346.5,-252 346.5,-216 507.5,-216 507.5,-252"/>
<text text-anchor="middle" x="427" y="-230.3" font-family="Times,serif" font-size="14.00">funman.search_utils</text>
</g>
<!-- funman.parameter_space&#45;&gt;funman.search_utils -->
<g id="edge9" class="edge">
<title>funman.parameter_space&#45;&gt;funman.search_utils</title>
<path fill="none" stroke="#6ab0de" stroke-width="3" d="M634.32,-180.03C594.87,-190.11 544.75,-202.92 503.67,-213.41"/>
<polygon fill="#6ab0de" stroke="#6ab0de" stroke-width="3" points="493.98,-215.89 502.55,-209.05 498.57,-213.68 503.42,-212.44 503.67,-213.41 503.91,-214.38 499.07,-215.62 504.78,-217.77 493.98,-215.89 493.98,-215.89"/>
</g>
<!-- funman.scenario&#45;&gt;funman.config -->
<g id="edge10" class="edge">
<title>funman.scenario&#45;&gt;funman.config</title>
<path fill="none" stroke="#6ab0de" stroke-width="3" d="M254.54,-252.3C253,-260.02 251.14,-269.29 249.42,-277.89"/>
<polygon fill="#6ab0de" stroke="#6ab0de" stroke-width="3" points="247.42,-287.9 244.97,-277.21 247.42,-282.8 248.4,-277.89 249.38,-278.09 250.36,-278.29 249.38,-283.19 253.79,-278.97 247.42,-287.9 247.42,-287.9"/>
</g>
<!-- funman.scenario.consistency -->
<g id="node13" class="node">
<title>funman.scenario.consistency</title>
<polygon fill="none" stroke="black" points="600.5,-36 377.5,-36 377.5,0 600.5,0 600.5,-36"/>
<text text-anchor="middle" x="489" y="-14.3" font-family="Times,serif" font-size="14.00">funman.scenario.consistency</text>
</g>
<!-- funman.scenario.consistency&#45;&gt;funman.model -->
<g id="edge11" class="edge">
<title>funman.scenario.consistency&#45;&gt;funman.model</title>
<path fill="none" stroke="#6ab0de" stroke-width="3" d="M499.21,-36.26C504.95,-46.42 511.95,-59.67 517,-72 532.62,-110.11 565.06,-225.35 579.63,-278.11"/>
<polygon fill="#6ab0de" stroke="#6ab0de" stroke-width="3" points="582.3,-287.78 575.3,-279.34 580,-283.23 578.68,-278.41 579.64,-278.14 580.6,-277.88 581.93,-282.7 583.98,-276.95 582.3,-287.78 582.3,-287.78"/>
</g>
<!-- funman.scenario.consistency&#45;&gt;funman.model.bilayer -->
<g id="edge12" class="edge">
<title>funman.scenario.consistency&#45;&gt;funman.model.bilayer</title>
<path fill="none" stroke="#6ab0de" stroke-width="3" d="M528.63,-36.12C550.78,-45.69 578.56,-57.7 602.06,-67.85"/>
<polygon fill="#6ab0de" stroke="#6ab0de" stroke-width="3" points="611.5,-71.93 600.53,-72.1 606.51,-70.87 601.92,-68.88 602.32,-67.97 602.72,-67.05 607.31,-69.03 604.1,-63.83 611.5,-71.93 611.5,-71.93"/>
</g>
<!-- funman.scenario.consistency&#45;&gt;funman.scenario -->
<g id="edge13" class="edge">
<title>funman.scenario.consistency&#45;&gt;funman.scenario</title>
<path fill="none" stroke="#6ab0de" stroke-width="3" d="M432.95,-36.13C383.29,-54.42 313.21,-88.55 277,-144 265.01,-162.36 260.44,-186.96 258.76,-205.65"/>
<polygon fill="#6ab0de" stroke="#6ab0de" stroke-width="3" points="258.08,-215.88 254.26,-205.6 257.41,-210.82 257.75,-205.83 258.75,-205.9 259.74,-205.97 259.41,-210.95 263.24,-206.2 258.08,-215.88 258.08,-215.88"/>
</g>
<!-- funman.search -->
<g id="node15" class="node">
<title>funman.search</title>
<polygon fill="none" stroke="black" points="508,-108 386,-108 386,-72 508,-72 508,-108"/>
<text text-anchor="middle" x="447" y="-86.3" font-family="Times,serif" font-size="14.00">funman.search</text>
</g>
<!-- funman.scenario.consistency&#45;&gt;funman.search -->
<g id="edge14" class="edge">
<title>funman.scenario.consistency&#45;&gt;funman.search</title>
<path fill="none" stroke="#6ab0de" stroke-width="3" d="M478.62,-36.3C473.74,-44.44 467.81,-54.31 462.42,-63.3"/>
<polygon fill="#6ab0de" stroke="#6ab0de" stroke-width="3" points="457.26,-71.9 458.55,-61.01 458.98,-67.09 461.55,-62.81 462.41,-63.32 463.27,-63.84 460.69,-68.12 466.27,-65.64 457.26,-71.9 457.26,-71.9"/>
</g>
<!-- funman.scenario.parameter_synthesis -->
<g id="node14" class="node">
<title>funman.scenario.parameter_synthesis</title>
<polygon fill="none" stroke="black" points="935.5,-36 646.5,-36 646.5,0 935.5,0 935.5,-36"/>
<text text-anchor="middle" x="791" y="-14.3" font-family="Times,serif" font-size="14.00">funman.scenario.parameter_synthesis</text>
</g>
<!-- funman.scenario.parameter_synthesis&#45;&gt;funman.examples.chime -->
<g id="edge15" class="edge">
<title>funman.scenario.parameter_synthesis&#45;&gt;funman.examples.chime</title>
<path fill="none" stroke="#6ab0de" stroke-width="3" d="M830.14,-36.12C852.01,-45.69 879.46,-57.7 902.66,-67.85"/>
<polygon fill="#6ab0de" stroke="#6ab0de" stroke-width="3" points="911.99,-71.93 901.02,-72.05 907.01,-70.84 902.42,-68.84 902.83,-67.92 903.23,-67.01 907.81,-69.01 904.63,-63.8 911.99,-71.93 911.99,-71.93"/>
</g>
<!-- funman.scenario.parameter_synthesis&#45;&gt;funman.model -->
<g id="edge16" class="edge">
<title>funman.scenario.parameter_synthesis&#45;&gt;funman.model</title>
<path fill="none" stroke="#6ab0de" stroke-width="3" d="M799.35,-36.39C812.99,-67.53 835.97,-133.87 809,-180 776.32,-235.9 708.43,-268.74 656.27,-286.62"/>
<polygon fill="#6ab0de" stroke="#6ab0de" stroke-width="3" points="646.73,-289.79 654.8,-282.37 651.16,-287.26 655.91,-285.69 656.22,-286.64 656.54,-287.59 651.79,-289.16 657.64,-290.91 646.73,-289.79 646.73,-289.79"/>
</g>
<!-- funman.scenario.parameter_synthesis&#45;&gt;funman.parameter_space -->
<g id="edge17" class="edge">
<title>funman.scenario.parameter_synthesis&#45;&gt;funman.parameter_space</title>
<path fill="none" stroke="#6ab0de" stroke-width="3" d="M784.1,-36.1C776.31,-54.56 762.66,-84.46 747,-108 740.49,-117.79 732.35,-127.72 724.74,-136.31"/>
<polygon fill="#6ab0de" stroke="#6ab0de" stroke-width="3" points="717.96,-143.77 721.36,-133.34 720.58,-139.39 723.95,-135.7 724.69,-136.37 725.43,-137.04 722.06,-140.74 728.02,-139.39 717.96,-143.77 717.96,-143.77"/>
</g>
<!-- funman.scenario.parameter_synthesis&#45;&gt;funman.search -->
<g id="edge18" class="edge">
<title>funman.scenario.parameter_synthesis&#45;&gt;funman.search</title>
<path fill="none" stroke="#6ab0de" stroke-width="3" d="M707.29,-36.03C649.34,-47.83 573.05,-63.35 518.07,-74.54"/>
<polygon fill="#6ab0de" stroke="#6ab0de" stroke-width="3" points="508.06,-76.58 516.96,-70.17 512.76,-74.6 517.66,-73.6 517.85,-74.58 518.05,-75.56 513.15,-76.56 518.75,-78.99 508.06,-76.58 508.06,-76.58"/>
</g>
<!-- funman.search_episode -->
<g id="node16" class="node">
<title>funman.search_episode</title>
<polygon fill="none" stroke="black" points="470,-180 286,-180 286,-144 470,-144 470,-180"/>
<text text-anchor="middle" x="378" y="-158.3" font-family="Times,serif" font-size="14.00">funman.search_episode</text>
</g>
<!-- funman.search&#45;&gt;funman.search_episode -->
<g id="edge19" class="edge">
<title>funman.search&#45;&gt;funman.search_episode</title>
<path fill="none" stroke="#6ab0de" stroke-width="3" d="M429.94,-108.3C421.5,-116.86 411.18,-127.34 401.96,-136.7"/>
<polygon fill="#6ab0de" stroke="#6ab0de" stroke-width="3" points="394.86,-143.9 398.68,-133.61 397.66,-139.63 401.17,-136.07 401.88,-136.77 402.59,-137.48 399.08,-141.04 405.08,-139.93 394.86,-143.9 394.86,-143.9"/>
</g>
<!-- funman.search&#45;&gt;funman.search_utils -->
<g id="edge20" class="edge">
<title>funman.search&#45;&gt;funman.search_utils</title>
<path fill="none" stroke="#6ab0de" stroke-width="3" d="M460.84,-108.23C473.58,-126.28 489.06,-155.38 479,-180 474.51,-190.98 466.53,-200.92 458.15,-209.14"/>
<polygon fill="#6ab0de" stroke="#6ab0de" stroke-width="3" points="450.75,-215.91 455.09,-205.84 453.76,-211.8 457.45,-208.42 458.13,-209.16 458.8,-209.9 455.12,-213.27 461.17,-212.48 450.75,-215.91 450.75,-215.91"/>
</g>
<!-- funman.search_episode&#45;&gt;funman.search_utils -->
<g id="edge21" class="edge">
<title>funman.search_episode&#45;&gt;funman.search_utils</title>
<path fill="none" stroke="#6ab0de" stroke-width="3" d="M390.11,-180.3C395.87,-188.53 402.86,-198.52 409.21,-207.58"/>
<polygon fill="#6ab0de" stroke="#6ab0de" stroke-width="3" points="415.03,-215.9 405.61,-210.28 411.34,-212.37 408.47,-208.28 409.29,-207.7 410.11,-207.13 412.98,-211.23 412.98,-205.12 415.03,-215.9 415.03,-215.9"/>
</g>
<!-- funman.search_utils&#45;&gt;funman.config -->
<g id="edge22" class="edge">
<title>funman.search_utils&#45;&gt;funman.config</title>
<path fill="none" stroke="#6ab0de" stroke-width="3" d="M382.23,-252.12C356.88,-261.82 324.99,-274.02 298.23,-284.26"/>
<polygon fill="#6ab0de" stroke="#6ab0de" stroke-width="3" points="288.62,-287.93 296.35,-280.16 292.93,-285.21 297.6,-283.42 297.96,-284.36 298.32,-285.29 293.65,-287.08 299.57,-288.56 288.62,-287.93 288.62,-287.93"/>
</g>
<!-- funman.search_utils&#45;&gt;funman.constants -->
<g id="edge23" class="edge">
<title>funman.search_utils&#45;&gt;funman.constants</title>
<path fill="none" stroke="#6ab0de" stroke-width="3" d="M449.4,-252.13C460.23,-261.57 472.48,-274.17 480,-288 490.41,-307.15 495.12,-331.5 497.24,-349.89"/>
<polygon fill="#6ab0de" stroke="#6ab0de" stroke-width="3" points="498.22,-359.94 492.78,-350.42 496.74,-355.06 496.26,-350.08 497.25,-349.99 498.25,-349.89 498.73,-354.87 501.73,-349.55 498.22,-359.94 498.22,-359.94"/>
</g>
<!-- funman.search_utils&#45;&gt;funman.math_utils -->
<g id="edge24" class="edge">
<title>funman.search_utils&#45;&gt;funman.math_utils</title>
<path fill="none" stroke="#6ab0de" stroke-width="3" d="M419.34,-252.3C415.81,-260.27 411.54,-269.9 407.63,-278.74"/>
<polygon fill="#6ab0de" stroke="#6ab0de" stroke-width="3" points="403.57,-287.9 403.51,-276.93 404.69,-282.92 406.71,-278.35 407.62,-278.75 408.54,-279.16 406.51,-283.73 411.74,-280.57 403.57,-287.9 403.57,-287.9"/>
</g>
<!-- funman.search_utils&#45;&gt;funman.model -->
<g id="edge25" class="edge">
<title>funman.search_utils&#45;&gt;funman.model</title>
<path fill="none" stroke="#6ab0de" stroke-width="3" d="M466.14,-252.12C488.01,-261.69 515.46,-273.7 538.66,-283.85"/>
<polygon fill="#6ab0de" stroke="#6ab0de" stroke-width="3" points="547.99,-287.93 537.02,-288.05 543.01,-286.84 538.42,-284.84 538.83,-283.92 539.23,-283.01 543.81,-285.01 540.63,-279.8 547.99,-287.93 547.99,-287.93"/>
</g>
<!-- funman.util -->
<g id="node18" class="node">
<title>funman.util</title>
<polygon fill="none" stroke="black" points="1422.5,-36 1323.5,-36 1323.5,0 1422.5,0 1422.5,-36"/>
<text text-anchor="middle" x="1373" y="-14.3" font-family="Times,serif" font-size="14.00">funman.util</text>
</g>
</g>
</svg>
