<?xml version="1.0" encoding="UTF-8" standalone="no"?>
<!DOCTYPE svg PUBLIC "-//W3C//DTD SVG 1.1//EN"
 "http://www.w3.org/Graphics/SVG/1.1/DTD/svg11.dtd">
<!-- Generated by graphviz version 2.43.0 (0)
 -->
<!-- Title: classes Pages: 1 -->
<svg width="4627pt" height="295pt"
 viewBox="0.00 0.00 4627.00 295.00" xmlns="http://www.w3.org/2000/svg" xmlns:xlink="http://www.w3.org/1999/xlink">
<g id="graph0" class="graph" transform="scale(1 1) rotate(0) translate(4 291)">
<title>classes</title>
<polygon fill="white" stroke="transparent" points="-4,4 -4,-291 4623,-291 4623,4 -4,4"/>
<!-- funman.scenario.AnalysisScenario -->
<g id="node1" class="node">
<title>funman.scenario.AnalysisScenario</title>
<polygon fill="none" stroke="black" points="0,-0.5 0,-36.5 138,-36.5 138,-0.5 0,-0.5"/>
<text text-anchor="middle" x="69" y="-14.8" font-family="Times,serif" font-size="14.00">AnalysisScenario</text>
</g>
<!-- funman.scenario.AnalysisScenarioResult -->
<g id="node2" class="node">
<title>funman.scenario.AnalysisScenarioResult</title>
<polygon fill="none" stroke="black" points="156,-0.5 156,-36.5 340,-36.5 340,-0.5 156,-0.5"/>
<text text-anchor="middle" x="248" y="-14.8" font-family="Times,serif" font-size="14.00">AnalysisScenarioResult</text>
</g>
<!-- funman.model.bilayer.Bilayer -->
<g id="node3" class="node">
<title>funman.model.bilayer.Bilayer</title>
<polygon fill="none" stroke="black" points="433,-176.5 433,-212.5 501,-212.5 501,-176.5 433,-176.5"/>
<text text-anchor="middle" x="467" y="-190.8" font-family="Times,serif" font-size="14.00">Bilayer</text>
</g>
<!-- funman.model.bilayer.BilayerGraph -->
<g id="node6" class="node">
<title>funman.model.bilayer.BilayerGraph</title>
<polygon fill="none" stroke="black" points="478,-250.5 478,-286.5 590,-286.5 590,-250.5 478,-250.5"/>
<text text-anchor="middle" x="534" y="-264.8" font-family="Times,serif" font-size="14.00">BilayerGraph</text>
</g>
<!-- funman.model.bilayer.Bilayer&#45;&gt;funman.model.bilayer.BilayerGraph -->
<g id="edge5" class="edge">
<title>funman.model.bilayer.Bilayer&#45;&gt;funman.model.bilayer.BilayerGraph</title>
<path fill="none" stroke="#6ab0de" stroke-width="3" d="M482.88,-212.56C491.18,-221.49 501.51,-232.58 510.7,-242.46"/>
<polygon fill="none" stroke="#6ab0de" stroke-width="3" points="508.4,-245.12 517.77,-250.06 513.52,-240.35 508.4,-245.12"/>
</g>
<!-- funman.model.bilayer.BilayerEdge -->
<g id="node4" class="node">
<title>funman.model.bilayer.BilayerEdge</title>
<polygon fill="none" stroke="black" points="483,-88.5 483,-124.5 587,-124.5 587,-88.5 483,-88.5"/>
<text text-anchor="middle" x="535" y="-102.8" font-family="Times,serif" font-size="14.00">BilayerEdge</text>
</g>
<!-- funman.model.bilayer.BilayerEdge&#45;&gt;funman.model.bilayer.Bilayer -->
<g id="edge18" class="edge">
<title>funman.model.bilayer.BilayerEdge&#45;&gt;funman.model.bilayer.Bilayer</title>
<path fill="none" stroke="#6ab0de" stroke-width="3" d="M482.82,-111.38C438.75,-115.87 380.55,-125.08 366,-143 347.32,-166.01 385.92,-179.45 420.67,-186.61"/>
<polygon fill="#6ab0de" stroke="#6ab0de" stroke-width="3" points="420.91,-186.65 427.55,-183.84 432.7,-188.88 426.06,-191.7 420.91,-186.65"/>
<text text-anchor="middle" x="409.5" y="-146.8" font-family="Times,serif" font-size="14.00" fill="green">input_edges</text>
</g>
<!-- funman.model.bilayer.BilayerEdge&#45;&gt;funman.model.bilayer.Bilayer -->
<g id="edge19" class="edge">
<title>funman.model.bilayer.BilayerEdge&#45;&gt;funman.model.bilayer.Bilayer</title>
<path fill="none" stroke="#6ab0de" stroke-width="3" d="M495.85,-124.57C488.25,-129.51 481.08,-135.61 476,-143 471.73,-149.2 469.3,-156.82 467.96,-164.24"/>
<polygon fill="#6ab0de" stroke="#6ab0de" stroke-width="3" points="467.95,-164.33 471.25,-170.74 466.6,-176.25 463.3,-169.84 467.95,-164.33"/>
<text text-anchor="middle" x="524.5" y="-146.8" font-family="Times,serif" font-size="14.00" fill="green">output_edges</text>
</g>
<!-- funman.model.bilayer.BilayerMeasurement -->
<g id="node7" class="node">
<title>funman.model.bilayer.BilayerMeasurement</title>
<polygon fill="none" stroke="black" points="519.5,-176.5 519.5,-212.5 686.5,-212.5 686.5,-176.5 519.5,-176.5"/>
<text text-anchor="middle" x="603" y="-190.8" font-family="Times,serif" font-size="14.00">BilayerMeasurement</text>
</g>
<!-- funman.model.bilayer.BilayerEdge&#45;&gt;funman.model.bilayer.BilayerMeasurement -->
<g id="edge20" class="edge">
<title>funman.model.bilayer.BilayerEdge&#45;&gt;funman.model.bilayer.BilayerMeasurement</title>
<path fill="none" stroke="#6ab0de" stroke-width="3" d="M555.39,-124.57C561.42,-130.13 567.79,-136.53 573,-143 578.58,-149.94 583.85,-158.02 588.37,-165.66"/>
<polygon fill="#6ab0de" stroke="#6ab0de" stroke-width="3" points="588.5,-165.89 594.93,-169.16 594.39,-176.35 587.96,-173.09 588.5,-165.89"/>
<text text-anchor="middle" x="627.5" y="-146.8" font-family="Times,serif" font-size="14.00" fill="green">input_edges</text>
</g>
<!-- funman.model.bilayer.BilayerEdge&#45;&gt;funman.model.bilayer.BilayerMeasurement -->
<g id="edge21" class="edge">
<title>funman.model.bilayer.BilayerEdge&#45;&gt;funman.model.bilayer.BilayerMeasurement</title>
<path fill="none" stroke="#6ab0de" stroke-width="3" d="M587.06,-113.99C622.19,-119.56 664.07,-128.95 675,-143 683.2,-153.54 677.39,-162.78 666.18,-170.37"/>
<polygon fill="#6ab0de" stroke="#6ab0de" stroke-width="3" points="666.11,-170.41 662.88,-176.86 655.68,-176.35 658.92,-169.91 666.11,-170.41"/>
<text text-anchor="middle" x="727.5" y="-146.8" font-family="Times,serif" font-size="14.00" fill="green">output_edges</text>
</g>
<!-- funman.model.bilayer.BilayerFluxNode -->
<g id="node5" class="node">
<title>funman.model.bilayer.BilayerFluxNode</title>
<polygon fill="none" stroke="black" points="724.5,-0.5 724.5,-36.5 861.5,-36.5 861.5,-0.5 724.5,-0.5"/>
<text text-anchor="middle" x="793" y="-14.8" font-family="Times,serif" font-size="14.00">BilayerFluxNode</text>
</g>
<!-- funman.model.bilayer.BilayerNode -->
<g id="node10" class="node">
<title>funman.model.bilayer.BilayerNode</title>
<polygon fill="none" stroke="black" points="819.5,-88.5 819.5,-124.5 924.5,-124.5 924.5,-88.5 819.5,-88.5"/>
<text text-anchor="middle" x="872" y="-102.8" font-family="Times,serif" font-size="14.00">BilayerNode</text>
</g>
<!-- funman.model.bilayer.BilayerFluxNode&#45;&gt;funman.model.bilayer.BilayerNode -->
<g id="edge6" class="edge">
<title>funman.model.bilayer.BilayerFluxNode&#45;&gt;funman.model.bilayer.BilayerNode</title>
<path fill="none" stroke="#6ab0de" stroke-width="3" d="M808.99,-36.9C820.63,-49.58 836.55,-66.91 849.48,-80.98"/>
<polygon fill="none" stroke="#6ab0de" stroke-width="3" points="846.96,-83.42 856.31,-88.42 852.12,-78.68 846.96,-83.42"/>
</g>
<!-- funman.model.bilayer.BilayerMeasurement&#45;&gt;funman.model.bilayer.BilayerGraph -->
<g id="edge7" class="edge">
<title>funman.model.bilayer.BilayerMeasurement&#45;&gt;funman.model.bilayer.BilayerGraph</title>
<path fill="none" stroke="#6ab0de" stroke-width="3" d="M586.65,-212.56C578.01,-221.58 567.25,-232.8 557.71,-242.76"/>
<polygon fill="none" stroke="#6ab0de" stroke-width="3" points="555.11,-240.42 550.71,-250.06 560.16,-245.26 555.11,-240.42"/>
</g>
<!-- funman.model.bilayer.BilayerModel -->
<g id="node8" class="node">
<title>funman.model.bilayer.BilayerModel</title>
<polygon fill="none" stroke="black" points="1041,-0.5 1041,-36.5 1153,-36.5 1153,-0.5 1041,-0.5"/>
<text text-anchor="middle" x="1097" y="-14.8" font-family="Times,serif" font-size="14.00">BilayerModel</text>
</g>
<!-- funman.model.bilayer.BilayerNegativeEdge -->
<g id="node9" class="node">
<title>funman.model.bilayer.BilayerNegativeEdge</title>
<polygon fill="none" stroke="black" points="358.5,-0.5 358.5,-36.5 527.5,-36.5 527.5,-0.5 358.5,-0.5"/>
<text text-anchor="middle" x="443" y="-14.8" font-family="Times,serif" font-size="14.00">BilayerNegativeEdge</text>
</g>
<!-- funman.model.bilayer.BilayerNegativeEdge&#45;&gt;funman.model.bilayer.BilayerEdge -->
<g id="edge8" class="edge">
<title>funman.model.bilayer.BilayerNegativeEdge&#45;&gt;funman.model.bilayer.BilayerEdge</title>
<path fill="none" stroke="#6ab0de" stroke-width="3" d="M461.62,-36.9C475.3,-49.69 494.06,-67.23 509.19,-81.37"/>
<polygon fill="none" stroke="#6ab0de" stroke-width="3" points="507.03,-84.14 516.72,-88.42 511.81,-79.03 507.03,-84.14"/>
</g>
<!-- funman.model.bilayer.BilayerPositiveEdge -->
<g id="node11" class="node">
<title>funman.model.bilayer.BilayerPositiveEdge</title>
<polygon fill="none" stroke="black" points="545.5,-0.5 545.5,-36.5 706.5,-36.5 706.5,-0.5 545.5,-0.5"/>
<text text-anchor="middle" x="626" y="-14.8" font-family="Times,serif" font-size="14.00">BilayerPositiveEdge</text>
</g>
<!-- funman.model.bilayer.BilayerPositiveEdge&#45;&gt;funman.model.bilayer.BilayerEdge -->
<g id="edge9" class="edge">
<title>funman.model.bilayer.BilayerPositiveEdge&#45;&gt;funman.model.bilayer.BilayerEdge</title>
<path fill="none" stroke="#6ab0de" stroke-width="3" d="M607.58,-36.9C594.05,-49.69 575.49,-67.23 560.53,-81.37"/>
<polygon fill="none" stroke="#6ab0de" stroke-width="3" points="557.94,-79 553.08,-88.42 562.75,-84.09 557.94,-79"/>
</g>
<!-- funman.model.bilayer.BilayerStateNode -->
<g id="node12" class="node">
<title>funman.model.bilayer.BilayerStateNode</title>
<polygon fill="none" stroke="black" points="879.5,-0.5 879.5,-36.5 1022.5,-36.5 1022.5,-0.5 879.5,-0.5"/>
<text text-anchor="middle" x="951" y="-14.8" font-family="Times,serif" font-size="14.00">BilayerStateNode</text>
</g>
<!-- funman.model.bilayer.BilayerStateNode&#45;&gt;funman.model.bilayer.BilayerNode -->
<g id="edge10" class="edge">
<title>funman.model.bilayer.BilayerStateNode&#45;&gt;funman.model.bilayer.BilayerNode</title>
<path fill="none" stroke="#6ab0de" stroke-width="3" d="M935.01,-36.9C923.37,-49.58 907.45,-66.91 894.52,-80.98"/>
<polygon fill="none" stroke="#6ab0de" stroke-width="3" points="891.88,-78.68 887.69,-88.42 897.04,-83.42 891.88,-78.68"/>
</g>
<!-- funman.search_utils.Box -->
<g id="node13" class="node">
<title>funman.search_utils.Box</title>
<polygon fill="none" stroke="black" points="1171,-0.5 1171,-36.5 1225,-36.5 1225,-0.5 1171,-0.5"/>
<text text-anchor="middle" x="1198" y="-14.8" font-family="Times,serif" font-size="14.00">Box</text>
</g>
<!-- funman.search.BoxSearch -->
<g id="node14" class="node">
<title>funman.search.BoxSearch</title>
<polygon fill="none" stroke="black" points="1262.5,-88.5 1262.5,-124.5 1355.5,-124.5 1355.5,-88.5 1262.5,-88.5"/>
<text text-anchor="middle" x="1309" y="-102.8" font-family="Times,serif" font-size="14.00">BoxSearch</text>
</g>
<!-- funman.scenario.parameter_synthesis.ParameterSynthesisScenario -->
<g id="node33" class="node">
<title>funman.scenario.parameter_synthesis.ParameterSynthesisScenario</title>
<polygon fill="none" stroke="black" points="1223,-176.5 1223,-212.5 1447,-212.5 1447,-176.5 1223,-176.5"/>
<text text-anchor="middle" x="1335" y="-190.8" font-family="Times,serif" font-size="14.00">ParameterSynthesisScenario</text>
</g>
<!-- funman.search.BoxSearch&#45;&gt;funman.scenario.parameter_synthesis.ParameterSynthesisScenario -->
<g id="edge23" class="edge">
<title>funman.search.BoxSearch&#45;&gt;funman.scenario.parameter_synthesis.ParameterSynthesisScenario</title>
<path fill="none" stroke="#6ab0de" stroke-width="3" d="M1314.26,-124.9C1317.7,-136.28 1322.28,-151.43 1326.26,-164.59"/>
<polygon fill="#6ab0de" stroke="#6ab0de" stroke-width="3" points="1326.36,-164.93 1331.93,-169.52 1329.84,-176.42 1324.27,-171.83 1326.36,-164.93"/>
<text text-anchor="middle" x="1348" y="-146.8" font-family="Times,serif" font-size="14.00" fill="green">search</text>
</g>
<!-- funman.search.Search -->
<g id="node42" class="node">
<title>funman.search.Search</title>
<polygon fill="none" stroke="black" points="1139,-176.5 1139,-212.5 1205,-212.5 1205,-176.5 1139,-176.5"/>
<text text-anchor="middle" x="1172" y="-190.8" font-family="Times,serif" font-size="14.00">Search</text>
</g>
<!-- funman.search.BoxSearch&#45;&gt;funman.search.Search -->
<g id="edge11" class="edge">
<title>funman.search.BoxSearch&#45;&gt;funman.search.Search</title>
<path fill="none" stroke="#6ab0de" stroke-width="3" d="M1281.61,-124.7C1260.42,-138 1230.9,-156.52 1207.84,-171"/>
<polygon fill="none" stroke="#6ab0de" stroke-width="3" points="1205.96,-168.05 1199.35,-176.33 1209.68,-173.98 1205.96,-168.05"/>
</g>
<!-- funman.search_episode.BoxSearchEpisode -->
<g id="node15" class="node">
<title>funman.search_episode.BoxSearchEpisode</title>
<polygon fill="none" stroke="black" points="1577,-0.5 1577,-36.5 1727,-36.5 1727,-0.5 1577,-0.5"/>
<text text-anchor="middle" x="1652" y="-14.8" font-family="Times,serif" font-size="14.00">BoxSearchEpisode</text>
</g>
<!-- funman.search_episode.SearchEpisode -->
<g id="node44" class="node">
<title>funman.search_episode.SearchEpisode</title>
<polygon fill="none" stroke="black" points="1669.5,-88.5 1669.5,-124.5 1792.5,-124.5 1792.5,-88.5 1669.5,-88.5"/>
<text text-anchor="middle" x="1731" y="-102.8" font-family="Times,serif" font-size="14.00">SearchEpisode</text>
</g>
<!-- funman.search_episode.BoxSearchEpisode&#45;&gt;funman.search_episode.SearchEpisode -->
<g id="edge14" class="edge">
<title>funman.search_episode.BoxSearchEpisode&#45;&gt;funman.search_episode.SearchEpisode</title>
<path fill="none" stroke="#6ab0de" stroke-width="3" d="M1667.99,-36.9C1679.63,-49.58 1695.55,-66.91 1708.48,-80.98"/>
<polygon fill="none" stroke="#6ab0de" stroke-width="3" points="1705.96,-83.42 1715.31,-88.42 1711.12,-78.68 1705.96,-83.42"/>
</g>
<!-- funman.examples.chime.CHIME -->
<g id="node16" class="node">
<title>funman.examples.chime.CHIME</title>
<polygon fill="none" stroke="black" points="2030.5,-0.5 2030.5,-36.5 2099.5,-36.5 2099.5,-0.5 2030.5,-0.5"/>
<text text-anchor="middle" x="2065" y="-14.8" font-family="Times,serif" font-size="14.00">CHIME</text>
</g>
<!-- funman.model.CannedModel -->
<g id="node17" class="node">
<title>funman.model.CannedModel</title>
<polygon fill="none" stroke="black" points="2117.5,-0.5 2117.5,-36.5 2232.5,-36.5 2232.5,-0.5 2117.5,-0.5"/>
<text text-anchor="middle" x="2175" y="-14.8" font-family="Times,serif" font-size="14.00">CannedModel</text>
</g>
<!-- funman.model.Model -->
<g id="node30" class="node">
<title>funman.model.Model</title>
<polygon fill="none" stroke="black" points="2212.5,-88.5 2212.5,-124.5 2273.5,-124.5 2273.5,-88.5 2212.5,-88.5"/>
<text text-anchor="middle" x="2243" y="-102.8" font-family="Times,serif" font-size="14.00">Model</text>
</g>
<!-- funman.model.CannedModel&#45;&gt;funman.model.Model -->
<g id="edge1" class="edge">
<title>funman.model.CannedModel&#45;&gt;funman.model.Model</title>
<path fill="none" stroke="#6ab0de" stroke-width="3" d="M2188.76,-36.9C2198.6,-49.34 2211.98,-66.27 2222.99,-80.2"/>
<polygon fill="none" stroke="#6ab0de" stroke-width="3" points="2220.54,-82.74 2229.49,-88.42 2226.03,-78.4 2220.54,-82.74"/>
</g>
<!-- funman.model.chime.ChimeModel -->
<g id="node18" class="node">
<title>funman.model.chime.ChimeModel</title>
<polygon fill="none" stroke="black" points="2391.5,-0.5 2391.5,-36.5 2498.5,-36.5 2498.5,-0.5 2391.5,-0.5"/>
<text text-anchor="middle" x="2445" y="-14.8" font-family="Times,serif" font-size="14.00">ChimeModel</text>
</g>
<!-- funman.config.Config -->
<g id="node19" class="node">
<title>funman.config.Config</title>
<polygon fill="none" stroke="black" points="1926,-88.5 1926,-124.5 1988,-124.5 1988,-88.5 1926,-88.5"/>
<text text-anchor="middle" x="1957" y="-102.8" font-family="Times,serif" font-size="14.00">Config</text>
</g>
<!-- funman.scenario.consistency.ConsistencyScenario -->
<g id="node20" class="node">
<title>funman.scenario.consistency.ConsistencyScenario</title>
<polygon fill="none" stroke="black" points="2516.5,-0.5 2516.5,-36.5 2681.5,-36.5 2681.5,-0.5 2516.5,-0.5"/>
<text text-anchor="middle" x="2599" y="-14.8" font-family="Times,serif" font-size="14.00">ConsistencyScenario</text>
</g>
<!-- funman.scenario.consistency.ConsistencyScenarioResult -->
<g id="node21" class="node">
<title>funman.scenario.consistency.ConsistencyScenarioResult</title>
<polygon fill="none" stroke="black" points="2493.5,-88.5 2493.5,-124.5 2704.5,-124.5 2704.5,-88.5 2493.5,-88.5"/>
<text text-anchor="middle" x="2599" y="-102.8" font-family="Times,serif" font-size="14.00">ConsistencyScenarioResult</text>
</g>
<!-- funman.scenario.consistency.ConsistencyScenario&#45;&gt;funman.scenario.consistency.ConsistencyScenarioResult -->
<g id="edge22" class="edge">
<title>funman.scenario.consistency.ConsistencyScenario&#45;&gt;funman.scenario.consistency.ConsistencyScenarioResult</title>
<path fill="none" stroke="#6ab0de" stroke-width="3" d="M2599,-36.9C2599,-48.17 2599,-63.12 2599,-76.18"/>
<polygon fill="#6ab0de" stroke="#6ab0de" stroke-width="3" points="2599,-76.42 2603,-82.42 2599,-88.42 2595,-82.42 2599,-76.42"/>
<text text-anchor="middle" x="2629.5" y="-58.8" font-family="Times,serif" font-size="14.00" fill="green">scenario</text>
</g>
<!-- funman.search_episode.DRealSearchEpisode -->
<g id="node22" class="node">
<title>funman.search_episode.DRealSearchEpisode</title>
<polygon fill="none" stroke="black" points="1393,-0.5 1393,-36.5 1559,-36.5 1559,-0.5 1393,-0.5"/>
<text text-anchor="middle" x="1476" y="-14.8" font-family="Times,serif" font-size="14.00">DRealSearchEpisode</text>
</g>
<!-- funman.search_episode.DRealSearchEpisode&#45;&gt;funman.search_episode.SearchEpisode -->
<g id="edge15" class="edge">
<title>funman.search_episode.DRealSearchEpisode&#45;&gt;funman.search_episode.SearchEpisode</title>
<path fill="none" stroke="#6ab0de" stroke-width="3" d="M1526.68,-36.59C1568.14,-50.57 1626.87,-70.38 1670.73,-85.17"/>
<polygon fill="none" stroke="#6ab0de" stroke-width="3" points="1669.82,-88.56 1680.41,-88.44 1672.05,-81.93 1669.82,-88.56"/>
</g>
<!-- funman.search.DrealBoxSearch -->
<g id="node23" class="node">
<title>funman.search.DrealBoxSearch</title>
<polygon fill="none" stroke="black" points="1243,-0.5 1243,-36.5 1375,-36.5 1375,-0.5 1243,-0.5"/>
<text text-anchor="middle" x="1309" y="-14.8" font-family="Times,serif" font-size="14.00">DrealBoxSearch</text>
</g>
<!-- funman.search.DrealBoxSearch&#45;&gt;funman.search.BoxSearch -->
<g id="edge12" class="edge">
<title>funman.search.DrealBoxSearch&#45;&gt;funman.search.BoxSearch</title>
<path fill="none" stroke="#6ab0de" stroke-width="3" d="M1309,-36.9C1309,-48.75 1309,-64.68 1309,-78.21"/>
<polygon fill="none" stroke="#6ab0de" stroke-width="3" points="1305.5,-78.42 1309,-88.42 1312.5,-78.42 1305.5,-78.42"/>
</g>
<!-- funman.model.EncodedModel -->
<g id="node24" class="node">
<title>funman.model.EncodedModel</title>
<polygon fill="none" stroke="black" points="2251,-0.5 2251,-36.5 2373,-36.5 2373,-0.5 2251,-0.5"/>
<text text-anchor="middle" x="2312" y="-14.8" font-family="Times,serif" font-size="14.00">EncodedModel</text>
</g>
<!-- funman.model.EncodedModel&#45;&gt;funman.model.Model -->
<g id="edge2" class="edge">
<title>funman.model.EncodedModel&#45;&gt;funman.model.Model</title>
<path fill="none" stroke="#6ab0de" stroke-width="3" d="M2298.04,-36.9C2287.96,-49.46 2274.22,-66.59 2262.98,-80.59"/>
<polygon fill="none" stroke="#6ab0de" stroke-width="3" points="2260.24,-78.43 2256.71,-88.42 2265.69,-82.81 2260.24,-78.43"/>
</g>
<!-- funman.util.FUNMANSmtDagPrinter -->
<g id="node25" class="node">
<title>funman.util.FUNMANSmtDagPrinter</title>
<polygon fill="none" stroke="black" points="2699.5,-0.5 2699.5,-36.5 2894.5,-36.5 2894.5,-0.5 2699.5,-0.5"/>
<text text-anchor="middle" x="2797" y="-14.8" font-family="Times,serif" font-size="14.00">FUNMANSmtDagPrinter</text>
</g>
<!-- funman.util.FUNMANSmtLibScript -->
<g id="node26" class="node">
<title>funman.util.FUNMANSmtLibScript</title>
<polygon fill="none" stroke="black" points="2913,-0.5 2913,-36.5 3095,-36.5 3095,-0.5 2913,-0.5"/>
<text text-anchor="middle" x="3004" y="-14.8" font-family="Times,serif" font-size="14.00">FUNMANSmtLibScript</text>
</g>
<!-- funman.util.FUNMANSmtPrinter -->
<g id="node27" class="node">
<title>funman.util.FUNMANSmtPrinter</title>
<polygon fill="none" stroke="black" points="3113.5,-0.5 3113.5,-36.5 3280.5,-36.5 3280.5,-0.5 3113.5,-0.5"/>
<text text-anchor="middle" x="3197" y="-14.8" font-family="Times,serif" font-size="14.00">FUNMANSmtPrinter</text>
</g>
<!-- funman.Funman -->
<g id="node28" class="node">
<title>funman.Funman</title>
<polygon fill="none" stroke="black" points="3298.5,-0.5 3298.5,-36.5 3373.5,-36.5 3373.5,-0.5 3298.5,-0.5"/>
<text text-anchor="middle" x="3336" y="-14.8" font-family="Times,serif" font-size="14.00">Funman</text>
</g>
<!-- funman.search_utils.Interval -->
<g id="node29" class="node">
<title>funman.search_utils.Interval</title>
<polygon fill="none" stroke="black" points="3391.5,-0.5 3391.5,-36.5 3464.5,-36.5 3464.5,-0.5 3391.5,-0.5"/>
<text text-anchor="middle" x="3428" y="-14.8" font-family="Times,serif" font-size="14.00">Interval</text>
</g>
<!-- funman.model.Parameter -->
<g id="node31" class="node">
<title>funman.model.Parameter</title>
<polygon fill="none" stroke="black" points="3483,-0.5 3483,-36.5 3575,-36.5 3575,-0.5 3483,-0.5"/>
<text text-anchor="middle" x="3529" y="-14.8" font-family="Times,serif" font-size="14.00">Parameter</text>
</g>
<!-- funman.parameter_space.ParameterSpace -->
<g id="node32" class="node">
<title>funman.parameter_space.ParameterSpace</title>
<polygon fill="none" stroke="black" points="3593,-0.5 3593,-36.5 3727,-36.5 3727,-0.5 3593,-0.5"/>
<text text-anchor="middle" x="3660" y="-14.8" font-family="Times,serif" font-size="14.00">ParameterSpace</text>
</g>
<!-- funman.scenario.parameter_synthesis.ParameterSynthesisScenarioResult -->
<g id="node34" class="node">
<title>funman.scenario.parameter_synthesis.ParameterSynthesisScenarioResult</title>
<polygon fill="none" stroke="black" points="3745.5,-0.5 3745.5,-36.5 4014.5,-36.5 4014.5,-0.5 3745.5,-0.5"/>
<text text-anchor="middle" x="3880" y="-14.8" font-family="Times,serif" font-size="14.00">ParameterSynthesisScenarioResult</text>
</g>
<!-- funman.search_utils.Point -->
<g id="node35" class="node">
<title>funman.search_utils.Point</title>
<polygon fill="none" stroke="black" points="4033,-0.5 4033,-36.5 4087,-36.5 4087,-0.5 4033,-0.5"/>
<text text-anchor="middle" x="4060" y="-14.8" font-family="Times,serif" font-size="14.00">Point</text>
</g>
<!-- funman.model.Query -->
<g id="node36" class="node">
<title>funman.model.Query</title>
<polygon fill="none" stroke="black" points="4167,-88.5 4167,-124.5 4227,-124.5 4227,-88.5 4167,-88.5"/>
<text text-anchor="middle" x="4197" y="-102.8" font-family="Times,serif" font-size="14.00">Query</text>
</g>
<!-- funman.model.QueryLE -->
<g id="node37" class="node">
<title>funman.model.QueryLE</title>
<polygon fill="none" stroke="black" points="4105,-0.5 4105,-36.5 4185,-36.5 4185,-0.5 4105,-0.5"/>
<text text-anchor="middle" x="4145" y="-14.8" font-family="Times,serif" font-size="14.00">QueryLE</text>
</g>
<!-- funman.model.QueryLE&#45;&gt;funman.model.Query -->
<g id="edge3" class="edge">
<title>funman.model.QueryLE&#45;&gt;funman.model.Query</title>
<path fill="none" stroke="#6ab0de" stroke-width="3" d="M4155.52,-36.9C4162.97,-49.22 4173.09,-65.95 4181.46,-79.8"/>
<polygon fill="none" stroke="#6ab0de" stroke-width="3" points="4178.5,-81.67 4186.67,-88.42 4184.49,-78.05 4178.5,-81.67"/>
</g>
<!-- funman.model.QueryTrue -->
<g id="node38" class="node">
<title>funman.model.QueryTrue</title>
<polygon fill="none" stroke="black" points="4203.5,-0.5 4203.5,-36.5 4296.5,-36.5 4296.5,-0.5 4203.5,-0.5"/>
<text text-anchor="middle" x="4250" y="-14.8" font-family="Times,serif" font-size="14.00">QueryTrue</text>
</g>
<!-- funman.model.QueryTrue&#45;&gt;funman.model.Query -->
<g id="edge4" class="edge">
<title>funman.model.QueryTrue&#45;&gt;funman.model.Query</title>
<path fill="none" stroke="#6ab0de" stroke-width="3" d="M4239.27,-36.9C4231.68,-49.22 4221.37,-65.95 4212.84,-79.8"/>
<polygon fill="none" stroke="#6ab0de" stroke-width="3" points="4209.8,-78.07 4207.53,-88.42 4215.75,-81.74 4209.8,-78.07"/>
</g>
<!-- funman.search_utils.ResultCombinedHandler -->
<g id="node39" class="node">
<title>funman.search_utils.ResultCombinedHandler</title>
<polygon fill="none" stroke="black" points="4315,-0.5 4315,-36.5 4507,-36.5 4507,-0.5 4315,-0.5"/>
<text text-anchor="middle" x="4411" y="-14.8" font-family="Times,serif" font-size="14.00">ResultCombinedHandler</text>
</g>
<!-- funman.search_utils.ResultHandler -->
<g id="node40" class="node">
<title>funman.search_utils.ResultHandler</title>
<polygon fill="none" stroke="black" points="4351,-88.5 4351,-124.5 4471,-124.5 4471,-88.5 4351,-88.5"/>
<text text-anchor="middle" x="4411" y="-102.8" font-family="Times,serif" font-size="14.00">ResultHandler</text>
</g>
<!-- funman.search_utils.ResultCombinedHandler&#45;&gt;funman.search_utils.ResultHandler -->
<g id="edge16" class="edge">
<title>funman.search_utils.ResultCombinedHandler&#45;&gt;funman.search_utils.ResultHandler</title>
<path fill="none" stroke="#6ab0de" stroke-width="3" d="M4411,-36.9C4411,-48.75 4411,-64.68 4411,-78.21"/>
<polygon fill="none" stroke="#6ab0de" stroke-width="3" points="4407.5,-78.42 4411,-88.42 4414.5,-78.42 4407.5,-78.42"/>
</g>
<!-- funman.search.SMTCheck -->
<g id="node41" class="node">
<title>funman.search.SMTCheck</title>
<polygon fill="none" stroke="black" points="1125.5,-88.5 1125.5,-124.5 1218.5,-124.5 1218.5,-88.5 1125.5,-88.5"/>
<text text-anchor="middle" x="1172" y="-102.8" font-family="Times,serif" font-size="14.00">SMTCheck</text>
</g>
<!-- funman.search.SMTCheck&#45;&gt;funman.search.Search -->
<g id="edge13" class="edge">
<title>funman.search.SMTCheck&#45;&gt;funman.search.Search</title>
<path fill="none" stroke="#6ab0de" stroke-width="3" d="M1172,-124.9C1172,-136.75 1172,-152.68 1172,-166.21"/>
<polygon fill="none" stroke="#6ab0de" stroke-width="3" points="1168.5,-166.42 1172,-176.42 1175.5,-166.42 1168.5,-166.42"/>
</g>
<!-- funman.search_utils.SearchConfig -->
<g id="node43" class="node">
<title>funman.search_utils.SearchConfig</title>
<polygon fill="none" stroke="black" points="1900,-0.5 1900,-36.5 2012,-36.5 2012,-0.5 1900,-0.5"/>
<text text-anchor="middle" x="1956" y="-14.8" font-family="Times,serif" font-size="14.00">SearchConfig</text>
</g>
<!-- funman.search_utils.SearchConfig&#45;&gt;funman.config.Config -->
<g id="edge17" class="edge">
<title>funman.search_utils.SearchConfig&#45;&gt;funman.config.Config</title>
<path fill="none" stroke="#6ab0de" stroke-width="3" d="M1956.2,-36.9C1956.34,-48.75 1956.53,-64.68 1956.68,-78.21"/>
<polygon fill="none" stroke="#6ab0de" stroke-width="3" points="1953.19,-78.46 1956.8,-88.42 1960.18,-78.38 1953.19,-78.46"/>
</g>
<!-- funman.search_utils.SearchConfig&#45;&gt;funman.search_episode.SearchEpisode -->
<g id="edge24" class="edge">
<title>funman.search_utils.SearchConfig&#45;&gt;funman.search_episode.SearchEpisode</title>
<path fill="none" stroke="#6ab0de" stroke-width="3" d="M1922.15,-36.64C1900.89,-47.04 1872.71,-60.16 1847,-70 1833.32,-75.23 1818.52,-80.24 1804.21,-84.76"/>
<polygon fill="#6ab0de" stroke="#6ab0de" stroke-width="3" points="1803.8,-84.89 1799.25,-90.49 1792.34,-88.44 1796.89,-82.84 1803.8,-84.89"/>
<text text-anchor="middle" x="1902.5" y="-58.8" font-family="Times,serif" font-size="14.00" fill="green">config</text>
</g>
<!-- funman.search_utils.SearchStatistics -->
<g id="node45" class="node">
<title>funman.search_utils.SearchStatistics</title>
<polygon fill="none" stroke="black" points="1745,-0.5 1745,-36.5 1879,-36.5 1879,-0.5 1745,-0.5"/>
<text text-anchor="middle" x="1812" y="-14.8" font-family="Times,serif" font-size="14.00">SearchStatistics</text>
</g>
<!-- funman.search_utils.SearchStatistics&#45;&gt;funman.search_episode.SearchEpisode -->
<g id="edge25" class="edge">
<title>funman.search_utils.SearchStatistics&#45;&gt;funman.search_episode.SearchEpisode</title>
<path fill="none" stroke="#6ab0de" stroke-width="3" d="M1795.61,-36.9C1784.12,-49.11 1768.55,-65.63 1755.58,-79.41"/>
<polygon fill="#6ab0de" stroke="#6ab0de" stroke-width="3" points="1755.32,-79.68 1754.12,-86.79 1747.09,-88.42 1748.29,-81.31 1755.32,-79.68"/>
<text text-anchor="middle" x="1810" y="-58.8" font-family="Times,serif" font-size="14.00" fill="green">statistics</text>
</g>
<!-- funman.search_utils.WaitAction -->
<g id="node46" class="node">
<title>funman.search_utils.WaitAction</title>
<polygon fill="none" stroke="black" points="4525,-0.5 4525,-36.5 4619,-36.5 4619,-0.5 4525,-0.5"/>
<text text-anchor="middle" x="4572" y="-14.8" font-family="Times,serif" font-size="14.00">WaitAction</text>
</g>
</g>
</svg>
