<?xml version="1.0" encoding="UTF-8" standalone="no"?>
<!DOCTYPE svg PUBLIC "-//W3C//DTD SVG 1.1//EN"
 "http://www.w3.org/Graphics/SVG/1.1/DTD/svg11.dtd">
<!-- Generated by graphviz version 2.43.0 (0)
 -->
<!-- Title: packages Pages: 1 -->
<svg width="739pt" height="188pt"
 viewBox="0.00 0.00 739.00 188.00" xmlns="http://www.w3.org/2000/svg" xmlns:xlink="http://www.w3.org/1999/xlink">
<g id="graph0" class="graph" transform="scale(1 1) rotate(0) translate(4 184)">
<title>packages</title>
<polygon fill="white" stroke="transparent" points="-4,4 -4,-184 735,-184 735,4 -4,4"/>
<!-- funman -->
<g id="node1" class="node">
<title>funman</title>
<polygon fill="none" stroke="black" points="71,-36 0,-36 0,0 71,0 71,-36"/>
<text text-anchor="middle" x="35.5" y="-14.3" font-family="Times,serif" font-size="14.00">funman</text>
</g>
<!-- funman.constants -->
<g id="node2" class="node">
<title>funman.constants</title>
<polygon fill="none" stroke="black" points="146.5,-180 2.5,-180 2.5,-144 146.5,-144 146.5,-180"/>
<text text-anchor="middle" x="74.5" y="-158.3" font-family="Times,serif" font-size="14.00">funman.constants</text>
</g>
<!-- funman.funman -->
<g id="node3" class="node">
<title>funman.funman</title>
<polygon fill="none" stroke="black" points="218,-36 89,-36 89,0 218,0 218,-36"/>
<text text-anchor="middle" x="153.5" y="-14.3" font-family="Times,serif" font-size="14.00">funman.funman</text>
</g>
<!-- funman.funman&#45;&gt;funman.constants -->
<g id="edge1" class="edge">
<title>funman.funman&#45;&gt;funman.constants</title>
<path fill="none" stroke="#6ab0de" stroke-width="3" d="M120.27,-36.08C106.56,-44.9 91.94,-56.98 83.5,-72 73.01,-90.68 71.21,-115.06 71.78,-133.59"/>
<polygon fill="#6ab0de" stroke="#6ab0de" stroke-width="3" points="72.35,-143.73 67.3,-133.99 71.07,-138.79 70.79,-133.8 71.79,-133.74 72.79,-133.69 73.07,-138.68 76.28,-133.49 72.35,-143.73 72.35,-143.73"/>
</g>
<!-- funman.scenario -->
<g id="node6" class="node">
<title>funman.scenario</title>
<polygon fill="none" stroke="black" points="305,-180 170,-180 170,-144 305,-144 305,-180"/>
<text text-anchor="middle" x="237.5" y="-158.3" font-family="Times,serif" font-size="14.00">funman.scenario</text>
</g>
<!-- funman.funman&#45;&gt;funman.scenario -->
<g id="edge2" class="edge">
<title>funman.funman&#45;&gt;funman.scenario</title>
<path fill="none" stroke="#6ab0de" stroke-width="3" d="M185.98,-36.07C199.72,-44.95 214.57,-57.09 223.5,-72 234.65,-90.62 237.82,-115.21 238.39,-133.82"/>
<polygon fill="#6ab0de" stroke="#6ab0de" stroke-width="3" points="238.47,-143.99 233.9,-134.03 237.43,-139 237.4,-134 238.4,-134 239.4,-133.99 239.43,-138.99 242.9,-133.96 238.47,-143.99 238.47,-143.99"/>
</g>
<!-- funman.search -->
<g id="node7" class="node">
<title>funman.search</title>
<polygon fill="none" stroke="black" points="214.5,-108 92.5,-108 92.5,-72 214.5,-72 214.5,-108"/>
<text text-anchor="middle" x="153.5" y="-86.3" font-family="Times,serif" font-size="14.00">funman.search</text>
</g>
<!-- funman.funman&#45;&gt;funman.search -->
<g id="edge3" class="edge">
<title>funman.funman&#45;&gt;funman.search</title>
<path fill="none" stroke="#6ab0de" stroke-width="3" d="M153.5,-36.3C153.5,-44.02 153.5,-53.29 153.5,-61.89"/>
<polygon fill="#6ab0de" stroke="#6ab0de" stroke-width="3" points="153.5,-71.9 149,-61.9 152.5,-66.9 152.5,-61.9 153.5,-61.9 154.5,-61.9 154.5,-66.9 158,-61.9 153.5,-71.9 153.5,-71.9"/>
</g>
<!-- funman.model -->
<g id="node4" class="node">
<title>funman.model</title>
<polygon fill="none" stroke="black" points="355,-36 236,-36 236,0 355,0 355,-36"/>
<text text-anchor="middle" x="295.5" y="-14.3" font-family="Times,serif" font-size="14.00">funman.model</text>
</g>
<!-- funman.parameter_space -->
<g id="node5" class="node">
<title>funman.parameter_space</title>
<polygon fill="none" stroke="black" points="570,-36 373,-36 373,0 570,0 570,-36"/>
<text text-anchor="middle" x="471.5" y="-14.3" font-family="Times,serif" font-size="14.00">funman.parameter_space</text>
</g>
<!-- funman.search&#45;&gt;funman.constants -->
<g id="edge4" class="edge">
<title>funman.search&#45;&gt;funman.constants</title>
<path fill="none" stroke="#6ab0de" stroke-width="3" d="M133.97,-108.3C124.12,-117.03 112.01,-127.76 101.3,-137.25"/>
<polygon fill="#6ab0de" stroke="#6ab0de" stroke-width="3" points="93.8,-143.9 98.3,-133.9 96.88,-139.83 100.62,-136.52 101.29,-137.26 101.95,-138.01 98.21,-141.33 104.27,-140.63 93.8,-143.9 93.8,-143.9"/>
</g>
<!-- funman.search&#45;&gt;funman.scenario -->
<g id="edge5" class="edge">
<title>funman.search&#45;&gt;funman.scenario</title>
<path fill="none" stroke="#6ab0de" stroke-width="3" d="M174.26,-108.3C184.74,-117.03 197.61,-127.76 209,-137.25"/>
<polygon fill="#6ab0de" stroke="#6ab0de" stroke-width="3" points="216.97,-143.9 206.41,-140.95 212.49,-141.46 208.65,-138.26 209.29,-137.49 209.93,-136.73 213.77,-139.93 212.17,-134.04 216.97,-143.9 216.97,-143.9"/>
</g>
<!-- funman.simulator -->
<g id="node8" class="node">
<title>funman.simulator</title>
<polygon fill="none" stroke="black" points="731,-36 588,-36 588,0 731,0 731,-36"/>
<text text-anchor="middle" x="659.5" y="-14.3" font-family="Times,serif" font-size="14.00">funman.simulator</text>
</g>
</g>
</svg>
