<?xml version="1.0" encoding="UTF-8" standalone="no"?>
<!DOCTYPE svg PUBLIC "-//W3C//DTD SVG 1.1//EN"
 "http://www.w3.org/Graphics/SVG/1.1/DTD/svg11.dtd">
<!-- Generated by graphviz version 2.43.0 (0)
 -->
<!-- Title: inheritancee593ec16dc Pages: 1 -->
<svg width="381pt" height="192pt"
 viewBox="0.00 0.00 380.50 192.00" xmlns="http://www.w3.org/2000/svg" xmlns:xlink="http://www.w3.org/1999/xlink">
<g id="graph0" class="graph" transform="scale(1 1) rotate(0) translate(4 188)">
<title>inheritancee593ec16dc</title>
<!-- ABC -->
<g id="node1" class="node">
<title>ABC</title>
<g id="a_node1"><a xlink:title="Helper class that provides a standard way to create an ABC using">
<polygon fill="white" stroke="black" stroke-width="0.5" points="158.5,-184 104.5,-184 104.5,-165 158.5,-165 158.5,-184"/>
<text text-anchor="middle" x="131.5" y="-172" font-family="Vera Sans, DejaVu Sans, Liberation Sans, Arial, Helvetica, sans" font-size="10.00">ABC</text>
</a>
</g>
</g>
<!-- AnalysisScenario -->
<g id="node2" class="node">
<title>AnalysisScenario</title>
<g id="a_node2"><a xlink:href="../funman.scenario.html#funman.scenario.scenario.AnalysisScenario" xlink:title="Abstract class for Analysis Scenarios." target="_top">
<polygon fill="white" stroke="black" stroke-width="0.5" points="305.5,-74 205.5,-74 205.5,-55 305.5,-55 305.5,-74"/>
<text text-anchor="middle" x="255.5" y="-62" font-family="Vera Sans, DejaVu Sans, Liberation Sans, Arial, Helvetica, sans" font-size="10.00">AnalysisScenario</text>
</a>
</g>
</g>
<!-- ABC&#45;&gt;AnalysisScenario -->
<g id="edge1" class="edge">
<title>ABC&#45;&gt;AnalysisScenario</title>
<path fill="none" stroke="#6ab0de" stroke-width="3" d="M141.65,-164.66C163.83,-145.34 216.65,-99.33 241.77,-77.45"/>
<polygon fill="#6ab0de" stroke="#6ab0de" stroke-width="3" points="242.94,-78.76 245.56,-74.16 240.64,-76.12 242.94,-78.76"/>
</g>
<!-- AnalysisScenarioResult -->
<g id="node4" class="node">
<title>AnalysisScenarioResult</title>
<g id="a_node4"><a xlink:href="../funman.scenario.html#funman.scenario.scenario.AnalysisScenarioResult" xlink:title="Abstract class for AnalysisScenario result data." target="_top">
<polygon fill="white" stroke="black" stroke-width="0.5" points="160,-129 29,-129 29,-110 160,-110 160,-129"/>
<text text-anchor="middle" x="94.5" y="-117" font-family="Vera Sans, DejaVu Sans, Liberation Sans, Arial, Helvetica, sans" font-size="10.00">AnalysisScenarioResult</text>
</a>
</g>
</g>
<!-- ABC&#45;&gt;AnalysisScenarioResult -->
<g id="edge3" class="edge">
<title>ABC&#45;&gt;AnalysisScenarioResult</title>
<path fill="none" stroke="#6ab0de" stroke-width="3" d="M125.39,-164.75C119.41,-156.18 110.23,-143.03 103.43,-133.3"/>
<polygon fill="#6ab0de" stroke="#6ab0de" stroke-width="3" points="104.79,-132.19 100.5,-129.09 101.92,-134.19 104.79,-132.19"/>
</g>
<!-- ParameterSynthesisScenario -->
<g id="node6" class="node">
<title>ParameterSynthesisScenario</title>
<g id="a_node6"><a xlink:href="../funman.scenario.html#funman.scenario.parameter_synthesis.ParameterSynthesisScenario" xlink:title="Parameter synthesis problem description that identifies the parameters to" target="_top">
<polygon fill="white" stroke="black" stroke-width="0.5" points="372.5,-19 216.5,-19 216.5,0 372.5,0 372.5,-19"/>
<text text-anchor="middle" x="294.5" y="-7" font-family="Vera Sans, DejaVu Sans, Liberation Sans, Arial, Helvetica, sans" font-size="10.00">ParameterSynthesisScenario</text>
</a>
</g>
</g>
<!-- AnalysisScenario&#45;&gt;ParameterSynthesisScenario -->
<g id="edge5" class="edge">
<title>AnalysisScenario&#45;&gt;ParameterSynthesisScenario</title>
<path fill="none" stroke="#6ab0de" stroke-width="3" d="M261.94,-54.75C268.24,-46.18 277.92,-33.03 285.08,-23.3"/>
<polygon fill="#6ab0de" stroke="#6ab0de" stroke-width="3" points="286.63,-24.15 288.18,-19.09 283.81,-22.08 286.63,-24.15"/>
</g>
<!-- BaseModel -->
<g id="node3" class="node">
<title>BaseModel</title>
<polygon fill="white" stroke="black" stroke-width="0.5" points="291,-129 220,-129 220,-110 291,-110 291,-129"/>
<text text-anchor="middle" x="255.5" y="-117" font-family="Vera Sans, DejaVu Sans, Liberation Sans, Arial, Helvetica, sans" font-size="10.00">BaseModel</text>
</g>
<!-- BaseModel&#45;&gt;AnalysisScenario -->
<g id="edge2" class="edge">
<title>BaseModel&#45;&gt;AnalysisScenario</title>
<path fill="none" stroke="#6ab0de" stroke-width="3" d="M255.5,-109.75C255.5,-101.41 255.5,-88.74 255.5,-79.09"/>
<polygon fill="#6ab0de" stroke="#6ab0de" stroke-width="3" points="257.25,-79.09 255.5,-74.09 253.75,-79.09 257.25,-79.09"/>
</g>
<!-- BaseModel&#45;&gt;ParameterSynthesisScenario -->
<g id="edge6" class="edge">
<title>BaseModel&#45;&gt;ParameterSynthesisScenario</title>
<path fill="none" stroke="#6ab0de" stroke-width="3" d="M274.77,-109.9C288.62,-102.55 306.26,-90.54 314.5,-74 322.84,-57.27 312.66,-36.34 304.03,-23.19"/>
<polygon fill="#6ab0de" stroke="#6ab0de" stroke-width="3" points="305.46,-22.18 301.19,-19.04 302.58,-24.16 305.46,-22.18"/>
</g>
<!-- ParameterSynthesisScenarioResult -->
<g id="node7" class="node">
<title>ParameterSynthesisScenarioResult</title>
<g id="a_node7"><a xlink:href="../funman.scenario.html#funman.scenario.parameter_synthesis.ParameterSynthesisScenarioResult" xlink:title="ParameterSynthesisScenario result, which includes the parameter space and" target="_top">
<polygon fill="white" stroke="black" stroke-width="0.5" points="187,-74 0,-74 0,-55 187,-55 187,-74"/>
<text text-anchor="middle" x="93.5" y="-62" font-family="Vera Sans, DejaVu Sans, Liberation Sans, Arial, Helvetica, sans" font-size="10.00">ParameterSynthesisScenarioResult</text>
</a>
</g>
</g>
<!-- BaseModel&#45;&gt;ParameterSynthesisScenarioResult -->
<g id="edge8" class="edge">
<title>BaseModel&#45;&gt;ParameterSynthesisScenarioResult</title>
<path fill="none" stroke="#6ab0de" stroke-width="3" d="M229.47,-109.98C200.98,-100.66 155.3,-85.72 124.86,-75.76"/>
<polygon fill="#6ab0de" stroke="#6ab0de" stroke-width="3" points="125.03,-73.97 119.73,-74.08 123.94,-77.3 125.03,-73.97"/>
</g>
<!-- AnalysisScenarioResult&#45;&gt;ParameterSynthesisScenarioResult -->
<g id="edge7" class="edge">
<title>AnalysisScenarioResult&#45;&gt;ParameterSynthesisScenarioResult</title>
<path fill="none" stroke="#6ab0de" stroke-width="3" d="M94.33,-109.75C94.18,-101.41 93.94,-88.74 93.76,-79.09"/>
<polygon fill="#6ab0de" stroke="#6ab0de" stroke-width="3" points="95.51,-79.06 93.66,-74.09 92.01,-79.12 95.51,-79.06"/>
</g>
<!-- Representation -->
<g id="node5" class="node">
<title>Representation</title>
<g id="a_node5"><a xlink:title="Mixin to provide __str__, __repr__, and __pretty__ methods. See #884 for more details.">
<polygon fill="white" stroke="black" stroke-width="0.5" points="301,-184 210,-184 210,-165 301,-165 301,-184"/>
<text text-anchor="middle" x="255.5" y="-172" font-family="Vera Sans, DejaVu Sans, Liberation Sans, Arial, Helvetica, sans" font-size="10.00">Representation</text>
</a>
</g>
</g>
<!-- Representation&#45;&gt;BaseModel -->
<g id="edge4" class="edge">
<title>Representation&#45;&gt;BaseModel</title>
<path fill="none" stroke="#6ab0de" stroke-width="3" d="M255.5,-164.75C255.5,-156.41 255.5,-143.74 255.5,-134.09"/>
<polygon fill="#6ab0de" stroke="#6ab0de" stroke-width="3" points="257.25,-134.09 255.5,-129.09 253.75,-134.09 257.25,-134.09"/>
</g>
</g>
</svg>
