<?xml version="1.0" encoding="UTF-8" standalone="no"?>
<!DOCTYPE svg PUBLIC "-//W3C//DTD SVG 1.1//EN"
 "http://www.w3.org/Graphics/SVG/1.1/DTD/svg11.dtd">
<!-- Generated by graphviz version 2.43.0 (0)
 -->
<!-- Title: inheritance4b90fd7735 Pages: 1 -->
<svg width="174pt" height="137pt"
 viewBox="0.00 0.00 174.00 137.00" xmlns="http://www.w3.org/2000/svg" xmlns:xlink="http://www.w3.org/1999/xlink">
<g id="graph0" class="graph" transform="scale(1 1) rotate(0) translate(4 133)">
<title>inheritance4b90fd7735</title>
<!-- BaseModel -->
<g id="node1" class="node">
<title>BaseModel</title>
<polygon fill="white" stroke="black" stroke-width="0.5" points="81.5,-74 10.5,-74 10.5,-55 81.5,-55 81.5,-74"/>
<text text-anchor="middle" x="46" y="-62" font-family="Vera Sans, DejaVu Sans, Liberation Sans, Arial, Helvetica, sans" font-size="10.00">BaseModel</text>
</g>
<!-- FUNMANConfig -->
<g id="node3" class="node">
<title>FUNMANConfig</title>
<g id="a_node3"><a xlink:href="../funman.html#funman.funman.FUNMANConfig" xlink:title="Base definition of a configuration object" target="_top">
<polygon fill="white" stroke="black" stroke-width="0.5" points="92,-19 0,-19 0,0 92,0 92,-19"/>
<text text-anchor="middle" x="46" y="-7" font-family="Vera Sans, DejaVu Sans, Liberation Sans, Arial, Helvetica, sans" font-size="10.00">FUNMANConfig</text>
</a>
</g>
</g>
<!-- BaseModel&#45;&gt;FUNMANConfig -->
<g id="edge2" class="edge">
<title>BaseModel&#45;&gt;FUNMANConfig</title>
<path fill="none" stroke="#6ab0de" stroke-width="3" d="M46,-54.75C46,-46.41 46,-33.74 46,-24.09"/>
<polygon fill="#6ab0de" stroke="#6ab0de" stroke-width="3" points="47.75,-24.09 46,-19.09 44.25,-24.09 47.75,-24.09"/>
</g>
<!-- Representation -->
<g id="node2" class="node">
<title>Representation</title>
<g id="a_node2"><a xlink:title="Mixin to provide __str__, __repr__, and __pretty__ methods. See #884 for more details.">
<polygon fill="white" stroke="black" stroke-width="0.5" points="91.5,-129 0.5,-129 0.5,-110 91.5,-110 91.5,-129"/>
<text text-anchor="middle" x="46" y="-117" font-family="Vera Sans, DejaVu Sans, Liberation Sans, Arial, Helvetica, sans" font-size="10.00">Representation</text>
</a>
</g>
</g>
<!-- Representation&#45;&gt;BaseModel -->
<g id="edge1" class="edge">
<title>Representation&#45;&gt;BaseModel</title>
<path fill="none" stroke="#6ab0de" stroke-width="3" d="M46,-109.75C46,-101.41 46,-88.74 46,-79.09"/>
<polygon fill="#6ab0de" stroke="#6ab0de" stroke-width="3" points="47.75,-79.09 46,-74.09 44.25,-79.09 47.75,-79.09"/>
</g>
<!-- Funman -->
<g id="node4" class="node">
<title>Funman</title>
<g id="a_node4"><a xlink:href="../funman.html#funman.funman.Funman" xlink:title="The Funman FUNctional Model ANalysis class is the main entry point for" target="_top">
<polygon fill="white" stroke="black" stroke-width="0.5" points="166,-129 110,-129 110,-110 166,-110 166,-129"/>
<text text-anchor="middle" x="138" y="-117" font-family="Vera Sans, DejaVu Sans, Liberation Sans, Arial, Helvetica, sans" font-size="10.00">Funman</text>
</a>
</g>
</g>
</g>
</svg>
