<?xml version="1.0" encoding="UTF-8" standalone="no"?>
<!DOCTYPE svg PUBLIC "-//W3C//DTD SVG 1.1//EN"
 "http://www.w3.org/Graphics/SVG/1.1/DTD/svg11.dtd">
<!-- Generated by graphviz version 2.43.0 (0)
 -->
<!-- Title: inheritancea8d9b48412 Pages: 1 -->
<svg width="215pt" height="192pt"
 viewBox="0.00 0.00 214.50 192.00" xmlns="http://www.w3.org/2000/svg" xmlns:xlink="http://www.w3.org/1999/xlink">
<g id="graph0" class="graph" transform="scale(1 1) rotate(0) translate(4 188)">
<title>inheritancea8d9b48412</title>
<!-- ABC -->
<g id="node1" class="node">
<title>ABC</title>
<g id="a_node1"><a xlink:title="Helper class that provides a standard way to create an ABC using">
<polygon fill="white" stroke="black" stroke-width="0.5" points="74.5,-129 20.5,-129 20.5,-110 74.5,-110 74.5,-129"/>
<text text-anchor="middle" x="47.5" y="-117" font-family="Vera Sans, DejaVu Sans, Liberation Sans, Arial, Helvetica, sans" font-size="10.00">ABC</text>
</a>
</g>
</g>
<!-- Model -->
<g id="node6" class="node">
<title>Model</title>
<g id="a_node6"><a xlink:href="../funman.model.html#funman.model.model.Model" xlink:title="The abstract base class for Models." target="_top">
<polygon fill="white" stroke="black" stroke-width="0.5" points="74.5,-74 20.5,-74 20.5,-55 74.5,-55 74.5,-74"/>
<text text-anchor="middle" x="47.5" y="-62" font-family="Vera Sans, DejaVu Sans, Liberation Sans, Arial, Helvetica, sans" font-size="10.00">Model</text>
</a>
</g>
</g>
<!-- ABC&#45;&gt;Model -->
<g id="edge4" class="edge">
<title>ABC&#45;&gt;Model</title>
<path fill="none" stroke="#6ab0de" stroke-width="3" d="M47.5,-109.75C47.5,-101.41 47.5,-88.74 47.5,-79.09"/>
<polygon fill="#6ab0de" stroke="#6ab0de" stroke-width="3" points="49.25,-79.09 47.5,-74.09 45.75,-79.09 49.25,-79.09"/>
</g>
<!-- BaseModel -->
<g id="node2" class="node">
<title>BaseModel</title>
<polygon fill="white" stroke="black" stroke-width="0.5" points="174,-129 103,-129 103,-110 174,-110 174,-129"/>
<text text-anchor="middle" x="138.5" y="-117" font-family="Vera Sans, DejaVu Sans, Liberation Sans, Arial, Helvetica, sans" font-size="10.00">BaseModel</text>
</g>
<!-- DecapodeDynamics -->
<g id="node4" class="node">
<title>DecapodeDynamics</title>
<g id="a_node4"><a xlink:href="../funman.model.html#funman.model.decapode.DecapodeDynamics" xlink:title="DecapodeDynamics" target="_top">
<polygon fill="white" stroke="black" stroke-width="0.5" points="206.5,-74 92.5,-74 92.5,-55 206.5,-55 206.5,-74"/>
<text text-anchor="middle" x="149.5" y="-62" font-family="Vera Sans, DejaVu Sans, Liberation Sans, Arial, Helvetica, sans" font-size="10.00">DecapodeDynamics</text>
</a>
</g>
</g>
<!-- BaseModel&#45;&gt;DecapodeDynamics -->
<g id="edge2" class="edge">
<title>BaseModel&#45;&gt;DecapodeDynamics</title>
<path fill="none" stroke="#6ab0de" stroke-width="3" d="M140.32,-109.75C142.05,-101.41 144.68,-88.74 146.68,-79.09"/>
<polygon fill="#6ab0de" stroke="#6ab0de" stroke-width="3" points="148.41,-79.34 147.72,-74.09 144.99,-78.63 148.41,-79.34"/>
</g>
<!-- BaseModel&#45;&gt;Model -->
<g id="edge5" class="edge">
<title>BaseModel&#45;&gt;Model</title>
<path fill="none" stroke="#6ab0de" stroke-width="3" d="M123.88,-109.98C108.45,-101 84.05,-86.79 66.99,-76.85"/>
<polygon fill="#6ab0de" stroke="#6ab0de" stroke-width="3" points="67.59,-75.17 62.39,-74.17 65.83,-78.2 67.59,-75.17"/>
</g>
<!-- Representation -->
<g id="node3" class="node">
<title>Representation</title>
<g id="a_node3"><a xlink:title="Mixin to provide __str__, __repr__, and __pretty__ methods. See #884 for more details.">
<polygon fill="white" stroke="black" stroke-width="0.5" points="184,-184 93,-184 93,-165 184,-165 184,-184"/>
<text text-anchor="middle" x="138.5" y="-172" font-family="Vera Sans, DejaVu Sans, Liberation Sans, Arial, Helvetica, sans" font-size="10.00">Representation</text>
</a>
</g>
</g>
<!-- Representation&#45;&gt;BaseModel -->
<g id="edge1" class="edge">
<title>Representation&#45;&gt;BaseModel</title>
<path fill="none" stroke="#6ab0de" stroke-width="3" d="M138.5,-164.75C138.5,-156.41 138.5,-143.74 138.5,-134.09"/>
<polygon fill="#6ab0de" stroke="#6ab0de" stroke-width="3" points="140.25,-134.09 138.5,-129.09 136.75,-134.09 140.25,-134.09"/>
</g>
<!-- DecapodeModel -->
<g id="node5" class="node">
<title>DecapodeModel</title>
<g id="a_node5"><a xlink:href="../funman.model.html#funman.model.decapode.DecapodeModel" xlink:title="DecapodeModel" target="_top">
<polygon fill="white" stroke="black" stroke-width="0.5" points="95,-19 0,-19 0,0 95,0 95,-19"/>
<text text-anchor="middle" x="47.5" y="-7" font-family="Vera Sans, DejaVu Sans, Liberation Sans, Arial, Helvetica, sans" font-size="10.00">DecapodeModel</text>
</a>
</g>
</g>
<!-- Model&#45;&gt;DecapodeModel -->
<g id="edge3" class="edge">
<title>Model&#45;&gt;DecapodeModel</title>
<path fill="none" stroke="#6ab0de" stroke-width="3" d="M47.5,-54.75C47.5,-46.41 47.5,-33.74 47.5,-24.09"/>
<polygon fill="#6ab0de" stroke="#6ab0de" stroke-width="3" points="49.25,-24.09 47.5,-19.09 45.75,-24.09 49.25,-24.09"/>
</g>
</g>
</svg>
