<?xml version="1.0" encoding="UTF-8" standalone="no"?>
<!DOCTYPE svg PUBLIC "-//W3C//DTD SVG 1.1//EN"
 "http://www.w3.org/Graphics/SVG/1.1/DTD/svg11.dtd">
<!-- Generated by graphviz version 2.43.0 (0)
 -->
<!-- Title: inheritanceb94ee974d4 Pages: 1 -->
<svg width="617pt" height="192pt"
 viewBox="0.00 0.00 616.50 192.00" xmlns="http://www.w3.org/2000/svg" xmlns:xlink="http://www.w3.org/1999/xlink">
<g id="graph0" class="graph" transform="scale(1 1) rotate(0) translate(4 188)">
<title>inheritanceb94ee974d4</title>
<!-- ABC -->
<g id="node1" class="node">
<title>ABC</title>
<g id="a_node1"><a xlink:title="Helper class that provides a standard way to create an ABC using">
<polygon fill="white" stroke="black" stroke-width="0.5" points="315.5,-129 261.5,-129 261.5,-110 315.5,-110 315.5,-129"/>
<text text-anchor="middle" x="288.5" y="-117" font-family="Vera Sans, DejaVu Sans, Liberation Sans, Arial, Helvetica, sans" font-size="10.00">ABC</text>
</a>
</g>
</g>
<!-- Query -->
<g id="node4" class="node">
<title>Query</title>
<g id="a_node4"><a xlink:href="../funman.model.html#funman.model.query.Query" xlink:title="Abstract base class for queries." target="_top">
<polygon fill="white" stroke="black" stroke-width="0.5" points="355.5,-74 301.5,-74 301.5,-55 355.5,-55 355.5,-74"/>
<text text-anchor="middle" x="328.5" y="-62" font-family="Vera Sans, DejaVu Sans, Liberation Sans, Arial, Helvetica, sans" font-size="10.00">Query</text>
</a>
</g>
</g>
<!-- ABC&#45;&gt;Query -->
<g id="edge2" class="edge">
<title>ABC&#45;&gt;Query</title>
<path fill="none" stroke="#6ab0de" stroke-width="3" d="M295.11,-109.75C301.57,-101.18 311.49,-88.03 318.84,-78.3"/>
<polygon fill="#6ab0de" stroke="#6ab0de" stroke-width="3" points="320.4,-79.13 322.02,-74.09 317.61,-77.03 320.4,-79.13"/>
</g>
<!-- BaseModel -->
<g id="node2" class="node">
<title>BaseModel</title>
<polygon fill="white" stroke="black" stroke-width="0.5" points="405,-129 334,-129 334,-110 405,-110 405,-129"/>
<text text-anchor="middle" x="369.5" y="-117" font-family="Vera Sans, DejaVu Sans, Liberation Sans, Arial, Helvetica, sans" font-size="10.00">BaseModel</text>
</g>
<!-- BaseModel&#45;&gt;Query -->
<g id="edge3" class="edge">
<title>BaseModel&#45;&gt;Query</title>
<path fill="none" stroke="#6ab0de" stroke-width="3" d="M362.73,-109.75C356.1,-101.18 345.93,-88.03 338.4,-78.3"/>
<polygon fill="#6ab0de" stroke="#6ab0de" stroke-width="3" points="339.59,-76.97 335.14,-74.09 336.82,-79.11 339.59,-76.97"/>
</g>
<!-- Representation -->
<g id="node3" class="node">
<title>Representation</title>
<g id="a_node3"><a xlink:title="Mixin to provide __str__, __repr__, and __pretty__ methods. See #884 for more details.">
<polygon fill="white" stroke="black" stroke-width="0.5" points="415,-184 324,-184 324,-165 415,-165 415,-184"/>
<text text-anchor="middle" x="369.5" y="-172" font-family="Vera Sans, DejaVu Sans, Liberation Sans, Arial, Helvetica, sans" font-size="10.00">Representation</text>
</a>
</g>
</g>
<!-- Representation&#45;&gt;BaseModel -->
<g id="edge1" class="edge">
<title>Representation&#45;&gt;BaseModel</title>
<path fill="none" stroke="#6ab0de" stroke-width="3" d="M369.5,-164.75C369.5,-156.41 369.5,-143.74 369.5,-134.09"/>
<polygon fill="#6ab0de" stroke="#6ab0de" stroke-width="3" points="371.25,-134.09 369.5,-129.09 367.75,-134.09 371.25,-134.09"/>
</g>
<!-- QueryAnd -->
<g id="node5" class="node">
<title>QueryAnd</title>
<g id="a_node5"><a xlink:href="../funman.model.html#funman.model.query.QueryAnd" xlink:title="Conjunction of queries." target="_top">
<polygon fill="white" stroke="black" stroke-width="0.5" points="65,-19 0,-19 0,0 65,0 65,-19"/>
<text text-anchor="middle" x="32.5" y="-7" font-family="Vera Sans, DejaVu Sans, Liberation Sans, Arial, Helvetica, sans" font-size="10.00">QueryAnd</text>
</a>
</g>
</g>
<!-- Query&#45;&gt;QueryAnd -->
<g id="edge4" class="edge">
<title>Query&#45;&gt;QueryAnd</title>
<path fill="none" stroke="#6ab0de" stroke-width="3" d="M301.28,-59.04C254.59,-51.33 156.27,-34.8 73.5,-19 72.4,-18.79 71.28,-18.57 70.15,-18.35"/>
<polygon fill="#6ab0de" stroke="#6ab0de" stroke-width="3" points="70.4,-16.62 65.16,-17.37 69.72,-20.05 70.4,-16.62"/>
</g>
<!-- QueryEncoded -->
<g id="node6" class="node">
<title>QueryEncoded</title>
<g id="a_node6"><a xlink:href="../funman.model.html#funman.model.query.QueryEncoded" xlink:title="Class to contain a formula that is already encoded by a pysmt FNode." target="_top">
<polygon fill="white" stroke="black" stroke-width="0.5" points="170,-19 83,-19 83,0 170,0 170,-19"/>
<text text-anchor="middle" x="126.5" y="-7" font-family="Vera Sans, DejaVu Sans, Liberation Sans, Arial, Helvetica, sans" font-size="10.00">QueryEncoded</text>
</a>
</g>
</g>
<!-- Query&#45;&gt;QueryEncoded -->
<g id="edge5" class="edge">
<title>Query&#45;&gt;QueryEncoded</title>
<path fill="none" stroke="#6ab0de" stroke-width="3" d="M301.26,-56.35C265.91,-47.08 204.05,-30.85 164.21,-20.39"/>
<polygon fill="#6ab0de" stroke="#6ab0de" stroke-width="3" points="164.26,-18.6 158.98,-19.02 163.37,-21.98 164.26,-18.6"/>
</g>
<!-- QueryEquals -->
<g id="node7" class="node">
<title>QueryEquals</title>
<g id="a_node7"><a xlink:href="../funman.model.html#funman.model.query.QueryEquals" xlink:title="Class to represent a query of the form: var == value, where var is a variable, and value is a constant." target="_top">
<polygon fill="white" stroke="black" stroke-width="0.5" points="266.5,-19 188.5,-19 188.5,0 266.5,0 266.5,-19"/>
<text text-anchor="middle" x="227.5" y="-7" font-family="Vera Sans, DejaVu Sans, Liberation Sans, Arial, Helvetica, sans" font-size="10.00">QueryEquals</text>
</a>
</g>
</g>
<!-- Query&#45;&gt;QueryEquals -->
<g id="edge6" class="edge">
<title>Query&#45;&gt;QueryEquals</title>
<path fill="none" stroke="#6ab0de" stroke-width="3" d="M312.27,-54.98C295,-45.92 267.6,-31.54 248.65,-21.6"/>
<polygon fill="#6ab0de" stroke="#6ab0de" stroke-width="3" points="249.26,-19.94 244.02,-19.17 247.64,-23.04 249.26,-19.94"/>
</g>
<!-- QueryFunction -->
<g id="node8" class="node">
<title>QueryFunction</title>
<g id="a_node8"><a xlink:href="../funman.model.html#funman.model.query.QueryFunction" xlink:title="This query uses a Python function passed to the constructor to evaluate a query on the results of a scenario." target="_top">
<polygon fill="white" stroke="black" stroke-width="0.5" points="372,-19 285,-19 285,0 372,0 372,-19"/>
<text text-anchor="middle" x="328.5" y="-7" font-family="Vera Sans, DejaVu Sans, Liberation Sans, Arial, Helvetica, sans" font-size="10.00">QueryFunction</text>
</a>
</g>
</g>
<!-- Query&#45;&gt;QueryFunction -->
<g id="edge7" class="edge">
<title>Query&#45;&gt;QueryFunction</title>
<path fill="none" stroke="#6ab0de" stroke-width="3" d="M328.5,-54.75C328.5,-46.41 328.5,-33.74 328.5,-24.09"/>
<polygon fill="#6ab0de" stroke="#6ab0de" stroke-width="3" points="330.25,-24.09 328.5,-19.09 326.75,-24.09 330.25,-24.09"/>
</g>
<!-- QueryGE -->
<g id="node9" class="node">
<title>QueryGE</title>
<g id="a_node9"><a xlink:href="../funman.model.html#funman.model.query.QueryGE" xlink:title="Class to represent a query of the form: var &gt;= lb, where var is a variable, and lb is a constant lower bound." target="_top">
<polygon fill="white" stroke="black" stroke-width="0.5" points="449,-19 390,-19 390,0 449,0 449,-19"/>
<text text-anchor="middle" x="419.5" y="-7" font-family="Vera Sans, DejaVu Sans, Liberation Sans, Arial, Helvetica, sans" font-size="10.00">QueryGE</text>
</a>
</g>
</g>
<!-- Query&#45;&gt;QueryGE -->
<g id="edge8" class="edge">
<title>Query&#45;&gt;QueryGE</title>
<path fill="none" stroke="#6ab0de" stroke-width="3" d="M343.12,-54.98C358.55,-46 382.95,-31.79 400.01,-21.85"/>
<polygon fill="#6ab0de" stroke="#6ab0de" stroke-width="3" points="401.17,-23.2 404.61,-19.17 399.41,-20.17 401.17,-23.2"/>
</g>
<!-- QueryLE -->
<g id="node10" class="node">
<title>QueryLE</title>
<g id="a_node10"><a xlink:href="../funman.model.html#funman.model.query.QueryLE" xlink:title="Class to represent a query of the form: var &lt;= ub, where var is a variable, and ub is a constant upper bound." target="_top">
<polygon fill="white" stroke="black" stroke-width="0.5" points="524,-19 467,-19 467,0 524,0 524,-19"/>
<text text-anchor="middle" x="495.5" y="-7" font-family="Vera Sans, DejaVu Sans, Liberation Sans, Arial, Helvetica, sans" font-size="10.00">QueryLE</text>
</a>
</g>
</g>
<!-- Query&#45;&gt;QueryLE -->
<g id="edge9" class="edge">
<title>Query&#45;&gt;QueryLE</title>
<path fill="none" stroke="#6ab0de" stroke-width="3" d="M355.33,-54.98C384.83,-45.62 432.18,-30.6 463.56,-20.64"/>
<polygon fill="#6ab0de" stroke="#6ab0de" stroke-width="3" points="464.22,-22.26 468.46,-19.08 463.16,-18.93 464.22,-22.26"/>
</g>
<!-- QueryTrue -->
<g id="node11" class="node">
<title>QueryTrue</title>
<g id="a_node11"><a xlink:href="../funman.model.html#funman.model.query.QueryTrue" xlink:title="Query that represents logical true. &#160;I.e., this query does not place any additional constraints upon a model." target="_top">
<polygon fill="white" stroke="black" stroke-width="0.5" points="608.5,-19 542.5,-19 542.5,0 608.5,0 608.5,-19"/>
<text text-anchor="middle" x="575.5" y="-7" font-family="Vera Sans, DejaVu Sans, Liberation Sans, Arial, Helvetica, sans" font-size="10.00">QueryTrue</text>
</a>
</g>
</g>
<!-- Query&#45;&gt;QueryTrue -->
<g id="edge10" class="edge">
<title>Query&#45;&gt;QueryTrue</title>
<path fill="none" stroke="#6ab0de" stroke-width="3" d="M355.88,-57.63C399.96,-48.17 486.79,-29.53 537.06,-18.75"/>
<polygon fill="#6ab0de" stroke="#6ab0de" stroke-width="3" points="537.59,-20.42 542.11,-17.66 536.85,-17 537.59,-20.42"/>
</g>
</g>
</svg>
