<?xml version="1.0" encoding="UTF-8" standalone="no"?>
<!DOCTYPE svg PUBLIC "-//W3C//DTD SVG 1.1//EN"
 "http://www.w3.org/Graphics/SVG/1.1/DTD/svg11.dtd">
<!-- Generated by graphviz version 2.43.0 (0)
 -->
<!-- Title: inheritancef8de832965 Pages: 1 -->
<svg width="162pt" height="137pt"
 viewBox="0.00 0.00 161.50 137.00" xmlns="http://www.w3.org/2000/svg" xmlns:xlink="http://www.w3.org/1999/xlink">
<g id="graph0" class="graph" transform="scale(1 1) rotate(0) translate(4 133)">
<title>inheritancef8de832965</title>
<!-- ABC -->
<g id="node1" class="node">
<title>ABC</title>
<g id="a_node1"><a xlink:title="Helper class that provides a standard way to create an ABC using">
<polygon fill="white" stroke="black" stroke-width="0.5" points="54,-74 0,-74 0,-55 54,-55 54,-74"/>
<text text-anchor="middle" x="27" y="-62" font-family="Vera Sans, DejaVu Sans, Liberation Sans, Arial, Helvetica, sans" font-size="10.00">ABC</text>
</a>
</g>
</g>
<!-- Model -->
<g id="node4" class="node">
<title>Model</title>
<g id="a_node4"><a xlink:href="../funman.model.html#funman.model.model.Model" xlink:title="The abstract base class for Models." target="_top">
<polygon fill="white" stroke="black" stroke-width="0.5" points="94,-19 40,-19 40,0 94,0 94,-19"/>
<text text-anchor="middle" x="67" y="-7" font-family="Vera Sans, DejaVu Sans, Liberation Sans, Arial, Helvetica, sans" font-size="10.00">Model</text>
</a>
</g>
</g>
<!-- ABC&#45;&gt;Model -->
<g id="edge2" class="edge">
<title>ABC&#45;&gt;Model</title>
<path fill="none" stroke="#6ab0de" stroke-width="3" d="M33.61,-54.75C40.07,-46.18 49.99,-33.03 57.34,-23.3"/>
<polygon fill="#6ab0de" stroke="#6ab0de" stroke-width="3" points="58.9,-24.13 60.52,-19.09 56.11,-22.03 58.9,-24.13"/>
</g>
<!-- BaseModel -->
<g id="node2" class="node">
<title>BaseModel</title>
<polygon fill="white" stroke="black" stroke-width="0.5" points="143.5,-74 72.5,-74 72.5,-55 143.5,-55 143.5,-74"/>
<text text-anchor="middle" x="108" y="-62" font-family="Vera Sans, DejaVu Sans, Liberation Sans, Arial, Helvetica, sans" font-size="10.00">BaseModel</text>
</g>
<!-- BaseModel&#45;&gt;Model -->
<g id="edge3" class="edge">
<title>BaseModel&#45;&gt;Model</title>
<path fill="none" stroke="#6ab0de" stroke-width="3" d="M101.23,-54.75C94.6,-46.18 84.43,-33.03 76.9,-23.3"/>
<polygon fill="#6ab0de" stroke="#6ab0de" stroke-width="3" points="78.09,-21.97 73.64,-19.09 75.32,-24.11 78.09,-21.97"/>
</g>
<!-- Representation -->
<g id="node3" class="node">
<title>Representation</title>
<g id="a_node3"><a xlink:title="Mixin to provide __str__, __repr__, and __pretty__ methods. See #884 for more details.">
<polygon fill="white" stroke="black" stroke-width="0.5" points="153.5,-129 62.5,-129 62.5,-110 153.5,-110 153.5,-129"/>
<text text-anchor="middle" x="108" y="-117" font-family="Vera Sans, DejaVu Sans, Liberation Sans, Arial, Helvetica, sans" font-size="10.00">Representation</text>
</a>
</g>
</g>
<!-- Representation&#45;&gt;BaseModel -->
<g id="edge1" class="edge">
<title>Representation&#45;&gt;BaseModel</title>
<path fill="none" stroke="#6ab0de" stroke-width="3" d="M108,-109.75C108,-101.41 108,-88.74 108,-79.09"/>
<polygon fill="#6ab0de" stroke="#6ab0de" stroke-width="3" points="109.75,-79.09 108,-74.09 106.25,-79.09 109.75,-79.09"/>
</g>
</g>
</svg>
