<?xml version="1.0" encoding="UTF-8" standalone="no"?>
<!DOCTYPE svg PUBLIC "-//W3C//DTD SVG 1.1//EN"
 "http://www.w3.org/Graphics/SVG/1.1/DTD/svg11.dtd">
<!-- Generated by graphviz version 2.43.0 (0)
 -->
<!-- Title: inheritance9bb791929b Pages: 1 -->
<svg width="230pt" height="192pt"
 viewBox="0.00 0.00 230.00 192.00" xmlns="http://www.w3.org/2000/svg" xmlns:xlink="http://www.w3.org/1999/xlink">
<g id="graph0" class="graph" transform="scale(1 1) rotate(0) translate(4 188)">
<title>inheritance9bb791929b</title>
<!-- ABC -->
<g id="node1" class="node">
<title>ABC</title>
<g id="a_node1"><a xlink:title="Helper class that provides a standard way to create an ABC using">
<polygon fill="white" stroke="black" stroke-width="0.5" points="54,-184 0,-184 0,-165 54,-165 54,-184"/>
<text text-anchor="middle" x="27" y="-172" font-family="Vera Sans, DejaVu Sans, Liberation Sans, Arial, Helvetica, sans" font-size="10.00">ABC</text>
</a>
</g>
</g>
<!-- Search -->
<g id="node4" class="node">
<title>Search</title>
<g id="a_node4"><a xlink:href="../funman.search.html#funman.search.search.Search" xlink:title="Search" target="_top">
<polygon fill="white" stroke="black" stroke-width="0.5" points="54,-129 0,-129 0,-110 54,-110 54,-129"/>
<text text-anchor="middle" x="27" y="-117" font-family="Vera Sans, DejaVu Sans, Liberation Sans, Arial, Helvetica, sans" font-size="10.00">Search</text>
</a>
</g>
</g>
<!-- ABC&#45;&gt;Search -->
<g id="edge2" class="edge">
<title>ABC&#45;&gt;Search</title>
<path fill="none" stroke="#6ab0de" stroke-width="3" d="M27,-164.75C27,-156.41 27,-143.74 27,-134.09"/>
<polygon fill="#6ab0de" stroke="#6ab0de" stroke-width="3" points="28.75,-134.09 27,-129.09 25.25,-134.09 28.75,-134.09"/>
</g>
<!-- BaseModel -->
<g id="node2" class="node">
<title>BaseModel</title>
<polygon fill="white" stroke="black" stroke-width="0.5" points="153.5,-129 82.5,-129 82.5,-110 153.5,-110 153.5,-129"/>
<text text-anchor="middle" x="118" y="-117" font-family="Vera Sans, DejaVu Sans, Liberation Sans, Arial, Helvetica, sans" font-size="10.00">BaseModel</text>
</g>
<!-- SearchEpisode -->
<g id="node5" class="node">
<title>SearchEpisode</title>
<g id="a_node5"><a xlink:href="../funman.search.html#funman.search.search.SearchEpisode" xlink:title="SearchEpisode" target="_top">
<polygon fill="white" stroke="black" stroke-width="0.5" points="107,-74 19,-74 19,-55 107,-55 107,-74"/>
<text text-anchor="middle" x="63" y="-62" font-family="Vera Sans, DejaVu Sans, Liberation Sans, Arial, Helvetica, sans" font-size="10.00">SearchEpisode</text>
</a>
</g>
</g>
<!-- BaseModel&#45;&gt;SearchEpisode -->
<g id="edge3" class="edge">
<title>BaseModel&#45;&gt;SearchEpisode</title>
<path fill="none" stroke="#6ab0de" stroke-width="3" d="M108.92,-109.75C99.87,-101.03 85.89,-87.56 75.74,-77.77"/>
<polygon fill="#6ab0de" stroke="#6ab0de" stroke-width="3" points="76.73,-76.3 71.91,-74.09 74.3,-78.82 76.73,-76.3"/>
</g>
<!-- SearchStatistics -->
<g id="node7" class="node">
<title>SearchStatistics</title>
<g id="a_node7"><a xlink:href="../funman.search.html#funman.search.search.SearchStatistics" xlink:title="SearchStatistics" target="_top">
<polygon fill="white" stroke="black" stroke-width="0.5" points="220.5,-74 125.5,-74 125.5,-55 220.5,-55 220.5,-74"/>
<text text-anchor="middle" x="173" y="-62" font-family="Vera Sans, DejaVu Sans, Liberation Sans, Arial, Helvetica, sans" font-size="10.00">SearchStatistics</text>
</a>
</g>
</g>
<!-- BaseModel&#45;&gt;SearchStatistics -->
<g id="edge5" class="edge">
<title>BaseModel&#45;&gt;SearchStatistics</title>
<path fill="none" stroke="#6ab0de" stroke-width="3" d="M127.08,-109.75C136.13,-101.03 150.11,-87.56 160.26,-77.77"/>
<polygon fill="#6ab0de" stroke="#6ab0de" stroke-width="3" points="161.7,-78.82 164.09,-74.09 159.27,-76.3 161.7,-78.82"/>
</g>
<!-- Representation -->
<g id="node3" class="node">
<title>Representation</title>
<g id="a_node3"><a xlink:title="Mixin to provide __str__, __repr__, and __pretty__ methods. See #884 for more details.">
<polygon fill="white" stroke="black" stroke-width="0.5" points="163.5,-184 72.5,-184 72.5,-165 163.5,-165 163.5,-184"/>
<text text-anchor="middle" x="118" y="-172" font-family="Vera Sans, DejaVu Sans, Liberation Sans, Arial, Helvetica, sans" font-size="10.00">Representation</text>
</a>
</g>
</g>
<!-- Representation&#45;&gt;BaseModel -->
<g id="edge1" class="edge">
<title>Representation&#45;&gt;BaseModel</title>
<path fill="none" stroke="#6ab0de" stroke-width="3" d="M118,-164.75C118,-156.41 118,-143.74 118,-134.09"/>
<polygon fill="#6ab0de" stroke="#6ab0de" stroke-width="3" points="119.75,-134.09 118,-129.09 116.25,-134.09 119.75,-134.09"/>
</g>
<!-- SearchStaticsMP -->
<g id="node6" class="node">
<title>SearchStaticsMP</title>
<g id="a_node6"><a xlink:href="../funman.search.html#funman.search.search.SearchStaticsMP" xlink:title="SearchStaticsMP" target="_top">
<polygon fill="white" stroke="black" stroke-width="0.5" points="222,-19 124,-19 124,0 222,0 222,-19"/>
<text text-anchor="middle" x="173" y="-7" font-family="Vera Sans, DejaVu Sans, Liberation Sans, Arial, Helvetica, sans" font-size="10.00">SearchStaticsMP</text>
</a>
</g>
</g>
<!-- SearchStatistics&#45;&gt;SearchStaticsMP -->
<g id="edge4" class="edge">
<title>SearchStatistics&#45;&gt;SearchStaticsMP</title>
<path fill="none" stroke="#6ab0de" stroke-width="3" d="M173,-54.75C173,-46.41 173,-33.74 173,-24.09"/>
<polygon fill="#6ab0de" stroke="#6ab0de" stroke-width="3" points="174.75,-24.09 173,-19.09 171.25,-24.09 174.75,-24.09"/>
</g>
</g>
</svg>
