<?xml version="1.0" encoding="UTF-8" standalone="no"?>
<!DOCTYPE svg PUBLIC "-//W3C//DTD SVG 1.1//EN"
 "http://www.w3.org/Graphics/SVG/1.1/DTD/svg11.dtd">
<!-- Generated by graphviz version 2.43.0 (0)
 -->
<!-- Title: inheritance6219dd65fa Pages: 1 -->
<svg width="805pt" height="82pt"
 viewBox="0.00 0.00 804.50 82.00" xmlns="http://www.w3.org/2000/svg" xmlns:xlink="http://www.w3.org/1999/xlink">
<g id="graph0" class="graph" transform="scale(1 1) rotate(0) translate(4 78)">
<title>inheritance6219dd65fa</title>
<!-- Bilayer -->
<g id="node1" class="node">
<title>Bilayer</title>
<g id="a_node1"><a xlink:href="../funman.model.html#funman.model.bilayer.Bilayer" xlink:title="Bilayer" target="_top">
<polygon fill="white" stroke="black" stroke-width="0.5" points="54,-19 0,-19 0,0 54,0 54,-19"/>
<text text-anchor="middle" x="27" y="-7" font-family="Vera Sans, DejaVu Sans, Liberation Sans, Arial, Helvetica, sans" font-size="10.00">Bilayer</text>
</a>
</g>
</g>
<!-- BilayerGraph -->
<g id="node2" class="node">
<title>BilayerGraph</title>
<g id="a_node2"><a xlink:href="../funman.model.html#funman.model.bilayer.BilayerGraph" xlink:title="BilayerGraph" target="_top">
<polygon fill="white" stroke="black" stroke-width="0.5" points="120,-74 40,-74 40,-55 120,-55 120,-74"/>
<text text-anchor="middle" x="80" y="-62" font-family="Vera Sans, DejaVu Sans, Liberation Sans, Arial, Helvetica, sans" font-size="10.00">BilayerGraph</text>
</a>
</g>
</g>
<!-- BilayerGraph&#45;&gt;Bilayer -->
<g id="edge1" class="edge">
<title>BilayerGraph&#45;&gt;Bilayer</title>
<path fill="none" stroke="#6ab0de" stroke-width="3" d="M71.25,-54.75C62.53,-46.03 49.06,-32.56 39.27,-22.77"/>
<polygon fill="#6ab0de" stroke="#6ab0de" stroke-width="3" points="40.36,-21.39 35.59,-19.09 37.89,-23.86 40.36,-21.39"/>
</g>
<!-- BilayerMeasurement -->
<g id="node6" class="node">
<title>BilayerMeasurement</title>
<g id="a_node6"><a xlink:href="../funman.model.html#funman.model.bilayer.BilayerMeasurement" xlink:title="BilayerMeasurement" target="_top">
<polygon fill="white" stroke="black" stroke-width="0.5" points="191.5,-19 72.5,-19 72.5,0 191.5,0 191.5,-19"/>
<text text-anchor="middle" x="132" y="-7" font-family="Vera Sans, DejaVu Sans, Liberation Sans, Arial, Helvetica, sans" font-size="10.00">BilayerMeasurement</text>
</a>
</g>
</g>
<!-- BilayerGraph&#45;&gt;BilayerMeasurement -->
<g id="edge3" class="edge">
<title>BilayerGraph&#45;&gt;BilayerMeasurement</title>
<path fill="none" stroke="#6ab0de" stroke-width="3" d="M88.59,-54.75C97.14,-46.03 110.36,-32.56 119.96,-22.77"/>
<polygon fill="#6ab0de" stroke="#6ab0de" stroke-width="3" points="121.32,-23.88 123.57,-19.09 118.82,-21.43 121.32,-23.88"/>
</g>
<!-- BilayerEdge -->
<g id="node3" class="node">
<title>BilayerEdge</title>
<g id="a_node3"><a xlink:href="../funman.model.html#funman.model.bilayer.BilayerEdge" xlink:title="BilayerEdge" target="_top">
<polygon fill="white" stroke="black" stroke-width="0.5" points="373.5,-74 298.5,-74 298.5,-55 373.5,-55 373.5,-74"/>
<text text-anchor="middle" x="336" y="-62" font-family="Vera Sans, DejaVu Sans, Liberation Sans, Arial, Helvetica, sans" font-size="10.00">BilayerEdge</text>
</a>
</g>
</g>
<!-- BilayerNegativeEdge -->
<g id="node9" class="node">
<title>BilayerNegativeEdge</title>
<g id="a_node9"><a xlink:href="../funman.model.html#funman.model.bilayer.BilayerNegativeEdge" xlink:title="BilayerNegativeEdge" target="_top">
<polygon fill="white" stroke="black" stroke-width="0.5" points="328.5,-19 209.5,-19 209.5,0 328.5,0 328.5,-19"/>
<text text-anchor="middle" x="269" y="-7" font-family="Vera Sans, DejaVu Sans, Liberation Sans, Arial, Helvetica, sans" font-size="10.00">BilayerNegativeEdge</text>
</a>
</g>
</g>
<!-- BilayerEdge&#45;&gt;BilayerNegativeEdge -->
<g id="edge5" class="edge">
<title>BilayerEdge&#45;&gt;BilayerNegativeEdge</title>
<path fill="none" stroke="#6ab0de" stroke-width="3" d="M325.24,-54.98C314.07,-46.15 296.52,-32.27 284,-22.36"/>
<polygon fill="#6ab0de" stroke="#6ab0de" stroke-width="3" points="284.97,-20.9 279.96,-19.17 282.8,-23.64 284.97,-20.9"/>
</g>
<!-- BilayerPositiveEdge -->
<g id="node10" class="node">
<title>BilayerPositiveEdge</title>
<g id="a_node10"><a xlink:href="../funman.model.html#funman.model.bilayer.BilayerPositiveEdge" xlink:title="BilayerPositiveEdge" target="_top">
<polygon fill="white" stroke="black" stroke-width="0.5" points="461,-19 347,-19 347,0 461,0 461,-19"/>
<text text-anchor="middle" x="404" y="-7" font-family="Vera Sans, DejaVu Sans, Liberation Sans, Arial, Helvetica, sans" font-size="10.00">BilayerPositiveEdge</text>
</a>
</g>
</g>
<!-- BilayerEdge&#45;&gt;BilayerPositiveEdge -->
<g id="edge6" class="edge">
<title>BilayerEdge&#45;&gt;BilayerPositiveEdge</title>
<path fill="none" stroke="#6ab0de" stroke-width="3" d="M346.93,-54.98C358.26,-46.15 376.07,-32.27 388.78,-22.36"/>
<polygon fill="#6ab0de" stroke="#6ab0de" stroke-width="3" points="390.01,-23.62 392.88,-19.17 387.86,-20.86 390.01,-23.62"/>
</g>
<!-- BilayerFluxNode -->
<g id="node4" class="node">
<title>BilayerFluxNode</title>
<g id="a_node4"><a xlink:href="../funman.model.html#funman.model.bilayer.BilayerFluxNode" xlink:title="BilayerFluxNode" target="_top">
<polygon fill="white" stroke="black" stroke-width="0.5" points="577,-19 479,-19 479,0 577,0 577,-19"/>
<text text-anchor="middle" x="528" y="-7" font-family="Vera Sans, DejaVu Sans, Liberation Sans, Arial, Helvetica, sans" font-size="10.00">BilayerFluxNode</text>
</a>
</g>
</g>
<!-- BilayerNode -->
<g id="node5" class="node">
<title>BilayerNode</title>
<g id="a_node5"><a xlink:href="../funman.model.html#funman.model.bilayer.BilayerNode" xlink:title="BilayerNode" target="_top">
<polygon fill="white" stroke="black" stroke-width="0.5" points="625.5,-74 548.5,-74 548.5,-55 625.5,-55 625.5,-74"/>
<text text-anchor="middle" x="587" y="-62" font-family="Vera Sans, DejaVu Sans, Liberation Sans, Arial, Helvetica, sans" font-size="10.00">BilayerNode</text>
</a>
</g>
</g>
<!-- BilayerNode&#45;&gt;BilayerFluxNode -->
<g id="edge2" class="edge">
<title>BilayerNode&#45;&gt;BilayerFluxNode</title>
<path fill="none" stroke="#6ab0de" stroke-width="3" d="M577.52,-54.98C567.77,-46.23 552.5,-32.51 541.5,-22.62"/>
<polygon fill="#6ab0de" stroke="#6ab0de" stroke-width="3" points="542.54,-21.21 537.65,-19.17 540.2,-23.81 542.54,-21.21"/>
</g>
<!-- BilayerStateNode -->
<g id="node11" class="node">
<title>BilayerStateNode</title>
<g id="a_node11"><a xlink:href="../funman.model.html#funman.model.bilayer.BilayerStateNode" xlink:title="BilayerStateNode" target="_top">
<polygon fill="white" stroke="black" stroke-width="0.5" points="697,-19 595,-19 595,0 697,0 697,-19"/>
<text text-anchor="middle" x="646" y="-7" font-family="Vera Sans, DejaVu Sans, Liberation Sans, Arial, Helvetica, sans" font-size="10.00">BilayerStateNode</text>
</a>
</g>
</g>
<!-- BilayerNode&#45;&gt;BilayerStateNode -->
<g id="edge7" class="edge">
<title>BilayerNode&#45;&gt;BilayerStateNode</title>
<path fill="none" stroke="#6ab0de" stroke-width="3" d="M596.48,-54.98C606.23,-46.23 621.5,-32.51 632.5,-22.62"/>
<polygon fill="#6ab0de" stroke="#6ab0de" stroke-width="3" points="633.8,-23.81 636.35,-19.17 631.46,-21.21 633.8,-23.81"/>
</g>
<!-- BilayerModel -->
<g id="node7" class="node">
<title>BilayerModel</title>
<g id="a_node7"><a xlink:href="../funman.model.html#funman.model.bilayer.BilayerModel" xlink:title="BilayerModel" target="_top">
<polygon fill="white" stroke="black" stroke-width="0.5" points="796.5,-19 715.5,-19 715.5,0 796.5,0 796.5,-19"/>
<text text-anchor="middle" x="756" y="-7" font-family="Vera Sans, DejaVu Sans, Liberation Sans, Arial, Helvetica, sans" font-size="10.00">BilayerModel</text>
</a>
</g>
</g>
<!-- Model -->
<g id="node8" class="node">
<title>Model</title>
<g id="a_node8"><a xlink:href="../funman.model.html#funman.model.Model" xlink:title="Model" target="_top">
<polygon fill="white" stroke="black" stroke-width="0.5" points="783,-74 729,-74 729,-55 783,-55 783,-74"/>
<text text-anchor="middle" x="756" y="-62" font-family="Vera Sans, DejaVu Sans, Liberation Sans, Arial, Helvetica, sans" font-size="10.00">Model</text>
</a>
</g>
</g>
<!-- Model&#45;&gt;BilayerModel -->
<g id="edge4" class="edge">
<title>Model&#45;&gt;BilayerModel</title>
<path fill="none" stroke="#6ab0de" stroke-width="3" d="M756,-54.75C756,-46.41 756,-33.74 756,-24.09"/>
<polygon fill="#6ab0de" stroke="#6ab0de" stroke-width="3" points="757.75,-24.09 756,-19.09 754.25,-24.09 757.75,-24.09"/>
</g>
</g>
</svg>
