<?xml version="1.0" encoding="UTF-8" standalone="no"?>
<!DOCTYPE svg PUBLIC "-//W3C//DTD SVG 1.1//EN"
 "http://www.w3.org/Graphics/SVG/1.1/DTD/svg11.dtd">
<!-- Generated by graphviz version 2.43.0 (0)
 -->
<!-- Title: inheritancec170f47a98 Pages: 1 -->
<svg width="162pt" height="192pt"
 viewBox="0.00 0.00 161.50 192.00" xmlns="http://www.w3.org/2000/svg" xmlns:xlink="http://www.w3.org/1999/xlink">
<g id="graph0" class="graph" transform="scale(1 1) rotate(0) translate(4 188)">
<title>inheritancec170f47a98</title>
<!-- ABC -->
<g id="node1" class="node">
<title>ABC</title>
<g id="a_node1"><a xlink:title="Helper class that provides a standard way to create an ABC using">
<polygon fill="white" stroke="black" stroke-width="0.5" points="54,-129 0,-129 0,-110 54,-110 54,-129"/>
<text text-anchor="middle" x="27" y="-117" font-family="Vera Sans, DejaVu Sans, Liberation Sans, Arial, Helvetica, sans" font-size="10.00">ABC</text>
</a>
</g>
</g>
<!-- Encoder -->
<g id="node5" class="node">
<title>Encoder</title>
<g id="a_node5"><a xlink:href="../funman.translate.html#funman.translate.translate.Encoder" xlink:title="An Encoder translates a Model into an SMTLib formula." target="_top">
<polygon fill="white" stroke="black" stroke-width="0.5" points="95,-74 39,-74 39,-55 95,-55 95,-74"/>
<text text-anchor="middle" x="67" y="-62" font-family="Vera Sans, DejaVu Sans, Liberation Sans, Arial, Helvetica, sans" font-size="10.00">Encoder</text>
</a>
</g>
</g>
<!-- ABC&#45;&gt;Encoder -->
<g id="edge3" class="edge">
<title>ABC&#45;&gt;Encoder</title>
<path fill="none" stroke="#6ab0de" stroke-width="3" d="M33.61,-109.75C40.07,-101.18 49.99,-88.03 57.34,-78.3"/>
<polygon fill="#6ab0de" stroke="#6ab0de" stroke-width="3" points="58.9,-79.13 60.52,-74.09 56.11,-77.03 58.9,-79.13"/>
</g>
<!-- BaseModel -->
<g id="node2" class="node">
<title>BaseModel</title>
<polygon fill="white" stroke="black" stroke-width="0.5" points="143.5,-129 72.5,-129 72.5,-110 143.5,-110 143.5,-129"/>
<text text-anchor="middle" x="108" y="-117" font-family="Vera Sans, DejaVu Sans, Liberation Sans, Arial, Helvetica, sans" font-size="10.00">BaseModel</text>
</g>
<!-- BaseModel&#45;&gt;Encoder -->
<g id="edge4" class="edge">
<title>BaseModel&#45;&gt;Encoder</title>
<path fill="none" stroke="#6ab0de" stroke-width="3" d="M101.23,-109.75C94.6,-101.18 84.43,-88.03 76.9,-78.3"/>
<polygon fill="#6ab0de" stroke="#6ab0de" stroke-width="3" points="78.09,-76.97 73.64,-74.09 75.32,-79.11 78.09,-76.97"/>
</g>
<!-- Representation -->
<g id="node3" class="node">
<title>Representation</title>
<g id="a_node3"><a xlink:title="Mixin to provide __str__, __repr__, and __pretty__ methods. See #884 for more details.">
<polygon fill="white" stroke="black" stroke-width="0.5" points="153.5,-184 62.5,-184 62.5,-165 153.5,-165 153.5,-184"/>
<text text-anchor="middle" x="108" y="-172" font-family="Vera Sans, DejaVu Sans, Liberation Sans, Arial, Helvetica, sans" font-size="10.00">Representation</text>
</a>
</g>
</g>
<!-- Representation&#45;&gt;BaseModel -->
<g id="edge1" class="edge">
<title>Representation&#45;&gt;BaseModel</title>
<path fill="none" stroke="#6ab0de" stroke-width="3" d="M108,-164.75C108,-156.41 108,-143.74 108,-134.09"/>
<polygon fill="#6ab0de" stroke="#6ab0de" stroke-width="3" points="109.75,-134.09 108,-129.09 106.25,-134.09 109.75,-134.09"/>
</g>
<!-- EncodedEncoder -->
<g id="node4" class="node">
<title>EncodedEncoder</title>
<g id="a_node4"><a xlink:href="../funman.translate.html#funman.translate.encoded.EncodedEncoder" xlink:title="An EncodedEncoder assumes that a model has already been encoded as an" target="_top">
<polygon fill="white" stroke="black" stroke-width="0.5" points="115.5,-19 18.5,-19 18.5,0 115.5,0 115.5,-19"/>
<text text-anchor="middle" x="67" y="-7" font-family="Vera Sans, DejaVu Sans, Liberation Sans, Arial, Helvetica, sans" font-size="10.00">EncodedEncoder</text>
</a>
</g>
</g>
<!-- Encoder&#45;&gt;EncodedEncoder -->
<g id="edge2" class="edge">
<title>Encoder&#45;&gt;EncodedEncoder</title>
<path fill="none" stroke="#6ab0de" stroke-width="3" d="M67,-54.75C67,-46.41 67,-33.74 67,-24.09"/>
<polygon fill="#6ab0de" stroke="#6ab0de" stroke-width="3" points="68.75,-24.09 67,-19.09 65.25,-24.09 68.75,-24.09"/>
</g>
</g>
</svg>
