<?xml version="1.0" encoding="UTF-8" standalone="no"?>
<!DOCTYPE svg PUBLIC "-//W3C//DTD SVG 1.1//EN"
 "http://www.w3.org/Graphics/SVG/1.1/DTD/svg11.dtd">
<!-- Generated by graphviz version 2.43.0 (0)
 -->
<!-- Title: inheritance3312274d00 Pages: 1 -->
<svg width="591pt" height="137pt"
 viewBox="0.00 0.00 591.00 137.00" xmlns="http://www.w3.org/2000/svg" xmlns:xlink="http://www.w3.org/1999/xlink">
<g id="graph0" class="graph" transform="scale(1 1) rotate(0) translate(4 133)">
<title>inheritance3312274d00</title>
<!-- ABC -->
<g id="node1" class="node">
<title>ABC</title>
<g id="a_node1"><a xlink:title="Helper class that provides a standard way to create an ABC using">
<polygon fill="white" stroke="black" stroke-width="0.5" points="148.5,-129 94.5,-129 94.5,-110 148.5,-110 148.5,-129"/>
<text text-anchor="middle" x="121.5" y="-117" font-family="Vera Sans, DejaVu Sans, Liberation Sans, Arial, Helvetica, sans" font-size="10.00">ABC</text>
</a>
</g>
</g>
<!-- ResultHandler -->
<g id="node7" class="node">
<title>ResultHandler</title>
<g id="a_node7"><a xlink:href="../funman.html#funman.search_utils.ResultHandler" xlink:title="ResultHandler" target="_top">
<polygon fill="white" stroke="black" stroke-width="0.5" points="110.5,-74 24.5,-74 24.5,-55 110.5,-55 110.5,-74"/>
<text text-anchor="middle" x="67.5" y="-62" font-family="Vera Sans, DejaVu Sans, Liberation Sans, Arial, Helvetica, sans" font-size="10.00">ResultHandler</text>
</a>
</g>
</g>
<!-- ABC&#45;&gt;ResultHandler -->
<g id="edge2" class="edge">
<title>ABC&#45;&gt;ResultHandler</title>
<path fill="none" stroke="#6ab0de" stroke-width="3" d="M112.58,-109.75C103.7,-101.03 89.98,-87.56 80,-77.77"/>
<polygon fill="#6ab0de" stroke="#6ab0de" stroke-width="3" points="81.05,-76.34 76.25,-74.09 78.59,-78.84 81.05,-76.34"/>
</g>
<!-- WaitAction -->
<g id="node10" class="node">
<title>WaitAction</title>
<g id="a_node10"><a xlink:href="../funman.html#funman.search_utils.WaitAction" xlink:title="WaitAction" target="_top">
<polygon fill="white" stroke="black" stroke-width="0.5" points="198,-74 129,-74 129,-55 198,-55 198,-74"/>
<text text-anchor="middle" x="163.5" y="-62" font-family="Vera Sans, DejaVu Sans, Liberation Sans, Arial, Helvetica, sans" font-size="10.00">WaitAction</text>
</a>
</g>
</g>
<!-- ABC&#45;&gt;WaitAction -->
<g id="edge4" class="edge">
<title>ABC&#45;&gt;WaitAction</title>
<path fill="none" stroke="#6ab0de" stroke-width="3" d="M128.44,-109.75C135.29,-101.1 145.83,-87.8 153.57,-78.03"/>
<polygon fill="#6ab0de" stroke="#6ab0de" stroke-width="3" points="154.96,-79.09 156.69,-74.09 152.22,-76.92 154.96,-79.09"/>
</g>
<!-- Box -->
<g id="node2" class="node">
<title>Box</title>
<g id="a_node2"><a xlink:href="../funman.html#funman.search_utils.Box" xlink:title="Box" target="_top">
<polygon fill="white" stroke="black" stroke-width="0.5" points="242.5,-129 188.5,-129 188.5,-110 242.5,-110 242.5,-129"/>
<text text-anchor="middle" x="215.5" y="-117" font-family="Vera Sans, DejaVu Sans, Liberation Sans, Arial, Helvetica, sans" font-size="10.00">Box</text>
</a>
</g>
</g>
<!-- Config -->
<g id="node3" class="node">
<title>Config</title>
<g id="a_node3"><a xlink:href="../funman.html#funman.config.Config" xlink:title="Config" target="_top">
<polygon fill="white" stroke="black" stroke-width="0.5" points="325.5,-129 271.5,-129 271.5,-110 325.5,-110 325.5,-129"/>
<text text-anchor="middle" x="298.5" y="-117" font-family="Vera Sans, DejaVu Sans, Liberation Sans, Arial, Helvetica, sans" font-size="10.00">Config</text>
</a>
</g>
</g>
<!-- SearchConfig -->
<g id="node8" class="node">
<title>SearchConfig</title>
<g id="a_node8"><a xlink:href="../funman.html#funman.search_utils.SearchConfig" xlink:title="SearchConfig" target="_top">
<polygon fill="white" stroke="black" stroke-width="0.5" points="338.5,-74 258.5,-74 258.5,-55 338.5,-55 338.5,-74"/>
<text text-anchor="middle" x="298.5" y="-62" font-family="Vera Sans, DejaVu Sans, Liberation Sans, Arial, Helvetica, sans" font-size="10.00">SearchConfig</text>
</a>
</g>
</g>
<!-- Config&#45;&gt;SearchConfig -->
<g id="edge3" class="edge">
<title>Config&#45;&gt;SearchConfig</title>
<path fill="none" stroke="#6ab0de" stroke-width="3" d="M298.5,-109.75C298.5,-101.41 298.5,-88.74 298.5,-79.09"/>
<polygon fill="#6ab0de" stroke="#6ab0de" stroke-width="3" points="300.25,-79.09 298.5,-74.09 296.75,-79.09 300.25,-79.09"/>
</g>
<!-- Interval -->
<g id="node4" class="node">
<title>Interval</title>
<g id="a_node4"><a xlink:href="../funman.html#funman.search_utils.Interval" xlink:title="Interval" target="_top">
<polygon fill="white" stroke="black" stroke-width="0.5" points="397.5,-129 343.5,-129 343.5,-110 397.5,-110 397.5,-129"/>
<text text-anchor="middle" x="370.5" y="-117" font-family="Vera Sans, DejaVu Sans, Liberation Sans, Arial, Helvetica, sans" font-size="10.00">Interval</text>
</a>
</g>
</g>
<!-- Point -->
<g id="node5" class="node">
<title>Point</title>
<g id="a_node5"><a xlink:href="../funman.html#funman.search_utils.Point" xlink:title="Point" target="_top">
<polygon fill="white" stroke="black" stroke-width="0.5" points="469.5,-129 415.5,-129 415.5,-110 469.5,-110 469.5,-129"/>
<text text-anchor="middle" x="442.5" y="-117" font-family="Vera Sans, DejaVu Sans, Liberation Sans, Arial, Helvetica, sans" font-size="10.00">Point</text>
</a>
</g>
</g>
<!-- ResultCombinedHandler -->
<g id="node6" class="node">
<title>ResultCombinedHandler</title>
<g id="a_node6"><a xlink:href="../funman.html#funman.search_utils.ResultCombinedHandler" xlink:title="ResultCombinedHandler" target="_top">
<polygon fill="white" stroke="black" stroke-width="0.5" points="135,-19 0,-19 0,0 135,0 135,-19"/>
<text text-anchor="middle" x="67.5" y="-7" font-family="Vera Sans, DejaVu Sans, Liberation Sans, Arial, Helvetica, sans" font-size="10.00">ResultCombinedHandler</text>
</a>
</g>
</g>
<!-- ResultHandler&#45;&gt;ResultCombinedHandler -->
<g id="edge1" class="edge">
<title>ResultHandler&#45;&gt;ResultCombinedHandler</title>
<path fill="none" stroke="#6ab0de" stroke-width="3" d="M67.5,-54.75C67.5,-46.41 67.5,-33.74 67.5,-24.09"/>
<polygon fill="#6ab0de" stroke="#6ab0de" stroke-width="3" points="69.25,-24.09 67.5,-19.09 65.75,-24.09 69.25,-24.09"/>
</g>
<!-- SearchStatistics -->
<g id="node9" class="node">
<title>SearchStatistics</title>
<g id="a_node9"><a xlink:href="../funman.html#funman.search_utils.SearchStatistics" xlink:title="SearchStatistics" target="_top">
<polygon fill="white" stroke="black" stroke-width="0.5" points="583,-129 488,-129 488,-110 583,-110 583,-129"/>
<text text-anchor="middle" x="535.5" y="-117" font-family="Vera Sans, DejaVu Sans, Liberation Sans, Arial, Helvetica, sans" font-size="10.00">SearchStatistics</text>
</a>
</g>
</g>
</g>
</svg>
