<?xml version="1.0" encoding="UTF-8" standalone="no"?>
<!DOCTYPE svg PUBLIC "-//W3C//DTD SVG 1.1//EN"
 "http://www.w3.org/Graphics/SVG/1.1/DTD/svg11.dtd">
<!-- Generated by graphviz version 2.43.0 (0)
 -->
<!-- Title: inheritance6db54c3cc2 Pages: 1 -->
<svg width="250pt" height="137pt"
 viewBox="0.00 0.00 250.00 137.00" xmlns="http://www.w3.org/2000/svg" xmlns:xlink="http://www.w3.org/1999/xlink">
<g id="graph0" class="graph" transform="scale(1 1) rotate(0) translate(4 133)">
<title>inheritance6db54c3cc2</title>
<!-- ABC -->
<g id="node1" class="node">
<title>ABC</title>
<g id="a_node1"><a xlink:title="Helper class that provides a standard way to create an ABC using">
<polygon fill="white" stroke="black" stroke-width="0.5" points="145.5,-129 91.5,-129 91.5,-110 145.5,-110 145.5,-129"/>
<text text-anchor="middle" x="118.5" y="-117" font-family="Vera Sans, DejaVu Sans, Liberation Sans, Arial, Helvetica, sans" font-size="10.00">ABC</text>
</a>
</g>
</g>
<!-- SearchEpisode -->
<g id="node3" class="node">
<title>SearchEpisode</title>
<g id="a_node3"><a xlink:href="../funman.html#funman.search_episode.SearchEpisode" xlink:title="SearchEpisode" target="_top">
<polygon fill="white" stroke="black" stroke-width="0.5" points="162.5,-74 74.5,-74 74.5,-55 162.5,-55 162.5,-74"/>
<text text-anchor="middle" x="118.5" y="-62" font-family="Vera Sans, DejaVu Sans, Liberation Sans, Arial, Helvetica, sans" font-size="10.00">SearchEpisode</text>
</a>
</g>
</g>
<!-- ABC&#45;&gt;SearchEpisode -->
<g id="edge3" class="edge">
<title>ABC&#45;&gt;SearchEpisode</title>
<path fill="none" stroke="#6ab0de" stroke-width="3" d="M118.5,-109.75C118.5,-101.41 118.5,-88.74 118.5,-79.09"/>
<polygon fill="#6ab0de" stroke="#6ab0de" stroke-width="3" points="120.25,-79.09 118.5,-74.09 116.75,-79.09 120.25,-79.09"/>
</g>
<!-- BoxSearchEpisode -->
<g id="node2" class="node">
<title>BoxSearchEpisode</title>
<g id="a_node2"><a xlink:href="../funman.html#funman.search_episode.BoxSearchEpisode" xlink:title="BoxSearchEpisode" target="_top">
<polygon fill="white" stroke="black" stroke-width="0.5" points="107,-19 0,-19 0,0 107,0 107,-19"/>
<text text-anchor="middle" x="53.5" y="-7" font-family="Vera Sans, DejaVu Sans, Liberation Sans, Arial, Helvetica, sans" font-size="10.00">BoxSearchEpisode</text>
</a>
</g>
</g>
<!-- SearchEpisode&#45;&gt;BoxSearchEpisode -->
<g id="edge1" class="edge">
<title>SearchEpisode&#45;&gt;BoxSearchEpisode</title>
<path fill="none" stroke="#6ab0de" stroke-width="3" d="M108.06,-54.98C97.22,-46.15 80.2,-32.27 68.05,-22.36"/>
<polygon fill="#6ab0de" stroke="#6ab0de" stroke-width="3" points="69.11,-20.97 64.13,-19.17 66.9,-23.69 69.11,-20.97"/>
</g>
<!-- DRealSearchEpisode -->
<g id="node4" class="node">
<title>DRealSearchEpisode</title>
<g id="a_node4"><a xlink:href="../funman.html#funman.search_episode.DRealSearchEpisode" xlink:title="DRealSearchEpisode" target="_top">
<polygon fill="white" stroke="black" stroke-width="0.5" points="242,-19 125,-19 125,0 242,0 242,-19"/>
<text text-anchor="middle" x="183.5" y="-7" font-family="Vera Sans, DejaVu Sans, Liberation Sans, Arial, Helvetica, sans" font-size="10.00">DRealSearchEpisode</text>
</a>
</g>
</g>
<!-- SearchEpisode&#45;&gt;DRealSearchEpisode -->
<g id="edge2" class="edge">
<title>SearchEpisode&#45;&gt;DRealSearchEpisode</title>
<path fill="none" stroke="#6ab0de" stroke-width="3" d="M128.94,-54.98C139.78,-46.15 156.8,-32.27 168.95,-22.36"/>
<polygon fill="#6ab0de" stroke="#6ab0de" stroke-width="3" points="170.1,-23.69 172.87,-19.17 167.89,-20.97 170.1,-23.69"/>
</g>
</g>
</svg>
