<?xml version="1.0" encoding="UTF-8" standalone="no"?>
<!DOCTYPE svg PUBLIC "-//W3C//DTD SVG 1.1//EN"
 "http://www.w3.org/Graphics/SVG/1.1/DTD/svg11.dtd">
<!-- Generated by graphviz version 2.43.0 (0)
 -->
<!-- Title: inheritancec9126c6ad4 Pages: 1 -->
<svg width="175pt" height="137pt"
 viewBox="0.00 0.00 175.00 137.00" xmlns="http://www.w3.org/2000/svg" xmlns:xlink="http://www.w3.org/1999/xlink">
<g id="graph0" class="graph" transform="scale(1 1) rotate(0) translate(4 133)">
<title>inheritancec9126c6ad4</title>
<!-- BoxSearch -->
<g id="node1" class="node">
<title>BoxSearch</title>
<g id="a_node1"><a xlink:href="../funman.html#funman.search.BoxSearch" xlink:title="BoxSearch" target="_top">
<polygon fill="white" stroke="black" stroke-width="0.5" points="81.5,-74 13.5,-74 13.5,-55 81.5,-55 81.5,-74"/>
<text text-anchor="middle" x="47.5" y="-62" font-family="Vera Sans, DejaVu Sans, Liberation Sans, Arial, Helvetica, sans" font-size="10.00">BoxSearch</text>
</a>
</g>
</g>
<!-- DrealBoxSearch -->
<g id="node3" class="node">
<title>DrealBoxSearch</title>
<g id="a_node3"><a xlink:href="../funman.html#funman.search.DrealBoxSearch" xlink:title="DrealBoxSearch" target="_top">
<polygon fill="white" stroke="black" stroke-width="0.5" points="95,-19 0,-19 0,0 95,0 95,-19"/>
<text text-anchor="middle" x="47.5" y="-7" font-family="Vera Sans, DejaVu Sans, Liberation Sans, Arial, Helvetica, sans" font-size="10.00">DrealBoxSearch</text>
</a>
</g>
</g>
<!-- BoxSearch&#45;&gt;DrealBoxSearch -->
<g id="edge2" class="edge">
<title>BoxSearch&#45;&gt;DrealBoxSearch</title>
<path fill="none" stroke="#6ab0de" stroke-width="3" d="M47.5,-54.75C47.5,-46.41 47.5,-33.74 47.5,-24.09"/>
<polygon fill="#6ab0de" stroke="#6ab0de" stroke-width="3" points="49.25,-24.09 47.5,-19.09 45.75,-24.09 49.25,-24.09"/>
</g>
<!-- Search -->
<g id="node2" class="node">
<title>Search</title>
<g id="a_node2"><a xlink:href="../funman.html#funman.search.Search" xlink:title="Search" target="_top">
<polygon fill="white" stroke="black" stroke-width="0.5" points="117.5,-129 63.5,-129 63.5,-110 117.5,-110 117.5,-129"/>
<text text-anchor="middle" x="90.5" y="-117" font-family="Vera Sans, DejaVu Sans, Liberation Sans, Arial, Helvetica, sans" font-size="10.00">Search</text>
</a>
</g>
</g>
<!-- Search&#45;&gt;BoxSearch -->
<g id="edge1" class="edge">
<title>Search&#45;&gt;BoxSearch</title>
<path fill="none" stroke="#6ab0de" stroke-width="3" d="M83.4,-109.75C76.39,-101.1 65.59,-87.8 57.67,-78.03"/>
<polygon fill="#6ab0de" stroke="#6ab0de" stroke-width="3" points="58.98,-76.87 54.47,-74.09 56.26,-79.07 58.98,-76.87"/>
</g>
<!-- SMTCheck -->
<g id="node4" class="node">
<title>SMTCheck</title>
<g id="a_node4"><a xlink:href="../funman.html#funman.search.SMTCheck" xlink:title="SMTCheck" target="_top">
<polygon fill="white" stroke="black" stroke-width="0.5" points="167,-74 100,-74 100,-55 167,-55 167,-74"/>
<text text-anchor="middle" x="133.5" y="-62" font-family="Vera Sans, DejaVu Sans, Liberation Sans, Arial, Helvetica, sans" font-size="10.00">SMTCheck</text>
</a>
</g>
</g>
<!-- Search&#45;&gt;SMTCheck -->
<g id="edge3" class="edge">
<title>Search&#45;&gt;SMTCheck</title>
<path fill="none" stroke="#6ab0de" stroke-width="3" d="M97.6,-109.75C104.61,-101.1 115.41,-87.8 123.33,-78.03"/>
<polygon fill="#6ab0de" stroke="#6ab0de" stroke-width="3" points="124.74,-79.07 126.53,-74.09 122.02,-76.87 124.74,-79.07"/>
</g>
</g>
</svg>
