<?xml version="1.0" encoding="UTF-8" standalone="no"?>
<!DOCTYPE svg PUBLIC "-//W3C//DTD SVG 1.1//EN"
 "http://www.w3.org/Graphics/SVG/1.1/DTD/svg11.dtd">
<!-- Generated by graphviz version 2.43.0 (0)
 -->
<!-- Title: inheritance8a36b9cba3 Pages: 1 -->
<svg width="406pt" height="137pt"
 viewBox="0.00 0.00 406.00 137.00" xmlns="http://www.w3.org/2000/svg" xmlns:xlink="http://www.w3.org/1999/xlink">
<g id="graph0" class="graph" transform="scale(1 1) rotate(0) translate(4 133)">
<title>inheritance8a36b9cba3</title>
<!-- BaseModel -->
<g id="node1" class="node">
<title>BaseModel</title>
<polygon fill="white" stroke="black" stroke-width="0.5" points="213.5,-74 142.5,-74 142.5,-55 213.5,-55 213.5,-74"/>
<text text-anchor="middle" x="178" y="-62" font-family="Vera Sans, DejaVu Sans, Liberation Sans, Arial, Helvetica, sans" font-size="10.00">BaseModel</text>
</g>
<!-- Box -->
<g id="node3" class="node">
<title>Box</title>
<g id="a_node3"><a xlink:href="../funman.representation.html#funman.representation.representation.Box" xlink:title="A Box maps n parameters to intervals, representing an n&#45;dimensional connected open subset of R^n." target="_top">
<polygon fill="white" stroke="black" stroke-width="0.5" points="54,-19 0,-19 0,0 54,0 54,-19"/>
<text text-anchor="middle" x="27" y="-7" font-family="Vera Sans, DejaVu Sans, Liberation Sans, Arial, Helvetica, sans" font-size="10.00">Box</text>
</a>
</g>
</g>
<!-- BaseModel&#45;&gt;Box -->
<g id="edge2" class="edge">
<title>BaseModel&#45;&gt;Box</title>
<path fill="none" stroke="#6ab0de" stroke-width="3" d="M153.74,-54.98C127.26,-45.69 84.86,-30.81 56.48,-20.85"/>
<polygon fill="#6ab0de" stroke="#6ab0de" stroke-width="3" points="57,-19.18 51.7,-19.17 55.84,-22.48 57,-19.18"/>
</g>
<!-- Interval -->
<g id="node4" class="node">
<title>Interval</title>
<g id="a_node4"><a xlink:href="../funman.representation.html#funman.representation.representation.Interval" xlink:title="An interval is a pair [lb, ub) that is open (i.e., an interval specifies all points x where lb &lt;= x and ub &lt; x)." target="_top">
<polygon fill="white" stroke="black" stroke-width="0.5" points="126,-19 72,-19 72,0 126,0 126,-19"/>
<text text-anchor="middle" x="99" y="-7" font-family="Vera Sans, DejaVu Sans, Liberation Sans, Arial, Helvetica, sans" font-size="10.00">Interval</text>
</a>
</g>
</g>
<!-- BaseModel&#45;&gt;Interval -->
<g id="edge3" class="edge">
<title>BaseModel&#45;&gt;Interval</title>
<path fill="none" stroke="#6ab0de" stroke-width="3" d="M165.31,-54.98C152.03,-46.07 131.09,-32.03 116.3,-22.11"/>
<polygon fill="#6ab0de" stroke="#6ab0de" stroke-width="3" points="117.05,-20.5 111.92,-19.17 115.1,-23.41 117.05,-20.5"/>
</g>
<!-- Parameter -->
<g id="node5" class="node">
<title>Parameter</title>
<g id="a_node5"><a xlink:href="../funman.representation.html#funman.representation.representation.Parameter" xlink:title="A parameter is a free variable for a Model. &#160;It has the following attributes:" target="_top">
<polygon fill="white" stroke="black" stroke-width="0.5" points="211.5,-19 144.5,-19 144.5,0 211.5,0 211.5,-19"/>
<text text-anchor="middle" x="178" y="-7" font-family="Vera Sans, DejaVu Sans, Liberation Sans, Arial, Helvetica, sans" font-size="10.00">Parameter</text>
</a>
</g>
</g>
<!-- BaseModel&#45;&gt;Parameter -->
<g id="edge4" class="edge">
<title>BaseModel&#45;&gt;Parameter</title>
<path fill="none" stroke="#6ab0de" stroke-width="3" d="M178,-54.75C178,-46.41 178,-33.74 178,-24.09"/>
<polygon fill="#6ab0de" stroke="#6ab0de" stroke-width="3" points="179.75,-24.09 178,-19.09 176.25,-24.09 179.75,-24.09"/>
</g>
<!-- ParameterSpace -->
<g id="node6" class="node">
<title>ParameterSpace</title>
<g id="a_node6"><a xlink:href="../funman.representation.html#funman.representation.representation.ParameterSpace" xlink:title="This class defines the representation of the parameter space that can be" target="_top">
<polygon fill="white" stroke="black" stroke-width="0.5" points="326,-19 230,-19 230,0 326,0 326,-19"/>
<text text-anchor="middle" x="278" y="-7" font-family="Vera Sans, DejaVu Sans, Liberation Sans, Arial, Helvetica, sans" font-size="10.00">ParameterSpace</text>
</a>
</g>
</g>
<!-- BaseModel&#45;&gt;ParameterSpace -->
<g id="edge5" class="edge">
<title>BaseModel&#45;&gt;ParameterSpace</title>
<path fill="none" stroke="#6ab0de" stroke-width="3" d="M194.07,-54.98C211.17,-45.92 238.3,-31.54 257.06,-21.6"/>
<polygon fill="#6ab0de" stroke="#6ab0de" stroke-width="3" points="258.04,-23.06 261.64,-19.17 256.4,-19.97 258.04,-23.06"/>
</g>
<!-- Point -->
<g id="node7" class="node">
<title>Point</title>
<g id="a_node7"><a xlink:href="../funman.representation.html#funman.representation.representation.Point" xlink:title="Point" target="_top">
<polygon fill="white" stroke="black" stroke-width="0.5" points="398,-19 344,-19 344,0 398,0 398,-19"/>
<text text-anchor="middle" x="371" y="-7" font-family="Vera Sans, DejaVu Sans, Liberation Sans, Arial, Helvetica, sans" font-size="10.00">Point</text>
</a>
</g>
</g>
<!-- BaseModel&#45;&gt;Point -->
<g id="edge6" class="edge">
<title>BaseModel&#45;&gt;Point</title>
<path fill="none" stroke="#6ab0de" stroke-width="3" d="M209.01,-54.98C244.56,-45.22 302.55,-29.3 338.65,-19.38"/>
<polygon fill="#6ab0de" stroke="#6ab0de" stroke-width="3" points="339.45,-20.98 343.81,-17.97 338.53,-17.6 339.45,-20.98"/>
</g>
<!-- Representation -->
<g id="node2" class="node">
<title>Representation</title>
<g id="a_node2"><a xlink:title="Mixin to provide __str__, __repr__, and __pretty__ methods. See #884 for more details.">
<polygon fill="white" stroke="black" stroke-width="0.5" points="223.5,-129 132.5,-129 132.5,-110 223.5,-110 223.5,-129"/>
<text text-anchor="middle" x="178" y="-117" font-family="Vera Sans, DejaVu Sans, Liberation Sans, Arial, Helvetica, sans" font-size="10.00">Representation</text>
</a>
</g>
</g>
<!-- Representation&#45;&gt;BaseModel -->
<g id="edge1" class="edge">
<title>Representation&#45;&gt;BaseModel</title>
<path fill="none" stroke="#6ab0de" stroke-width="3" d="M178,-109.75C178,-101.41 178,-88.74 178,-79.09"/>
<polygon fill="#6ab0de" stroke="#6ab0de" stroke-width="3" points="179.75,-79.09 178,-74.09 176.25,-79.09 179.75,-79.09"/>
</g>
</g>
</svg>
