<?xml version="1.0" encoding="UTF-8" standalone="no"?>
<!DOCTYPE svg PUBLIC "-//W3C//DTD SVG 1.1//EN"
 "http://www.w3.org/Graphics/SVG/1.1/DTD/svg11.dtd">
<!-- Generated by graphviz version 2.43.0 (0)
 -->
<!-- Title: inheritance3340c1ffed Pages: 1 -->
<svg width="295pt" height="192pt"
 viewBox="0.00 0.00 295.00 192.00" xmlns="http://www.w3.org/2000/svg" xmlns:xlink="http://www.w3.org/1999/xlink">
<g id="graph0" class="graph" transform="scale(1 1) rotate(0) translate(4 188)">
<title>inheritance3340c1ffed</title>
<!-- ABC -->
<g id="node1" class="node">
<title>ABC</title>
<g id="a_node1"><a xlink:title="Helper class that provides a standard way to create an ABC using">
<polygon fill="white" stroke="black" stroke-width="0.5" points="71,-129 17,-129 17,-110 71,-110 71,-129"/>
<text text-anchor="middle" x="44" y="-117" font-family="Vera Sans, DejaVu Sans, Liberation Sans, Arial, Helvetica, sans" font-size="10.00">ABC</text>
</a>
</g>
</g>
<!-- Encoder -->
<g id="node5" class="node">
<title>Encoder</title>
<g id="a_node5"><a xlink:href="../funman.translate.html#funman.translate.translate.Encoder" xlink:title="An Encoder translates a Model into an SMTLib formula." target="_top">
<polygon fill="white" stroke="black" stroke-width="0.5" points="74,-74 18,-74 18,-55 74,-55 74,-74"/>
<text text-anchor="middle" x="46" y="-62" font-family="Vera Sans, DejaVu Sans, Liberation Sans, Arial, Helvetica, sans" font-size="10.00">Encoder</text>
</a>
</g>
</g>
<!-- ABC&#45;&gt;Encoder -->
<g id="edge3" class="edge">
<title>ABC&#45;&gt;Encoder</title>
<path fill="none" stroke="#6ab0de" stroke-width="3" d="M44.33,-109.75C44.64,-101.41 45.12,-88.74 45.49,-79.09"/>
<polygon fill="#6ab0de" stroke="#6ab0de" stroke-width="3" points="47.24,-79.15 45.68,-74.09 43.74,-79.02 47.24,-79.15"/>
</g>
<!-- BaseModel -->
<g id="node2" class="node">
<title>BaseModel</title>
<polygon fill="white" stroke="black" stroke-width="0.5" points="160.5,-129 89.5,-129 89.5,-110 160.5,-110 160.5,-129"/>
<text text-anchor="middle" x="125" y="-117" font-family="Vera Sans, DejaVu Sans, Liberation Sans, Arial, Helvetica, sans" font-size="10.00">BaseModel</text>
</g>
<!-- BaseModel&#45;&gt;Encoder -->
<g id="edge4" class="edge">
<title>BaseModel&#45;&gt;Encoder</title>
<path fill="none" stroke="#6ab0de" stroke-width="3" d="M112.31,-109.98C99.03,-101.07 78.09,-87.03 63.3,-77.11"/>
<polygon fill="#6ab0de" stroke="#6ab0de" stroke-width="3" points="64.05,-75.5 58.92,-74.17 62.1,-78.41 64.05,-75.5"/>
</g>
<!-- Encoding -->
<g id="node6" class="node">
<title>Encoding</title>
<g id="a_node6"><a xlink:href="../funman.translate.html#funman.translate.translate.Encoding" xlink:title="An encoding comprises a formula over a set of symbols." target="_top">
<polygon fill="white" stroke="black" stroke-width="0.5" points="155.5,-74 94.5,-74 94.5,-55 155.5,-55 155.5,-74"/>
<text text-anchor="middle" x="125" y="-62" font-family="Vera Sans, DejaVu Sans, Liberation Sans, Arial, Helvetica, sans" font-size="10.00">Encoding</text>
</a>
</g>
</g>
<!-- BaseModel&#45;&gt;Encoding -->
<g id="edge5" class="edge">
<title>BaseModel&#45;&gt;Encoding</title>
<path fill="none" stroke="#6ab0de" stroke-width="3" d="M125,-109.75C125,-101.41 125,-88.74 125,-79.09"/>
<polygon fill="#6ab0de" stroke="#6ab0de" stroke-width="3" points="126.75,-79.09 125,-74.09 123.25,-79.09 126.75,-79.09"/>
</g>
<!-- Representation -->
<g id="node3" class="node">
<title>Representation</title>
<g id="a_node3"><a xlink:title="Mixin to provide __str__, __repr__, and __pretty__ methods. See #884 for more details.">
<polygon fill="white" stroke="black" stroke-width="0.5" points="170.5,-184 79.5,-184 79.5,-165 170.5,-165 170.5,-184"/>
<text text-anchor="middle" x="125" y="-172" font-family="Vera Sans, DejaVu Sans, Liberation Sans, Arial, Helvetica, sans" font-size="10.00">Representation</text>
</a>
</g>
</g>
<!-- Representation&#45;&gt;BaseModel -->
<g id="edge1" class="edge">
<title>Representation&#45;&gt;BaseModel</title>
<path fill="none" stroke="#6ab0de" stroke-width="3" d="M125,-164.75C125,-156.41 125,-143.74 125,-134.09"/>
<polygon fill="#6ab0de" stroke="#6ab0de" stroke-width="3" points="126.75,-134.09 125,-129.09 123.25,-134.09 126.75,-134.09"/>
</g>
<!-- DefaultEncoder -->
<g id="node4" class="node">
<title>DefaultEncoder</title>
<g id="a_node4"><a xlink:href="../funman.translate.html#funman.translate.translate.DefaultEncoder" xlink:title="The DefaultEncoder will not actually encode a model as SMT. &#160;It is used to provide an Encoder for SimulatorModel objects, but the encoder will not be used." target="_top">
<polygon fill="white" stroke="black" stroke-width="0.5" points="92,-19 0,-19 0,0 92,0 92,-19"/>
<text text-anchor="middle" x="46" y="-7" font-family="Vera Sans, DejaVu Sans, Liberation Sans, Arial, Helvetica, sans" font-size="10.00">DefaultEncoder</text>
</a>
</g>
</g>
<!-- Encoder&#45;&gt;DefaultEncoder -->
<g id="edge2" class="edge">
<title>Encoder&#45;&gt;DefaultEncoder</title>
<path fill="none" stroke="#6ab0de" stroke-width="3" d="M46,-54.75C46,-46.41 46,-33.74 46,-24.09"/>
<polygon fill="#6ab0de" stroke="#6ab0de" stroke-width="3" points="47.75,-24.09 46,-19.09 44.25,-24.09 47.75,-24.09"/>
</g>
<!-- EncodingOptions -->
<g id="node7" class="node">
<title>EncodingOptions</title>
<g id="a_node7"><a xlink:href="../funman.translate.html#funman.translate.translate.EncodingOptions" xlink:title="EncodingOptions" target="_top">
<polygon fill="white" stroke="black" stroke-width="0.5" points="287,-184 189,-184 189,-165 287,-165 287,-184"/>
<text text-anchor="middle" x="238" y="-172" font-family="Vera Sans, DejaVu Sans, Liberation Sans, Arial, Helvetica, sans" font-size="10.00">EncodingOptions</text>
</a>
</g>
</g>
</g>
</svg>
