<?xml version="1.0" encoding="UTF-8" standalone="no"?>
<!DOCTYPE svg PUBLIC "-//W3C//DTD SVG 1.1//EN"
 "http://www.w3.org/Graphics/SVG/1.1/DTD/svg11.dtd">
<!-- Generated by graphviz version 2.43.0 (0)
 -->
<!-- Title: inheritancedbecf596d5 Pages: 1 -->
<svg width="91pt" height="137pt"
 viewBox="0.00 0.00 91.00 137.00" xmlns="http://www.w3.org/2000/svg" xmlns:xlink="http://www.w3.org/1999/xlink">
<g id="graph0" class="graph" transform="scale(1 1) rotate(0) translate(4 133)">
<title>inheritancedbecf596d5</title>
<!-- CannedModel -->
<g id="node1" class="node">
<title>CannedModel</title>
<g id="a_node1"><a xlink:href="../funman.model.html#funman.model.CannedModel" xlink:title="CannedModel" target="_top">
<polygon fill="white" stroke="black" stroke-width="0.5" points="83,-74 0,-74 0,-55 83,-55 83,-74"/>
<text text-anchor="middle" x="41.5" y="-62" font-family="Vera Sans, DejaVu Sans, Liberation Sans, Arial, Helvetica, sans" font-size="10.00">CannedModel</text>
</a>
</g>
</g>
<!-- ChimeModel -->
<g id="node3" class="node">
<title>ChimeModel</title>
<g id="a_node3"><a xlink:href="../funman.model.html#funman.model.chime.ChimeModel" xlink:title="ChimeModel" target="_top">
<polygon fill="white" stroke="black" stroke-width="0.5" points="80.5,-19 2.5,-19 2.5,0 80.5,0 80.5,-19"/>
<text text-anchor="middle" x="41.5" y="-7" font-family="Vera Sans, DejaVu Sans, Liberation Sans, Arial, Helvetica, sans" font-size="10.00">ChimeModel</text>
</a>
</g>
</g>
<!-- CannedModel&#45;&gt;ChimeModel -->
<g id="edge2" class="edge">
<title>CannedModel&#45;&gt;ChimeModel</title>
<path fill="none" stroke="#6ab0de" stroke-width="3" d="M41.5,-54.75C41.5,-46.41 41.5,-33.74 41.5,-24.09"/>
<polygon fill="#6ab0de" stroke="#6ab0de" stroke-width="3" points="43.25,-24.09 41.5,-19.09 39.75,-24.09 43.25,-24.09"/>
</g>
<!-- Model -->
<g id="node2" class="node">
<title>Model</title>
<g id="a_node2"><a xlink:href="../funman.model.html#funman.model.Model" xlink:title="Model" target="_top">
<polygon fill="white" stroke="black" stroke-width="0.5" points="68.5,-129 14.5,-129 14.5,-110 68.5,-110 68.5,-129"/>
<text text-anchor="middle" x="41.5" y="-117" font-family="Vera Sans, DejaVu Sans, Liberation Sans, Arial, Helvetica, sans" font-size="10.00">Model</text>
</a>
</g>
</g>
<!-- Model&#45;&gt;CannedModel -->
<g id="edge1" class="edge">
<title>Model&#45;&gt;CannedModel</title>
<path fill="none" stroke="#6ab0de" stroke-width="3" d="M41.5,-109.75C41.5,-101.41 41.5,-88.74 41.5,-79.09"/>
<polygon fill="#6ab0de" stroke="#6ab0de" stroke-width="3" points="43.25,-79.09 41.5,-74.09 39.75,-79.09 43.25,-79.09"/>
</g>
</g>
</svg>
