<?xml version="1.0" encoding="UTF-8" standalone="no"?>
<!DOCTYPE svg PUBLIC "-//W3C//DTD SVG 1.1//EN"
 "http://www.w3.org/Graphics/SVG/1.1/DTD/svg11.dtd">
<!-- Generated by graphviz version 2.43.0 (0)
 -->
<!-- Title: inheritance31c9dba6dc Pages: 1 -->
<svg width="165pt" height="83pt"
 viewBox="0.00 0.00 164.50 83.05" xmlns="http://www.w3.org/2000/svg" xmlns:xlink="http://www.w3.org/1999/xlink">
<g id="graph0" class="graph" transform="scale(1 1) rotate(0) translate(4 79.05)">
<title>inheritance31c9dba6dc</title>
<!-- Config -->
<g id="node1" class="node">
<title>Config</title>
<polygon fill="white" stroke="black" stroke-width="0.5" points="66.5,-74 12.5,-74 12.5,-55 66.5,-55 66.5,-74"/>
<text text-anchor="middle" x="39.5" y="-62" font-family="Vera Sans, DejaVu Sans, Liberation Sans, Arial, Helvetica, sans" font-size="10.00">Config</text>
</g>
<!-- ServerConfig -->
<g id="node3" class="node">
<title>ServerConfig</title>
<g id="a_node3"><a xlink:href="../funman.api.html#funman.api.server.ServerConfig" xlink:title="Server configuration" target="_top">
<polygon fill="white" stroke="black" stroke-width="0.5" points="79,-19 0,-19 0,0 79,0 79,-19"/>
<text text-anchor="middle" x="39.5" y="-7" font-family="Vera Sans, DejaVu Sans, Liberation Sans, Arial, Helvetica, sans" font-size="10.00">ServerConfig</text>
</a>
</g>
</g>
<!-- Config&#45;&gt;ServerConfig -->
<g id="edge2" class="edge">
<title>Config&#45;&gt;ServerConfig</title>
<path fill="none" stroke="#6ab0de" stroke-width="3" d="M39.5,-54.75C39.5,-46.41 39.5,-33.74 39.5,-24.09"/>
<polygon fill="#6ab0de" stroke="#6ab0de" stroke-width="3" points="41.25,-24.09 39.5,-19.09 37.75,-24.09 41.25,-24.09"/>
</g>
<!-- Server -->
<g id="node2" class="node">
<title>Server</title>
<g id="a_node2"><a xlink:href="../funman.api.html#funman.api.server.Server" xlink:title="Uvicorn server object" target="_top">
<polygon fill="white" stroke="black" stroke-width="0.5" points="138.5,-74 84.5,-74 84.5,-55 138.5,-55 138.5,-74"/>
<text text-anchor="middle" x="111.5" y="-62" font-family="Vera Sans, DejaVu Sans, Liberation Sans, Arial, Helvetica, sans" font-size="10.00">Server</text>
</a>
</g>
</g>
<!-- Server&#45;&gt;Server -->
<g id="edge1" class="edge">
<title>Server&#45;&gt;Server</title>
<path fill="none" stroke="#6ab0de" stroke-width="3" d="M132.8,-74.07C145.07,-76.02 156.5,-72.83 156.5,-64.5 156.5,-57.34 148.06,-53.98 137.9,-54.41"/>
<polygon fill="#6ab0de" stroke="#6ab0de" stroke-width="3" points="137.59,-52.68 132.8,-54.93 137.95,-56.17 137.59,-52.68"/>
</g>
</g>
</svg>
