<?xml version="1.0" encoding="UTF-8" standalone="no"?>
<!DOCTYPE svg PUBLIC "-//W3C//DTD SVG 1.1//EN"
 "http://www.w3.org/Graphics/SVG/1.1/DTD/svg11.dtd">
<!-- Generated by graphviz version 2.43.0 (0)
 -->
<!-- Title: inheritancecbf47dd271 Pages: 1 -->
<svg width="75pt" height="137pt"
 viewBox="0.00 0.00 75.00 137.00" xmlns="http://www.w3.org/2000/svg" xmlns:xlink="http://www.w3.org/1999/xlink">
<g id="graph0" class="graph" transform="scale(1 1) rotate(0) translate(4 133)">
<title>inheritancecbf47dd271</title>
<!-- ABC -->
<g id="node1" class="node">
<title>ABC</title>
<g id="a_node1"><a xlink:title="Helper class that provides a standard way to create an ABC using">
<polygon fill="white" stroke="black" stroke-width="0.5" points="60.5,-129 6.5,-129 6.5,-110 60.5,-110 60.5,-129"/>
<text text-anchor="middle" x="33.5" y="-117" font-family="Vera Sans, DejaVu Sans, Liberation Sans, Arial, Helvetica, sans" font-size="10.00">ABC</text>
</a>
</g>
</g>
<!-- Search -->
<g id="node3" class="node">
<title>Search</title>
<g id="a_node3"><a xlink:href="../funman.search.html#funman.search.search.Search" xlink:title="Search" target="_top">
<polygon fill="white" stroke="black" stroke-width="0.5" points="60.5,-74 6.5,-74 6.5,-55 60.5,-55 60.5,-74"/>
<text text-anchor="middle" x="33.5" y="-62" font-family="Vera Sans, DejaVu Sans, Liberation Sans, Arial, Helvetica, sans" font-size="10.00">Search</text>
</a>
</g>
</g>
<!-- ABC&#45;&gt;Search -->
<g id="edge2" class="edge">
<title>ABC&#45;&gt;Search</title>
<path fill="none" stroke="#6ab0de" stroke-width="3" d="M33.5,-109.75C33.5,-101.41 33.5,-88.74 33.5,-79.09"/>
<polygon fill="#6ab0de" stroke="#6ab0de" stroke-width="3" points="35.25,-79.09 33.5,-74.09 31.75,-79.09 35.25,-79.09"/>
</g>
<!-- SMTCheck -->
<g id="node2" class="node">
<title>SMTCheck</title>
<g id="a_node2"><a xlink:href="../funman.search.html#funman.search.smt_check.SMTCheck" xlink:title="SMTCheck" target="_top">
<polygon fill="white" stroke="black" stroke-width="0.5" points="67,-19 0,-19 0,0 67,0 67,-19"/>
<text text-anchor="middle" x="33.5" y="-7" font-family="Vera Sans, DejaVu Sans, Liberation Sans, Arial, Helvetica, sans" font-size="10.00">SMTCheck</text>
</a>
</g>
</g>
<!-- Search&#45;&gt;SMTCheck -->
<g id="edge1" class="edge">
<title>Search&#45;&gt;SMTCheck</title>
<path fill="none" stroke="#6ab0de" stroke-width="3" d="M33.5,-54.75C33.5,-46.41 33.5,-33.74 33.5,-24.09"/>
<polygon fill="#6ab0de" stroke="#6ab0de" stroke-width="3" points="35.25,-24.09 33.5,-19.09 31.75,-24.09 35.25,-24.09"/>
</g>
</g>
</svg>
